<svg width="150" height="170" viewBox="0 0 150 170" fill="none" xmlns="http://www.w3.org/2000/svg">
<path d="M73.0348 0.0880492C86.3898 -1.27445 83.8823 13.498 83.5773 22.0855C87.4448 18.8805 91.5398 13.013 96.7173 12.738C99.0598 12.608 101.357 13.408 103.11 14.968C105.057 16.718 105.942 19.038 106.03 21.618C106.21 26.9455 100.217 31.1956 96.7798 34.5906C92.4698 38.8456 87.9123 42.7555 83.7073 47.0805C83.3573 53.948 83.8373 61.933 83.5898 69.0705C89.9423 65.6805 97.3023 61.398 103.467 57.728C103.5 57.5305 103.532 57.333 103.565 57.138C104.197 53.708 105.175 49.6105 105.912 46.0705C107.185 40.6205 107.757 34.8005 109.797 29.583C111.302 25.7305 115.897 23.813 119.767 24.708C122.102 25.273 124.117 26.7405 125.37 28.7905C127.905 32.9305 125.392 40.358 124.24 45.0205C129.58 42.3205 136.412 36.488 141.957 37.803C144.305 38.368 146.33 39.8455 147.582 41.9105C148.82 43.9955 149.19 46.483 148.612 48.8355C147.26 54.178 138.097 57.8555 133.222 60.9155C138.277 62.3705 145.787 63.1556 148.385 67.6506C149.675 69.9081 149.997 72.5931 149.275 75.0906C148.592 77.4031 146.937 79.4855 144.807 80.6055C140.822 82.703 135.307 80.2005 131.3 78.953L113.412 73.2205C111.08 74.0455 95.4273 83.1705 93.0548 84.898C99.2248 87.7705 106.66 92.8505 113 96.203C118.782 94.1855 124.592 92.248 130.43 90.398C133.03 89.563 137.947 87.8405 140.462 87.6105C141.867 87.4705 143.287 87.7131 144.567 88.3106C146.717 89.3006 148.282 91.2456 149.037 93.4656C149.882 95.9306 149.645 98.638 148.382 100.921C145.772 105.696 138.277 106.868 133.145 108.323C139.512 112.336 152.962 116.391 147.897 126.511C146.797 128.698 144.837 130.331 142.487 131.018C136.692 132.746 129.762 127.011 124.407 124.023C125.235 127.816 126.297 131.948 126.517 135.818C126.92 142.951 119.275 147.128 113.215 143.763C110.387 142.196 109.555 139.818 108.827 136.858C106.807 128.596 105.627 119.811 103.162 111.696C97.3823 107.978 89.6248 103.821 83.5698 100.356C83.5173 107.811 83.6098 115.266 83.8398 122.716L97.5298 135.626C100.68 138.643 106.002 142.791 106.245 147.323C106.362 149.766 105.477 152.151 103.795 153.923C102.047 155.766 99.6098 156.791 97.0723 156.753C91.8598 156.656 87.2173 151.006 83.5948 147.411C83.6423 152.036 83.9498 157.216 83.5248 161.816C83.2273 165.071 81.0098 167.051 78.2998 168.591C70.6698 171.133 65.6898 165.898 65.7673 158.566C65.8073 154.726 65.6573 150.918 65.8198 147.058C62.1723 150.606 58.2373 156.758 52.6673 156.826C47.6823 156.886 43.1923 152.651 43.4248 147.553C43.4848 146.271 43.7773 144.523 44.5298 143.356C50.6498 136.351 58.8798 129.211 65.4848 122.871C65.9048 116.978 65.5898 106.691 65.5773 100.458C59.9673 104.146 51.9173 108.463 45.8523 112.186L42.4573 128.086C41.7098 131.748 41.0548 136.456 39.7748 139.803C36.2148 149.111 21.8148 145.118 22.7398 135.431C23.0923 131.726 24.1398 128.133 24.8023 124.518C19.8998 127.198 13.1648 132.586 7.72229 131.213C5.36979 130.601 3.37229 129.056 2.18979 126.936C1.02479 124.846 0.734794 122.383 1.38229 120.081C2.89479 114.883 11.8348 111.046 16.6023 108.336C16.2773 108.256 15.9523 108.176 15.6273 108.093C8.78729 106.353 -2.51022 104.026 0.71228 93.763C3.67478 84.3405 13.1673 88.613 19.8298 90.728C25.4398 92.4655 31.0173 94.313 36.5548 96.268C39.0498 95.1005 42.5498 92.8455 45.0173 91.383L56.5223 84.7156C50.7048 81.2006 42.6523 76.4181 36.7523 73.2156C31.2323 74.5831 24.8823 77.053 19.3298 78.6455C16.0773 79.578 12.1398 81.213 8.77478 81.3905C7.45728 81.4605 6.14729 81.188 4.96729 80.6005C0.342285 78.3205 -1.36272 72.168 1.17978 67.8255C3.85978 63.2455 11.9023 62.3005 16.7623 60.9855C11.9373 58.048 2.88479 54.7581 1.15479 49.0606C-0.162715 44.7181 2.94227 38.733 7.54977 37.8155C13.1198 36.7055 20.1348 42.268 24.7798 45.1455C23.8948 40.2455 21.3798 33.703 23.8498 29.1005C26.7023 22.9855 37.4748 22.813 39.6073 29.3055C42.5048 38.1205 43.6073 48.2605 45.9323 57.323C49.8548 60.3855 61.0448 66.3531 65.6048 68.9031C65.6398 61.5756 65.6148 54.248 65.5248 46.9205C64.4273 45.703 61.9673 43.5505 60.6623 42.303L50.4123 32.4605C48.8598 30.963 46.1298 28.448 44.9773 26.753C44.2048 25.623 43.7098 24.328 43.5348 22.9705C42.8298 17.803 46.0248 13.403 51.2548 12.8805C56.8873 12.318 61.6473 18.528 65.7348 21.798C65.5898 18.758 65.6673 15.653 65.6098 12.613C65.4948 6.57804 66.4723 1.92055 73.0348 0.0880492Z" fill="#4A5961"/>
<path d="M71.0023 46.7431C70.9923 46.6631 70.9848 46.5856 70.9748 46.5056C70.2873 41.6381 52.7972 29.3431 49.5497 23.6181C48.8597 22.4006 48.5123 20.9306 49.3698 19.6981C49.9273 18.9031 50.7822 18.3656 51.7422 18.2106C56.1847 17.5031 66.2623 32.0081 70.0398 31.9656C70.6498 31.4731 70.7322 31.0481 70.8222 30.2756C71.4247 25.1356 71.0123 19.4931 70.9748 14.3006C70.9623 12.3906 70.7847 10.3281 71.1097 8.44307C71.2422 7.68057 71.5148 6.88807 72.1298 6.37557C72.9273 5.71057 74.2423 5.19308 75.2898 5.29558C75.9948 5.36308 76.6023 5.74558 77.0398 6.29558C80.2173 10.2831 76.5548 31.0131 79.4698 32.2856C82.9973 31.3706 90.4847 21.9856 93.8372 19.7331C95.0197 18.9356 97.8847 17.2856 99.2072 18.4256C104.117 22.6556 95.3172 28.7606 92.7097 31.1581C89.5272 34.1356 86.3648 37.1331 83.2223 40.1531C81.5723 41.7331 78.2622 44.2856 78.3547 46.6556C78.4522 50.8631 77.9822 75.1731 79.1072 76.5456C79.2772 76.7531 79.3022 76.6881 79.6147 76.6706C82.9247 76.4956 104.612 63.1431 108.495 60.4756C109.652 53.9331 110.96 47.4181 112.417 40.9356C113.005 38.2556 113.435 35.2381 114.4 32.6781C114.752 31.7506 115.19 30.8456 116.032 30.2681C116.682 29.8231 117.447 29.6656 118.215 29.8356C119.32 30.0781 120.207 30.8181 120.742 31.8056C122.74 35.4856 116.18 51.2731 118.29 54.0031C121.287 54.2406 135.237 44.1856 139.145 43.2031C141.547 42.5981 143.64 44.3231 143.29 46.8006C143.085 48.2681 141.855 49.4781 140.657 50.2106C136.967 52.5806 133.105 54.7231 129.325 56.9531C127.355 58.1181 125.11 59.2406 123.38 60.7356C122.777 61.2556 122.91 61.1781 122.725 61.8906C123.172 62.9256 124.182 63.3281 125.18 63.7231C129.252 65.3381 142.287 67.7231 144.005 71.1781C144.39 71.9531 144.39 72.8006 144.072 73.5981C143.705 74.5156 143.135 75.2956 142.177 75.6231C137.632 77.1781 115.55 66.7281 112.182 67.5681C109.137 68.3281 99.3698 74.9306 96.1298 76.8456C94.0923 78.0506 85.9222 82.2906 84.9597 84.0081C84.7172 84.4406 84.7773 84.6381 84.7773 85.1181C85.7998 87.2081 95.8697 92.5181 98.3847 93.9131C102.507 96.2006 108.245 100.133 112.557 101.678C117.155 100.443 140.112 91.9956 142.42 93.4356C143.282 93.9756 144.2 95.1056 144.382 96.1281C144.53 96.9531 144.215 97.6756 143.702 98.3081C140.147 102.676 123.765 103.816 122.182 107.533C122.83 109.583 140.755 117.841 142.847 120.741C145.092 123.853 141.245 127.011 137.65 125.648C134.93 124.621 119.807 114.041 118.04 115.223C116.437 120.263 124.1 137.218 119.192 139.476C118.467 139.811 117.5 139.616 116.812 139.286C115.332 138.578 114.425 137.133 113.957 135.611C113.442 133.931 113.257 132.041 112.895 130.316L110.072 117.223C109.592 114.968 108.872 110.988 108.175 108.988C105.76 106.868 81.9097 92.5856 79.5472 92.4856L78.9348 92.8231C78.2548 95.2156 78.1823 121.246 78.4398 124.766C85.0723 131.686 92.7547 138.346 99.6397 145.033C101.18 146.528 101.002 148.898 99.3823 150.383C98.7848 150.933 97.9822 151.206 97.1722 151.136C92.0072 150.733 82.7772 136.961 79.2372 137.313C77.5047 138.726 78.6623 150.588 78.3798 153.296C78.1923 155.088 78.7423 157.741 78.2798 159.666C77.9748 163.153 74.6023 165.883 72.0673 162.381C69.4848 158.806 72.7222 139.488 70.1672 137.178C69.2822 137.051 68.7322 137.418 68.0547 137.931C63.8047 141.146 58.5498 147.923 54.5373 150.346C53.6373 150.888 52.5997 151.356 51.5222 151.171C50.6772 151.026 50.0348 150.483 49.5698 149.786C49.0473 149.006 48.5072 148.026 48.7597 147.061C49.7347 143.351 67.4498 129.768 70.8198 124.821C70.8948 121.153 71.0697 94.2631 70.4247 92.7331C69.8797 92.4681 69.6748 92.4731 69.0923 92.6581C65.6698 93.7531 44.5823 106.223 41.2848 108.831C39.0198 115.838 38.1098 123.868 36.3498 131.061C35.6498 133.928 35.7348 141.156 30.5323 139.601C29.7373 139.368 29.0748 138.823 28.6948 138.088C26.8373 134.411 33.3147 117.901 31.0772 115.411C27.6372 115.066 15.7673 124.441 12.2573 125.418C4.39476 127.606 5.08226 120.186 11.3148 117.483C13.7998 116.408 26.2773 109.026 26.7498 107.598C25.7223 104.033 7.12724 102.358 5.48474 97.5881C5.09224 96.4506 6.06724 94.0731 6.98224 93.9681C13.8397 93.1706 22.4748 97.7156 29.2523 99.2156C32.1948 99.8681 35.2023 101.008 37.3148 101.808C40.2698 100.341 64.4073 86.7231 65.4023 84.8756C64.2348 82.6006 46.9073 72.7781 43.7523 70.9856C41.2598 69.4956 39.6773 68.5981 37.0323 67.3956C28.3773 69.6356 19.9773 73.2231 11.2448 75.4031C6.33975 76.6281 2.31224 72.9106 7.00974 69.4156C10.1747 67.0581 24.9272 65.4206 26.6097 61.9306C25.7597 58.8206 7.70225 51.4156 6.49475 47.4856C6.21725 46.5781 6.34974 45.5931 6.85974 44.7931C10.5822 38.8856 27.5473 54.7906 30.9623 54.0981C33.5023 51.4831 26.6773 35.2156 28.4673 31.5181C29.2648 29.8706 34.1972 28.4156 35.0122 32.6506C35.4997 35.1831 36.4373 38.4531 36.9948 41.0106C38.3573 47.4431 39.6772 53.8856 40.9497 60.3356C42.5897 61.9531 45.7623 63.6206 47.8473 65.1031C51.9773 67.2631 55.9472 69.6456 59.9847 71.9531C62.0372 73.1256 67.6548 76.8631 69.8198 76.4781C70.3998 75.9656 70.5498 75.6656 70.6198 74.8381C71.3673 65.8756 70.1673 55.9431 70.9723 47.0656L71.0023 46.7431Z" fill="#A0B3B9"/>
</svg>
