<svg width="110" height="126" viewBox="0 0 110 126" fill="none" xmlns="http://www.w3.org/2000/svg">
<path d="M0 0H110V126H0V0Z" fill="#EFE7D5"/>
<path d="M100.753 58.8883C101.285 58.8723 101.77 58.934 102.284 59.0719C103.382 59.3663 104.586 60.049 105.16 61.0647C105.434 61.5491 105.607 62.293 105.407 62.8313C104.495 65.2845 89.6748 77.5282 86.6742 79.5502C82.0033 82.6979 76.7151 85.1878 71.7722 87.9016C68.716 89.5794 65.6977 91.6223 62.5122 93.0128C61.1601 93.603 59.6791 94.0465 58.1994 94.126C52.7729 94.4174 40.0642 89.5458 34.431 87.8573C31.6049 87.01 28.4409 85.8713 25.4571 86.3593C21.211 87.0536 16.9935 89.5646 13.141 91.4311C10.2029 84.9762 7.30211 78.5045 4.43916 72.0162L20.9276 63.6044C26.0603 60.9144 31.1734 60.3967 36.8481 61.058C43.3974 61.8212 47.0111 64.8619 52.7347 66.9977C57.4462 68.4899 62.3503 68.8864 67.2215 69.7247C69.9803 70.1995 77.2898 71.1573 76.4323 75.481C75.5228 80.0672 70.0036 79.5651 66.5023 79.2953C61.7421 78.9285 56.9698 78.2099 52.2256 77.618C49.4436 77.3039 45.8961 77.7416 43.3362 78.7469C42.966 78.8975 42.9393 79.2863 42.8873 79.6094C43.0288 79.8139 43.0588 79.9264 43.3114 79.9942C44.6574 80.3563 46.8998 79.3194 48.3024 79.0951C49.0143 78.9812 49.8006 79.0083 50.5209 79.0276C56.272 79.1816 70.193 82.7513 74.9682 79.9877C76.324 79.203 77.4856 77.8286 77.885 76.2998C78.2669 74.8373 77.9519 73.3439 77.198 72.0601C78.9379 70.7457 82.6043 68.7112 84.5699 67.6059C89.2341 64.9834 95.6389 59.8541 100.753 58.8883Z" fill="#85956D"/>
<path d="M78.098 14.3469C78.4281 14.37 78.7829 14.3886 79.0947 14.5095C80.2608 14.9615 86.9925 22.4768 87.4652 23.6878C87.6429 24.1427 87.7217 24.6526 87.4914 25.1053C86.9908 26.0893 84.0906 29.0171 83.0422 29.2345C82.4347 29.3604 81.7254 28.7337 81.1237 28.9206C80.865 30.2082 81.7087 34.8666 81.5707 36.5332C81.6235 38.0175 80.9112 38.6863 79.8516 39.6188C75.5021 43.4463 71.1657 47.2377 66.8988 51.1617L59.4007 58.0716C57.9944 59.3691 56.6017 60.7142 55.1007 61.8973C54.4735 62.4605 53.0525 62.3677 52.3614 61.907C51.4081 61.2716 50.3959 59.9963 49.5993 59.1212L42.1142 50.8235C40.7162 49.2715 39.2822 47.7624 38.0104 46.1067C36.9425 44.7165 37.0789 43.5409 38.325 42.3781C42.2748 38.6926 46.511 35.3327 50.5072 31.6972C53.2128 29.2229 55.8989 26.7272 58.5652 24.2105C60.1071 22.7633 62.6969 20.2349 64.3776 19.1197C67.0672 19.3361 70.7099 20.1795 73.3869 20.7389C73.6574 20.1509 73.0969 19.7533 73.276 18.6682C73.9063 17.4547 76.8821 15.074 78.098 14.3469Z" fill="#B75C34"/>
<path d="M71.5224 23.3164C73.8868 22.2648 76.0535 21.0785 78.1887 19.6316C78.882 19.1618 79.5231 19.217 80.1949 19.7209L80.233 20.0176L80.0251 20.1386L79.3313 19.6844C78.7231 19.7805 76.7721 21.0173 76.3497 21.5062C76.0908 21.9206 75.9343 22.1936 75.7111 22.6276L75.8731 23.0863C74.5697 25.5498 69.8959 26.1698 67.2363 25.4589C64.3848 24.6969 62.6152 28.0733 60.5491 29.7612C59.4766 30.6371 51.5158 37.7686 50.7892 37.9016C50.8807 37.4754 50.967 37.414 51.2427 37.0574L50.3536 37.4105C50.597 37.151 50.6359 36.9756 50.7703 36.6392L50.5998 36.5172L50.0064 37.0628L49.8689 37.0102L50.23 36.6279L50.0704 36.4581L50.2265 36.231C48.3064 37.626 44.7106 41.2677 42.6981 41.8651L42.9224 41.5466L42.7136 41.7163L42.8229 41.8317L42.7872 41.6451C48.382 37.6812 54.7432 31.082 59.8436 26.3292C61.3464 24.929 63.0139 22.9968 64.4823 21.79C66.5177 22.0372 69.1979 22.9695 71.5224 23.3164Z" fill="#AB5024"/>
<path d="M75.7111 22.6277L75.8731 23.0863C74.5697 25.5499 69.8959 26.1699 67.2363 25.459C64.3848 24.697 62.6152 28.0734 60.5491 29.7612C59.4766 30.6372 51.5158 37.7686 50.7892 37.9017C50.8807 37.4754 50.967 37.4141 51.2427 37.0574C51.5225 36.9257 52.7489 35.7104 53.0799 35.3894C55.1721 33.3285 57.2214 31.2246 59.2263 29.0789C60.7407 27.4801 62.3093 25.7399 64.0538 24.3688C66.0614 22.791 67.8544 24.3379 70.1022 24.6276C72.7119 24.964 73.7882 24.0645 75.7111 22.6277Z" fill="#D4A285"/>
<path d="M71.5224 23.3164C73.8868 22.2648 76.0535 21.0785 78.1887 19.6316C78.882 19.1618 79.5231 19.217 80.1949 19.7209L80.233 20.0176L80.0251 20.1386L79.3313 19.6844C78.7231 19.7805 76.7721 21.0173 76.3497 21.5062C70.6194 25.2575 70.6059 23.3026 64.7297 22.3951C59.6905 27.0501 55.5384 31.5742 50.2265 36.231C48.3064 37.626 44.7106 41.2677 42.6981 41.8651L42.9224 41.5466L42.7136 41.7163L42.8229 41.8317L42.7872 41.6451C48.382 37.6812 54.7432 31.082 59.8436 26.3292C61.3464 24.929 63.0139 22.9968 64.4823 21.79C66.5177 22.0372 69.1979 22.9695 71.5224 23.3164Z" fill="#D4A285"/>
<path d="M77.6619 30.9178C78.3285 28.6986 80.0796 25.3851 82.1009 24.1779C80.8043 26.0865 79.3717 27.5311 78.5132 29.8382C77.93 31.4056 79.4023 36.8763 78.5809 37.7628C77.6594 38.757 74.0218 41.5668 72.839 42.5444C67.6554 46.8162 62.6978 51.3552 57.9867 56.143C57.2391 56.893 54.5544 59.8692 53.7787 59.9824C53.5299 59.0082 55.4328 55.3112 55.9455 54.2915L56.1498 54.2215C56.2771 55.5058 54.2735 58.0347 54.7629 58.9022C55.0773 58.8296 55.0649 58.8073 55.2322 58.5355C58.3864 53.4182 68.962 44.8267 73.8698 40.7491C73.745 40.0346 73.8084 39.9315 74.1157 39.2718C74.1732 38.6972 76.0071 37.1695 76.2321 36.3259C76.4859 35.3735 75.9967 32.9019 76.6584 32.2784C76.9718 31.9514 77.39 31.3098 77.6619 30.9178Z" fill="#D4A285"/>
<path d="M76.6584 32.2784C76.9718 31.9514 77.39 31.3098 77.6619 30.9178C78.5689 37.2326 79.1265 37.0222 73.8698 40.7491C73.745 40.0346 73.8084 39.9316 74.1157 39.2718C74.1732 38.6972 76.0071 37.1695 76.2321 36.3259C76.4859 35.3735 75.9967 32.9019 76.6584 32.2784Z" fill="#AB5024"/>
<path d="M76.6584 32.2784C77.3302 35.1638 77.4763 37.9906 74.1157 39.2718C74.1732 38.6972 76.0071 37.1695 76.2321 36.3259C76.4859 35.3735 75.9967 32.9019 76.6584 32.2784Z" fill="#D4A285"/>
<path d="M39.5098 44.2964C40.4353 44.2895 44.3132 44.3451 45.0399 44.572L44.9283 44.7562C43.7903 44.8265 40.5481 45.0886 39.6555 44.7172L39.5098 44.2964Z" fill="#C4744F"/>
<path d="M40.5429 45.1171C41.686 46.1244 42.9062 46.8749 43.6269 48.2768C42.895 47.9604 41.5032 47.0163 40.9612 46.4337C40.4156 45.8473 40.5228 45.8043 40.5429 45.1171Z" fill="#C4744F"/>
<path d="M51.0917 56.8417C51.9926 57.3894 52.6705 58.4812 52.979 59.4807L52.5769 59.3692C51.7756 58.5525 51.4777 57.9085 51.0917 56.8417Z" fill="#C4744F"/>
<path d="M92.1299 58.2063C92.9575 58.1754 94.8412 58.2535 95.166 59.1222C94.5489 59.6507 91.2844 61.6163 90.395 62.1468C86.0797 64.7204 80.5611 68.5323 76.1504 70.7023C75.6924 70.7026 73.6694 69.5275 72.9438 69.1934C76.61 66.7512 80.4283 64.4819 84.1067 62.0449C86.5042 60.4565 89.2519 58.614 92.1299 58.2063Z" fill="#85956D"/>
<path d="M78.6848 60.6417C79.5234 60.5679 81.8216 60.3329 82.3445 60.9594C81.8659 61.9086 71.913 68.0075 70.3582 68.7721C68.8837 68.4668 67.3585 68.2253 65.8455 67.9103C69.0228 66.0268 75.5884 61.4909 78.6848 60.6417Z" fill="#85956D"/>
</svg>
