<svg width="178" height="142" viewBox="0 0 178 142" fill="none" xmlns="http://www.w3.org/2000/svg">
<path d="M0 0H178V142H0V0Z" fill="#EFE7D5"/>
<path d="M66.29 12.328C71.049 9.40141 81.1927 8.87875 86.6745 9.69555L88.0524 9.71031C90.0519 9.88961 92.2304 10.1223 94.198 10.5353C96.3924 10.8203 98.6382 11.3591 100.075 13.1924C102.083 15.7548 102.354 32.2335 103.346 36.8528L103.541 38.0397C104.136 40.4891 104.98 43.5967 105.376 46.0349C105.825 49.3335 106.407 53.1824 106.619 56.5009L106.572 57.2275L106.821 58.4997C107.818 59.0657 109.68 57.8891 111.138 57.6773L111.245 57.3306C109.222 55.5609 108.195 53.4794 110.871 51.512C112.04 50.6521 113.542 50.758 114.806 49.9762C113.77 49.5337 112.563 49.0502 112.368 47.8185C112.716 46.9663 112.551 47.2415 113.347 46.6705C114.481 46.5138 114.921 46.502 116.067 46.5496C108.405 36.4244 130.351 41.9676 121.56 47.3343C123.441 47.7548 127.225 48.1607 125.849 50.9584C129.28 52.2536 128.29 53.249 125.77 54.9351C129.382 55.6844 134.375 57.5376 128.547 60.7839C128.326 60.9067 128.102 61.0248 127.876 61.1383C130.75 62.0763 133.148 64.5723 134.768 67.0546C134.358 68.2806 134.109 69.0805 133.505 70.2449C136.891 70.0802 139.185 71.1339 139.213 74.8776C140.894 76.2266 144.475 78.119 146.885 79.9989C156.758 87.6927 164.638 97.6466 169.86 109.022L55.8988 109.055L23.7659 109.047C18.9427 109.044 12.7977 108.834 8.10126 109.026C17.982 93.1103 31.3806 81.5012 47.9781 73.1144L48.0003 70.5637C48.7149 70.1802 48.9655 69.9545 49.5842 69.4427C50.3138 67.8515 50.5295 67.7615 52.2167 67.4268C54.1018 67.3293 57.0252 66.9283 58.9264 66.6686C59.574 66.5692 59.803 66.5852 60.3371 66.1963L60.4334 65.522C59.7498 63.6039 60.1848 61.2918 58.0442 60.58L57.4981 60.5036C56.3124 59.444 57.1156 56.9779 57.4712 55.6408C56.9312 53.7009 57.2724 47.3296 57.0737 44.8567C56.8245 40.7043 56.0431 36.5406 55.8971 32.3868C55.7551 28.3537 56.7299 24.9805 60.3845 22.9216C61.2554 22.2864 63.4128 21.7288 64.5029 21.4103C62.9741 18.0475 64.6391 15.1773 66.29 12.328Z" fill="#93A37A"/>
<path d="M66.29 12.328C71.049 9.40141 81.1927 8.87875 86.6745 9.69555L88.0524 9.71031C90.0519 9.88961 92.2304 10.1223 94.198 10.5353C96.3924 10.8203 98.6382 11.3591 100.075 13.1924C102.083 15.7548 102.354 32.2335 103.346 36.8528L103.541 38.0397C102.553 38.3533 101.357 39.1741 100.449 39.7384C97.8852 40.4594 96.823 40.5367 94.1549 40.5583C91.8634 40.57 80.0417 39.8373 79.0648 40.3923C78.9641 41.3334 78.9659 42.9937 78.732 43.7233C78.56 45.9841 79.3787 48.5052 79.3274 50.1205C77.0272 51.1809 67.2976 55.9091 65.5109 55.9691C64.7907 56.6416 64.6358 58.5156 64.5334 59.4798C64.3381 60.302 63.965 63.7858 64.1502 64.5252C63.5631 64.9966 63.0381 65.4759 62.3438 65.7639L61.9724 65.062C61.3679 65.384 61.0984 65.6167 60.4334 65.522C59.7498 63.6039 60.1848 61.2918 58.0442 60.58L57.4981 60.5036C56.3124 59.444 57.1156 56.9779 57.4712 55.6408C56.9312 53.7009 57.2724 47.3296 57.0737 44.8567C56.8245 40.7043 56.0431 36.5406 55.8971 32.3868C55.7551 28.3537 56.7299 24.9805 60.3845 22.9216C61.2554 22.2864 63.4128 21.7288 64.5029 21.4103C62.9741 18.0475 64.6391 15.1773 66.29 12.328Z" fill="#BE6036"/>
<path d="M60.3845 22.9216C61.2554 22.2864 63.4128 21.7289 64.5029 21.4103C64.7045 23.1728 64.6599 23.2017 64.4319 24.8725C64.6025 25.4477 64.6613 25.5548 64.6452 26.1438C64.6159 27.5031 64.5102 28.1847 64.982 29.4888C65.8733 29.1632 66.7419 28.6767 67.5833 29.3264C69.1454 31.1212 70.8038 32.8296 72.5513 34.4444C74.1048 35.9081 76.2341 37.3474 76.6529 39.4298L77.2365 40.1629L78.0186 39.7242C79.1319 40.1003 78.7081 42.5559 78.732 43.7233C78.56 45.9841 79.3787 48.5053 79.3274 50.1206C77.0272 51.1809 67.2976 55.9092 65.5109 55.9692C64.7907 56.6416 64.6358 58.5157 64.5334 59.4799C64.3381 60.3021 63.965 63.7858 64.1502 64.5253C63.5631 64.9966 63.0381 65.4759 62.3438 65.7639L61.9724 65.062C61.3679 65.384 61.0984 65.6167 60.4334 65.5221C59.7498 63.6039 60.1848 61.2918 58.0442 60.58L57.4981 60.5036C56.3124 59.444 57.1156 56.9779 57.4712 55.6408C56.9312 53.7009 57.2724 47.3296 57.0737 44.8567C56.8245 40.7043 56.0431 36.5407 55.8971 32.3868C55.7551 28.3537 56.7299 24.9806 60.3845 22.9216Z" fill="#954221"/>
<path d="M64.9819 29.4888C65.8733 29.1632 66.7419 28.6766 67.5833 29.3263C69.1454 31.1212 70.8038 32.8295 72.5513 34.4444C74.1047 35.9081 76.234 37.3474 76.6529 39.4298L77.2365 40.1629L78.0186 39.7242C79.1319 40.1003 78.7081 42.5559 78.732 43.7233C78.56 45.9841 79.3787 48.5052 79.3273 50.1206C77.0272 51.1809 67.2976 55.9091 65.5109 55.9691C66.2586 53.7175 65.4059 47.3092 65.6965 44.3732C66.0507 43.503 66.1723 42.1616 65.9919 41.2232L65.7282 41.2499C65.0766 38.5722 65.8137 32.137 64.9819 29.4888Z" fill="#BE6036"/>
<path d="M66.3156 50.9107C68.4306 47.5683 73.5894 43.1144 76.6529 39.4298L77.2365 40.1629C73.6808 43.5942 69.9207 47.6864 66.3156 50.9107Z" fill="#8C3818"/>
<path d="M61.4021 44.7332C62.8306 44.5806 64.2627 44.4606 65.6966 44.3732C65.4059 47.3092 66.2586 53.7175 65.5109 55.9691C64.7907 56.6415 64.6358 58.5156 64.5334 59.4798C64.3381 60.302 63.965 63.7857 64.1502 64.5252C63.563 64.9965 63.038 65.4758 62.3438 65.7639L61.9723 65.0619C61.3679 65.384 61.0984 65.6167 60.4334 65.522C59.7498 63.6039 60.1848 61.2918 58.0442 60.58C58.5779 60.2087 58.9876 59.9959 59.3279 59.4468L59.3356 58.5226C61.5566 56.7979 61.2927 47.8098 61.4021 44.7332Z" fill="#FCE1BB"/>
<path d="M59.3279 59.4468C60.2052 60.9056 61.2601 63.4291 61.9723 65.062C61.3679 65.384 61.0984 65.6168 60.4334 65.5221C59.7498 63.6039 60.1848 61.2918 58.0442 60.58C58.5779 60.2088 58.9876 59.996 59.3279 59.4468Z" fill="#A8502F"/>
<path d="M64.0839 24.5875L64.4319 24.8725C64.6025 25.4476 64.6614 25.5547 64.6452 26.1437C64.6159 27.5031 64.5102 28.1846 64.982 29.4887C65.8138 32.1369 65.0767 38.5721 65.7282 41.2499C65.6448 41.5792 65.5527 41.7383 65.4135 42.0444C64.3899 42.5186 62.6652 42.6423 61.4413 42.8399C61.3494 37.7003 58.5953 27.2453 64.0839 24.5875Z" fill="#FCE1BB"/>
<path d="M57.4712 55.6408C58.467 55.6722 58.3489 55.506 58.9395 56.0404C59.093 56.988 58.9564 57.6243 59.3356 58.5227L59.3279 59.4468C58.9876 59.9959 58.5779 60.2087 58.0442 60.58L57.4981 60.5036C56.3124 59.444 57.1156 56.9779 57.4712 55.6408Z" fill="#8C3818"/>
<path d="M60.3845 22.9216C61.2554 22.2864 63.4128 21.7289 64.5029 21.4103C64.7045 23.1728 64.6599 23.2017 64.4319 24.8725L64.0838 24.5875C62.5074 23.1459 61.3381 25.0879 60.3845 22.9216Z" fill="#BE6036"/>
<path d="M67.6794 22.6865C70.7785 18.55 71.6598 16.5637 76.9747 15.4467C76.9285 21.6217 77.9244 32.2159 78.673 38.4878C78.323 38.4679 77.6802 38.4025 77.4179 38.1897C74.1847 35.5663 70.5029 31.6631 67.6048 28.754C67.2397 28.0481 66.7093 26.9432 65.993 26.6568C66.2579 24.5981 66.6891 24.3998 67.6794 22.6865Z" fill="#BE6036"/>
<path d="M67.2671 22.5196C68.5517 19.6715 70.9822 17.0716 73.8838 15.7197C74.9436 15.2259 77.9553 14.6678 79.0791 15.1441L79.2155 15.4745L77.5709 15.7469C77.0813 19.045 78.8863 30.7668 78.7836 34.7931C78.7569 35.8445 79.1466 37.5796 79.0407 38.5319C86.3607 37.9811 95.8775 40.3692 103.346 36.8528L103.541 38.0397C102.553 38.3533 101.357 39.1741 100.449 39.7385C97.8852 40.4594 96.823 40.5367 94.1548 40.5583C91.8634 40.57 80.0417 39.8374 79.0648 40.3924C78.9641 41.3334 78.9659 42.9937 78.732 43.7233C78.7081 42.5559 79.1319 40.1003 78.0186 39.7242L77.2365 40.1629L76.6529 39.4298C76.2341 37.3474 74.1048 35.9081 72.5513 34.4444C70.8038 32.8295 69.1454 31.1212 67.5833 29.3263C66.7419 28.6767 65.8733 29.1632 64.982 29.4888C64.5102 28.1847 64.6159 27.5031 64.6452 26.1438L64.9878 26.0629C65.3354 26.3144 65.5817 26.5356 65.993 26.6568C66.7093 26.9432 67.2397 28.0481 67.6048 28.754C70.5029 31.6631 74.1847 35.5663 77.4179 38.1897C77.6802 38.4025 78.323 38.4679 78.673 38.4878C77.9244 32.2159 76.9285 21.6217 76.9747 15.4467C71.6598 16.5637 70.7785 18.55 67.6794 22.6865L67.2671 22.5196Z" fill="#954221"/>
<path d="M88.0524 9.71033C90.0519 9.88962 92.2304 10.1224 94.198 10.5353C93.3566 10.626 92.405 10.6169 91.8111 11.1749C91.36 12.9578 96.1316 28.6649 95.416 29.6788C94.509 30.0032 93.7185 29.9076 92.7615 29.8692C92.8316 25.6005 91.9147 19.6326 89.6134 16.0124C89.7946 15.6717 90.1332 15.2151 90.361 14.8842C89.4095 12.6677 87.3547 11.4208 87.0978 10.3417L87.7091 10.056L88.0524 9.71033Z" fill="#954221"/>
<path d="M87.7091 10.056C88.6918 10.2635 89.1927 10.1528 89.7603 11.0662C90.2696 11.8858 91.0583 13.8665 90.7173 14.8106L90.361 14.8842C89.4095 12.6677 87.3547 11.4208 87.0978 10.3417L87.7091 10.056Z" fill="#BA5D37"/>
<path d="M83.0769 9.66248C84.4585 9.75013 85.3046 9.74709 86.6745 9.69552L88.0524 9.71029L87.7091 10.056L87.0978 10.3417C87.3547 11.4208 89.4095 12.6676 90.361 14.8841C90.1332 15.2151 89.7945 15.6716 89.6134 16.0124C87.8368 12.7893 86.0696 11.5457 83.0769 9.66248Z" fill="#8C3818"/>
<path d="M64.5029 21.4103C65.5175 21.9773 65.1109 23.2807 66.0359 23.8631C66.6838 23.5108 66.8687 23.125 67.2671 22.5196L67.6794 22.6865C66.6892 24.3998 66.2579 24.5981 65.9931 26.6568C65.5817 26.5357 65.3354 26.3144 64.9878 26.0629L64.6452 26.1438C64.6613 25.5548 64.6025 25.4477 64.4319 24.8725C64.6599 23.2017 64.7045 23.1728 64.5029 21.4103Z" fill="#A8502F"/>
<path d="M100.449 39.7384C101.357 39.1741 102.552 38.3533 103.541 38.0397C104.136 40.4891 104.98 43.5967 105.376 46.0349C105.825 49.3335 106.407 53.1824 106.619 56.5009L106.572 57.2275C106.58 58.9804 106.21 62.6865 106.375 63.9569L106.357 64.7945L106.167 65.6727C105.973 66.9173 105.799 68.2464 105.493 69.4619L105.312 69.7876C104.982 71.8942 104.854 75.8029 103.066 77.0507C101.632 77.6408 100.608 77.9671 99.0739 78.2797C95.7099 79.0506 83.7043 81.6728 80.6966 81.8362L77.2803 82.0998C77.7631 80.8452 78.9094 80.5051 79.5195 78.6041C80.0255 77.0268 79.9552 76.2479 80.0438 74.578C80.1992 69.5148 79.8999 64.6897 79.6571 59.6474C79.5366 57.1471 79.655 54.6465 79.493 52.1455L80.4509 52.289C80.2829 52.0063 80.0415 51.1178 79.9323 50.7587L79.3273 50.1205C79.3787 48.5052 78.56 45.984 78.732 43.7233C78.9659 42.9937 78.9641 41.3333 79.0648 40.3923C80.0417 39.8373 91.8634 40.57 94.1548 40.5583C96.823 40.5367 97.8852 40.4594 100.449 39.7384Z" fill="#A8502F"/>
<path d="M102.904 70.649C103.049 69.8714 103.185 69.2842 103.391 68.5202L103.713 68.4421C104.263 69.0946 104.406 69.284 105.154 69.701L105.312 69.7877C104.982 71.8942 104.854 75.8029 103.066 77.0507C101.632 77.6409 100.608 77.9671 99.0739 78.2798C95.7099 79.0506 83.7043 81.6728 80.6966 81.8362L77.2803 82.0999C77.7631 80.8453 78.9094 80.5052 79.5195 78.6042C80.0255 77.0268 79.9552 76.248 80.0438 74.5781L80.348 74.4527L80.4101 74.6793L81.2457 74.6177C82.6473 74.8563 85.1595 74.7984 86.637 74.7046L90.1653 74.5802C91.1848 74.691 97.3074 73.6178 98.4071 73.0718C99.2286 72.4722 101.531 71.5235 102.904 70.649Z" fill="#BE6036"/>
<path d="M102.904 70.649C103.049 69.8714 103.185 69.2842 103.391 68.5202L103.713 68.4421C104.263 69.0946 104.406 69.284 105.154 69.701L105.312 69.7877C104.982 71.8942 104.854 75.8029 103.066 77.0507C101.632 77.6409 100.608 77.9671 99.0739 78.2798C99.5487 77.6664 102.003 76.8911 102.872 76.5717C103.596 75.3501 105.054 73.1165 104.192 71.8192C103.077 71.3264 100.021 72.6581 98.4071 73.0718C99.2286 72.4722 101.531 71.5235 102.904 70.649Z" fill="#954221"/>
<path d="M80.0438 74.578L80.348 74.4526L80.4101 74.6793C80.4378 75.9585 80.4477 77.2377 80.4397 78.5172C79.8786 79.4608 78.8891 80.6029 78.9476 81.4119C79.5005 81.7848 80.0197 81.7661 80.6966 81.8362L77.2803 82.0998C77.7631 80.8452 78.9094 80.5051 79.5195 78.6041C80.0255 77.0268 79.9552 76.2479 80.0438 74.578Z" fill="#954221"/>
<path d="M94.1549 40.5582C96.823 40.5367 97.8852 40.4593 100.449 39.7384C99.7164 41.9966 96.4199 45.5136 93.9074 45.5436C92.8295 45.0231 92.5639 43.8707 92.9036 42.7759C93.7225 41.814 94.0117 41.7233 94.1549 40.5582Z" fill="#954221"/>
<path d="M86.7786 74.219C87.662 69.2624 85.9086 59.5815 86.6706 57.1361L86.871 57.0969C87.7895 59.9181 88.0074 73.8357 88.1593 74.0218C88.681 74.1383 89.761 74.334 90.1653 74.5801L86.6371 74.7046C85.1596 74.7983 82.6473 74.8562 81.2457 74.6176C82.1903 74.4297 85.6428 74.2918 86.7786 74.219Z" fill="#954221"/>
<path d="M105.198 56.5141C104.653 57.891 106.461 64.3122 104.544 65.3727C103.29 63.966 101.83 55.946 105.032 55.2728L105.198 56.5141Z" fill="#954221"/>
<path d="M105.032 55.2728C105.144 54.2383 103.44 44.0699 103.847 43.3965C104.411 43.8578 104.911 45.2162 105.376 46.0349C105.825 49.3335 106.407 53.1824 106.619 56.5009C106.455 56.0001 106.405 55.6351 106 55.3215C105.704 55.7284 105.467 56.0894 105.198 56.514L105.032 55.2728Z" fill="#BE6036"/>
<path d="M116.067 46.5496C108.405 36.4243 130.351 41.9675 121.56 47.3343C123.441 47.7547 127.225 48.1607 125.849 50.9584C129.28 52.2535 128.29 53.2489 125.77 54.935C129.382 55.6843 134.375 57.5375 128.547 60.7839C128.326 60.9067 128.102 61.0248 127.876 61.1382C130.75 62.0762 133.148 64.5723 134.768 67.0546C134.358 68.2806 134.109 69.0805 133.505 70.2449C132.086 70.809 130.322 70.9011 128.796 70.9714C127.989 71.2152 126.877 71.1446 126.008 71.136C125.273 71.9947 124.5 72.8704 123.818 73.7675L124.237 74.6846C122.295 74.9907 121.35 75.8164 120.198 77.4067C120.028 77.6375 119.864 77.8733 119.708 78.1138C118.916 77.8496 117.227 78.0779 116.304 78.1335C112.64 78.354 106.343 78.9273 103.066 77.0507C104.854 75.8029 104.983 71.8942 105.313 69.7876L105.493 69.4618C105.799 68.2464 105.973 66.9172 106.167 65.6727L106.357 64.7945L106.375 63.9568C106.21 62.6865 106.58 58.9804 106.572 57.2275L106.821 58.4996C107.818 59.0657 109.68 57.8891 111.138 57.6772L111.245 57.3306C109.222 55.5608 108.195 53.4793 110.871 51.512C112.04 50.6521 113.542 50.758 114.806 49.9761C113.77 49.5336 112.563 49.0501 112.368 47.8185C112.716 46.9663 112.551 47.2414 113.347 46.6705C114.481 46.5137 114.921 46.502 116.067 46.5496Z" fill="#BFB6A2"/>
<path d="M109.783 62.4822C111.115 62.504 111.415 62.6066 112.7 63.0123L113.855 64.2116C114.211 65.2354 114.486 65.7822 114.069 66.8659C113.784 67.6096 113.578 67.7151 114.324 68.0247C116.492 68.9251 118.619 70.0026 120.91 70.5548C121.912 71.628 122.862 72.6512 123.818 73.7676L124.237 74.6847C122.295 74.9908 121.35 75.8165 120.198 77.4067C120.028 77.6376 119.864 77.8733 119.708 78.1138C118.916 77.8497 117.227 78.078 116.304 78.1335C112.64 78.3541 106.343 78.9273 103.066 77.0507C104.854 75.8029 104.983 71.8942 105.313 69.7876L105.493 69.4619C105.799 68.2464 105.973 66.9173 106.167 65.6727L106.357 64.7945C107.184 64.7233 108.915 63.1042 109.783 62.4822Z" fill="#848175"/>
<path d="M106.167 65.6727C107.114 66.6494 108.328 67.2902 109.5 67.9942C108.562 68.3966 106.345 69.4178 105.493 69.4619C105.799 68.2464 105.973 66.9173 106.167 65.6727Z" fill="#93A37A"/>
<path d="M115.802 62.6811C116.657 62.4744 118.669 62.6546 119.174 62.2504C119.798 61.7511 119.795 61.1455 120.716 60.5713C123.343 61.6548 125.146 61.4919 127.876 61.1382C130.75 62.0762 133.148 64.5723 134.768 67.0546C134.358 68.2806 134.109 69.0805 133.505 70.2449C132.086 70.809 130.322 70.9011 128.796 70.9714C127.989 71.2152 126.877 71.1446 126.008 71.136C125.273 71.9947 124.5 72.8704 123.818 73.7675C122.862 72.6512 121.912 71.6279 120.91 70.5547C118.619 70.0025 116.492 68.9251 114.324 68.0246C113.578 67.715 113.784 67.6096 114.069 66.8659C114.486 65.7821 114.211 65.2353 113.855 64.2116C114.597 63.9111 115.494 63.6496 115.959 63.0397L115.802 62.6811Z" fill="#BFB6A2"/>
<path d="M120.91 70.5547C122.297 70.4291 126.884 70.9236 128.796 70.9715C127.989 71.2152 126.877 71.1447 126.008 71.136C125.273 71.9947 124.5 72.8704 123.818 73.7676C122.862 72.6512 121.912 71.6279 120.91 70.5547Z" fill="#93A37A"/>
<path d="M111.138 57.6773C112.504 57.8582 114.197 57.1153 117.35 57.6082C118.456 58.0207 118.798 58.1203 119.719 58.8339C119.961 59.5249 120.099 60.18 120.716 60.5714C119.795 61.1456 119.798 61.7512 119.174 62.2504C118.669 62.6547 116.657 62.4745 115.802 62.6812L115.959 63.0398C115.494 63.6496 114.597 63.9112 113.855 64.2117L112.7 63.0124C111.415 62.6067 111.115 62.504 109.783 62.4822C108.915 63.1043 107.184 64.7233 106.357 64.7946L106.375 63.9569C106.21 62.6866 106.58 58.9804 106.572 57.2275L106.821 58.4997C107.818 59.0657 109.68 57.8892 111.138 57.6773Z" fill="#AB9C83"/>
<path d="M106.375 63.9569C106.657 63.28 106.327 63.0857 106.87 62.2797C107.864 61.8539 108.684 62.1016 109.783 62.4822C108.915 63.1043 107.184 64.7233 106.357 64.7946L106.375 63.9569Z" fill="#F2F0EB"/>
<path d="M115.802 62.6812L115.959 63.0397C115.494 63.6496 114.597 63.9112 113.855 64.2116L112.7 63.0123C113.425 62.7062 114.955 62.7189 115.802 62.6812Z" fill="#F2ECE1"/>
<path d="M124.183 54.9937L125.77 54.9351C129.382 55.6844 134.375 57.5376 128.547 60.7839C128.326 60.9068 128.102 61.0249 127.876 61.1383C125.146 61.492 123.343 61.6549 120.716 60.5714C120.099 60.18 119.961 59.5249 119.719 58.834C119.884 57.9961 120.042 57.3766 120.276 56.5547C121.756 54.9975 122.049 55.342 124.183 54.9937Z" fill="#848175"/>
<path d="M116.067 46.5496C108.405 36.4243 130.351 41.9675 121.56 47.3343C118.643 47.1582 116.57 46.7284 113.347 46.6705C114.481 46.5137 114.921 46.502 116.067 46.5496Z" fill="#BFB6A2"/>
<path d="M113.347 46.6706C116.57 46.7285 118.643 47.1583 121.56 47.3343C123.441 47.7548 127.225 48.1607 125.849 50.9585C125.224 50.8952 124.62 50.7886 124.01 50.9039C121.2 50.7923 117.419 50.767 114.806 49.9762C113.77 49.5337 112.563 49.0502 112.368 47.8186C112.716 46.9664 112.551 47.2415 113.347 46.6706Z" fill="#848175"/>
<path d="M124.01 50.9038C124.62 50.7885 125.224 50.8951 125.849 50.9584C129.28 52.2536 128.29 53.249 125.77 54.9351L124.183 54.9937C123.762 54.4935 123.441 54.085 123.053 53.5583C122.987 52.5224 123.509 52.0766 124.01 50.9038Z" fill="#AB9C83"/>
<path d="M117.35 57.6081C118.064 56.9158 119.291 56.3296 120.276 56.5546C120.042 57.3766 119.884 57.996 119.719 58.8339C118.798 58.1202 118.456 58.0206 117.35 57.6081Z" fill="#F2ECE1"/>
<path d="M79.3273 50.1206L79.9322 50.7588C80.0415 51.1179 80.2829 52.0064 80.4509 52.289L79.493 52.1456C79.655 54.6466 79.5366 57.1472 79.6571 59.6475C79.8999 64.6898 80.1992 69.5149 80.0438 74.5781C79.9552 76.248 80.0255 77.0269 79.5195 78.6042C78.9094 80.5052 77.7631 80.8453 77.2803 82.0999C74.2993 81.8273 69.7426 81.5308 67.043 80.2483C66.6622 80.0672 65.663 79.0258 65.3295 78.6752C61.2762 79.5508 55.2005 79.125 51.469 77.1323C51.192 75.5648 50.9726 71.7539 51.3296 70.2691C50.6637 69.866 50.4338 70.0779 49.5842 69.4427C50.3138 67.8515 50.5294 67.7615 52.2167 67.4269C54.1018 67.3294 57.0251 66.9283 58.9264 66.6686C59.574 66.5693 59.8029 66.5852 60.3371 66.1964L60.4334 65.5221C61.0983 65.6168 61.3679 65.384 61.9723 65.062L62.3438 65.764C63.038 65.4759 63.563 64.9966 64.1501 64.5253C63.965 63.7858 64.3381 60.3021 64.5333 59.4799C64.6358 58.5157 64.7907 56.6416 65.5109 55.9692C67.2976 55.9092 77.0272 51.1809 79.3273 50.1206Z" fill="#BE6036"/>
<path d="M52.2167 67.4268C54.1018 67.3293 57.0251 66.9283 58.9264 66.6686C60.8492 67.068 61.2129 67.4971 61.3838 69.4919L61.3674 70.0422C60.7437 70.3105 58.8242 70.5341 58.0559 70.6473C55.3355 70.7636 54.0057 70.7425 51.3296 70.269C50.6637 69.8659 50.4338 70.0778 49.5842 69.4426C50.3138 67.8515 50.5294 67.7615 52.2167 67.4268Z" fill="#BE6036"/>
<path d="M52.2167 67.4268L51.469 68.4852C51.9127 71.0357 59.4647 69.4398 61.3838 69.4918L61.3674 70.0421C60.7437 70.3105 58.8242 70.5341 58.0559 70.6473C55.3355 70.7636 54.0057 70.7425 51.3296 70.269C50.6637 69.8659 50.4338 70.0778 49.5842 69.4426C50.3138 67.8514 50.5294 67.7614 52.2167 67.4268Z" fill="#8C3818"/>
<path d="M79.3273 50.1206L79.9323 50.7588C80.0415 51.1179 80.2829 52.0064 80.4509 52.289L79.493 52.1456C75.0174 54.0621 69.9244 56.351 65.4373 58.3572L64.8659 59.6976L64.628 59.6576L64.5334 59.4799C64.6358 58.5157 64.7907 56.6416 65.5109 55.9692C67.2976 55.9092 77.0272 51.1809 79.3273 50.1206Z" fill="#954221"/>
<path d="M61.9723 65.062L62.3438 65.764C62.7443 67.706 62.9949 67.9708 64.452 69.3419C65.2831 71.2244 64.9993 74.3583 65.9178 76.8079L65.5721 76.958C63.492 75.5102 62.5754 72.7352 62.0822 70.3558C60.8928 70.4688 59.2111 70.6797 58.0559 70.6474C58.8242 70.5342 60.7437 70.3106 61.3674 70.0422L61.3838 69.4919C61.2129 67.4972 60.8492 67.068 58.9264 66.6686C59.574 66.5693 59.8029 66.5852 60.3371 66.1964L60.4334 65.5221C61.0983 65.6168 61.3679 65.384 61.9723 65.062Z" fill="#954221"/>
<path d="M64.1501 64.5253C64.5816 65.6981 64.7105 68.1243 64.452 69.3419C62.9949 67.9708 62.7444 67.706 62.3438 65.7639C63.038 65.4759 63.563 64.9966 64.1501 64.5253Z" fill="#A8502F"/>
<path d="M74.5412 70.1242C75.4768 70.6698 75.0626 73.2869 75.3026 74.4226C75.5044 75.3787 75.6338 76.4462 75.8384 77.4285C76.1347 77.7578 76.3552 77.9261 76.4227 78.3597C75.3657 79.0169 69.8619 77.9608 68.4326 77.6537C67.992 77.5886 67.8165 77.6066 67.4846 77.308C68.2974 77.159 74.1807 77.8077 75.398 77.9022C75.079 76.1924 74.0642 71.6226 74.5412 70.1242Z" fill="#954221"/>
<path d="M133.505 70.2449C136.891 70.0802 139.185 71.1339 139.213 74.8776C138.854 75.7159 138.285 77.4566 137.487 77.6957C134.969 78.4497 131.286 78.5158 128.709 78.4783L128.33 78.1576C127.202 75.5814 127.012 75.3414 124.237 74.6847L123.818 73.7676C124.5 72.8704 125.273 71.9948 126.008 71.136C126.877 71.1447 127.989 71.2152 128.796 70.9715C130.322 70.9012 132.086 70.8091 133.505 70.2449Z" fill="#848175"/>
<path d="M124.237 74.6847C127.012 75.3414 127.202 75.5814 128.33 78.1577C127.191 80.6566 121.235 80.533 119.708 78.1138C119.864 77.8734 120.028 77.6376 120.198 77.4067C121.35 75.8165 122.295 74.9908 124.237 74.6847Z" fill="#BFB6A2"/>
<path d="M49.5842 69.4426C50.4338 70.0778 50.6637 69.8659 51.3296 70.269C50.9727 71.7538 51.192 75.5647 51.4691 77.1322C50.4671 76.1922 49.1148 74.4147 48.2089 73.2897C48.2333 72.306 48.1196 71.5307 48.0003 70.5636C48.7149 70.1802 48.9655 69.9545 49.5842 69.4426Z" fill="#954221"/>
</svg>
