<svg width="73" height="78" viewBox="0 0 73 78" fill="none" xmlns="http://www.w3.org/2000/svg">
<path d="M19.4114 5.74734C23.5985 2.8237 24.6953 2.51821 29.452 4.3261C31.5772 5.13499 33.3596 1.736 35.0629 1.04929C40.9745 -2.67376 46.8491 4.67958 49.0745 5.03385C57.5647 6.38564 58.1079 5.86489 61.4301 14.6436C61.8467 15.7449 62.9805 15.8032 64.1248 16.0947C72.5623 20.5408 67.8427 27.1687 68.8446 28.5762C78.2366 41.7904 66.2712 42.4069 63.1704 50.7094C57.0057 55.0093 56.9002 53.778 51.3368 52.1321C50.4455 51.8674 43.5637 56.1399 41.0852 57.1039C37.2936 63.9831 37.1829 70.5317 41.9342 77.1029C39.0655 77.2321 28.6663 77.8623 26.6571 76.6911C30.5542 68.9022 30.5225 65.2287 29.0196 57.0928C26.6518 54.7145 25.9188 53.9631 22.9288 52.264C14.8235 56.2681 7.01355 53.9836 6.22254 44.175C-2.12584 36.7901 -1.53417 32.8129 4.79342 24.6559L4.47175 23.2674C2.62078 14.2624 10.4676 11.5206 16.9487 10.2339C17.5024 10.1245 19.037 6.53129 19.4114 5.74734Z" fill="#503620"/>
<path d="M52.4706 12.0657C52.9557 12.212 53.2563 12.6767 53.5833 13.0793C52.9399 14.5873 53.2669 14.1108 51.5636 15.0276L52.0118 14.7806L50.9413 15.4935C51.3684 15.7169 51.7903 15.9464 52.2122 16.182C54.0368 17.2103 54.4481 17.3933 54.9333 19.1387C54.4112 21.2184 54.0315 21.668 52.6921 23.3455C49.5439 23.4794 47.4925 23.5607 46.1636 20.35C46.4378 16.7358 49.7917 14.7837 52.4706 12.0657Z" fill="#AAB492"/>
<path d="M11.5434 32.2496L13.1202 32.5687C15.8202 35.0414 20.5979 37.3664 18.5413 41.5831C17.2809 42.8097 16.9434 43.1736 15.1451 43.4151C11.6858 43.3966 9.79792 40.2014 10.7313 37.1007C12.1868 35.6141 11.7544 36.0191 13.9903 35.5946C13.811 34.5093 12.4504 34.455 11.5434 32.2496Z" fill="#AAB492"/>
<path d="M60.8395 31.61C61.1242 31.8357 61.4143 32.4653 61.6042 32.8176C60.9133 34.2024 60.2436 34.2646 58.7512 35.1738C60.0696 35.4164 60.6391 35.5719 61.8994 36.0281C63.7926 38.6669 62.6852 40.8427 60.5125 42.9025C57.7018 42.9901 57.1639 43.1562 54.9701 41.4729C52.9662 37.3928 57.8231 34.069 60.8395 31.61Z" fill="#AAB492"/>
<path d="M38.9337 27.4915C39.3187 27.4504 39.9146 27.665 40.3101 27.78C39.9884 29.0936 38.9442 29.4875 37.6522 30.4683C38.4591 30.7536 39.3503 30.8607 40.2046 30.9957C42.3403 33.2896 41.2698 35.9258 39.3978 38.0468C36.6029 38.2451 35.8434 38.3263 33.5706 36.7485C31.419 32.6452 36.1546 30.0829 38.9337 27.4915Z" fill="#AAB492"/>
<path d="M20.6348 15.0211L21.5735 14.5571C23.9624 16.7942 27.2108 17.6771 27.2161 21.4925C26.6254 23.5754 26.3143 23.9255 24.6637 25.3278C20.3659 25.0683 17.8768 23.3771 19.1055 18.6985C20.5135 17.3972 20.2499 17.739 22.3065 17.4136L22.3961 16.8277L20.7403 16.1402L20.6348 15.0211Z" fill="#AAB492"/>
<path d="M40.9902 47.3228C42.8834 48.7497 44.1702 49.1727 45.9842 50.7062L45.9684 51.4587L43.6481 52.8456C42.0133 53.7221 40.3311 55.0874 38.7385 53.9799C38.6067 52.1015 40.1729 49.16 40.9902 47.3228Z" fill="#AAB492"/>
<path d="M29.0354 51.7941L28.9352 52.5471C26.8575 51.8426 25.5972 51.0991 25.1384 48.88C26.077 47.5474 25.6551 47.848 27.0157 47.1761C27.5799 48.3358 28.7823 50.6624 29.0354 51.7941Z" fill="#AAB492"/>
</svg>
