<svg width="1126" height="135" viewBox="0 0 1126 135" fill="none" xmlns="http://www.w3.org/2000/svg">
<g clip-path="url(#clip0_54_2173)">
<path d="M0 0H1125.88V34.2895V60.1367V89.0641V135H0V91.2705V58.2873V35.1389V0Z" fill="#8FA67A"/>
<path d="M0 0H1125.88V34.2895C1113.77 33.2531 1104.53 31.4675 1092.65 29.0592C1082.33 26.9692 1065.6 23.5516 1055.11 24.1749C1032.87 25.4975 1007.18 36.6735 984.662 35.5944C971.884 34.9822 954.339 28.2172 941.129 25.7043C919.888 21.6643 901.921 25.0495 880.754 23.8691C867.248 23.1158 850.247 17.3326 837.332 18.0114C813.992 19.2379 786.227 30.5268 763.33 32.9514C738.803 35.5483 707.205 26.6555 682.662 26.8333C660.139 26.9965 634.954 35.2614 612.199 35.3336C593.879 35.3918 577.246 27.7841 559.301 24.9074C541.466 22.0492 524.607 24.9748 506.895 23.9616C494.793 23.2692 481.59 18.487 469.387 18.0179C460.995 17.6953 452.477 20.4786 444.413 22.2146C425.889 26.2024 400.582 35.2238 382.18 35.6382C361.23 36.1099 332.483 24.8811 311.66 24.2047C288.991 23.4683 260.602 36.2705 236.94 35.6526C219.046 35.1853 201.6 27.3226 183.762 24.6935C166.558 22.1576 150.776 24.9024 133.776 24.0355C121.432 23.4061 108.232 18.8395 95.7588 18.0387C86.8525 17.4669 79.727 20.0744 71.5331 21.7104C51.9666 25.6171 18.8312 37.6548 0 35.1389V0Z" fill="#F1EADA"/>
<path d="M0 35.1389C18.8312 37.6548 51.9666 25.6172 71.5331 21.7104C79.727 20.0745 86.8525 17.4669 95.7588 18.0387C108.232 18.8395 121.432 23.4061 133.776 24.0355C150.776 24.9024 166.558 22.1576 183.762 24.6935C201.6 27.3227 219.046 35.1853 236.94 35.6526C260.602 36.2706 288.991 23.4683 311.66 24.2047C332.483 24.8811 361.23 36.1099 382.18 35.6382C400.582 35.2238 425.889 26.2025 444.413 22.2146C452.477 20.4786 460.995 17.6954 469.387 18.0179C481.59 18.4871 494.793 23.2692 506.895 23.9616C524.607 24.9749 541.466 22.0493 559.301 24.9074C577.246 27.7841 593.879 35.3918 612.199 35.3336C634.954 35.2614 660.139 26.9965 682.662 26.8333C707.205 26.6555 738.803 35.5483 763.33 32.9515C786.227 30.5268 813.992 19.2379 837.332 18.0114C850.247 17.3327 867.248 23.1159 880.754 23.8691C901.921 25.0495 919.888 21.6643 941.129 25.7043C954.339 28.2172 971.884 34.9822 984.662 35.5944C1007.18 36.6736 1032.87 25.4976 1055.11 24.1749C1065.6 23.5516 1082.33 26.9692 1092.65 29.0592C1104.53 31.4675 1113.77 33.2531 1125.88 34.2895V60.1367C1118.14 58.5679 1109.39 58.0875 1101.47 56.8213C1068.52 51.5491 1035.07 49.5708 1001.77 47.7176C990.399 47.0845 964.264 44.4477 953.422 46.1603C944.33 38.4448 948.902 39.6873 939.284 45.2829L934.717 43.4951C934.147 40.5725 933.488 36.4829 932.56 33.7427L921.997 33.8264L919.946 43.6011L915.442 45.4723L907.643 39.7029C905.36 42.1323 901.663 45.8541 899.912 48.4817C898.272 48.8346 893.194 49.3915 891.079 49.7353L866.32 53.8566C839.025 58.6132 812.262 64.858 784.424 63.5128C768.145 62.726 753.437 59.6611 737.464 56.9025C721.786 54.2426 706.087 51.7504 690.356 49.4265C663.056 45.2257 633.93 39.8578 606.567 43.6612C601.32 44.3905 596.173 44.6529 590.994 46.0062C589.85 45.7147 588.716 45.6564 588.299 44.5551C584.977 35.7764 584.434 36.2971 575.944 34.9454C573.718 34.5911 567.844 27.2377 561.932 30.9608C560.229 31.6475 558.446 35.0465 556.321 34.2376C551.565 32.4297 550.468 32.7352 546.281 35.6588C545.906 36.4428 544.372 40.036 543.818 40.1454C537.337 41.4321 529.49 44.1739 531.341 53.179C516.769 52.9664 483.521 62.0352 468.177 64.8939C453.065 68.0411 437.702 68.9249 422.329 69.8072C408.003 70.6288 394.657 72.34 380.396 69.7027C364.377 67.4447 348.969 56.8192 333.339 54.3961C319.539 52.2571 303.349 51.3713 289.287 50.3957C261.833 48.491 233.87 46.0157 206.393 45.7788C202.877 42.2547 196.556 35.5958 192.964 32.581C190.14 34.671 181.597 43.2823 179.14 46.1889C139.781 47.3127 96.7217 60.8655 57.1182 63.141C37.9135 64.2447 18.9177 61.5252 0 58.2873V35.1389Z" fill="#BCC5A4"/>
<path d="M546.281 35.6588C550.468 32.7352 551.565 32.4297 556.321 34.2376C558.446 35.0465 560.229 31.6475 561.932 30.9608C567.844 27.2377 573.718 34.5911 575.944 34.9453C584.434 36.2971 584.977 35.7764 588.299 44.5551C588.716 45.6564 589.85 45.7147 590.994 46.0062C596.173 44.6529 601.32 44.3904 606.567 43.6612C633.93 39.8578 663.056 45.2257 690.356 49.4265C706.087 51.7504 721.786 54.2426 737.464 56.9025C753.437 59.6611 768.145 62.726 784.424 63.5128C812.262 64.858 839.025 58.6132 866.32 53.8566L891.079 49.7353C893.194 49.3915 898.272 48.8346 899.912 48.4817C901.663 45.8541 905.36 42.1323 907.643 39.7029L915.442 45.4723L919.946 43.6011L921.997 33.8264L932.56 33.7427C933.488 36.4829 934.147 40.5725 934.717 43.4951L939.284 45.2829C948.902 39.6873 944.33 38.4447 953.422 46.1603C964.264 44.4477 990.399 47.0845 1001.77 47.7176C1035.07 49.5708 1068.52 51.5491 1101.47 56.8213C1109.39 58.0875 1118.14 58.5679 1125.88 60.1367V89.0642C1101.32 90.3029 1083.73 92.5452 1059.39 96.8383C1030.96 101.855 999.406 110.159 970.671 108.45C943.175 106.817 914.303 105.284 887.077 100.621C855.188 95.1597 818.917 80.8803 786.665 81.4688C772.901 81.7198 747.562 86.0641 733.656 88.4735L663.351 100.74C638.45 104.84 615.094 108.798 589.607 107.98C584.803 107.826 572.943 107.819 568.804 107.014C565.935 107.144 555.536 107.774 553.526 106.603C557.423 98.8137 557.392 95.1402 555.889 87.0043C553.521 84.626 552.788 83.8746 549.798 82.1755C541.693 86.1796 533.883 83.8951 533.092 74.0865C524.743 66.7016 525.335 62.7244 531.663 54.5674L531.341 53.1789C529.49 44.1739 537.337 41.4321 543.818 40.1454C544.372 40.036 545.906 36.4428 546.281 35.6588Z" fill="#AAB492"/>
<path d="M579.34 41.9772C579.825 42.1235 580.126 42.5882 580.453 42.9908C579.809 44.4988 580.136 44.0223 578.433 44.9391L578.881 44.6921L577.811 45.405C578.238 45.6284 578.66 45.8579 579.081 46.0935C580.906 47.1218 581.317 47.3048 581.803 49.0502C581.28 51.1299 580.901 51.5795 579.561 53.257C576.413 53.3909 574.362 53.4722 573.033 50.2615C573.307 46.6473 576.661 44.6952 579.34 41.9772Z" fill="#AAB492"/>
<path d="M538.413 62.1611L539.989 62.4802C542.689 64.9529 547.467 67.2779 545.411 71.4946C544.15 72.7212 543.813 73.0851 542.014 73.3266C538.555 73.3081 536.667 70.1129 537.601 67.0122C539.056 65.5256 538.624 65.9306 540.86 65.5061C540.68 64.4208 539.32 64.3665 538.413 62.1611Z" fill="#AAB492"/>
<path d="M587.709 61.5215C587.994 61.7472 588.284 62.3768 588.473 62.7291C587.783 64.1139 587.113 64.1761 585.62 65.0853C586.939 65.3278 587.508 65.4834 588.769 65.9396C590.662 68.5784 589.554 70.7542 587.382 72.814C584.571 72.9016 584.033 73.0677 581.839 71.3844C579.835 67.3043 584.692 63.9805 587.709 61.5215Z" fill="#AAB492"/>
<path d="M565.803 57.403C566.188 57.3619 566.784 57.5765 567.179 57.6915C566.858 59.0051 565.813 59.399 564.521 60.3798C565.328 60.6651 566.22 60.7722 567.074 60.9072C569.21 63.2011 568.139 65.8373 566.267 67.9583C563.472 68.1566 562.713 68.2378 560.44 66.66C558.288 62.5567 563.024 59.9944 565.803 57.403Z" fill="#AAB492"/>
<path d="M547.504 44.9326L548.443 44.4686C550.832 46.7057 554.08 47.5886 554.085 51.404C553.495 53.4869 553.184 53.837 551.533 55.2393C547.235 54.9798 544.746 53.2886 545.975 48.61C547.383 47.3087 547.119 47.6505 549.176 47.3251L549.265 46.7392L547.61 46.0517L547.504 44.9326Z" fill="#AAB492"/>
<path d="M567.86 77.2343C569.753 78.6612 571.039 79.0842 572.853 80.6177L572.838 81.3702L570.517 82.7571C568.883 83.6336 567.2 84.9989 565.608 83.8914C565.476 82.013 567.042 79.0715 567.86 77.2343Z" fill="#AAB492"/>
<path d="M555.905 81.7056L555.804 82.4586C553.727 81.7541 552.466 81.0106 552.008 78.7915C552.946 77.4589 552.524 77.7595 553.885 77.0876C554.449 78.2473 555.652 80.5739 555.905 81.7056Z" fill="#AAB492"/>
<path d="M924.26 36.3846L930.762 36.4067L932.164 44.9526C933.636 46.5058 937.517 47.5125 939.742 48.876C942.073 46.9509 944.42 45.0386 946.772 43.1394L951.381 48.4278C949.778 50.956 948.074 53.7838 946.26 56.1347C950.379 64.0628 948.897 63.5987 958.11 65.2034L958.089 72.3283C948.264 73.9436 950.316 73.2807 946.466 81.3617L951.413 89.2039C949.973 90.8323 948.185 92.9955 946.719 94.5163C944.357 92.6311 941.846 90.5502 939.4 88.8078C936.916 89.9574 934.696 90.9636 932.133 91.9682C931.658 94.983 931.199 98.2657 930.64 101.242L924.144 101.213C923.669 98.5041 922.904 94.722 922.609 92.0832C920.61 91.2268 917.198 89.8852 915.479 88.7556L908.133 94.307C906.615 92.7402 904.922 91.0601 903.509 89.4185C905.038 86.4991 906.467 84.2837 908.255 81.5279C907.443 79.4744 906.008 76.1194 905.507 74.0844C902.913 73.5375 899.49 72.7128 896.927 72.3858L896.901 65.243C899.764 64.5495 902.628 63.8734 905.502 63.2153C906.504 60.1066 906.926 59.0704 908.418 56.1595C906.915 54.0358 904.442 50.86 903.635 48.5043C903.836 48.1085 904.057 47.5648 904.4 47.3156C905.275 46.1566 907.015 44.4553 908.081 43.3535L912.684 46.7983C915.854 49.7547 919.202 47.0294 922.583 45.3598C922.794 42.9552 923.753 38.869 924.26 36.3846Z" fill="#AAB492"/>
<path d="M924.26 36.3846L930.762 36.4067L932.165 44.9526C930.63 46.4313 923.379 47.2921 922.583 45.3598C922.794 42.9552 923.753 38.869 924.26 36.3846Z" fill="#BCC5A4"/>
<path d="M908.081 43.3535L912.684 46.7983C910.912 47.5018 906.066 48.407 904.4 47.3156C905.275 46.1566 907.015 44.4553 908.081 43.3535Z" fill="#BCC5A4"/>
<path d="M927.218 57.6439C928.963 57.876 930.593 58.0637 932.149 58.9175C934.675 60.3012 936.541 62.6352 937.343 65.4017C938.166 68.3453 937.791 71.4946 936.299 74.1619C934.211 77.8855 931.621 78.9597 927.735 80.0455C923.052 79.2618 921.549 78.088 918.364 74.7457C915.711 66.2438 917.452 59.1722 927.218 57.6439Z" fill="#AAB492"/>
<path d="M206.393 45.7788C233.87 46.0157 261.833 48.491 289.287 50.3957C303.349 51.3713 319.539 52.2571 333.339 54.396C348.969 56.8192 364.377 67.4446 380.396 69.7027C394.657 72.34 408.003 70.6287 422.329 69.8071C437.702 68.9249 453.065 68.041 468.177 64.8939C483.521 62.0351 516.769 52.9664 531.341 53.1789L531.663 54.5674C525.335 62.7244 524.743 66.7016 533.092 74.0865C533.883 83.8951 541.693 86.1796 549.798 82.1754C552.788 83.8745 553.521 84.626 555.889 87.0043C557.392 95.1402 557.423 98.8137 553.526 106.603C551.428 105.567 504.872 100.703 498.568 100.032C476.894 97.5781 455.242 94.9271 433.615 92.0795C417.402 90.0777 392.704 86.9595 377.101 88.0928C338.695 90.8819 300.032 101.727 261.692 106.531C243.666 108.789 230.254 106.287 213.085 106.103L213.063 105.64L212.348 105.878C214.028 105.752 215.175 105.611 216.835 105.315C216.974 105.192 217.11 105.063 217.24 104.931C219.331 102.799 218.878 97.5733 218.85 94.6851C218.774 86.6689 218.727 78.6565 218.684 70.6403C221.441 70.6925 226.837 71.3037 228.676 69.5962C227.237 66.2138 210.215 49.9186 206.393 45.7788Z" fill="#AAB492"/>
<path d="M0 58.2873C18.9177 61.5252 37.9135 64.2447 57.1182 63.141C96.7217 60.8655 139.781 47.3127 179.14 46.1888C175.612 49.7068 157.981 66.5872 157.054 69.7381C158.633 71.1793 164.832 70.6962 167.124 70.6398L167.123 103.694C164.705 103.327 159.718 103.193 156.834 102.921C148.928 102.21 141.065 101.076 133.28 99.523C116.666 96.0646 100.096 91.3723 83.4638 87.836C70.1019 85.1223 54.0828 79.2039 40.3539 82.4133C26.4418 85.666 14.2981 89.0167 0 91.2706V58.2873Z" fill="#AAB492"/>
<path d="M185.568 83.3482C188.389 83.3266 198.009 82.9717 199.977 83.778C199.42 89.8176 199.664 99.0836 199.74 105.366C195.625 105.14 189.478 104.634 185.527 104.882L185.568 83.3482Z" fill="#AAB492"/>
</g>
<defs>
<clipPath id="clip0_54_2173">
<rect width="1125.88" height="135" fill="white"/>
</clipPath>
</defs>
</svg>
