<svg width="391" height="200" viewBox="0 0 391 200" fill="none" xmlns="http://www.w3.org/2000/svg">
<path d="M0 0H390.625V109.005V114.335V129.244V185.667V200H378.281H81.3971H12.37H0V185.734V112.728V93.4764V0Z" fill="#F0EDE0"/>
<path d="M235.223 107.355C238.09 106.42 240.879 105.456 243.652 104.275C250.697 101.28 257.215 97.2891 264.295 94.3848C269.877 92.1314 275.816 90.8936 281.834 90.7297C294.088 90.4488 312.701 95.76 323.354 101.456C334.158 107.232 340.826 111.491 353.818 111.678C356.436 111.716 359.904 111.331 362.25 111.368C364.641 111.209 366.275 111.074 368.684 111.165L370.533 111.076L371.086 110.881C372.582 111.122 388.219 109.356 390.625 109.005V114.335V129.244V185.667V200H378.281H81.3971H12.37H0V185.734V112.728V93.4764C6.98412 95.6156 7.57459 95.4867 14.4568 94.1561L14.3888 95.6842C14.7696 95.8205 15.0595 95.9232 15.4255 96.0949L15.5335 95.917L15.2881 95.2656C21.3316 95.8617 29.0801 95.2641 35.2369 94.6326C40.1064 94.1332 45.2557 92.8193 50.4398 92.4252C60.6291 91.651 70.5736 92.7588 80.6072 94.376C93.0029 96.374 104.419 101.854 116.548 105.033C123.807 106.936 131.624 107.43 138.873 109.583C144.968 111.393 150.787 117.517 156.902 117.964C167.671 118.621 176.287 109.808 187.111 109.649C191.699 109.405 195.852 110.354 200.357 111.006C209.264 112.297 218.459 112.55 227.07 109.542C228.645 108.992 232.34 108.547 233.264 107.34C233.885 107.363 234.611 107.414 235.223 107.355Z" fill="#82936A"/>
<path d="M235.223 107.355C238.09 106.42 240.879 105.456 243.652 104.275C250.697 101.28 257.215 97.2891 264.295 94.3848C269.877 92.1314 275.816 90.8936 281.834 90.7297C294.088 90.4488 312.701 95.76 323.354 101.456C334.158 107.232 340.826 111.491 353.818 111.678C356.436 111.716 359.904 111.331 362.25 111.368C364.641 111.209 366.275 111.074 368.684 111.165L370.533 111.076L371.086 110.881C372.582 111.122 388.219 109.356 390.625 109.005V114.335C387.891 115.853 380.268 118.108 377.139 119.107C358.467 125.062 339.783 122.853 321.367 117.149C314.154 114.916 304.383 111.934 296.715 113.212C282.098 115.649 270.748 128.729 257.527 134.649C252.16 137.052 246.418 138.408 240.555 139.18C235.115 139.821 229.258 140.183 224.332 142.871C209.137 151.231 197.85 161.653 180.536 166.219C169.608 169.101 170.285 170.46 158.696 166.978C153.615 165.462 148.609 163.704 143.696 161.709C133.302 157.495 122.732 152.701 111.536 151.125C107.015 150.579 102.344 150.285 97.8389 149.716C85.625 148.174 76.4377 141.852 66.3662 135.311C58.3479 130.103 49.2221 125.486 40.3045 121.932C31.3604 118.367 21.5195 116.541 12.065 114.826C8.84486 114.239 2.79283 113.607 0 112.728V93.4764C6.98412 95.6156 7.57459 95.4867 14.4568 94.1561L14.3888 95.6842C14.7696 95.8205 15.0595 95.9232 15.4255 96.0949L15.5335 95.917L15.2881 95.2656C21.3316 95.8617 29.0801 95.2641 35.2369 94.6326C40.1064 94.1332 45.2557 92.8193 50.4398 92.4252C60.6291 91.651 70.5736 92.7588 80.6072 94.376C93.0029 96.374 104.419 101.854 116.548 105.033C123.807 106.936 131.624 107.43 138.873 109.583C144.968 111.393 150.787 117.517 156.902 117.964C167.671 118.621 176.287 109.808 187.111 109.649C191.699 109.405 195.852 110.354 200.357 111.006C209.264 112.297 218.459 112.55 227.07 109.542C228.645 108.992 232.34 108.547 233.264 107.34C233.885 107.363 234.611 107.414 235.223 107.355Z" fill="#98A87B"/>
<path d="M15.2881 95.2656C21.3316 95.8617 29.0801 95.2641 35.2369 94.6326C40.1064 94.1332 45.2557 92.8193 50.4398 92.4252C60.6291 91.651 70.5736 92.7588 80.6072 94.376C93.0029 96.374 104.419 101.854 116.548 105.033C123.807 106.936 131.624 107.43 138.873 109.583C144.968 111.393 150.787 117.517 156.902 117.964C167.671 118.621 176.287 109.808 187.111 109.649C191.699 109.405 195.852 110.354 200.357 111.006C209.264 112.297 218.459 112.55 227.07 109.542C228.645 108.992 232.34 108.547 233.264 107.34C233.885 107.363 234.611 107.414 235.223 107.355L235.635 107.65C235.531 108.145 235.416 108.204 234.967 108.469C230.371 111.175 224.092 112.779 219.816 115.901C214.811 119.556 210.033 122.825 204.83 126.21C196.383 131.706 187.718 136.662 177.245 136.376C173.095 136.26 167.165 134.807 162.999 134.058C157.083 132.996 151.07 131.815 145.181 130.558C142.136 129.907 139.133 128.08 136.507 127.861C133.477 126.241 128.795 120.64 126.288 118.244C125.833 117.808 122.669 119.027 121.969 119.066C121.46 119.094 120.23 118.896 119.636 118.807C117.455 116.966 107.28 113.63 103.817 111.853C94.6744 107.16 85.6225 101.321 75.5006 99.1826C71.4947 98.3365 66.9254 98.0803 62.8303 98.0623C50.21 99.1887 37.082 99.4035 24.5967 97.0977C22.7889 96.7637 16.9997 96.7432 15.5335 95.917L15.2881 95.2656Z" fill="#82936A"/>
<path d="M235.223 107.355C238.09 106.42 240.879 105.456 243.652 104.275C250.697 101.28 257.215 97.2891 264.295 94.3848C269.877 92.1314 275.816 90.8936 281.834 90.7297C294.088 90.4488 312.701 95.76 323.354 101.456C334.158 107.232 340.826 111.491 353.818 111.678C356.436 111.716 359.904 111.331 362.25 111.368C363.795 112.947 370.021 112.496 371.01 114.382C370.904 115.644 368.908 115.84 367.84 116.118C358.594 118.523 345.627 118.897 337.002 114.216C336.051 109.838 334.977 111.25 332.529 111.284C332.43 111.285 328.979 108.518 328.5 108.147C327.211 107.158 325.854 106.261 324.437 105.463C320.24 103.102 316.148 101.936 311.711 100.286C306.846 98.4768 302.494 97.3687 297.377 96.5645C295.072 96.2021 294.117 92.4436 291.236 96.9516C283.26 99.0043 277.346 105.73 271.287 110.835C268.645 113.061 263.588 117.103 260.738 118.871C257.787 118.344 256.629 118.207 255.932 121.495C252.713 123.188 249.141 124.452 245.605 125.295C243.99 125.68 240.516 127.068 239.094 127.02L238.578 127.18C237.248 127.454 230.42 128.976 229.625 128.728L229.355 128.796C228.701 129.728 220.354 130.991 218.713 131.225L218.453 131.081C215.982 129.74 214.723 129.929 213.459 132.562C210.492 133.792 206.951 134.505 203.836 135.791C196.375 138.872 189.387 142.581 181.509 144.513L181.35 144.341C179.265 142.123 178.077 142.63 176.117 144.555C168.677 144.18 159.522 139.324 152.702 136.21C147.998 134.062 140.531 130.938 136.507 127.861C139.133 128.08 142.136 129.907 145.181 130.558C151.07 131.815 157.083 132.996 162.999 134.058C167.165 134.807 173.095 136.26 177.245 136.376C187.718 136.662 196.383 131.706 204.83 126.21C210.033 122.825 214.811 119.556 219.816 115.901C224.092 112.779 230.371 111.175 234.967 108.469C235.416 108.204 235.531 108.145 235.635 107.65L235.223 107.355Z" fill="#98A87B"/>
<path d="M226.955 124.072C227.537 123.553 228.121 123.088 228.541 122.43C228.926 123.053 229.547 123.862 229.482 124.545C229.227 124.952 229.203 124.965 228.818 125.263C228.719 126.447 229.814 127.381 229.625 128.728L229.355 128.796C228.922 127.933 229.061 127.836 228.363 127.503C227.775 127.593 227.652 127.624 227.105 127.853L226.969 127.629C228.076 125.924 227.73 125.891 226.955 124.072Z" fill="#AD592E"/>
<path d="M236.941 123.84C236.25 122.699 235.859 121.935 237.109 121.003C237.699 120.872 237.77 120.868 238.314 121.125C239.102 122.192 238.713 122.78 237.824 123.586L236.941 123.84Z" fill="#AD592E"/>
<path d="M236.941 123.84L237.824 123.586C238.512 125.003 238.619 126.034 239.094 127.02L238.578 127.18C238.646 126.583 238.68 126.471 238.377 125.963C237.748 125.541 236.934 125.751 236.076 125.686C236.578 125.032 236.955 124.687 236.941 123.84Z" fill="#A16941"/>
<path d="M244.027 118.894C244.564 119.398 244.49 123.577 244.447 124.468L244.121 124.551C243.715 124.184 243.625 124.07 243.105 123.922L242.566 124.224C242.158 124.558 242.07 124.582 241.568 124.754L241.484 124.645C241.9 123.931 242.457 123.584 243.113 123.091L242.297 120.706C242.879 120.152 243.473 119.487 244.027 118.894Z" fill="#AD592E"/>
<path d="M291.236 96.9516C294.117 92.4436 295.072 96.2022 297.377 96.5645C302.494 97.3688 306.846 98.4768 311.711 100.286C316.148 101.936 320.24 103.102 324.437 105.463C325.854 106.261 327.211 107.158 328.5 108.147C328.979 108.518 332.43 111.285 332.529 111.284C334.977 111.25 336.051 109.838 337.002 114.216C345.627 118.897 358.594 118.523 367.84 116.118C368.908 115.84 370.904 115.644 371.01 114.382C370.021 112.496 363.795 112.947 362.25 111.368C364.641 111.209 366.275 111.074 368.684 111.165C370.18 111.384 370.322 111.576 371.465 112.556C372.264 113.242 373.199 113.647 373.186 114.84C372 118.58 356.625 119.576 353.305 119.493C349.783 119.38 346.277 118.949 342.834 118.208C339.316 117.437 337.102 115.178 333.596 116.005C332.385 116.291 331.732 113.009 330.623 111.979C323.469 105.336 306.438 98.9758 297.152 98.4035C294.516 99.8234 293.941 101.051 291.326 98.5178C282.336 101.615 275.289 110.19 267.791 115.932C265.9 117.381 263.854 118.498 262.158 120.031C261.678 120.464 260.58 122.667 260.172 123.427C258.838 123.512 257.932 123.457 256.633 123.176C248.494 126.625 241.74 128.377 233.08 130.103C229.062 130.903 224.359 131.486 220.49 132.722C219.465 133.049 217.916 134.621 216.715 135.402C216 135.223 214.443 134.624 213.684 134.353C203.18 136.471 192.289 143.766 181.692 146.386C181.603 146.408 179.401 148.074 178.855 148.36C174.878 146.091 174.949 146.528 170.781 145.412C163.154 143.37 155.685 139.48 148.514 136.207C144.042 134.166 139.353 131.817 135.247 129.104C132.728 127.35 129.9 124.524 127.51 122.454C124.743 123.937 123.961 122.977 122.308 120.587C119.675 120.629 116.652 120.562 114.055 120.818C106.723 121.544 99.4828 123.197 92.1209 123.706C91.0736 123.779 89.716 125.088 88.5607 124.987C87.3734 124.884 86.6414 123.482 85.8443 122.743C84.6416 121.63 82.6711 120.357 81.684 119.049C78.9937 115.459 77.7662 110.871 74.8781 107.402C73.8936 106.219 72.0877 104.186 70.423 104.862C68.3807 105.693 67.5078 105.003 66.4402 103.304C66.1254 102.803 65.6729 102.626 65.1184 102.492C55.5479 100.936 45.5857 102.563 35.9457 101.974C29.7988 101.598 23.6162 100.899 17.5395 100.038C16.5832 101.193 16.1786 101.424 14.8523 102.071C14.4061 101.888 13.8217 101.707 13.413 101.46C10.3919 99.6334 13.5682 97.2988 14.3232 95.816L14.3888 95.6842C14.7696 95.8205 15.0595 95.9233 15.4255 96.0949L15.5335 95.917C16.9997 96.7432 22.7889 96.7637 24.5967 97.0977C37.082 99.4035 50.21 99.1887 62.8303 98.0623C66.9254 98.0803 71.4947 98.3365 75.5006 99.1826C85.6225 101.321 94.6744 107.16 103.817 111.853C107.28 113.63 117.455 116.966 119.636 118.807C120.23 118.896 121.46 119.094 121.969 119.066C122.669 119.027 125.833 117.808 126.288 118.244C128.795 120.64 133.477 126.241 136.507 127.861C140.531 130.938 147.998 134.062 152.702 136.21C159.522 139.324 168.677 144.18 176.117 144.555C178.077 142.63 179.265 142.123 181.35 144.341L181.509 144.513C189.387 142.581 196.375 138.872 203.836 135.791C206.951 134.505 210.492 133.792 213.459 132.562C214.723 129.929 215.982 129.74 218.453 131.081L218.713 131.225C220.354 130.991 228.701 129.728 229.355 128.796L229.625 128.728C230.42 128.976 237.248 127.454 238.578 127.18L239.094 127.02C240.516 127.068 243.99 125.68 245.605 125.295C249.141 124.452 252.713 123.188 255.932 121.495C256.629 118.207 257.787 118.344 260.738 118.871C263.588 117.103 268.645 113.061 271.287 110.835C277.346 105.73 283.26 99.0043 291.236 96.9516Z" fill="#AD592E"/>
<path d="M15.5335 95.917C16.9997 96.7432 22.7889 96.7637 24.5967 97.0977C37.082 99.4035 50.21 99.1887 62.8303 98.0623C66.9254 98.0803 71.4947 98.3365 75.5006 99.1826C85.6225 101.321 94.6744 107.16 103.817 111.853C107.28 113.63 117.455 116.966 119.636 118.807C110.029 119.019 101.687 121.37 92.0037 121.971C90.7947 120.69 90.4783 120.417 89.0621 119.467C88.1535 119.854 87.2006 120.483 86.349 121.006C81.2773 117.46 80.4277 112.234 77.0207 107.342C76.0424 105.438 73.457 104.241 72.2441 102.752C70.3967 100.485 69.7563 98.2568 66.658 101.463C60.5744 98.9635 48.3244 100.298 41.6504 100.297C36.7141 100.162 31.7648 99.9939 26.8453 99.5252C23.9883 99.2531 20.7852 99.2939 18.0693 98.366C16.9392 97.9799 16.104 97.0596 15.4255 96.0949L15.5335 95.917Z" fill="#98A87B"/>
<path d="M81.3971 200C83.0016 198.699 91.3598 195.602 93.7631 194.555C99.9805 191.86 106.24 189.261 112.538 186.761C133.522 178.195 152.729 171.307 175.849 173.136C186.32 173.964 196.684 175.809 207 173.125C214.373 171.206 221.102 167.303 228.381 165.062C239.855 161.584 249.189 161.177 260.393 155.954C269.586 151.668 279.062 143.872 288.107 140.749C299.592 136.785 314.988 141.232 327.451 139.592C338.078 138.194 346.449 135.091 356.65 132.283C367.432 129.315 379.516 128.499 390.625 129.244V185.667V200H378.281H81.3971Z" fill="#6C8556"/>
<path d="M15.4166 93.9436C20.9307 92.5096 26.4484 91.134 31.8463 89.3031C39.6459 86.6578 47.0898 83.2377 54.727 80.273C60.5307 78.0201 67.2477 76.5768 73.3195 75.2006C77.2916 74.3004 80.8029 73.5803 84.8377 73.0273C99.2096 71.0578 109.74 79.19 123.45 81.582C133.02 83.2518 143.002 80.8207 151.939 83.5748C161.445 86.5041 170.736 93.9143 180.573 96.2641C187.751 97.9787 196.281 97.8949 203.611 99.0092C210.809 100.103 218.09 102.568 224.98 104.853C227.697 105.755 230.545 106.452 233.264 107.34C232.34 108.547 228.645 108.992 227.07 109.542C218.459 112.55 209.264 112.297 200.357 111.006C195.852 110.354 191.699 109.405 187.111 109.649C176.287 109.808 167.671 118.621 156.902 117.964C150.787 117.517 144.968 111.393 138.873 109.583C131.624 107.43 123.807 106.936 116.548 105.033C104.419 101.854 93.0029 96.374 80.6072 94.376C70.5736 92.7588 60.6291 91.651 50.4398 92.4252C45.2557 92.8193 40.1064 94.1332 35.2369 94.6326C29.0801 95.2641 21.3316 95.8617 15.2881 95.2656L15.4166 93.9436Z" fill="#98A87B"/>
<path d="M373.193 101.296C375.311 100.159 375.746 100.07 378.152 99.9397C378.162 100.681 378.314 104.661 378.082 104.987C377.594 104.969 377.014 104.866 376.605 104.892C374.684 105.016 373.354 105.997 371.453 105.334C371.379 105.317 371.137 105.143 371.057 105.09C370.916 104.389 370.906 104.217 370.5 103.617C370.469 102.878 370.281 100.956 370.574 100.427C371.201 100.344 372.199 101.037 373.193 101.296Z" fill="#AD592E"/>
<path d="M14.4224 86.8307C16.0231 87.5537 18.8472 88.9475 20.4037 89.5312C19.4343 90.0941 15.6748 91.7799 15.1477 92.2451C15.0443 92.2277 14.5855 92.0387 14.4571 91.9889L14.4224 86.8307Z" fill="#AD592E"/>
<path d="M370.5 103.617C370.906 104.217 370.916 104.389 371.057 105.09C371.137 105.143 371.379 105.317 371.453 105.334C370.861 106.012 371.08 109.723 371.086 110.881L370.533 111.076C370.209 109.958 370.449 105.005 370.5 103.617Z" fill="#A16941"/>
<path d="M14.4571 91.9889C14.5855 92.0387 15.0443 92.2277 15.1477 92.2451C15.3121 92.9469 15.3777 93.2244 15.4166 93.9436L15.2881 95.2656L15.5335 95.917L15.4255 96.0949C15.0595 95.9233 14.7697 95.8205 14.3888 95.6842L14.4568 94.1561L14.4571 91.9889Z" fill="#A16941"/>
<circle cx="69.5" cy="103.5" r="3" fill="#98A87B" stroke="#B75530"/>
<circle cx="294.5" cy="97.5" r="3" fill="#98A87B" stroke="#B75530"/>
<circle cx="333.5" cy="113.5" r="3" fill="#98A87B" stroke="#B75530"/>
<circle cx="259.5" cy="120.5" r="3" fill="#98A87B" stroke="#B75530"/>
<circle cx="215.5" cy="132.5" r="3" fill="#98A87B" stroke="#B75530"/>
<circle cx="178.5" cy="146.5" r="3" fill="#98A87B" stroke="#B75530"/>
<circle cx="125.5" cy="120.5" r="3" fill="#98A87B" stroke="#B75530"/>
<circle cx="88.5" cy="122.5" r="3" fill="#98A87B" stroke="#B75530"/>
</svg>
