<svg width="72" height="73" viewBox="0 0 72 73" fill="none" xmlns="http://www.w3.org/2000/svg">
<path d="M35.91 0C39.5028 3.01482 45.8235 9.67375 49.3393 13.1979C53.1615 17.3376 70.1836 33.6329 71.6228 37.0153C69.7839 38.7228 64.3871 38.1116 61.6307 38.0594C61.6739 46.0756 61.7203 54.088 61.7968 62.1042C61.8242 64.9924 62.2772 70.2179 60.1868 72.3499C60.056 72.4823 59.9205 72.611 59.7813 72.7344C57.2616 72.0899 46.3182 72.3141 43.1626 72.3299C43.1093 66.5012 43.5106 56.5212 42.9237 51.1971C42.3668 57.2368 42.6104 66.5027 42.6864 72.785C38.5715 72.5588 32.4243 72.053 28.4739 72.3014C28.3895 72.3167 28.3052 72.3304 28.2208 72.3425C25.0657 72.8024 12.8482 73.1684 10.0696 71.1128L10.0707 38.0589C7.77831 38.1153 1.57992 38.5983 0 37.1571C0.927598 34.0062 18.5583 17.1259 22.0862 13.6079C24.5431 10.7014 33.0861 2.09007 35.91 0Z" fill="#503620"/>
<path d="M28.5145 50.7673C31.3358 50.7456 40.9556 50.3907 42.9237 51.197C42.3668 57.2367 42.6104 66.5027 42.6863 72.7849C38.5715 72.5587 32.4242 72.053 28.4739 72.3013L28.5145 50.7673Z" fill="#AAB492"/>
</svg>
