<svg width="154" height="154" viewBox="0 0 154 154" fill="none" xmlns="http://www.w3.org/2000/svg">
<path d="M75.5053 0.0564626C76.7153 -0.0250374 77.814 -0.120286 78.875 0.570714C83.7933 3.77371 85.646 22.9092 90.2803 25.2795C94.6518 27.5152 106.333 12.038 111.632 10.289C112.747 9.92096 113.915 9.92871 114.963 10.4877C121.62 14.037 111.759 31.6907 114.242 38.166C116.272 43.4615 136.334 34.0107 141.015 36.2182C142.188 36.7717 143.343 38.0772 143.683 39.3347C144.007 40.5312 143.698 41.762 143.143 42.838C142.099 44.8612 140.347 46.5057 138.802 48.1432C135.572 51.5667 131.459 55.3617 129.057 59.4257C128.466 60.4265 127.995 61.6282 128.365 62.7937C128.684 63.7982 129.562 64.5152 130.439 65.0307C135.893 68.2342 144.987 68.8462 150.604 72.1622C151.924 72.941 153.011 73.9912 153.349 75.535C155.184 83.9375 132.312 83.7945 129 89.5737C126.182 94.4902 142.495 106.15 143.687 111.854C143.923 112.981 143.758 114.114 143.053 115.045C142.392 115.919 141.463 116.516 140.385 116.72C134.611 117.817 122.233 112.171 116.177 113.111C115.334 113.242 114.601 113.555 114.142 114.306C112.45 117.075 115.808 128.556 116.609 132.134C117.213 134.831 118.432 138.566 116.737 141.041C116.045 142.051 114.761 142.915 113.536 143.073C109.331 143.615 99.076 132.081 95.1363 129.279C94.016 128.483 92.43 127.475 90.9935 127.812C89.815 128.088 88.9473 129.157 88.3593 130.146C85.22 135.43 84.1503 145.099 80.9498 150.422C79.9335 152.112 79.0155 152.736 77.1265 153.209C68.8823 151.301 69.542 133.408 62.9485 126.864C56.1923 129.38 51.2938 135.89 45.9488 140.459C45.1028 141.182 43.9885 142.165 43.0035 142.68C40.5035 143.986 37.003 142.549 36.453 139.688C35.4203 134.244 41.5193 118.651 39.6275 114.479C37.5955 109.998 16.6373 118.484 12.7635 116.599C11.6598 116.092 11.2283 116.052 10.5123 114.771C9.80877 113.513 10.0428 111.522 10.7103 110.302C13.892 104.488 23.7238 96.5585 25.7878 90.6477L25.906 90.3042C20.4038 83.9857 3.59702 84.0757 0.40002 77.79C0.0112704 77.0257 -0.136228 76.1772 0.148022 75.352C0.703271 73.74 2.48877 72.4215 3.96002 71.702C5.52927 70.9345 7.34402 70.6112 9.01227 70.105C13.1533 68.8485 18.2875 67.3142 22.1565 65.479C23.326 64.9242 24.84 64.0822 25.2415 62.7595C26.3823 59.0025 12.969 47.043 10.875 43.2665C10.1483 41.9562 9.75377 40.389 10.2458 38.926C10.7468 37.4367 12.2313 36.188 13.7883 35.9502C19.2583 35.116 34.3783 41.8475 38.584 39.5677C43.0305 37.1577 35.0648 18.0437 36.7805 12.967C37.1915 11.7517 38.065 10.7277 39.265 10.239C44.691 8.02821 55.336 23.3677 60.888 25.2952C61.6575 25.5622 62.474 25.6305 63.216 25.2402C66.4408 23.5442 70.1275 9.25346 71.472 5.37821C72.267 3.08696 73.2383 1.16021 75.5053 0.0564626Z" fill="#975111"/>
<path d="M76.7865 7.44104C77.522 8.16504 77.8193 10.6058 78.321 11.7033C80.9543 17.6038 82.7185 30.4435 90.8278 31.0473C96.9573 31.5035 107.538 20.7353 111.623 16.5038C110.737 20.582 110.233 25.0948 109.321 29.0805C104.081 51.976 123.845 44.6773 137.165 41.921C115.165 64.6575 118.035 68.5125 147.489 76.2308C135.267 80.872 112.561 83.903 127.8 100.184C131.128 103.739 133.973 107.585 137.488 111.194C105.354 103.037 105.556 107.853 111.986 136.912C108.695 133.577 99.6495 125.276 95.5845 123.383C81.8053 116.966 80.7385 138.843 77.451 146.286L77.047 146.389C74.0808 139.925 72.6578 130.335 68.4295 124.994C61.196 115.859 47.276 131.468 42.0773 136.368C43.436 131.141 44.0105 125.216 45.0478 119.891C48.6233 101.534 26.2655 108.78 16.2488 111.502C23.5418 102.617 41.805 88.8105 22.584 81.7493C17.1633 79.7578 12.2883 78.001 6.67352 76.4928C10.805 75.1115 15.3715 73.5828 19.5505 72.397C41.88 66.0618 25.7498 51.601 16.5198 41.438C27.1505 44.1085 48.729 52.2645 45.258 32.4663C44.3075 27.0443 43.4505 21.3023 41.84 16.0358C46.0835 20.57 53.7003 27.6618 59.3568 30.3798C62.8605 32.0633 67.8395 29.825 69.6355 26.354C72.5818 20.6608 74.8548 13.6598 76.7865 7.44104Z" fill="#D38A31"/>
<path d="M72.6693 36.2622C94.9463 34.0175 114.814 50.284 117.01 72.5657C119.206 94.8475 102.895 114.679 80.6085 116.826C58.3913 118.966 38.6348 102.717 36.4458 80.505C34.257 58.2925 50.4618 38.5002 72.6693 36.2622Z" fill="#975111"/>
<path d="M74.741 41.635C93.9995 40.5305 110.515 55.2298 111.652 74.4863C112.788 93.743 98.117 110.283 78.8625 111.452C59.562 112.624 42.974 97.91 41.8345 78.6078C40.695 59.3053 55.4367 42.742 74.741 41.635Z" fill="#D5AF56"/>
</svg>
