<svg width="73" height="171" viewBox="0 0 73 171" fill="none" xmlns="http://www.w3.org/2000/svg">
<path d="M33.5231 0.142487C34.1856 0.0374866 35.9406 0.0025 36.6386 0C42.1781 0.0125 47.4886 2.20999 51.4189 6.11499C57.8731 12.59 57.3989 19.6875 57.4004 28.09L57.3884 44.7225L57.3469 105.835C84.4626 124.602 73.2326 167.563 39.4219 170.503C38.1241 170.553 36.8281 170.53 35.5364 170.573C24.3951 170.928 13.6616 164.83 7.11262 156.01C1.32537 148.193 -1.07638 138.375 0.447872 128.767C1.93187 119.262 7.57337 111.775 15.1816 106.19C14.8069 88.095 15.1991 68.705 15.1934 50.4725L15.2096 30.63C15.2241 26.3375 15.1184 21.365 15.7251 17.14C16.9974 8.27998 24.6931 1.22749 33.5231 0.142487Z" fill="#787B41"/>
<path d="M34.7347 5.37745C43.4512 4.59995 51.4449 11.2999 51.8027 20.1149C52.0492 26.1974 51.9844 32.3274 52.0139 38.4199L51.8762 84.0675C51.8624 91.365 51.5722 101.265 52.1919 108.387C52.7447 109.052 54.0371 110.305 54.7281 110.812C68.8131 121.18 70.9877 141.065 59.8264 154.43C53.9564 161.457 47.1619 164.127 38.1999 164.99C37.2152 165.047 36.2287 165.075 35.2419 165.077C18.6784 164.987 5.35215 150.877 5.5499 134.405C5.59665 126.815 8.71165 119.565 14.1867 114.307C16.2069 112.335 18.5137 110.63 20.6014 108.605C20.9202 100.942 20.6872 91.5574 20.6749 83.7749L20.7121 44.195L20.7014 29.1724C20.6959 23.7674 20.0881 17.8475 22.9966 13.1025C25.8279 8.48245 29.4734 6.23745 34.7347 5.37745Z" fill="#C7CDA8"/>
<path d="M33.4089 56.6475C35.8454 56.585 42.2249 56.1925 43.6769 57.7025C44.8419 58.915 44.4239 69.3175 44.4231 71.15L44.4219 98.8675C44.4184 102.452 44.2154 110.573 44.6036 113.815L44.6474 114.165C51.7989 118.43 56.6036 122.817 58.0294 131.487C58.9751 137.14 57.6411 142.94 54.3199 147.612C50.6604 152.66 45.0249 155.538 38.9521 156.473C37.6604 156.633 34.6971 156.6 33.4421 156.452C27.6224 155.752 22.3351 152.722 18.7894 148.052C11.5816 138.71 13.4406 125.093 22.6679 117.848C24.4341 116.463 26.3079 115.195 28.1071 113.84C28.4646 109.187 28.2786 103.32 28.2591 98.5375L28.1529 73.1625C28.1386 69.315 27.9176 61.455 28.5271 57.8825C30.4354 56.975 31.3711 56.85 33.4089 56.6475Z" fill="#787B41"/>
</svg>
