<svg width="390" height="789" viewBox="0 0 390 789" fill="none" xmlns="http://www.w3.org/2000/svg">
<g clip-path="url(#clip0_53_1153)">
<path d="M153.955 775.605C151.169 776.475 140.635 778.641 139.492 775.035C139.773 773.671 141.131 772.561 142.153 771.536C143.952 774.861 150.333 775.073 153.955 775.605Z" fill="#563A25"/>
<path d="M0 0H390V205.667V230.743V368.91V370.709V377.46V384.235V437.914V556.468V575.342V636.228V661.72V671.829V675.261V712.789V716.426V789H226.869H115.426H0V635.727V634.479V588.718V549.946V537.976V529.817V524.142C1.50242 523.283 3.02369 522.335 4.50909 521.437C3.25139 520.174 1.16397 518.386 2.33997 516.645C3.69926 516.121 4.10668 516.209 5.54825 516.302C7.32063 514.977 8.31498 510.604 9.126 508.273L9.53415 507.996C12.3132 506.1 12.7303 506.254 13.3033 503.238C8.64108 503.165 4.64613 503.034 0 502.679V401.423V382.742V287.985V263.934V0Z" fill="#34281C"/>
<path d="M173.975 398.256C188.352 398.927 189.119 401.789 200.769 405.41L200.81 405.734C200.733 406.948 200.843 408.061 200.092 408.912L198.823 409.267C199.417 411.416 204.57 417.373 206.443 418.486L206.744 419.372L205.696 420.085C202.942 420.952 201.249 422.342 198.489 422.778C196.82 423.04 194.24 422.034 193.025 422.57C192.855 423.617 192.67 424.665 192.47 425.706C190.902 427.351 188.376 429.855 187.143 431.631C188.287 432.875 189.122 433.642 189.754 435.237L188.375 435.476L187.378 434.84C179.629 432.875 175.271 430.236 168.431 426.445L167.748 425.471C167.766 423.791 169.631 420.196 170.435 418.463C169.868 416.479 169.642 414.657 169.342 412.63C168.882 408.404 170.219 404.135 172.429 400.572L173.975 398.256Z" fill="#BA5B32"/>
<path d="M169.342 412.63C168.882 408.404 170.219 404.135 172.429 400.572L173.68 401.446C171.309 403.623 171.239 405.306 170.478 408.45C171.598 420.058 178.238 422.843 184.556 430.664L184.786 430.448C188.758 426.719 190.866 427.566 191.102 421.125C191.117 420.697 191.127 420.27 191.133 419.846C201.68 422.527 198.809 420.027 206.443 418.486L206.744 419.372L205.696 420.085C202.942 420.952 201.249 422.342 198.489 422.778C196.82 423.04 194.24 422.034 193.025 422.57C192.855 423.617 192.67 424.665 192.47 425.706C190.902 427.351 188.376 429.855 187.143 431.631C188.287 432.875 189.122 433.642 189.754 435.237L188.375 435.476L187.378 434.84C179.629 432.875 175.271 430.236 168.431 426.445L167.748 425.471C167.766 423.791 169.631 420.196 170.435 418.463C169.868 416.479 169.642 414.656 169.342 412.63Z" fill="#5D2A14"/>
<path d="M173.975 398.256C188.352 398.927 189.119 401.789 200.769 405.41L200.81 405.734C196.459 406.655 187.937 398.36 173.68 401.446L172.429 400.572L173.975 398.256Z" fill="#5D2A14"/>
<path d="M0 0H390V205.667V230.743V368.91V370.709V377.46L388.828 377.822C383.396 378.291 368.478 386.86 362.43 388.594C355.463 390.586 347.977 389.734 340.801 390.439C339.066 390.609 331.873 392.173 331.103 391.907L330.989 392.273C324.253 394.974 313.04 395.174 308.104 399.82L306.419 400.287C304.852 400.514 303.711 400.125 302.144 400.263C295.902 400.645 288.211 401.92 282.013 400.652C275.028 399.223 268.53 396.168 261.168 395.895C258.871 395.81 255.889 395.055 253.418 394.827C250.799 395.428 239.79 390.909 235.015 392.547C227.727 391.796 223.483 393.202 216.223 393.872C212.474 394.223 207.814 393.938 204.051 393.66C203.525 396.137 202.474 403.746 200.971 404.975L200.769 405.41C189.119 401.789 188.352 398.927 173.975 398.256L175.265 395.394C171.684 392.273 170.84 391.337 168.588 387.119C160.25 385.928 151.296 387.877 142.493 385.423C135.375 383.441 130.861 380.615 124.477 377.921C121.468 376.651 113.481 375.302 109.626 374.141C101.332 371.644 88.3123 364.189 80.3311 363.65C67.0866 363.881 54.1402 370.517 41.5034 373.286C27.6824 376.314 13.7986 379.867 0 382.742V287.985V263.934V0Z" fill="#F7C07A"/>
<path d="M253.418 394.827C253.984 387.288 256.833 380.54 261.381 374.54C267.459 366.589 276.478 361.413 286.41 360.177C307.324 357.426 328.299 370.279 331.103 391.907L330.989 392.273C324.253 394.974 313.04 395.174 308.104 399.82L306.419 400.287C304.852 400.514 303.711 400.125 302.144 400.263C295.903 400.645 288.211 401.92 282.013 400.652C275.028 399.223 268.53 396.168 261.168 395.895C258.871 395.81 255.889 395.055 253.418 394.827Z" fill="#FAD8A2"/>
<path d="M188.696 343.986L189.645 343.526C190.813 343.7 192.036 343.595 192.772 344.584C194.871 347.403 200.155 358.038 204.299 357.501C206.77 355.349 204.878 351.689 203.849 349.02L203.932 348.763L205.272 348.856L206.518 349.48C206.608 351.459 209.858 358.841 210.714 362.113C209.736 366.384 212.055 370.74 208.991 375.044C205.783 378.692 205.625 381.675 204.392 386.387C206.196 388.405 204.786 391.198 204.051 393.66C203.524 396.137 202.474 403.746 200.971 404.975L200.769 405.41C189.119 401.789 188.352 398.927 173.975 398.256L175.265 395.394C171.684 392.273 170.84 391.337 168.588 387.119C166.742 382.917 159.197 375.892 155.879 371.038C148.609 360.402 150.869 359.886 161.762 354.185C166.839 351.876 171.903 349.344 177.107 347.341C180.345 346.095 183.692 346.046 186.785 344.267L188.696 343.986Z" fill="#BA5B32"/>
<path d="M162.287 363.968C167.459 362.978 172.871 360.721 176.89 360.033L177.479 360.508L178.32 365.749C179.817 373.416 180.636 374.796 180.357 383.16C170.85 384.492 164.931 371.402 162.287 363.968Z" fill="#F7C07A"/>
<path d="M186.785 344.267L188.696 343.986C194.253 352.591 195.747 359.845 186.238 366.209C183.105 366.433 181.43 366.61 178.32 365.749L177.479 360.508L177.609 359.617C179.027 357.954 182.902 357.393 184.61 358.915C183.66 360.386 179.478 359.409 178.673 362.097C179.023 362.853 179.247 363.125 179.92 363.572C181.567 364.654 183.581 365.023 185.504 364.597C193.498 362.816 192.929 347.791 186.785 344.267Z" fill="#5D2A14"/>
<path d="M189.645 343.526C190.813 343.7 192.036 343.595 192.772 344.584C194.871 347.403 200.155 358.038 204.299 357.501C206.77 355.349 204.878 351.689 203.849 349.02L203.932 348.763L205.272 348.856C205.849 351.325 207.791 357.739 204.251 358.626C196.937 357.083 195.847 347.529 189.645 343.526Z" fill="#5D2A14"/>
<path d="M204.392 386.387C206.196 388.405 204.786 391.198 204.051 393.66C203.524 396.137 202.474 403.746 200.971 404.975C201.943 399.169 202.539 391.772 204.392 386.387Z" fill="#F6D091"/>
<path d="M180.357 383.16C182.298 384.109 184.765 388.163 183.441 390.332C181.814 393.001 178.583 393.83 176.079 395.336L176.019 394.65C179.817 392.057 180.909 392.362 183.628 388.525C182.532 387.007 180.785 384.893 180.357 383.16Z" fill="#5D2A14"/>
<path d="M364.429 216.027C371.56 205.8 377.493 202.44 390 205.667V230.743C372.147 230.942 337.974 230.785 318.536 230.634C318.383 230.492 318.229 230.349 318.075 230.207C318.437 226.695 323.706 224.021 326.826 223.494C330.114 222.939 332.034 223.467 335.194 224.173C340.767 212.496 353.772 212.762 364.429 216.027Z" fill="#FAD8A2"/>
<path d="M0 263.934C10.975 260.658 20.0593 261.991 26.0017 272.968C31.2065 268.952 37.7668 267.776 41.9963 273.385C42.9682 274.674 44.6546 277.822 45.8813 278.414C51.1717 278.369 51.554 276.868 56.133 281.273C64.3932 279.702 70.7064 279.522 74.9274 288.047L0 287.985V263.934Z" fill="#FAD8A2"/>
<path d="M183.121 334.4C179.357 336.385 177.977 335.05 174.103 336.272C171.604 337.059 171.05 339.543 170.093 339.332C169.734 335.519 171.361 333.29 174.321 331.174L174.075 330.767C172.163 330.668 169.706 330.759 168.203 329.651L167.685 328.667L168.038 328.33C170.365 328.395 174.124 329.065 174.983 326.486C173.605 325.696 171.094 325.049 170.34 324.238L170.661 323.841C179.324 323.705 176.899 321.465 183.961 318.384C184.712 318.056 189.256 319.585 190.327 319.939C190.899 320.116 194.857 316.973 195.852 316.433C200.779 313.755 207.525 315.923 211.693 319.104C213.606 324.503 213.336 325.217 213.69 331.033C213.757 332.122 215.404 334.257 215.199 335.599C214.442 335.892 214.239 335.968 213.555 336.399C213.039 338.34 212.594 341.531 211.644 343.014C208.809 344.496 206.681 342.167 204.822 343.593C205.748 345.718 204.873 346.761 203.932 348.763L203.849 349.02C204.878 351.689 206.77 355.349 204.299 357.501C200.155 358.038 194.871 347.403 192.772 344.584C192.036 343.595 190.813 343.7 189.645 343.526C193.785 343.341 193.65 341.718 194.653 338.191C190.166 334.278 189.823 333.551 188.91 327.685C187.978 329.532 185.532 335.556 183.121 334.4Z" fill="#BA5B32"/>
<path d="M183.121 334.4C184.421 332.338 187.447 325.633 188.408 324.959L188.855 325.356L188.91 327.685C187.978 329.532 185.532 335.556 183.121 334.4Z" fill="#F6D091"/>
<path d="M203.849 349.02C203.332 348.985 203.362 348.947 202.958 348.607C202.904 346.618 203.536 345.08 204.822 343.593C205.748 345.718 204.873 346.761 203.932 348.763L203.849 349.02Z" fill="#F6D091"/>
<path d="M206.518 349.48L207.994 350.454C211.359 353.044 212.109 355.146 213.022 359.117C214.896 366.559 217.035 369.24 219.143 375.788C225.495 373.074 226.177 372.29 231.848 368.199C232.282 363.591 231.696 362.649 234.175 358.602L234.937 357.901L235.664 357.6C236.171 358.231 236.188 358.468 236.434 359.26L237.216 359.287C237.831 358.648 238.439 358.003 239.04 357.351C244.148 366.642 244.242 367.139 235.336 372.438C233.855 373.319 229.753 377.486 228.422 378.94L226.851 380.55C217.536 387.03 214.408 389.326 210.061 376.219L210.025 375.211L208.991 375.044C212.055 370.74 209.736 366.384 210.714 362.113C209.858 358.841 206.608 351.459 206.518 349.48Z" fill="#BA5B32"/>
<path d="M206.518 349.48L207.994 350.454C208.138 353.214 211.47 360.3 212.408 363.711C213.066 368.118 214.24 373.246 210.061 376.219L210.025 375.211L208.991 375.044C212.055 370.74 209.736 366.384 210.714 362.113C209.858 358.841 206.608 351.459 206.518 349.48Z" fill="#5D2A14"/>
<path d="M210.714 362.113C212.247 366.177 213.308 371.742 210.025 375.211L208.991 375.044C212.055 370.74 209.736 366.384 210.714 362.113Z" fill="#FAD8A2"/>
<path d="M390 370.709C388.031 371.127 385.048 372.372 382.716 372.971C374.669 375.037 368.177 377.149 360.192 379.744C353.949 381.774 345.232 383.986 338.756 385.874C338.479 385.728 338.244 385.604 338.05 385.5L338.214 384.918C340.428 383.274 385.067 369.944 390 368.91V370.709Z" fill="#FAD8A2"/>
<path d="M228.422 378.94C232.801 380.912 244.161 382.937 246.622 384.896L246.595 385.666C245.943 385.897 244.895 386.055 244.289 385.732C240.183 383.532 230.366 382.441 226.851 380.55L228.422 378.94Z" fill="#FAD8A2"/>
<path d="M234.175 358.602C232.366 357.684 227.066 355.366 226.876 353.275C228.994 352.797 233.564 356.366 234.937 357.901L234.175 358.602Z" fill="#FAD8A2"/>
<path d="M109.491 243.209C114.873 243.858 116.644 244.191 119.577 249.033C125.589 250.31 127.802 250.272 131.243 255.335L108.098 255.3C105.41 255.309 88.0868 255.558 86.9904 254.593C88.3292 249.355 97.3744 250.41 97.9412 249.854C102.272 245.612 103.032 244.068 109.491 243.209Z" fill="#FAD8A2"/>
<path d="M351.605 317.646L352.352 318.113L352.487 318.782C351.286 321.031 323.657 359.705 321.383 361.545L320.502 360.656C320.935 358.788 347.925 322.904 351.605 317.646Z" fill="#FAD8A2"/>
<path d="M232.196 317.762C233.921 318.198 235.292 320.504 236.401 321.965C238.012 324.417 241.564 328.556 242.944 330.88C245.423 335.055 264.269 358.434 264.088 361.352C263.52 361.22 262.692 360.968 262.329 360.476C252.664 347.377 243.228 334.101 233.586 320.983C232.9 320.049 232.176 318.945 232.196 317.762Z" fill="#FAD8A2"/>
<path d="M292.059 298.395C292.242 298.507 292.335 298.547 292.484 298.729C293.734 300.257 293.064 345.41 293.03 350.86L292.159 350.722C291.48 347.039 291.338 301.366 292.059 298.395Z" fill="#FAD8A2"/>
<path d="M357.675 352.484C357.845 352.522 358.307 352.842 358.487 352.955C357.891 355.132 335.502 370.076 332.391 372.162C332.252 372.139 331.732 371.837 331.57 371.749L331.55 371.024C332.881 369.251 354.515 354.556 357.675 352.484Z" fill="#FAD8A2"/>
<path d="M266.61 322.613C269.215 323.186 277.579 350.566 278.192 354.026C277.741 353.926 277.144 353.824 276.776 353.528C275.69 352.655 267.156 325.508 266.61 322.613Z" fill="#FAD8A2"/>
<path d="M317.138 322.644C318.641 324.496 308.966 353.43 307.671 354.482L306.93 353.433C306.869 352.038 315.96 324.858 317.138 322.644Z" fill="#FAD8A2"/>
<path d="M243.079 363.58C243.286 363.633 244.018 363.871 244.14 364.004C246.408 366.475 252.624 368.863 253.279 372.043C251.921 372.032 246.755 368.806 245.582 367.817C243.172 365.784 243.393 366.246 243.079 363.58Z" fill="#FAD8A2"/>
<path d="M80.3311 363.65C88.3123 364.189 101.332 371.644 109.626 374.141C113.481 375.302 121.468 376.651 124.477 377.921C130.861 380.615 135.375 383.441 142.493 385.423C151.296 387.877 160.25 385.928 168.588 387.119C170.84 391.337 171.684 392.273 175.265 395.394L173.975 398.256L172.429 400.572C170.219 404.135 168.882 408.404 169.342 412.63C169.642 414.657 169.868 416.479 170.435 418.463C169.631 420.196 167.766 423.791 167.748 425.471L168.431 426.445C175.271 430.236 179.629 432.875 187.378 434.84L188.375 435.476L189.754 435.237C189.122 433.642 188.287 432.875 187.143 431.631C188.376 429.855 190.902 427.351 192.47 425.706C192.67 424.665 192.855 423.617 193.025 422.57C194.24 422.034 196.82 423.04 198.489 422.778C201.249 422.342 202.942 420.952 205.696 420.085L206.744 419.372C209.098 421.052 224.198 444.148 225.505 448.293C225.976 449.792 225.21 456.272 225.384 458.749C225.677 460.979 226.955 471.293 227.573 472.992C228.624 479.853 229.838 484.757 232.033 491.357C232.213 491.9 232.285 492.713 232.12 493.294L232.356 493.414C231.94 494.886 231.495 496.353 231.225 497.856C229.966 498.754 228.636 499.751 227.293 500.491C226.225 499.917 223.941 498.777 223.028 498.145L222.307 499.778L222.18 500.757L221.906 501.967C219.511 503.026 212.848 503.85 209.874 504.575C191.414 509.078 172.753 512.257 154.855 518.837C151.858 519.939 148.733 521.692 145.83 522.62C136.278 520.886 126.916 516.263 117.246 515.628C85.2416 513.517 81.7019 524.111 55.4455 535.229C43.8507 540.138 31.7702 543.112 19.5593 546.001C13.2101 547.5 6.49816 549.256 0 549.946V537.976V529.817V524.142C1.50242 523.283 3.02369 522.335 4.50909 521.437C3.25139 520.174 1.16397 518.386 2.33997 516.645C3.69926 516.121 4.10668 516.209 5.54825 516.302C7.32063 514.977 8.31498 510.604 9.126 508.273L9.53415 507.996C12.3132 506.1 12.7303 506.254 13.3033 503.238C8.64108 503.165 4.64613 503.034 0 502.679V401.423V382.742C13.7986 379.867 27.6824 376.314 41.5034 373.286C54.1402 370.517 67.0866 363.881 80.3311 363.65Z" fill="#8F9D70"/>
<path d="M80.3311 363.65C88.3123 364.189 101.332 371.644 109.626 374.141C113.481 375.302 121.468 376.651 124.477 377.921C130.861 380.615 135.375 383.441 142.493 385.423C151.296 387.877 160.25 385.928 168.588 387.119C170.84 391.337 171.684 392.273 175.265 395.394L173.975 398.256L172.429 400.572C170.219 404.135 168.882 408.404 169.342 412.63C169.642 414.657 169.868 416.479 170.435 418.463C169.631 420.196 167.766 423.791 167.748 425.471L168.431 426.445C167.744 429.57 162.095 448.84 160.752 450.535C157.729 448.59 153.395 448.913 149.987 449.641C147.438 450.185 144.955 451.001 142.581 452.076C138.675 450.069 130.425 447.642 125.567 445.122C115.503 439.91 106.187 433.653 96.2013 428.56C92.4666 426.653 84.3151 424.427 80.0914 423.167C76.852 422.45 72.8094 421.988 69.4686 421.518C66.0819 420.778 60.4851 420.485 56.8899 420.042C56.5207 419.996 56.1076 420.543 55.723 420.894C53.9634 420.905 40.7885 416.987 38.6343 415.739C35.7502 414.071 34.445 414.175 33.3118 410.993C32.7225 412.202 32.5856 412.256 31.4227 412.399C30.3487 411.913 30.198 411.648 29.4852 410.738C29.1972 407.302 27.2076 406.601 27.1792 400.949C25.835 403.684 24.2829 405.934 21.9488 408.096C21.9 408.142 21.2737 408.489 21.2409 408.481C14.4823 406.686 6.77506 402.81 0 401.423V382.742C13.7986 379.867 27.6824 376.314 41.5034 373.286C54.1402 370.517 67.0866 363.881 80.3311 363.65Z" fill="#98A87B"/>
<path d="M80.3311 363.65C88.3122 364.189 101.332 371.644 109.626 374.141C113.481 375.302 121.468 376.651 124.477 377.921C130.861 380.615 135.375 383.441 142.493 385.423C151.296 387.877 160.25 385.928 168.587 387.119C170.84 391.337 171.684 392.273 175.265 395.394L173.975 398.256L172.429 400.572C170.219 404.135 168.882 408.404 169.342 412.63C169.641 414.657 169.868 416.479 170.435 418.463C169.631 420.196 167.766 423.791 167.748 425.471L168.431 426.445C167.744 429.57 162.095 448.84 160.752 450.535C157.729 448.59 153.395 448.913 149.987 449.641C147.438 450.185 144.955 451.001 142.581 452.076C138.675 450.069 130.425 447.642 125.566 445.122C115.503 439.91 106.187 433.653 96.2013 428.56C92.4666 426.653 84.3151 424.427 80.0914 423.167C82.2711 421.306 88.3893 419.029 91.1216 417.396C95.8382 414.576 101.694 413.204 106.858 411.563C119.588 407.51 130.982 411.074 143.616 413.485C137.151 410.758 130.955 406.331 124.462 403.496C118.31 400.81 112.312 401.072 106.253 399.551C102.094 398.503 94.3545 392.123 90.6634 389.207C101.966 390.351 106.248 393.918 116.19 395.078C112.242 390.898 102.947 384.928 97.6549 381.554C91.9949 378.273 85.3182 376.326 80.1835 372.206C78.6181 370.95 80.0001 365.247 80.3311 363.65Z" fill="#AFBB8E"/>
<path d="M32.7121 409.298C39.1383 407.367 63.3376 402.66 69.8158 402.556C69.368 407.93 69.0123 416.113 69.4686 421.518C66.0819 420.778 60.4851 420.485 56.8899 420.042C56.5207 419.996 56.1076 420.543 55.723 420.894C53.9634 420.905 40.7885 416.987 38.6343 415.739C35.7502 414.071 34.445 414.175 33.3118 410.993L32.7121 409.298Z" fill="#AFBB8E"/>
<path d="M206.744 419.372C209.098 421.052 224.198 444.148 225.505 448.293C225.976 449.792 225.21 456.272 225.384 458.749C225.677 460.979 226.955 471.293 227.573 472.992C228.624 479.853 229.838 484.757 232.033 491.357C232.213 491.9 232.285 492.713 232.12 493.294L232.356 493.414C231.94 494.886 231.495 496.353 231.225 497.856C229.966 498.754 228.636 499.751 227.293 500.491C226.225 499.917 223.941 498.777 223.028 498.145C223.806 493.734 213.546 475.033 211.456 468.553C209.763 468.438 202.098 466.943 200.68 466.169C196.611 466.25 176.981 461.28 172.405 459.781C174.559 457.585 188.218 438.203 188.375 435.476L189.754 435.237C189.122 433.642 188.287 432.875 187.143 431.631C188.376 429.855 190.902 427.351 192.47 425.706C192.67 424.665 192.855 423.617 193.025 422.57C194.24 422.034 196.82 423.04 198.489 422.778C201.249 422.342 202.942 420.952 205.696 420.085L206.744 419.372Z" fill="#BA5B32"/>
<path d="M189.754 435.237C191.022 435.441 196.587 440.515 197.982 441.717C202.089 445.246 207.324 448.351 210.474 452.712C210.75 453.097 211.021 453.482 211.289 453.871C211.132 456.526 210.79 459.558 210.687 462.101C210.68 465.063 210.75 465.46 211.409 468.357L211.456 468.554C209.763 468.438 202.098 466.943 200.68 466.169C196.611 466.25 176.981 461.28 172.405 459.781C174.559 457.585 188.218 438.203 188.375 435.476L189.754 435.237Z" fill="#AFBB8E"/>
<path d="M200.68 466.169C203.365 465.14 209.423 464.462 210.688 462.1C210.68 465.063 210.75 465.46 211.409 468.357L211.456 468.553C209.763 468.438 202.098 466.943 200.68 466.169Z" fill="#98A87B"/>
<path d="M206.744 419.372C209.098 421.052 224.198 444.148 225.505 448.293C225.976 449.792 225.21 456.272 225.384 458.749C225.677 460.979 226.955 471.293 227.573 472.992C228.624 479.853 229.838 484.757 232.033 491.357C232.213 491.9 232.285 492.713 232.12 493.294C227.767 489.249 225.743 463.645 223.39 457.081C222.995 455.979 224.275 450.281 223.518 448C221.998 443.427 218.735 440.307 216.371 436.192C213.034 430.683 209.117 425.571 205.696 420.085L206.744 419.372Z" fill="#F6D091"/>
<path d="M168.431 426.445C175.271 430.236 179.629 432.875 187.378 434.84L188.375 435.476C188.218 438.203 174.559 457.585 172.405 459.781L170.762 460.575C170.025 461.126 168.539 462.208 167.63 462.347C154.643 464.304 141.54 466.076 129.075 470.434C127.631 470.938 124.729 471.624 123.841 472.818C122.815 472.518 121.858 472.017 121.026 471.343C117.259 468.253 120.826 464.959 122.927 462.725L123.017 462.193C124.058 461.003 132.127 458.849 133.8 457.797C137.003 455.779 139.194 453.995 142.581 452.076C144.955 451.001 147.438 450.185 149.987 449.641C153.395 448.913 157.729 448.59 160.752 450.535C162.096 448.84 167.744 429.57 168.431 426.445Z" fill="#BA5B32"/>
<path d="M142.581 452.076C144.955 451.001 147.438 450.185 149.987 449.641C153.395 448.913 157.729 448.59 160.752 450.535C156.564 450.739 151.31 450.508 147.397 451.687C140.185 453.86 134.405 459.419 126.859 461.476C125.715 461.788 124.088 462.582 122.927 462.725L123.017 462.193C124.058 461.003 132.127 458.849 133.8 457.797C137.003 455.778 139.194 453.995 142.581 452.076Z" fill="#F6D091"/>
<path d="M187.378 434.84L188.375 435.476C188.218 438.203 174.559 457.585 172.405 459.781L170.762 460.575C174.821 455.925 184.65 440.064 187.378 434.84Z" fill="#F6D091"/>
<path d="M46.622 510.862C48.0802 509.044 60.1556 511.548 63.0339 510.184C64.3542 509.56 65.0895 507.137 65.5693 505.819C66.0464 506.686 65.9932 507.549 66.0526 508.558C67.0133 509.575 66.7594 509.664 67.8893 509.71L68.5117 509.256C69.0308 509.672 70.3118 510.666 70.9338 510.785C78.6424 512.249 87.0394 512.314 94.6856 514.152C88.6895 514.811 77.8601 515.728 72.6514 517.743C63.0887 521.437 52.6997 527.247 42.6626 529.855C35.2648 531.774 26.8401 533.172 19.2496 534.532C13.318 535.595 5.7683 536.193 0 537.976V529.817V524.142C1.50242 523.283 3.02369 522.335 4.50909 521.437C3.25139 520.174 1.16397 518.386 2.33997 516.645C3.69926 516.121 4.10668 516.209 5.54825 516.302L5.52536 517.354C6.78388 518.517 12.8545 518.136 15.011 518.463C21.4471 519.446 26.7466 520.416 33.2525 519.365C42.2121 518.332 44.6696 518.166 53.6104 518.648C54.6008 518.575 55.4074 518.486 56.3885 518.355L56.4826 517.908L55.4047 517.342C53.0246 515.42 48.2783 512.777 46.622 510.862Z" fill="#79855F"/>
<path d="M4.50909 521.437C3.25139 520.174 1.16397 518.386 2.33997 516.645C3.69926 516.121 4.10668 516.209 5.54825 516.302L5.52536 517.354C6.78388 518.517 12.8545 518.136 15.011 518.463C21.4471 519.446 26.7466 520.416 33.2525 519.365C42.2121 518.332 44.6696 518.166 53.6104 518.648C49.7092 519.958 33.6141 523.568 29.8366 523.66C18.3757 523.941 10.6699 528.665 0 529.817V524.142C1.50242 523.283 3.02369 522.335 4.50909 521.437Z" fill="#5F6949"/>
<path d="M14.9904 485.1C16.5311 483.521 18.3419 483.609 20.3126 484.179C22.0645 484.873 23.1372 485.301 25.001 485.74C25.4316 491.715 26.447 498.546 27.6128 504.463C28.1436 507.156 32.0198 512.072 34.8335 512.172L35.1241 512.357C36.933 511.271 37.1342 510.184 37.5796 508.269C37.6914 506.501 37.6864 503.773 38.8535 502.556C41.1527 502.232 42.3076 502.298 44.5975 502.379L46.6219 510.862C48.2783 512.777 53.0246 515.42 55.4046 517.342L56.4825 517.908L56.3885 518.355C55.4073 518.486 54.6007 518.575 53.6103 518.648C44.6696 518.167 42.2121 518.332 33.2525 519.365C26.7466 520.416 21.447 519.446 15.011 518.463C12.8545 518.136 6.78385 518.517 5.52533 517.354L5.54822 516.302C7.3206 514.977 8.31495 510.604 9.12597 508.273L9.53412 507.996C12.3131 506.1 12.7302 506.254 13.3032 503.238C13.7933 497.421 14.7174 490.756 14.9904 485.1Z" fill="#B27143"/>
<path d="M14.9904 485.1C17.5474 487.392 19.4818 489.165 21.8118 491.669C20.65 497.436 20.6936 499.732 20.8887 505.68C23.1621 506.906 24.2221 507.476 26.1176 509.363C24.6506 509.853 22.644 510.45 21.2533 511.012C22.9115 514.657 23.3946 515.674 26.6943 518.174C28.4229 517.897 30.6775 517.238 32.1558 517.955L33.2525 519.365C26.7466 520.416 21.447 519.446 15.011 518.463C12.8545 518.136 6.78385 518.517 5.52533 517.354L5.54822 516.302C7.3206 514.977 8.31495 510.604 9.12597 508.273L9.53412 507.996C12.3131 506.1 12.7302 506.254 13.3032 503.238C13.7933 497.421 14.7174 490.756 14.9904 485.1Z" fill="#72482E"/>
<path d="M38.8536 502.556C41.1527 502.232 42.3077 502.298 44.5976 502.379L46.622 510.862C48.2783 512.777 53.0246 515.42 55.4047 517.342C52.8311 517.219 47.3588 513.301 45.3125 511.571C44.3012 508.94 44.1209 506.663 43.806 503.901C42.1308 503.569 40.491 503.045 38.8536 502.556Z" fill="#F7C07A"/>
<path d="M37.5796 508.269C37.6914 506.501 37.6864 503.773 38.8535 502.556C39.6871 505.534 40.5453 509.098 38.968 511.96C37.93 513.844 35.9182 515.142 33.7337 514.456L33.4595 513.886C34.0898 512.996 34.1789 512.892 35.1241 512.357C36.933 511.27 37.1342 510.184 37.5796 508.269Z" fill="#72482E"/>
<path d="M114.577 459.153C117.048 460.078 119.514 461.134 122.114 461.503L123.017 462.193L122.927 462.725C120.826 464.959 117.259 468.253 121.026 471.343C121.858 472.017 122.815 472.518 123.841 472.818L124.023 475.126C122.635 475.808 121.044 476.64 119.606 477.152C117.819 478.574 117.006 479.198 115.497 480.99L115.306 481.282C114.664 482.269 114.702 482.226 113.88 483.024C111.133 485.678 112.337 489.997 108.906 491.353C108.365 490.074 107.82 488.117 107.561 486.718C107.186 484.746 107.201 482.715 107.606 480.747C108.222 477.611 110.557 473.454 111.459 470.279C112.758 465.718 111.814 463.218 114.577 459.153Z" fill="#BA5B32"/>
<path d="M122.114 461.503L123.017 462.193L122.927 462.725C120.826 464.959 117.259 468.253 121.026 471.343C121.858 472.017 122.815 472.518 123.841 472.818L124.023 475.126C122.721 473.851 121.798 473.704 120.671 472.71C115.687 468.315 118.731 464.651 122.114 461.503Z" fill="#5D2A14"/>
<path d="M116.122 472.067C117.647 473.97 118.489 474.945 119.606 477.152C117.819 478.574 117.006 479.198 115.497 480.99C115.32 480.781 114.998 480.589 114.771 480.427L114.694 479.587L114.386 479.506L114.216 479.965L114.215 479.379L114.093 479.734C113.919 479.356 113.902 479.283 113.781 478.89C114.657 479.19 114.694 479.21 115.608 479.16L116.006 478.439C115.499 477.692 115.368 477.603 115.293 476.736L115.78 476.567L117.427 477.603L117.789 477.484C117.194 475.688 116.638 473.882 116.122 472.067Z" fill="#5D2A14"/>
<path d="M108.906 491.353C104.947 490.428 104.508 486.456 104.382 483.016C104.201 478.127 106.301 474.548 107.568 470.029C108.521 466.631 107.741 460.552 110.608 457.747L111.543 457.79C112.572 458.325 113.456 458.857 114.577 459.153C111.814 463.218 112.758 465.718 111.459 470.279C110.556 473.454 108.222 477.611 107.606 480.747C107.201 482.715 107.186 484.746 107.561 486.718C107.82 488.117 108.364 490.074 108.906 491.353Z" fill="#5D2A14"/>
<path d="M20.3126 484.179C22.7264 484.303 23.8109 484.395 26.1366 485.231C26.8092 490.062 26.8854 504.964 30.5374 507.445C31.7571 508.778 33.7529 510.827 34.8335 512.172C32.0198 512.072 28.1436 507.156 27.6128 504.463C26.447 498.546 25.4316 491.715 25.001 485.74C23.1372 485.3 22.0645 484.873 20.3126 484.179Z" fill="#F7C07A"/>
<path d="M30.5374 507.445C32.0204 506.613 35.8077 507.803 37.5796 508.269C37.1342 510.184 36.933 511.271 35.1241 512.357L34.8335 512.172C33.7529 510.827 31.7571 508.778 30.5374 507.445Z" fill="#79855F"/>
<path d="M111.543 457.789C112.783 457.354 121.138 460.047 121.988 460.964L122.114 461.503C119.514 461.133 117.048 460.078 114.577 459.153C113.456 458.857 112.572 458.325 111.543 457.789Z" fill="#F6D091"/>
<path d="M66.0526 508.558C66.2557 507.114 66.0125 506.821 66.9024 506.12C68.0373 506.956 68.0631 507.961 68.5117 509.256L67.8893 509.71C66.7594 509.664 67.0134 509.575 66.0526 508.558Z" fill="#98A87B"/>
<path d="M390 377.46V384.235V437.914V556.468V575.342V636.228C385.58 633.735 379.812 631.235 375.225 628.935C372.423 627.529 366.019 625.329 363.755 623.63C361.796 622.828 359.724 622.1 357.832 621.23C353.732 619.334 347.26 612.565 345.134 608.624L344.656 608.801C342.697 607.414 340.496 604.695 338.73 602.965C328.918 593.349 322.088 581.841 313.295 571.289L312.786 571.405C309.838 562.224 298.764 563.445 293.657 558.31C290.113 554.746 282.587 543.797 279.851 539.259L275.841 532.987C271.642 527.732 263.835 512.153 256.042 511.405L255.081 510.92C252.499 509.899 248.574 509.818 245.781 509.676C243.802 509.795 240.028 509.976 238.191 510.296C231.423 511.475 229.283 513.332 222.248 512.38L222.288 511.328C222.717 510.608 222.818 509.953 223.02 509.14L222.942 508.258C222.332 505.507 222.305 503.573 222.18 500.757L222.307 499.778L223.028 498.145C223.941 498.777 226.225 499.917 227.293 500.491C228.636 499.751 229.966 498.754 231.225 497.856C231.495 496.353 231.94 494.886 232.356 493.414L232.12 493.295C232.285 492.713 232.213 491.9 232.033 491.357C229.838 484.757 228.624 479.853 227.573 472.992C226.955 471.293 225.677 460.979 225.384 458.749C225.21 456.272 225.976 449.792 225.505 448.293C224.198 444.148 209.098 421.052 206.744 419.372L206.443 418.486C204.57 417.373 199.417 411.416 198.823 409.267L200.092 408.912C200.843 408.061 200.733 406.948 200.81 405.734L200.769 405.41L200.971 404.975C202.474 403.746 203.524 396.137 204.051 393.66C207.814 393.938 212.474 394.223 216.223 393.872C223.483 393.202 227.727 391.796 235.015 392.547C239.79 390.909 250.798 395.428 253.418 394.827C255.889 395.055 258.871 395.81 261.168 395.895C268.53 396.168 275.028 399.223 282.013 400.653C288.211 401.92 295.902 400.645 302.144 400.263C303.711 400.125 304.852 400.514 306.419 400.287L308.104 399.82C313.04 395.174 324.253 394.974 330.989 392.273L331.103 391.907C331.873 392.173 339.066 390.609 340.801 390.439C347.977 389.734 355.463 390.586 362.43 388.594C368.478 386.86 383.396 378.291 388.828 377.822L390 377.46Z" fill="#98A87B"/>
<path d="M355.596 456.95C356.911 458.005 358.995 459.327 360.723 459.246C365.234 456.799 361.47 440.422 365.785 439.328C366.287 440.245 366.382 440.511 367.204 441.143C369.393 439.852 368.451 436.627 371.925 436.181C374.304 435.876 377.463 434.721 379.824 434.035C381.707 434.539 383.511 435.661 385.387 436.215C387.618 436.878 388.112 436.342 390 437.914V556.468V575.342V636.228C385.58 633.735 379.812 631.235 375.225 628.935C372.423 627.529 366.019 625.329 363.755 623.63C361.796 622.828 359.724 622.1 357.832 621.23C353.732 619.334 347.26 612.565 345.134 608.624L344.656 608.801C342.697 607.414 340.496 604.695 338.73 602.965C328.918 593.349 322.088 581.841 313.295 571.289L312.786 571.405C309.838 562.224 298.764 563.445 293.657 558.31C290.113 554.746 282.587 543.797 279.851 539.259C286.507 535.137 336.423 525.875 333.477 512.673C328.762 501.389 295.236 500.703 288.637 495.907C277.069 487.5 320.197 474.224 323.211 472.93C323.285 472.895 325.129 457.358 326.892 454.677L327.449 454.719C328.171 456.121 330.888 469.463 331.231 471.612C334.421 471.077 337.599 470.476 340.764 469.809C340.693 467.34 340.61 466.558 340.122 464.139C338.304 462.555 336.849 461.23 335.515 459.207L329.973 459.161C330.633 457.659 331.51 455.085 332.835 454.291C338.134 454.16 334.751 448.659 340.508 448.131C342.196 448.956 341.438 449.206 342.373 450.223C344.172 452.184 347.482 449.73 349.486 452.35C349.279 455.655 351.967 456.53 350.847 458.356C349.427 459.076 348.114 458.953 346.525 458.953C345.122 460.209 343.474 461.673 342.879 463.48L342.815 463.68C342.245 465.414 342.627 467.933 342.789 469.809C344.375 469.382 354.753 467.721 355.042 467.49C355.292 466.045 355.39 466.589 354.786 465.394C353.159 464.485 350.993 465.244 348.625 464.635C346.182 462.097 353.5 459.176 355.596 456.95Z" fill="#79855F"/>
<path d="M372.831 512.376C373.552 512.808 373.863 512.865 374.017 513.967C375.131 521.915 375.569 530.298 376.372 538.234C385.034 542.626 380.063 546.321 383.16 553.201C381.571 554.789 380.603 553.795 379.16 555.544C379.254 557.212 379.575 557.439 378.798 558.476C376.313 559.235 365.242 559.196 363.202 558.009C362.959 557.909 362.567 557.62 362.332 557.462L362.483 556.526C359.075 555.286 343.473 556.873 338.457 555.744L336.513 556.172L337.041 555.031C338.777 553.371 343.054 547.719 344.453 545.778C348.725 544.899 353.189 544.144 357.289 542.719C359.378 534.012 361.003 527.52 362.402 518.706C362.964 516.383 366.717 516.182 368.776 515.766C370.315 514.977 371.579 513.594 372.831 512.376Z" fill="#72482E"/>
<path d="M362.402 518.706C362.964 516.383 366.717 516.182 368.776 515.766C368.104 520.898 369.578 527.297 368.37 532.217C367.932 534 362.907 536.585 363.262 539.463C364.238 539.402 366.082 538.304 367.052 537.795C366.446 539.987 365.878 542.191 365.092 544.321C358.284 550.37 355.95 547.558 347.091 548.428L349.96 551.695C347.186 552.312 341.132 554.496 338.457 555.744L336.513 556.172L337.041 555.031C338.777 553.371 343.054 547.719 344.453 545.778C348.725 544.899 353.189 544.144 357.289 542.719C359.378 534.012 361.003 527.52 362.402 518.706Z" fill="#B27143"/>
<path d="M373.139 549.599C374.618 549.245 374.213 549.361 375.817 549.865C376.849 551.025 376.601 550.474 376.834 551.934C375.407 556.176 367.802 557.216 363.889 557.64C366.012 555.216 367.412 554.111 369.653 551.248C371.051 550.886 372.373 550.809 373.676 550.166L373.139 549.599Z" fill="#B27143"/>
<path d="M373.139 549.599L373.676 550.166C372.373 550.809 371.051 550.886 369.653 551.248C367.412 554.111 366.011 555.216 363.889 557.64L363.202 558.009C362.959 557.909 362.567 557.62 362.332 557.462L362.483 556.526C366.792 553.186 365.21 550.316 373.139 549.599Z" fill="#F7C07A"/>
<path d="M383.16 553.201C385.784 554.307 387.541 555.051 390 556.468V575.342C388.004 575.215 382.047 574.914 380.418 574.421C374.249 572.545 368.308 568.126 361.931 566.154C359.059 565.268 354.758 565.426 352.318 564.921C349.867 564.416 337.367 557.674 336.513 556.172L338.457 555.744C343.473 556.873 359.075 555.286 362.483 556.526L362.332 557.462C362.567 557.62 362.959 557.909 363.202 558.009C365.242 559.196 376.313 559.235 378.798 558.476C379.575 557.439 379.254 557.212 379.16 555.544C380.603 553.795 381.571 554.789 383.16 553.201Z" fill="#5F6949"/>
<path d="M352.508 606.247C354.595 599.417 355.156 592.663 358.341 586.256C357.966 591.642 357.469 597.043 357.186 602.425L359.094 604.113C363.899 597.016 364.78 594.651 370.531 587.832C367.906 596.489 365.351 599.366 362.138 606.979C365.274 602.784 369.383 600.707 372.925 596.893C370.515 602.021 367.923 605.642 363.768 609.445C368.849 606.956 375.5 602.406 379.682 598.469C376.174 604.055 370.799 609.868 365.154 613.259C373.735 612.01 373.217 612.153 380.836 609.703C375.274 614.368 372.582 614.727 365.812 616.792C369.414 616.761 374.647 616.464 377.901 617.724L377.934 618.256C374.55 620.255 366.287 620.301 362.329 620.417C364.583 621.018 372.305 622.497 373.375 623.849C371.836 624.905 367.83 624.439 366.05 624.107C365.282 623.965 364.517 623.803 363.755 623.63C361.796 622.828 359.724 622.1 357.832 621.23C353.732 619.334 347.26 612.565 345.134 608.624C343.281 603.778 342.502 599.967 341.532 594.944C343.769 599.894 347.482 605.465 350.152 610.531C349.036 603.057 348.624 597.39 349.324 589.862C350.454 595.021 351.938 601.085 352.508 606.247Z" fill="#34281C"/>
<path d="M357.186 602.425L359.094 604.113C358.288 606.066 357.772 607.206 356.755 609.086C356.831 606.848 357.013 604.656 357.186 602.425Z" fill="#98A87B"/>
<path d="M356.23 541.81C357.27 537.283 359.441 518.964 361.445 516.98L362.347 517.639L362.402 518.706C361.003 527.52 359.378 534.012 357.289 542.719C353.189 544.144 348.725 544.899 344.453 545.778C343.054 547.719 338.777 553.371 337.041 555.031C342.445 543.343 344.688 543.74 356.23 541.81Z" fill="#F7C07A"/>
<path d="M361.445 516.98C362.697 514.911 370.445 511.652 372.832 512.376C371.579 513.594 370.315 514.977 368.776 515.766C366.717 516.182 362.964 516.383 362.402 518.706L362.347 517.639L361.445 516.98Z" fill="#F7C07A"/>
<path d="M367.915 447.63C368.473 447.627 370.717 447.588 370.941 447.8C374.19 450.84 373.149 451.957 377.046 455.355C376.996 457.177 376.937 463.025 376.039 464.2C374.743 464.597 373.647 465.075 372.331 464.79C371.133 463.168 369.259 451.518 367.915 447.63Z" fill="#98A87B"/>
<path d="M324.444 550.358C325.08 551.637 325.213 556.364 325.322 558.063L330.226 551.125C329.17 554.053 328.304 556.318 327.016 559.146L331.952 556.291C331.026 557.528 329.057 559.943 328.574 561.269C329.365 561.546 329.545 561.615 330.264 562.039C329.434 563.11 329.103 562.852 327.401 563.226C327.15 563.249 326.897 563.264 326.645 563.28C324.499 563.388 319.309 561.823 317.853 560.502C318.959 560.194 320.701 560.745 321.882 561.022C320.112 559.084 317.803 556.95 315.891 555.097C317.923 556.118 320.398 558.476 322.646 558.125C324.54 556.38 324.08 553.34 324.444 550.358Z" fill="#5F6949"/>
<path d="M385.032 450.57L385.468 451.83C383.835 455.871 385.572 461.08 381.697 462.27C380.956 461.345 380.835 454.958 380.727 453.232C382.06 452.346 383.652 451.421 385.032 450.57Z" fill="#98A87B"/>
<path d="M380.171 446.024L382.136 446.082C383.98 447.715 382.961 449.507 381.832 451.302L380.782 451.93L380.239 451.591C379.685 450.119 380.048 447.677 380.171 446.024Z" fill="#98A87B"/>
<path d="M375.353 446.228C376.11 446.347 376.072 446.359 376.7 446.825C377.15 448.99 377.153 450.616 376.695 452.793L376.073 453.07C374.36 450.982 372.979 448.208 375.353 446.228Z" fill="#98A87B"/>
<path d="M357.604 464.181C359.079 464.216 360.362 464.25 361.371 465.491C361.439 466.623 361.57 466.215 360.945 467.055C359.688 467.34 358.31 467.899 357.252 467.39C356.83 465.953 357.144 465.876 357.604 464.181Z" fill="#98A87B"/>
<path d="M385.032 450.57C384.863 449.345 384.496 447.831 385.029 446.779L385.688 446.186C387.769 447.295 386.142 450.277 385.468 451.83L385.032 450.57Z" fill="#98A87B"/>
<path d="M390 377.46V384.235C382.999 392.37 362.131 400.221 352.513 410.295C360.615 407.267 367.919 403.831 376.39 401.989C373.32 405.645 361.55 411.047 356.204 414.757C350.738 417.588 344.142 428.88 339.114 431.045C328.094 435.792 314.204 437.094 302.859 440.549C287.812 445.134 273.74 446.309 258.484 448.867C247.916 450.639 235.794 455.782 225.384 458.749C225.21 456.272 225.976 449.792 225.505 448.293C224.198 444.148 209.098 421.052 206.744 419.372L206.443 418.486C204.57 417.373 199.417 411.416 198.823 409.267L200.092 408.912C200.843 408.061 200.733 406.948 200.81 405.734L200.769 405.41L200.971 404.975C202.474 403.746 203.524 396.137 204.051 393.66C207.814 393.938 212.474 394.223 216.223 393.872C223.483 393.202 227.727 391.796 235.015 392.547C239.79 390.909 250.798 395.428 253.418 394.827C255.889 395.055 258.871 395.81 261.168 395.895C268.53 396.168 275.028 399.223 282.013 400.653C288.211 401.92 295.902 400.645 302.144 400.263C303.711 400.125 304.852 400.514 306.419 400.287L308.104 399.82C313.04 395.174 324.253 394.974 330.989 392.273L331.103 391.907C331.873 392.173 339.066 390.609 340.801 390.439C347.977 389.734 355.463 390.586 362.43 388.594C368.478 386.86 383.396 378.291 388.828 377.822L390 377.46Z" fill="#AFBB8E"/>
<path d="M235.015 392.547C239.79 390.909 250.799 395.428 253.418 394.827C255.889 395.055 258.871 395.81 261.168 395.895C268.53 396.168 275.028 399.223 282.013 400.652C288.211 401.92 295.902 400.645 302.144 400.263C303.711 400.125 304.852 400.514 306.419 400.287C303.975 401.003 301.547 401.77 299.136 402.59C301.859 403.411 307.761 405.299 310.372 405.811C311.813 406.493 311.884 406.25 312.602 407.402C310.827 412.33 295.957 412.044 293.861 416.463C296.311 420.177 327.275 422.704 312.824 429.119C302.112 433.873 282.167 436.215 270.2 438.265L269.86 437.317C275.872 436.003 312.176 429.701 313.747 425.471C310.749 421.341 290.872 421.187 288.956 416.051C291.174 411.998 309.191 409.429 310.114 407.063C308.253 406.196 302.033 405.133 299.675 404.69C289.597 402.872 279.487 401.234 269.351 399.782C266.612 399.4 259.438 398.861 257.278 398.345C249.933 396.588 242.441 394.346 235.015 392.547Z" fill="#F6D091"/>
<path d="M331.103 391.907C331.873 392.173 339.066 390.609 340.801 390.439C347.977 389.734 355.463 390.586 362.43 388.594C368.478 386.86 383.396 378.291 388.828 377.822C385.869 379.636 381.869 381.12 379.408 382.638C366.404 390.659 359.663 394.458 344.159 393.991C340.236 393.872 333.909 394.535 329.977 394.488C323.148 396.087 314.592 398.934 308.104 399.82C313.04 395.174 324.253 394.974 330.989 392.273L331.103 391.907Z" fill="#F6D091"/>
<path d="M257.641 440.106C261.575 438.704 265.741 437.949 269.86 437.317L270.2 438.265C268.532 438.773 259.732 439.825 257.641 440.106Z" fill="#CDCB96"/>
<path d="M277.299 486.102C283.064 484.372 293.206 481.151 298.946 480.662C294.966 483.07 279.393 489.215 284.06 495.768C289.438 503.323 326.083 505.056 326.641 514.337C324.93 520.836 296.46 526.854 289.215 529.185C285.244 530.46 279.677 530.88 275.841 532.987C271.642 527.732 263.835 512.153 256.042 511.405L255.081 510.92C252.499 509.899 248.575 509.818 245.781 509.675C243.802 509.795 240.028 509.976 238.191 510.296C231.423 511.475 229.283 513.332 222.248 512.38L222.288 511.328C222.717 510.608 222.818 509.953 223.02 509.14L222.942 508.258C222.332 505.507 222.305 503.573 222.18 500.757L222.307 499.778L223.028 498.145C223.941 498.777 226.225 499.917 227.293 500.491C228.636 499.751 229.966 498.754 231.225 497.856C231.495 496.353 231.94 494.886 232.356 493.414L234.062 492.909C235.508 494.57 236.609 496.23 238.731 496.619C238.976 496.662 239.198 496.796 239.406 496.931L240.221 497.105C242.349 497.101 247.145 495.063 249.544 494.512C258.795 492.381 268.274 488.429 277.299 486.102Z" fill="#79855F"/>
<path d="M232.356 493.414L234.062 492.909C235.508 494.57 236.609 496.23 238.731 496.619C238.976 496.662 239.198 496.796 239.406 496.931L240.221 497.105L240.622 497.355L241.763 497.613L243.059 498.334C244.31 498.603 244.567 498.441 245.37 499.227C247.795 501.131 251.227 497.806 254.374 499.744L254.373 499.975C255.31 500.896 255.094 500.418 255.16 501.766C253.66 505.68 248.716 507.364 245.781 509.675C243.802 509.795 240.028 509.976 238.191 510.296C231.423 511.475 229.283 513.332 222.248 512.38L222.288 511.328C222.717 510.608 222.818 509.953 223.02 509.14L222.942 508.258C222.332 505.507 222.305 503.573 222.18 500.757L222.307 499.778L223.028 498.145C223.941 498.777 226.225 499.917 227.293 500.491C228.636 499.751 229.966 498.754 231.225 497.856C231.495 496.353 231.94 494.886 232.356 493.414Z" fill="#BA5B32"/>
<path d="M254.373 499.975C255.31 500.896 255.094 500.418 255.16 501.766C253.66 505.68 248.716 507.364 245.781 509.675C243.802 509.795 240.028 509.976 238.191 510.296C231.423 511.475 229.283 513.332 222.248 512.38L222.288 511.328C222.717 510.608 222.818 509.953 223.02 509.14L222.942 508.258C228.641 508.678 230.618 506.963 235.373 506.574C244.486 505.831 247.608 507.869 254.373 499.975Z" fill="#5D2A14"/>
<path d="M232.356 493.414L234.062 492.909C232.981 495.421 231.71 500.445 229.912 501.373C225.578 502.152 224.804 500.129 222.307 499.778L223.028 498.145C223.941 498.777 226.225 499.917 227.293 500.491C228.636 499.751 229.966 498.754 231.225 497.856C231.495 496.353 231.94 494.886 232.356 493.414Z" fill="#5D2A14"/>
<path d="M241.763 497.613L243.059 498.334C242.081 499.281 240.509 501.708 239.672 502.922C240.348 500.503 240.655 499.821 241.763 497.613Z" fill="#5D2A14"/>
<path d="M240.221 497.105L240.622 497.355C239.794 498.734 239.883 499.096 238.666 499.747C238.419 498.642 238.886 498.172 239.406 496.931L240.221 497.105Z" fill="#5D2A14"/>
<path d="M245.37 499.227C246.609 498.041 252.953 497.579 254.63 498.33L254.998 499.008L254.374 499.744C251.227 497.806 247.795 501.131 245.37 499.227Z" fill="#F7C07A"/>
<path d="M227.573 472.992C231.327 472.298 272.382 483.575 277.299 486.102C268.274 488.429 258.795 492.381 249.544 494.512C247.145 495.063 242.349 497.101 240.221 497.105L239.406 496.931C239.198 496.796 238.976 496.662 238.731 496.619C236.609 496.23 235.508 494.57 234.062 492.909L232.356 493.414L232.12 493.294C232.285 492.713 232.213 491.9 232.033 491.357C229.838 484.757 228.624 479.853 227.573 472.992Z" fill="#8F9D70"/>
<path d="M282.972 662.768C284.399 669.109 285.665 678.798 286.575 685.382C287.897 679.915 289.27 674.464 290.693 669.028C291.086 677.057 291.132 679.376 288.725 686.992C291.344 682.127 294.142 676.883 297.083 672.233C296.039 677.608 294.404 680.917 292.32 685.952C295.191 683.98 296.693 682.859 299.275 680.536C297.201 684.577 296.131 685.448 292.888 688.657C294.647 688.364 296.16 688.241 297.925 688.094C301.474 687.47 306.777 686.942 310.301 686.819C310.586 686.715 312.56 686.357 312.986 686.272C314.118 685.883 323.245 684.261 324.945 683.941L325.137 684.4C331.634 686.045 354.405 678.532 362.456 677.75C371.375 676.88 381.055 676.098 390 675.262V712.789V716.426V789H226.869H115.426L113.036 786.261L112.331 784.489L110.446 780.34C107.128 772.966 102.803 764.498 94.3265 762.152C91.3429 761.327 86.8868 761.061 84.1815 759.933C84.0462 758.908 84.2431 759.262 83.4508 758.615C81.3143 758.207 79.2043 758.704 77.195 759.459C76.2951 757.332 68.408 749.407 66.5066 745.936L103.318 739.356C109.319 738.227 116.122 737.018 122.01 735.411C139.725 730.572 157.254 722.794 174.605 717.412C184.551 712.97 207.878 712.947 219.331 711.225C222.528 710.743 224.911 710.185 228.057 709.303C231.171 708.432 235.486 706.525 238.535 706.34C253.135 700.769 263.396 694.875 279.277 691.565C275.761 689.423 274.329 688.333 271.017 685.694C274.412 686.499 277.272 687.22 280.602 688.252C275.225 684.719 274.396 684.095 270.84 678.902C273.68 680.64 277.907 683.575 280.464 685.563C277.625 680.855 274.737 676.394 272.854 671.216C277.553 676.448 279.899 679.869 283.764 685.636C282.178 674.788 280.926 674.113 282.972 662.768Z" fill="#72482E"/>
<path d="M390 712.789V716.426V789H226.869C233.716 784.847 235.96 783.217 243.703 779.927C251.938 776.221 261.579 773.859 269.406 769.387C271.015 768.47 279.662 761.246 280.694 759.975L285.197 756.689L284.941 755.548C292.584 747.574 300.016 749.797 307.908 745.093C319.039 738.455 319.123 733.874 333.21 731.655C340.976 731.254 346.762 730.206 352.552 725.048C355.841 723.703 359.429 720.398 362.511 718.522C370.864 713.44 380.666 713.213 390 712.789Z" fill="#34281C"/>
<path d="M390 712.789V716.426C378.731 718.117 369.057 717.716 359.498 725.171C349.988 732.591 341.35 735.658 329.31 736.105C323.428 736.32 318.26 742.527 313.322 745.451C317.809 746.075 321.184 747.235 325.207 747.924L325.279 748.494L324.722 748.949C311.634 749.061 296.271 748.926 285.197 756.689L284.941 755.548C292.584 747.574 300.016 749.797 307.908 745.093C319.039 738.455 319.123 733.874 333.21 731.655C340.976 731.254 346.762 730.206 352.552 725.048C355.842 723.703 359.429 720.398 362.511 718.522C370.864 713.44 380.666 713.213 390 712.789Z" fill="#C88D5A"/>
<path d="M325.207 747.924L327.352 748.271L327.504 748.595C326.244 749.018 326.036 748.999 324.722 748.949L325.279 748.494L325.207 747.924Z" fill="#563A25"/>
<path d="M345.974 758.38C348.675 754.077 352.433 746.179 356.798 743.848C365.099 739.41 377.024 738.262 386.231 736.22C380.153 740.061 374.302 743.066 367.412 745.012C364.673 745.786 363.127 746.245 361.143 748.402C360.865 747.292 360.777 746.221 359.931 745.57C357.007 747.073 359.417 754.493 345.974 758.38Z" fill="#563A25"/>
<path d="M311.845 764.024C315.703 763.662 323.328 763.612 325.228 767.711L324.963 768.32C322.95 769.098 305.831 772.157 302.604 772.823C298.383 773.844 294.622 774.449 290.353 775.058C295.03 771.733 306.251 765.195 311.845 764.024Z" fill="#563A25"/>
<path d="M342.174 764.217C343.438 762.067 344.403 760.329 345.974 758.38C346.7 758.692 347.637 759.143 348.384 759.32C346.256 760.576 344.082 762.575 342.174 764.217Z" fill="#563A25"/>
<path d="M340.711 724.944C340.875 714.769 339.415 707.735 343.468 697.171C344.025 695.722 344.497 693.118 345.5 691.978C345.899 693.072 345.182 695.68 344.945 696.955C343.311 705.747 343.566 714.935 344.038 723.815C346.412 712.604 347.572 707.773 355.374 699.402C351.088 707.484 350.065 715.644 348.224 724.458C348.243 724.574 348.262 724.693 348.281 724.813L348.065 725.102C352.149 716.276 353.291 712.481 363.532 712.227C362.755 712.62 361.985 713.024 361.223 713.444C356.693 715.96 353.942 720.151 352.552 725.048C346.762 730.206 340.976 731.254 333.21 731.655C328.182 726.847 321.298 727.564 315.425 730.222C323.294 720.513 328.085 725.483 336.732 729.382C333.327 726.5 330.483 722.813 327.06 719.909C323.762 717.108 320.144 715.205 316.565 712.673C325.662 714.037 330.395 718.391 336.866 724.381C334.675 715.544 329.625 703.77 324.924 695.95C332.991 702.588 337.962 715.085 340.711 724.944Z" fill="#34281C"/>
<path d="M174.605 717.412C184.551 712.97 207.878 712.947 219.331 711.225C222.528 710.743 224.911 710.185 228.057 709.303C231.171 708.432 235.486 706.525 238.535 706.34C226.109 717.651 204.616 715.786 189.277 716.965C184.391 717.339 179.795 718.472 175.002 719.412L174.484 719.057L174.97 718.067L174.605 717.412Z" fill="#563A25"/>
<path d="M84.1814 759.933C86.5753 758.384 90.8996 759.309 93.4346 759.289C100.614 759.235 113.745 777.947 112.331 784.489L110.446 780.34C107.128 772.966 102.803 764.498 94.3264 762.152C91.3428 761.327 86.8867 761.061 84.1814 759.933Z" fill="#C88D5A"/>
<path d="M297.925 688.094C301.473 687.47 306.777 686.942 310.301 686.819C308.699 687.389 306.655 687.736 305.715 688.903L305.472 689.658C303.85 690.818 298.949 690.949 297.925 688.094Z" fill="#563A25"/>
<path d="M310.301 686.819C310.586 686.715 312.56 686.357 312.986 686.272C313.503 687.07 313.878 687.547 314.159 688.464C311.617 689.111 309.711 689.362 307.111 689.712L305.472 689.658L305.715 688.903C306.655 687.736 308.699 687.389 310.301 686.819Z" fill="#B27143"/>
<path d="M314.159 688.464L314.762 688.306C315.229 689.366 315.24 689.497 315.02 690.637C312.664 691.065 309.428 690.868 307.073 690.498L306.731 690.067L307.111 689.712C309.711 689.362 311.617 689.111 314.159 688.464Z" fill="#563A25"/>
<path d="M280.694 759.975L280.745 759.386C282.604 756.835 282.549 757.324 284.941 755.548L285.197 756.689L280.694 759.975Z" fill="#B27143"/>
<path d="M277.554 705.905L277.49 705.3C279.752 704.279 281.577 703.555 284.041 703.37C289.815 702.942 297.408 704.102 299.656 710.296C299.859 710.859 299.856 710.817 299.793 711.402C298.775 712.681 298.374 712.824 296.792 713.371C290.125 717.32 284.488 718.175 276.828 719.103C274.131 719.427 261.495 721.634 261.747 716.599C262.767 714.438 263.529 713.533 265.491 712.2C267.333 711.352 268.3 711.78 270.525 711.857C270.337 706.675 274.518 706.976 277.554 705.905Z" fill="#34281C"/>
<path d="M261.747 716.599L262.33 717.046C265.489 717.273 270.432 717.358 273.614 716.534C274.392 716.33 274.266 715.293 274.597 714.176C275.746 713.845 283.421 714.184 285.216 714.23C289.395 714.338 292.873 713.448 296.792 713.371C290.125 717.32 284.488 718.175 276.828 719.103C274.131 719.427 261.495 721.634 261.747 716.599Z" fill="#563A25"/>
<path d="M277.554 705.905L277.49 705.3C279.752 704.279 281.577 703.555 284.041 703.37C289.815 702.942 297.408 704.102 299.656 710.296C299.859 710.859 299.856 710.817 299.793 711.402C298.47 710.651 295.741 708.336 294.034 707.272C287.928 703.477 284.046 704.479 277.554 705.905Z" fill="#C88D5A"/>
<path d="M265.491 712.2C267.333 711.352 268.3 711.78 270.525 711.857L271.5 712.731L271.435 713.298C269.543 713.872 267.222 712.939 265.491 712.2Z" fill="#C88D5A"/>
<path d="M151.263 767.021C154.786 766.027 155.595 767.118 158.849 768.662C159.804 769.113 161.363 770.072 162.002 770.885C162.516 772.669 162.753 772.407 162.203 773.825C159.983 775.474 156.935 774.984 153.955 775.605C151.169 776.475 140.635 778.641 139.492 775.035C139.773 773.671 141.131 772.561 142.153 771.536C145.152 767.919 146.814 767.668 151.263 767.021Z" fill="#34281C"/>
<path d="M151.263 767.021C154.786 766.027 155.595 767.118 158.849 768.662C159.804 769.113 161.363 770.072 162.002 770.885C157.59 771.178 158.356 770.261 154.468 768.269C154.03 768.046 152.02 767.341 151.263 767.021Z" fill="#563A25"/>
<path d="M135.458 749.411C138.038 747.447 142.434 749.635 143.348 752.605L143.16 753.653L142.621 753.849C140.777 756.095 137.57 755.518 134.718 755.637C133.314 755.926 129.4 756.33 128.081 755.845L127.809 755.071C128.165 753.776 129.56 752.94 130.666 752.093L130.8 751.958C132.557 750.132 133.15 750.509 135.458 749.411Z" fill="#34281C"/>
<path d="M134.718 755.637C133.314 755.926 129.4 756.33 128.081 755.845L127.809 755.071C128.165 753.776 129.56 752.94 130.666 752.093C131.182 753.495 131.397 754.165 132.809 754.836C133.435 755.125 134.072 755.394 134.718 755.637Z" fill="#563A25"/>
<path d="M135.458 749.411C138.038 747.447 142.434 749.635 143.348 752.605L143.16 753.653L142.621 753.849C141.102 750.351 138.862 750.259 135.458 749.411Z" fill="#C88D5A"/>
<path d="M243.746 739.842C246.474 739.607 247.045 739.345 248.966 741.356C249.138 742.265 249.257 742.076 248.877 742.635C246.106 744.118 235.038 744.75 231.602 744.8C229.481 744.738 227.416 744.885 225.299 745C232.977 742.862 235.413 740.458 243.746 739.842Z" fill="#563A25"/>
<path d="M370.416 691.13C370.235 691.068 369.765 690.733 369.575 690.61C371.892 687.305 375.286 686.264 376.993 690.876L377.474 691.13C376.876 694.212 370.67 695.776 368.109 692.636L367.965 691.831C369.025 691.084 368.98 691.296 370.416 691.13Z" fill="#563A25"/>
<path d="M370.416 691.13C370.235 691.068 369.765 690.733 369.575 690.61C371.892 687.305 375.286 686.264 376.993 690.876C374.803 691.026 372.61 691.111 370.416 691.13Z" fill="#C88D5A"/>
<path d="M234.86 765.476C236.901 765.484 239.194 766.085 239.636 768.366C238.962 769.317 239.011 769.067 237.686 769.514C235.895 769.737 233.322 770.373 232.585 768.424C232.912 767.118 233.87 766.413 234.86 765.476Z" fill="#34281C"/>
<path d="M188.032 735.084C189.844 734.826 192.196 734.768 193.192 736.548C192.564 737.784 192.67 737.449 191.224 738.208C189.417 738.351 187.351 738.801 186.215 737.23C186.705 735.881 186.775 736.135 188.032 735.084Z" fill="#C88D5A"/>
<path d="M114.155 749.296C115.823 749.327 116.486 749.434 117.472 750.848C117.099 752.17 117.243 751.761 115.883 752.701C115.34 752.624 114.799 752.54 114.259 752.447C113.003 752.22 112.545 752.046 111.884 751.099C112.565 749.827 112.637 750.101 114.155 749.296Z" fill="#34281C"/>
<path d="M235.002 723.395C236.268 723.468 237.133 724.142 237.577 725.279C237.018 726.504 237.167 726.142 235.597 726.812C234.191 726.889 233.243 727.101 232.458 725.853C232.79 724.601 233.88 724.119 235.002 723.395Z" fill="#34281C"/>
<path d="M200.045 760.811L201.361 760.834C202.637 761.585 202.287 761.154 202.794 762.406C202.226 763.673 202.523 763.273 201.042 763.951C199.883 763.704 198.576 763.569 197.734 762.776C198.156 761.674 198.838 761.566 200.045 760.811Z" fill="#34281C"/>
<path d="M293.193 731.204C294.139 731.266 294.931 731.443 295.435 732.217C294.976 733.373 293.825 733.797 292.692 734.417C291.727 733.835 290.99 733.554 290.557 732.553C291.443 731.489 291.638 731.705 293.193 731.204Z" fill="#C88D5A"/>
<path d="M165.142 755.945C166.553 755.833 168.393 755.625 169.424 756.816C168.792 757.625 168.598 757.444 167.406 757.717C166.046 757.783 164.42 757.941 163.273 757.232C163.867 756.269 163.968 756.454 165.142 755.945Z" fill="#563A25"/>
<path d="M270.697 745.767C272.282 745.832 272.387 745.763 273.535 746.591C273.545 747.851 273.688 747.346 272.69 748.541C271.617 748.394 270.86 748.39 269.983 747.732C269.837 746.568 269.843 746.953 270.697 745.767Z" fill="#34281C"/>
<path d="M255.081 510.92L256.042 511.405C263.835 512.153 271.642 527.732 275.841 532.987L279.851 539.259C282.587 543.797 290.113 554.746 293.657 558.31C298.764 563.445 309.838 562.224 312.786 571.405L313.295 571.289C322.088 581.841 328.918 593.349 338.73 602.965C340.496 604.695 342.698 607.414 344.656 608.801L345.134 608.624C347.26 612.565 353.732 619.334 357.832 621.23C359.724 622.1 361.796 622.828 363.755 623.63C366.019 625.329 372.423 627.529 375.225 628.935C379.812 631.235 385.58 633.735 390 636.228V661.72C383.047 658.684 373.541 655.995 365.766 652.67C366.935 656.646 367.331 660.036 367.807 664.105C362.085 658.376 358.437 650.409 351.271 646.448C336.062 638.042 326.707 622.162 314.896 609.853C312.659 607.522 310.623 603.539 308.069 601.693L307.493 601.921C307.435 602.187 307.364 602.518 307.279 602.903C309.269 608.231 312.123 614.68 313.505 620.055C307.768 613.074 292.888 597.841 285.826 592.324C281.517 588.957 275.289 587.154 268.524 581.394C267.657 576.251 266.827 571.104 266.034 565.946C270.495 567.683 278.194 571.948 281.975 574.718C276.37 561.257 265.248 556.719 257.076 546.525C253.405 541.944 249.62 529.767 245.809 523.533C242.442 522.928 240.223 522.763 236.788 522.555C241.415 518.386 247.194 517.288 252.93 514.703C253.634 513.586 254.417 512.095 255.081 510.92Z" fill="#563A25"/>
<path d="M256.042 511.405C263.835 512.153 271.642 527.732 275.841 532.987L279.851 539.259C282.587 543.797 290.113 554.746 293.657 558.31C298.764 563.445 309.838 562.224 312.786 571.405C313.245 574.063 316.123 580.327 317.273 583.548C311.973 578.039 310.968 575.188 309.051 567.845C306.92 566.755 305.486 565.965 303.241 565.052C300.669 563.711 292.861 562.502 290.971 560.548C285.728 555.132 280.181 546.483 275.472 540.557C272.986 537.433 272.211 531.011 270.49 528.36C267.617 523.941 260.143 514.129 256.042 511.405Z" fill="#F7C07A"/>
<path d="M298.042 573.524C300.339 573.539 302.594 573.593 304.659 574.652C308.679 576.71 316.206 595.537 317.257 599.521C309.825 590.228 302.052 585.574 298.042 573.524Z" fill="#34281C"/>
<path d="M222.18 500.757C222.305 503.573 222.332 505.507 222.942 508.258L223.02 509.14C222.818 509.953 222.717 510.608 222.288 511.328C216.726 512.234 212.659 514.668 206.423 515.62C199.515 516.672 190.179 516.094 184.037 518.074C178.734 519.781 169.217 528.399 163.576 529.266C152.099 531.022 138.609 530.726 126.794 531.377C124.506 531.67 122.214 531.924 119.918 532.14C113.541 533.962 106.277 536.508 101.704 541.513C97.9085 542.977 95.8402 546.837 92.1606 548.27C87.3604 550.139 81.5875 548.066 76.6485 549.734C73.6611 550.744 45.9541 570.16 41.1238 573.893C43.5933 570.607 44.8107 568.727 46.4643 564.986C43.87 567.306 41.1146 569.683 38.7152 572.183C41.0768 565.133 41.9373 562.313 42.3724 554.87C40.6332 559.832 38.3339 566.947 35.7069 571.351C36.5778 563.626 36.6728 559.323 34.3237 551.603C33.6051 557.89 33.6234 564.636 32.5293 570.696C31.9039 568.743 31.285 566.578 30.5501 564.682C28.344 558.988 27.1569 552.997 25.3668 547.184C24.9462 556.33 25.97 562.636 28.2651 571.528C26.3926 569.398 18.0684 559.435 16.2543 558.938C16.4281 561.296 21.8713 569.667 24.1298 571.613C24.9354 572.302 25.7523 572.977 26.58 573.639C22.4889 571.944 17.3142 568.612 12.9558 566.512C16.4987 570.076 20.0651 573.778 24.3689 576.405C20.6747 575.727 17.6911 575.215 13.9139 574.884C17.5019 576.374 23.6062 580.065 26.4591 580.674C17.8104 583.764 8.28916 585.413 0 588.718V549.946C6.49816 549.256 13.2101 547.5 19.5593 546.001C31.7702 543.112 43.8507 540.138 55.4455 535.229C81.7019 524.111 85.2416 513.516 117.246 515.628C126.916 516.263 136.278 520.886 145.83 522.62C148.733 521.692 151.858 519.939 154.855 518.837C172.753 512.257 191.414 509.078 209.874 504.575C212.848 503.85 219.511 503.026 221.906 501.967L222.18 500.757Z" fill="#79855F"/>
<path d="M127.031 530.479C138.057 529.323 149.396 529.427 160.298 528.11C168.575 527.116 176.291 519.16 183.749 516.275C188.424 514.892 193.422 514.861 198.288 514.168C206.705 512.973 214.747 510.858 223.02 509.14C222.818 509.953 222.717 510.608 222.288 511.328C216.726 512.234 212.659 514.668 206.423 515.62C199.515 516.672 190.179 516.094 184.037 518.074C178.734 519.781 169.217 528.399 163.576 529.266C152.099 531.022 138.609 530.726 126.794 531.377L127.031 530.479Z" fill="#F7C07A"/>
<path d="M119.918 532.14L119.774 531.77C121.805 531.084 124.889 530.545 127.031 530.479L126.794 531.377C124.506 531.67 122.214 531.924 119.918 532.14Z" fill="#8F9D70"/>
<path d="M21.8762 726.157C27.6328 724.955 34.3774 727.617 40.1334 728.889C43.1937 729.563 53.6023 730.823 55.7527 732.618C59.3498 735.619 63.6267 742.014 66.5066 745.936C68.408 749.407 76.2951 757.332 77.195 759.459L76.5795 759.659L73.3343 757.983C69.8092 758.465 60.6913 758.118 56.9539 758.041C58.596 764.475 64.5535 768.296 67.8011 774.85C61.9372 770.882 53.6666 764.251 48.2325 761.119L34.7143 762.575C39.8417 757.155 39.079 758.981 44.0342 755.075C45.1791 752.355 38.3464 750.313 36.0258 749.192C33.5221 744.638 31.4419 741.502 27.856 737.696C25.3364 735.018 20.8064 731.509 20.4598 727.933C17.964 728.854 10.3871 730.28 7.39325 730.9C11.6122 728.858 17.2705 726.832 21.8762 726.157Z" fill="#563A25"/>
<path d="M21.8762 726.157C27.6327 724.955 34.3774 727.617 40.1334 728.889C43.1936 729.563 53.6022 730.823 55.7526 732.618C59.3497 735.619 63.6266 742.014 66.5065 745.936C68.408 749.407 76.2951 757.332 77.1949 759.459L76.5795 759.659L73.3342 757.983C70.4747 755.028 54.5399 734.918 52.475 734.336C43.2599 731.736 33.7847 731.412 24.0115 726.839L21.8762 726.157Z" fill="#C88D5A"/>
<path d="M50.278 742.735C51.0884 743.089 51.9879 745.019 52.4912 745.913L46.5356 746.295L45.4647 746.214L45.5521 745.79C46.9337 744.526 48.6421 743.659 50.278 742.735Z" fill="#34281C"/>
<path d="M126.794 531.377C138.609 530.726 152.099 531.022 163.576 529.266C169.217 528.399 178.734 519.781 184.037 518.074C190.179 516.094 199.515 516.672 206.423 515.62C212.659 514.668 216.726 512.234 222.288 511.328L222.248 512.38C214.857 516.857 207.827 525.009 200.307 529.158C198.794 529.99 188.335 531.492 185.699 532.14C182.767 532.86 174.014 535.95 171.786 535.85C163.585 535.48 159.452 533.592 150.967 535.665C141.606 537.949 133.276 541.205 124.349 544.576C121.203 545.762 104.599 552.535 102.365 552.577C107.984 548.228 120.517 542.603 127.035 539.864C121.877 539.328 118.215 538.955 113.066 539.548C110.774 539.814 103.43 541.628 101.704 541.513C106.277 536.508 113.541 533.962 119.918 532.14C122.214 531.924 124.506 531.67 126.794 531.377Z" fill="#563A25"/>
<path d="M77.1949 759.459C79.2043 758.704 81.3142 758.207 83.4507 758.615C84.2431 759.262 84.0461 758.908 84.1814 759.933C86.8868 761.061 91.3428 761.327 94.3264 762.152C102.803 764.498 107.128 772.966 110.446 780.34L112.331 784.489L113.036 786.261C108.18 785.182 101.39 783.83 96.8456 781.977C90.1089 778.968 83.5698 776.865 76.4596 774.938C75.2207 774.603 73.6568 767.407 73.2356 765.923C74.0642 763.396 74.9251 761.716 76.5795 759.659L77.1949 759.459Z" fill="#563A25"/>
<path d="M324.945 683.941C328.3 683.309 331.735 681.98 334.948 681.268C343.208 679.492 351.694 676.456 359.915 674.811C369.262 672.946 380.46 672.53 390 671.829V675.261C381.055 676.097 371.375 676.88 362.456 677.75C354.405 678.532 331.634 686.045 325.137 684.4L324.945 683.941Z" fill="#C88D5A"/>
<path d="M0 634.479C8.62459 630.233 16.9138 625.768 25.9329 622.212C29.888 620.656 34.5625 619.627 38.6335 618.136C42.5439 616.703 47.444 614.214 51.4226 613.428C40.6833 619.203 30.6117 626.612 19.3728 631.115C14.7366 632.976 4.24807 633.804 0 635.727V634.479Z" fill="#563A25"/>
<path d="M105.619 637.695C100.434 637.584 84.3602 635.811 81.2017 637.869C75.6928 641.459 67.8612 654.878 62.7969 658.861C62.7912 658.8 62.7854 658.738 62.7796 658.676C66.1763 653.371 77.141 633.346 82.0087 632.545C96.9023 630.094 113.687 627.636 128.256 628.026C135.63 632.464 140.874 645.851 148.839 651.68C153.571 652.516 164.496 652.558 167.675 653.861C176.876 657.632 184.498 675.146 192.929 680.62C197.978 683.71 204.398 684.6 209.733 686.599C218.466 689.87 228.299 692.089 236.849 695.476L234.386 695.969C228.522 694.066 223.03 693.395 217.001 691.989C202.953 688.711 187.99 686.804 174.564 681.514C166.068 678.166 165.045 675.165 159.533 668.697C156.606 665.26 147.406 661.246 143.171 660.036C145.081 664.563 148.661 668.323 151.303 673.023C148.663 672.368 139.856 671.078 138.448 669.829C139.411 669.213 139.74 669.217 140.22 668.292C137.774 664.698 129.536 667.352 127.093 664.952C120.234 658.214 113.258 643.047 105.619 637.695Z" fill="#563A25"/>
<path d="M240.376 600.006C245.493 599.44 260.011 619.026 263.116 623.595C263.974 624.859 266.022 632.78 266.624 634.925C273.785 638.177 282.57 646.071 285.571 653.09C280.794 652.181 277.758 650.478 273.559 648.059L272.529 649.06C263.379 644.946 259.444 634.744 252.427 626.488C252.52 623.275 252.501 620.062 252.369 616.849C238.179 602.68 239.915 604.914 220.068 604.841C226.214 602.757 233.956 600.711 240.376 600.006Z" fill="#563A25"/>
<path d="M142.544 560.621L142.695 560.702L142.659 561.149C138.585 564.043 133.899 566.851 129.81 569.733C128.015 570.996 121.455 576.979 120.001 577.268C110.326 579.195 99.2677 579.399 89.3786 581.102C78.5156 582.974 76.788 584.65 67.3521 588.194L67.11 587.759C71.5592 584.465 78.395 579.676 83.5571 577.761C96.4899 573.046 110.323 570.927 123.564 567.417C129.363 565.88 136.712 562.686 142.544 560.621Z" fill="#563A25"/>
<path d="M190.058 543.582L190.523 543.705C190.018 544.888 187.051 547.319 186.04 548.343C178.08 556.411 166.767 560.629 156.164 563.992L155.414 563.834C156.689 562.413 159.532 560.433 161.061 559.104C170.611 550.794 178.448 547.97 190.058 543.582Z" fill="#563A25"/>
<path d="M56.8371 664.721L57.6414 664.64L57.9084 665.172C57.1747 666.932 55.3946 668.924 54.1607 670.457C52.4731 670.7 48.7014 670.889 47.2829 671.37C40.0602 673.817 30.9 681.179 24.5105 685.721L23.5892 685.987C25.3825 682.381 41.888 668.342 46.0061 666.62C48.3689 665.63 53.9838 665.01 56.8371 664.721Z" fill="#563A25"/>
<path d="M235.932 551.144C246.241 551.718 249 562.594 249.357 571.031C246.991 568.847 238.52 554.793 235.932 551.144Z" fill="#563A25"/>
<path d="M46.4936 584.769L47.4552 585.158C48.1824 586.21 48.0509 585.725 47.9631 586.984C46.6262 588.784 36.7546 592.779 33.909 594.077L32.9521 594.281C34.6463 591.511 43.3339 586.572 46.4936 584.769Z" fill="#563A25"/>
<path d="M236.849 695.476C237.928 695.765 238.786 695.896 239.678 696.554C237.942 696.77 236.12 696.304 234.386 695.969L236.849 695.476Z" fill="#493525"/>
<path d="M0 502.679C4.64613 503.034 8.64108 503.165 13.3033 503.238C12.7303 506.254 12.3132 506.1 9.53415 507.996L9.126 508.273C8.31498 510.604 7.32063 514.977 5.54825 516.302C4.10668 516.209 3.69926 516.121 2.33997 516.645C1.16396 518.386 3.25139 520.174 4.50909 521.437C3.02369 522.335 1.50242 523.283 0 524.142V502.679Z" fill="#79855F"/>
</g>
<defs>
<clipPath id="clip0_53_1153">
<rect width="390" height="789" fill="white"/>
</clipPath>
</defs>
</svg>
