<svg width="435" height="435" viewBox="0 0 435 435" fill="none" xmlns="http://www.w3.org/2000/svg">
<path d="M2.18503 0.343728C5.335 0.300088 15.5668 -0.00769684 18.1473 0.459225C23.2065 1.37469 31.7381 4.58933 36.9522 6.27885L74.3653 18.3509C79.2555 19.9528 89.8545 23.9759 94.4037 24.1279C99.6914 24.3044 106.933 24.2129 112.384 24.202L145.314 24.184L249.391 24.1886L313.332 24.1741L331.4 24.2128C333.78 24.2197 340.256 24.3763 342.248 23.9848C347.178 23.0149 353.756 20.6169 358.646 19.0068L394.511 7.34723C401.831 4.94995 409.771 1.55122 417.379 0.527798C420.786 0.0697355 430.114 -0.493324 433.094 0.782754C433.672 1.03049 434.194 1.42916 434.433 2.01913C435.349 4.26121 434.804 105.418 434.804 118.279L434.854 325.896C434.86 360.086 434.84 394.3 434.87 428.49C434.873 430.128 434.847 431.814 434.223 433.337C433.971 433.573 433.459 434.023 433.137 434.055C430.134 434.374 418.173 434.689 415.925 433.852C409.951 431.637 402.632 427.283 397.15 424.238C391.167 420.976 385.16 417.764 379.128 414.598C368.706 409.476 356.601 402.444 346.17 396.81C346.072 402.437 346.719 430.531 345.186 433.514C342.869 434.915 326.316 434.285 322.653 434.157C320.608 431.742 317.983 426.561 316.397 423.631C314.162 419.483 311.868 415.365 309.511 411.284C287.663 410.844 265.009 411.142 243.098 411.142L125.263 411.172C123.445 415.001 114.447 431.457 112.444 434.111C111.964 434.154 111.484 434.183 111.002 434.196C107.524 434.275 91.3112 434.909 89.6477 433.301C87.8999 429.396 88.8423 403.182 88.7461 396.961C84.7418 399.31 79.5922 401.824 75.4172 404.078C64.961 409.787 54.4634 415.424 43.9257 420.983C36.2055 425.107 27.1908 430.541 19.082 433.849C17.2483 434.597 8.19286 434.315 5.68063 434.331C4.00832 434.341 1.82234 434.311 0.560973 432.973C-0.0728293 430.115 0.100475 423.49 0.102116 420.232L0.115902 400.875L0.123449 324.714L0.0738868 7.90208C0.0827489 4.94206 -0.628184 1.83112 2.18503 0.343728Z" fill="#51230E"/>
<path d="M413.148 6.84091C413.457 6.76249 413.706 6.80383 414.044 6.81203C414.957 9.30939 414.34 83.0939 414.343 91.7964L414.333 427.608C409.544 424.533 402.221 420.904 397.052 418.158C388.42 413.567 379.817 408.914 371.247 404.209C362.956 399.861 354.215 395.438 346.157 390.743C345.675 353.202 346.049 314.923 346.088 277.333L346.02 121.574L345.967 59.0797C345.957 48.9236 346.177 38.8597 345.957 28.6986C367.571 21.1682 391.2 13.9921 413.148 6.84091Z" fill="#BB6B46"/>
<path d="M20.6109 6.53796C31.572 9.70535 43.3149 13.7935 54.2192 17.3884L88.8269 28.6749L88.7711 318.706L88.7162 390.897C81.6276 394.336 71.9006 399.986 64.5881 403.861C55.1021 408.839 45.6594 413.899 36.2607 419.04C31.2914 421.728 25.6334 424.95 20.6063 427.365L20.6109 6.53796Z" fill="#BB6B46"/>
<path d="M115.816 165.591L250.774 165.593C273.273 165.59 296.651 165.274 319.076 165.607L319.164 267.332C315.465 267.325 311.707 267.355 308.018 267.302L308.083 228.958C308.09 222.405 308.211 215.285 307.972 208.686C307.811 204.2 304.335 198.165 303.833 193.079C303.465 189.346 304.611 181.359 302.858 178.229C302.244 177.13 296.822 177.254 295.361 177.258C282.204 177.367 269.047 177.402 255.89 177.362C252.168 177.348 231.583 176.771 229.365 178.079C227.727 180.9 228.893 188.957 228.494 192.701C227.98 197.526 224.38 204.734 224.192 209.024C223.905 215.541 224.045 223.038 224.047 229.647C223.99 242.214 224.019 254.778 224.133 267.345C222.084 267.361 212.082 267.571 210.867 267.069C209.377 267.548 207.173 267.712 205.647 267.309L155.112 267.296C151.801 267.306 133.922 267.561 132.014 267.096C131.847 266.498 131.623 265.973 131.394 265.399C130.181 264.375 128.392 264.267 126.757 263.965C126.757 265.192 126.971 266.226 126.437 267.155C123.93 267.529 118.569 267.355 115.803 267.319C115.968 233.492 115.454 199.353 115.816 165.591Z" fill="#D0C198"/>
<path d="M135.903 196.189C157.881 196.527 179.863 196.553 201.842 196.266C202.535 198.39 205.191 206.217 205.357 208.09C205.893 214.149 205.683 221.778 205.682 227.95L205.647 267.309L155.112 267.296C151.801 267.306 133.922 267.561 132.014 267.096C132.913 248.025 131.223 228.255 132.351 209.155C132.543 205.901 134.82 199.407 135.903 196.189Z" fill="#8A996C"/>
<path d="M143.306 210.035C150.641 209.802 160.835 210.153 168.278 210.107C173.408 210.077 191.891 209.631 195.679 210.665C197.405 214.543 195.177 242.565 196.172 248.373C196.452 250.007 196.119 254.591 195.938 256.372C195.841 257.331 195.214 257.662 194.512 258.112L162.963 258.121C159.09 258.125 144.775 258.725 142.117 257.252C141.687 256.153 141.405 254.853 141.423 253.662C141.596 242.404 141.686 231.153 141.549 219.895C141.516 217.132 141.382 214.149 141.848 211.442C142.009 210.504 142.598 210.356 143.306 210.035Z" fill="#51230E"/>
<path d="M146.807 215.242C161.506 215.166 176.205 215.173 190.904 215.255C191.196 227.278 191.028 240.836 190.86 252.907C176.177 253.009 161.494 252.993 146.81 252.865C146.362 242.092 146.607 226.172 146.807 215.242Z" fill="#BC8F65"/>
<path d="M126.757 263.965L126.779 227.576C126.776 221.483 126.622 214.592 126.972 208.498C127.233 203.961 130.545 197.957 131.086 192.632C131.46 188.955 130.311 181.331 132.09 178.178C132.481 177.593 134.48 177.339 135.083 177.353C144.64 177.576 157.482 176.917 166.666 177.383C172.636 177.685 201.928 176.352 205.296 177.876C207.235 180.525 206.211 189.251 206.61 193.18C207.099 197.986 210.506 204.625 210.723 208.676C211.056 214.871 210.906 222.398 210.906 228.682L210.867 267.069C209.377 267.548 207.173 267.712 205.647 267.309L205.682 227.95C205.683 221.778 205.893 214.149 205.357 208.09C205.191 206.217 202.535 198.39 201.842 196.266C179.863 196.553 157.881 196.527 135.903 196.189C134.82 199.407 132.543 205.901 132.351 209.155C131.223 228.255 132.913 248.025 132.014 267.096C131.847 266.498 131.623 265.973 131.394 265.399C130.181 264.375 128.392 264.267 126.757 263.965Z" fill="#51230E"/>
<path d="M136.36 182.643C144.792 182.377 154.271 182.6 162.772 182.594C175.612 182.534 188.453 182.552 201.293 182.646L201.269 191.059C192.285 191.213 182.791 191.008 173.74 191L136.384 191.094L136.36 182.643Z" fill="#8A996C"/>
<path d="M115.847 49.461L319.026 49.4436L319.066 143.625C309.514 143.608 299.963 143.648 290.414 143.744C294.347 139.428 295.256 137.514 295.404 131.624C295.578 124.699 296.159 88.7576 294.245 84.7046C292.565 81.1483 289.122 79.5514 286.544 76.7935L286.264 76.49C287.935 75.9833 291.153 75.1177 291.38 73.0141C291.78 69.3155 292.919 60.2143 287.564 59.6106C280.74 59.2644 276.957 59.06 269.734 59.3113C263.456 59.5298 248.161 58.2446 242.422 60.5326C240.006 61.4956 240.733 70.6011 240.872 73.6205C242.383 75.4295 243.863 75.7366 246.066 76.4975C244.778 77.9377 242.689 79.4129 241.225 80.7933C237.804 83.8377 236.965 87.22 236.928 91.6559C236.811 105.01 236.869 118.377 236.885 131.731C236.892 137.703 238.001 139.487 241.972 143.699C226.43 143.447 210.825 143.903 195.247 143.515C195.979 142.261 197.808 139.118 197.864 137.713C198.406 124.186 198.051 110.486 198.072 96.9426C198.083 89.0289 194.049 88.0436 188.918 83.3655C195.248 80.2227 193.655 76.9812 193.459 70.8147C192.922 67.1837 190.557 65.778 187.153 65.6871C176.933 65.2861 166.621 65.8659 156.42 65.5726C144.268 65.2235 143.881 67.9981 145.052 79.5865C145.235 81.3941 148.122 82.5777 149.585 83.2687C146.299 86.1381 141.868 88.0088 140.706 92.6367C139.671 96.7569 139.596 133.001 140.373 137.616C140.745 139.823 142.07 141.733 143.202 143.623L115.905 143.644C115.338 112.898 115.771 80.3083 115.847 49.461Z" fill="#D0C198"/>
<path d="M115.873 289.28C146.299 288.942 177.34 289.201 207.799 289.234L319.036 289.3L319.144 368.414L294.567 368.339L294.524 343.913C294.521 339.477 294.623 334.755 294.393 330.335C293.999 322.703 290.94 321.397 285.677 316.826C290.737 314.411 290.089 314.29 290.381 309.309C290.904 301.345 289.217 299.084 281.218 299.255C269.154 299.511 256.945 298.996 244.917 299.56C243.348 299.636 241.831 301.752 241.092 302.976C240.842 305.434 240.422 310.027 240.968 312.357C241.611 315.097 243.269 315.72 245.543 316.948C244.308 318.198 242.549 319.55 241.225 320.734C237.113 324.324 236.985 328.544 236.924 333.603C236.786 345.196 237.17 356.841 236.93 368.427C224.055 368.289 211.191 368.529 198.272 368.348C197.917 356.155 198.986 337.977 197.44 325.623C197.084 322.775 189.081 317.679 188.238 315.468C189.884 315.136 191.659 314.877 192.974 313.847C194.267 311.865 193.582 305.795 193.076 303.419C192.677 301.595 189.955 299.603 188.157 299.547C176.631 299.193 164.929 299.235 153.404 299.337C144.161 299.416 145.378 306.536 145.985 313.43C147.76 315.002 148.562 315.455 150.639 316.662C147.559 319.034 142.351 322.706 141.571 326.696C140.51 332.12 140.979 339.103 140.99 344.661L140.924 368.407H115.761C116.055 360.719 115.849 351.936 115.846 344.116C115.76 325.84 115.769 307.56 115.873 289.28Z" fill="#D0C198"/>
<path d="M419.67 5.55856L429.421 5.54675C429.586 29.8743 429.618 54.2024 429.52 78.5303L429.513 236.826L429.546 363.003C429.559 384.443 429.996 407.664 429.549 429.025C426.257 429.081 422.962 429.045 419.67 428.914C419.887 417.36 419.673 404.951 419.69 393.309L419.663 307.494L419.67 5.55856Z" fill="#BB6B46"/>
<path d="M5.71837 5.62915L15.2914 5.639C15.9229 40.5758 15.3616 77.0308 15.3682 112.099L15.3061 331.26L15.3025 402.46C15.3344 411.339 15.1397 420.186 15.3488 429.061C12.1046 429.091 8.86014 429.081 5.61629 429.035C5.4466 424.221 5.6629 417.57 5.64386 412.563L5.67865 367.971L5.66487 248.137L5.62975 84.854C5.64583 58.6492 5.16399 31.719 5.71837 5.62915Z" fill="#BB6B46"/>
<path d="M110.465 395.156L280.327 395.064C300.219 395.061 321.078 395.533 340.84 395.133L340.899 428.969C335.769 428.95 330.34 429.13 325.256 428.792C322.433 423.831 319.673 418.84 316.968 413.813C315.839 411.477 313.844 408.101 312.363 406.014C305.395 405.512 294.767 405.823 287.533 405.833L242.361 405.856L163.57 405.866C150.186 405.869 136.168 405.64 122.838 405.892C120.671 408.311 111.815 424.96 109.556 428.894C104.441 428.953 99.0471 429.104 93.9583 428.894C94.1818 417.721 93.8756 406.457 94.0092 395.225L110.465 395.156Z" fill="#BB6B46"/>
<path d="M98.4038 29.4523C103.834 29.0494 115.029 29.3897 120.763 29.3887L166.961 29.3834L274.713 29.3618C295.22 29.3749 316.446 29.6968 336.905 29.3162C334.394 31.7207 331.233 34.3585 328.588 36.6796C326.598 38.5601 322.391 42.9245 320.467 44.2062C302.792 44.4585 284.267 44.1569 266.514 44.171L114.019 44.2751C108.722 39.5015 103.905 34.1987 98.4038 29.4523Z" fill="#BC8F65"/>
<path d="M205.413 272.437L340.735 272.569L340.83 283.889C328.535 283.672 316.171 283.928 303.875 283.922L229.989 283.968L93.9626 283.892L94.0538 272.585C131.174 272.775 168.294 272.726 205.413 272.437Z" fill="#BB6B46"/>
<path d="M94.1044 149.002L340.778 149.064L340.84 159.966C339.064 160.981 115.994 160.305 94.1342 160.31L94.1044 149.002Z" fill="#BB6B46"/>
<path d="M198.183 373.595C211.017 373.674 223.851 373.68 236.685 373.618C238.485 377.552 240.931 381.332 245.183 382.924C248.909 384.321 282.972 384.19 286.631 382.655C290.901 380.856 292.781 377.726 294.485 373.611C303.199 373.684 311.914 373.71 320.625 373.684C323.274 375.629 332.037 384.689 334.87 387.527L337.216 389.778L215.451 389.814C176.599 389.749 136.864 389.358 98.0732 389.788C102.416 385.211 109.84 377.674 114.496 373.664C123.387 373.723 132.278 373.703 141.169 373.595C142.714 377.802 144.716 380.902 148.948 382.76C152.562 384.344 186.75 384.052 190.391 382.635C194.462 381.047 196.504 377.362 198.183 373.595Z" fill="#BC8F65"/>
<path d="M244.05 215.301C258.748 215.183 273.446 215.186 288.144 215.304C288.409 221.053 288.235 228.009 288.236 233.83L288.213 267.296L244.052 267.26C243.956 249.941 243.955 232.619 244.05 215.301Z" fill="#8A996C"/>
<path d="M233.351 196.306L299.225 196.307C301.023 202.271 303.121 207.389 302.996 213.71C302.894 218.858 302.937 224.075 302.911 229.233L302.878 267.335L293.543 267.283C293.225 250.558 293.205 231.353 293.458 214.556C293.458 212.679 293.684 211.764 292.447 210.438C291.334 210.035 289.573 209.956 288.378 209.972C273.761 210.209 259.162 210.051 244.547 209.989C242.877 209.979 240.986 210.317 239.367 210.734C238.467 212.568 238.862 262.6 238.865 267.279C235.705 267.325 232.545 267.312 229.385 267.237C229.248 255.329 229.581 243.221 229.411 231.245C229.311 224.213 229.194 215.849 229.63 208.884C229.787 206.376 232.391 199.097 233.351 196.306Z" fill="#8A996C"/>
<path d="M94.0939 32.9028C97.3151 35.0081 107.378 45.033 110.461 48.009C110.767 59.2979 110.488 71.7554 110.496 83.1607L110.419 143.587C104.973 143.574 99.5267 143.607 94.0811 143.687C93.7968 131.409 94.042 117.941 94.0437 105.571L94.0939 32.9028Z" fill="#BC8F65"/>
<path d="M340.486 33.1003C341.437 35.474 340.912 133.515 340.774 143.65C335.572 143.554 330.078 143.634 324.856 143.637C324.153 142.427 324.442 123.439 324.442 120.675L324.491 47.8489C328.341 43.814 336.14 37.1186 340.486 33.1003Z" fill="#BC8F65"/>
<path d="M94.0286 165.607C99.3442 165.491 105.112 165.599 110.46 165.61L110.538 230.595C110.544 242.634 110.773 255.329 110.545 267.292C105.047 267.352 99.5473 267.335 94.0492 267.243L94.0286 165.607Z" fill="#BC8F65"/>
<path d="M324.416 165.576C329.884 165.541 335.355 165.548 340.824 165.6L340.797 267.266C335.336 267.332 329.874 267.299 324.412 267.168L324.416 165.576Z" fill="#BC8F65"/>
<path d="M94.019 289.073L110.482 289.29C110.742 312.954 110.436 336.651 110.513 360.319C110.523 363.462 110.49 366.462 110.703 369.602C108.143 372.24 105.464 374.875 102.865 377.487C99.8775 380.436 96.9314 383.429 94.0282 386.464L94.019 289.073Z" fill="#BC8F65"/>
<path d="M324.455 289.306C329.92 289.218 335.388 289.211 340.856 289.29L340.827 348.27C340.919 360.824 340.896 373.382 340.758 385.936C340.167 385.536 337.998 383.321 337.318 382.684C332.904 378.537 328.666 374.13 324.426 369.795C324.586 342.968 324.596 316.137 324.455 289.306Z" fill="#BC8F65"/>
<path d="M154.014 82.8943C163.948 83.1286 174.27 83.0062 184.238 83.0298C185.406 89.9536 188.87 88.4353 192.529 93.4809C192.872 95.2915 192.881 97.1972 192.944 99.0456C188.475 99.06 154.584 98.5363 153.621 99.6195C152.74 100.61 152.602 103.412 152.571 104.7C152.489 108.212 151.797 128.264 153.353 129.914C156.046 130.994 170.106 130.504 173.993 130.468C180.29 130.421 186.587 130.441 192.883 130.529C193.093 139.693 191.581 143.047 181.536 143.032C172.343 143.019 163.049 143.282 153.854 142.981C149.949 142.852 145.727 139.981 145.588 135.801C145.193 125.224 145.349 114.568 145.319 103.976C145.31 100.71 145.37 96.6913 145.817 93.5167C149.51 89.0125 153.545 89.4991 154.014 82.8943Z" fill="#BC8F65"/>
<path d="M146.182 337.908L192.856 337.925C192.975 345.78 192.974 353.632 192.854 361.487C177.338 361.559 161.821 361.553 146.305 361.464C146.214 353.612 146.173 345.76 146.182 337.908Z" fill="#BC8F65"/>
<path d="M250.367 316.577L280.908 316.596C281.204 321.272 282.445 321.023 285.781 324.216C289.057 327.352 289.04 328.189 289.265 332.369C286.426 332.57 283.207 332.514 280.335 332.527C272.163 332.406 263.99 332.363 255.817 332.402C252.969 332.419 244.055 333.029 242.068 332.031C240.211 329.262 245.519 324.216 247.541 322.591C250.544 320.183 250.11 320.304 250.367 316.577Z" fill="#BC8F65"/>
<path d="M250.637 76.3827C260.735 76.1724 271.491 76.343 281.641 76.3305C282.682 85.4347 289.533 81.4877 290.391 91.9837C287.619 92.1196 284.407 92.0215 281.602 92.0024C273.948 91.9096 266.293 91.8948 258.638 91.9591C255.178 92.0034 244.735 92.7486 242.171 91.1191C239.563 87.1176 250.112 83.8236 250.637 76.3827Z" fill="#BC8F65"/>
<path d="M233.606 182.616C236.727 182.555 239.937 182.552 243.059 182.6C261.559 182.889 280.234 182.219 298.709 182.639C298.762 184.292 299.034 189.846 298.427 191.027C287.596 191.136 276.691 190.981 265.847 190.998C255.148 191.101 244.447 191.109 233.747 191.021C233.637 188.303 233.645 185.354 233.606 182.616Z" fill="#8A996C"/>
<path d="M241.856 366.442C257.469 366.186 273.61 366.373 289.246 366.455C289.276 370.665 289.763 373.011 287.047 376.328C283.114 379.862 272.572 378.333 267.256 378.524C261.889 378.72 255.594 378.701 250.199 378.396C242.323 377.953 242.083 372.781 241.856 366.442Z" fill="#BC8F65"/>
<path d="M241.821 130.567C256.988 130.177 275.343 130.313 290.514 130.576C290.247 134.31 290.204 135.996 287.789 138.922C286.316 140.136 284.441 141.306 282.461 141.362C273.05 141.601 263.562 141.393 254.145 141.41C245.589 141.425 242.595 139.227 241.821 130.567Z" fill="#BC8F65"/>
<path d="M166.736 304.262C173.178 304.226 181.968 304.033 188.261 304.551C188.656 307.133 188.546 309.118 188.339 311.701C184.486 312.436 177.877 312.226 173.719 312.206C168.624 312.223 154.867 312.702 150.758 311.704C150.723 308.918 150.702 307.33 151.077 304.521C155.499 304.144 162.149 304.295 166.736 304.262Z" fill="#BC8F65"/>
</svg>
