<svg width="161" height="100" viewBox="0 0 161 100" fill="none" xmlns="http://www.w3.org/2000/svg">
<path d="M0 0H160.938V17.2188V37.4615V48.8591V51.7009V55.0974V58.992V60.1788V61.6474V100H154.981H134.676H120.33H99.124H75.9457H14.1417H5.86386H0V85.7156V85.3999V71.3937V51.7463V51.6854V48.7796V35.7378V26.3707V20.8469V12.5143V0Z" fill="#90A677"/>
<path d="M75.5945 48.2838L75.8527 48.2689C76.0964 48.3839 76.3214 48.4708 76.5247 48.6459L76.5699 48.7449C76.5056 49.143 76.7344 49.3718 76.8793 49.749C79.1178 49.4512 81.3254 48.7969 83.6014 48.6627C85.2514 48.5654 86.7198 48.8228 88.3515 48.9965C89.7239 49.14 91.1013 49.2318 92.4806 49.272C95.8002 49.3702 98.582 49.1563 101.869 49.0436C103.613 48.9837 106.261 49.4006 108.071 49.4411C109.212 49.4666 111.038 50.0069 112.201 50.1188C114.308 50.3211 116.84 50.6928 118.924 50.7637C121.938 50.8661 124.491 50.1009 127.689 50.3202C130.34 50.5021 132.821 50.7535 135.464 51.019C137.002 51.1902 138.923 50.5979 140.408 50.7042C144.264 50.9803 147.891 51.3984 151.745 50.6877C153.414 50.3801 155.243 50.2804 156.916 49.8748C158.253 49.5508 159.588 49.1754 160.938 48.8591V51.7009V55.0974V58.992V60.1788V61.6474V100H154.981H134.676H120.33H99.124H75.9457H14.1417H5.86386H0V85.7156V85.3999V71.3937V51.7463V51.6855C0.934826 51.5241 1.46464 51.3983 2.46022 51.2845C3.80172 51.1949 5.14361 51.2073 6.49064 51.1019C7.28219 51.0399 7.87137 50.8749 8.62924 50.7705C10.8935 49.9754 14.6342 50.5292 16.9751 50.6696C17.7849 50.7182 19.3206 50.3747 20.1606 50.2165C21.0668 50.1943 22.3354 50.1619 23.2482 50.2095C23.6396 50.1588 23.9926 50.0975 24.3808 50.0261C25.5179 49.6765 27.5532 49.6879 28.6914 50.0141L29.2588 50.2866C30.9697 49.5913 32.1375 50.6132 33.7047 50.7211C35.7476 50.8617 37.8027 50.8879 39.8604 51.117C40.6074 51.2002 42.1856 50.8042 43.0922 50.7858C45.1403 50.7441 46.879 51.1708 48.8768 51.3592C50.3283 51.3954 52.1846 50.9908 53.6967 50.9016L62.8495 50.2697C64.5595 50.1611 66.0598 50.1778 67.8059 50.0051L71.5 50.1241C71.4642 49.5049 71.202 49.2391 71.2717 48.9193C72.966 48.0822 74.3458 48.5515 75.5945 48.2838Z" fill="#577862"/>
<path d="M76.8793 49.749C79.1178 49.4511 81.3254 48.7969 83.6014 48.6627C85.2514 48.5654 86.7198 48.8227 88.3515 48.9965C89.7239 49.1399 91.1013 49.2318 92.4806 49.272C95.8002 49.3702 98.582 49.1562 101.869 49.0435C103.613 48.9837 106.261 49.4006 108.071 49.4411C109.212 49.4666 111.038 50.0069 112.201 50.1187C114.308 50.3211 116.84 50.6928 118.924 50.7636C121.938 50.8661 124.491 50.1009 127.689 50.3202C130.34 50.502 132.821 50.7535 135.464 51.0189C137.002 51.1902 138.923 50.5978 140.408 50.7042C144.264 50.9803 147.891 51.3984 151.745 50.6877C153.414 50.3801 155.243 50.2803 156.916 49.8748C158.253 49.5508 159.588 49.1754 160.938 48.8591V51.7009V55.0973V58.992V60.1788V61.6473V100H154.981H134.676C133.183 98.9287 129.208 98.2754 127.615 97.3154C125.956 96.3154 124.785 93.4986 122.793 92.6893C119.833 91.4504 116.123 91.2294 113.353 89.5828C112.317 88.9671 110.294 85.0398 108.886 84.0807C108.413 83.5957 107.68 81.8492 107.218 81.486C105.188 79.8899 101.704 78.5015 99.3359 77.5282C98.8447 76.0633 98.4512 74.5116 97.8828 73.0874C97.6768 72.5725 96.9667 72.6552 97.005 71.65C97.0927 71.2712 97.0333 71.1938 96.8691 70.8438C97.5586 70.7701 98.8125 70.8363 99.2441 70.413C99.3027 70.218 99.3418 69.9994 99.2266 69.8295C98.9883 69.5258 99.4883 68.4192 99.1689 68.1854C98.5234 67.7123 96.8374 68.3529 96.1385 68.1467C96.5995 67.7567 96.6556 67.5734 96.7356 66.9813C96.3611 67.0306 95.9912 67.0333 95.6511 66.8637C95.4684 66.5542 95.5202 66.6511 95.5265 66.2564C95.6742 66.0214 95.7135 65.9485 95.8135 65.6957L95.8372 65.6344L95.0647 65.6077L95.045 64.7068L94.859 64.4812C94.4143 64.286 92.0755 64.5836 91.2532 64.5706C91.2937 64.1105 91.1453 61.8978 90.9966 61.4785C90.7171 61.3674 90.3371 61.4441 90.0278 61.4779C89.3226 61.3226 89.1398 61.53 88.3501 61.3102C87.75 61.3249 86.6551 61.1301 86.0219 61.0359C84.7364 60.8802 83.628 60.7049 82.3317 60.7182C81.4984 60.7268 79.9918 61.0778 79.3139 60.9768C78.5383 60.9576 78.3512 61.0205 78.0163 60.2819C77.7012 60.3627 76.4172 60.2376 75.7739 60.2872C75.8854 59.4483 75.9636 58.5661 76.1829 57.7534C76.4014 56.9436 76.7117 56.3002 76.8442 55.4644L76.9383 55.4773C77.2846 54.9254 77.4305 54.4519 77.6521 53.8415C77.8895 52.91 77.5221 52.1642 77.9232 50.9001L77.0702 50.7844C76.9913 50.5424 76.923 50.0226 76.8793 49.749Z" fill="#90A677"/>
<path d="M76.8793 49.749C79.1178 49.4511 81.3254 48.7969 83.6014 48.6627C85.2514 48.5654 86.7198 48.8227 88.3515 48.9965C89.7239 49.1399 91.1013 49.2318 92.4806 49.272C95.8002 49.3702 98.582 49.1562 101.869 49.0435C103.613 48.9837 106.261 49.4006 108.071 49.4411C109.212 49.4666 111.038 50.0069 112.201 50.1187C114.308 50.3211 116.84 50.6928 118.924 50.7636C121.938 50.8661 124.491 50.1009 127.689 50.3202C130.34 50.502 132.821 50.7535 135.464 51.0189C137.002 51.1902 138.923 50.5978 140.408 50.7042C144.264 50.9803 147.891 51.3984 151.745 50.6877C153.414 50.3801 155.243 50.2803 156.916 49.8748C158.253 49.5508 159.588 49.1754 160.938 48.8591V51.7009V55.0973V58.992V60.1788V61.6473C160.536 61.5418 159.872 61.3148 159.496 61.3973C159.034 61.7228 159.143 61.954 159.158 62.5109C158.433 62.7865 157.876 62.9869 157.132 63.1985C156.918 63.0038 156.791 62.8667 156.527 62.7399C156.149 63.2143 156.429 63.601 155.786 64.3704C155.643 64.299 155.133 64.0435 155.074 63.9413C154.452 62.8657 154.254 62.319 153.247 63.5987C152.988 63.9279 153.628 64.4165 153.901 64.6571L153.885 64.6977C153.674 65.2142 153.814 65.9784 153.561 66.0115C152.458 66.155 152.14 66.0208 152.216 64.9996L152.133 64.952C151.976 65.2422 151.81 65.577 151.604 65.8295C151.233 65.6091 150.964 64.8978 150.657 64.5317C149.2 62.7967 148.167 65.1924 147.146 66.1875C146.659 65.2665 146.459 65.0193 145.679 64.3526C144.32 64.4011 144.452 63.7959 143.536 65.0663C143.385 64.5356 143.279 63.7515 142.734 63.5318C141.915 63.7185 141.729 65.0861 140.308 65.9923C139.499 64.615 139.408 65.4496 138.701 65.1364L138.619 64.8426C138.603 64.7104 138.577 64.5795 138.545 64.4502C138.396 63.8604 137.6 61.6149 137.032 61.2828C136.427 61.4543 136.505 62.4916 136.188 63.0002C136.104 63.1358 135.65 63.0934 135.446 63.0985L135.331 63.2781C135.393 63.5834 135.461 63.7589 135.566 64.0496C135.483 64.3433 135.558 64.241 135.261 64.4204C134.55 64.4977 133.504 64.008 132.807 63.7329C132.493 63.2789 131.824 61.7691 131.508 61.5996C131.069 62.2026 130.56 63.502 129.96 63.9017C128.938 63.7366 129.031 61.912 128.306 61.5702C128.047 61.7676 128.143 62.1931 127.855 62.5975C127.247 62.2551 127.684 60.9426 127.107 60.3947C126.096 60.6027 126.491 64.5461 124.053 61.7328C123.765 62.4344 123.494 63.2507 122.574 63.2849C121.41 62.9971 121.717 60.5831 121.36 60.1152C120.815 60.2842 120.286 62.8691 119.604 63.2466C118.119 64.0687 117.951 62.1087 117.458 61.2668L117.333 61.2521C117.085 61.6943 116.905 62.3543 116.748 62.8509C116.105 62.4458 115.564 61.9284 115.001 61.42C114.678 61.9632 114.517 62.2629 114.08 62.7306C112.71 63.0599 111.614 63.3596 110.262 63.7631C110.404 63.0266 110.553 61.333 110.038 60.7284C109.123 60.5596 109.415 62.6315 108.474 62.9892C107.469 63.3715 106.37 63.3223 105.349 63.0398C104.494 62.8035 104.073 61.7286 103.711 61.0068C103.652 60.8121 103.157 59.851 103.038 59.6116C102.851 60.0594 102.769 60.8843 102.28 60.9661C102.004 60.8438 101.884 60.5793 101.727 60.3186C101.355 59.6696 100.648 59.4246 100.886 58.591C100.935 58.3626 100.992 58.2238 100.905 58.0128C100.521 57.8889 99.9932 58.441 99.6904 58.6969C98.6465 58.4301 97.8477 58.5052 96.8406 58.3281L96.7356 58.1509L96.4575 58.1358C95.6431 58.8558 95.0719 59.5248 94.3099 60.2426C93.8864 59.8772 93.6648 59.6808 93.1748 59.3881C92.9911 59.9096 92.861 60.5134 92.4177 60.8161C91.547 60.9104 91.4635 59.4845 90.8482 59.0654C90.3878 59.1553 90.3067 59.4869 90.1405 59.8962C90.0069 60.4658 89.9671 61.0268 89.2968 61.1039C89.0385 60.9594 89.133 60.9689 88.8612 60.9681L88.7881 61.0336C88.7036 61.0881 88.4226 61.2779 88.3501 61.3102C87.75 61.3249 86.6551 61.1301 86.0219 61.0359C84.7364 60.8802 83.628 60.7049 82.3317 60.7182C81.4984 60.7268 79.9918 61.0778 79.3139 60.9768C78.5383 60.9576 78.3512 61.0205 78.0163 60.2819C77.7012 60.3627 76.4172 60.2376 75.7739 60.2872C75.8854 59.4483 75.9636 58.5661 76.1829 57.7534C76.4014 56.9436 76.7117 56.3002 76.8442 55.4644L76.9383 55.4773C77.2846 54.9254 77.4305 54.4519 77.6521 53.8415C77.8895 52.91 77.5221 52.1642 77.9232 50.9001L77.0702 50.7844C76.9913 50.5424 76.923 50.0226 76.8793 49.749Z" fill="#BD5C33"/>
<path d="M76.8793 49.749C79.1178 49.4511 81.3254 48.7969 83.6014 48.6627C85.2514 48.5654 86.7199 48.8227 88.3515 48.9965C89.724 49.1399 91.1013 49.2318 92.4806 49.272C95.8002 49.3702 98.5821 49.1562 101.869 49.0435C103.613 48.9837 106.261 49.4006 108.071 49.4411C109.212 49.4666 111.038 50.0069 112.201 50.1187C114.308 50.3211 116.84 50.6928 118.924 50.7636C121.938 50.8661 124.491 50.1009 127.689 50.3202C130.34 50.502 132.821 50.7535 135.464 51.0189C137.002 51.1902 138.923 50.5978 140.408 50.7042C144.264 50.9803 147.891 51.3984 151.745 50.6877C153.414 50.3801 155.243 50.2803 156.916 49.8748C158.253 49.5508 159.588 49.1754 160.938 48.8591V51.7009C159.293 51.7911 157.646 51.7955 156 51.714C153.697 51.5944 151.409 51.2847 149.127 51.7125C145.731 52.3491 142.789 53.9177 139.366 54.9204C139.121 54.9717 138.705 55.0456 138.48 55.1135C137.288 54.9547 136.314 54.9178 135.127 55.215C134.62 55.1539 133.341 55.1566 132.834 55.2257C131.27 54.9256 128.932 54.4709 127.398 54.5291C125.698 53.99 121.529 53.4746 119.691 53.174L109.866 51.6496C106.312 51.1049 103.247 50.4898 99.6065 50.6894C97.3033 50.644 94.6687 51.4712 92.3976 51.2523C88.6903 50.8953 85.2718 51.7342 81.6265 51.7595C81.0275 51.7637 79.8937 51.3514 79.1757 51.2464C79.0273 51.1554 78.9019 50.7765 78.7196 50.5366C78.3667 50.5445 78.2729 50.6842 77.9233 50.9001L77.0702 50.7844C76.9913 50.5424 76.923 50.0226 76.8793 49.749Z" fill="#CB8057"/>
<path d="M140.321 57.7124C142.584 56.4104 143.887 56.6354 146.336 56.2889C147.911 56.0056 149.235 55.1498 150.846 54.9487C154.194 54.5306 157.603 55.0907 160.937 55.0974V58.992C158.077 58.9855 155.461 59.0325 152.61 59.3156C150.682 59.5071 148.414 59.2009 146.458 59.4175C145.746 59.4964 144.895 59.8031 144.115 59.9199C144.451 59.7012 144.84 59.5189 145.2 59.3386C145.392 58.7335 145.529 58.0663 145.673 57.4449C144.944 57.6469 144.55 57.7796 143.854 58.0702C142.34 57.7676 141.846 57.6308 140.321 57.7124Z" fill="#9F421D"/>
<path d="M81.284 57.5724C81.2277 57.4444 81.2532 57.3757 81.2742 57.2373C81.3403 57.1895 81.6228 56.9896 81.6209 56.9455C81.596 56.4041 80.95 55.3046 81.3892 54.7365L81.5997 54.7413L81.8627 54.8699C82.0139 55.2556 82.0352 55.3921 82.1002 55.8048L81.8722 56.2922C82.7474 57.0627 84.4848 56.2149 85.0253 56.8752C84.1695 58.1084 84.148 57.3156 83.6275 57.8114L83.6932 57.9711C84.5354 58.3143 85.3575 58.4196 86.1861 58.6919C87.575 59.1484 88.6823 59.6107 90.1405 59.8962C90.0069 60.4658 89.9671 61.0268 89.2968 61.1039C89.0385 60.9595 89.133 60.9689 88.8612 60.9682L88.7881 61.0336C88.7036 61.0881 88.4226 61.2779 88.3501 61.3102C87.75 61.3249 86.6551 61.1301 86.0219 61.0359C84.7364 60.8802 83.628 60.7049 82.3317 60.7182C81.4984 60.7268 79.9918 61.0778 79.3139 60.9768C79.3065 60.2398 79.1666 59.8583 78.9009 59.1977C79.4002 59.1964 81.085 59.3275 81.2637 58.8288C80.8414 58.1817 79.6809 58.7493 79.143 58.3292L79.2238 58.1211C79.969 57.5933 80.1798 58.5512 81.0567 58.3338C81.3283 58.0049 81.2458 58.0748 81.284 57.5724Z" fill="#BD5C33"/>
<path d="M86.4575 59.9321C88.3634 60.277 87.8714 60.6198 88.7881 61.0336C88.7036 61.0881 88.4225 61.278 88.3501 61.3103C87.75 61.3249 86.6551 61.1301 86.0219 61.036C86.1546 60.6598 86.2756 60.2877 86.4575 59.9321Z" fill="#6B735B"/>
<path d="M81.8627 54.8699C82.0139 55.2556 82.0352 55.3921 82.1002 55.8048L81.8722 56.2922C81.5356 55.8836 81.6187 55.274 81.5997 54.7413L81.8627 54.8699Z" fill="#9B3B17"/>
<path d="M76.8442 55.4645L76.9383 55.4774C77.0104 56.0309 77.5785 56.922 77.6332 57.3553C77.7882 58.582 77.4649 59.0671 78.0163 60.282C77.7012 60.3627 76.4172 60.2376 75.7739 60.2872C75.8854 59.4484 75.9636 58.5661 76.1829 57.7534C76.4014 56.9437 76.7117 56.3002 76.8442 55.4645Z" fill="#BD5C33"/>
<path d="M138.619 64.8426C139.691 64.347 140.789 63.4526 141.802 63.1074C143.239 62.695 144.758 62.7911 146.235 62.5558C148.819 62.1439 151.15 61.1843 153.644 60.4934C154.313 60.3079 155.553 60.3126 156.276 60.274C157.804 60.1925 159.41 60.0901 160.938 60.1788V61.6474C160.536 61.5418 159.872 61.3148 159.496 61.3974C159.034 61.7229 159.143 61.954 159.158 62.5109C158.433 62.7865 157.876 62.9869 157.132 63.1985C156.918 63.0038 156.791 62.8667 156.527 62.7399C156.149 63.2144 156.429 63.601 155.786 64.3704C155.643 64.299 155.133 64.0436 155.074 63.9413C154.452 62.8657 154.254 62.319 153.247 63.5987C152.988 63.9279 153.628 64.4165 153.901 64.6571L153.885 64.6978C153.674 65.2143 153.814 65.9784 153.561 66.0115C152.458 66.155 152.14 66.0208 152.216 64.9996L152.133 64.9521C151.976 65.2422 151.81 65.5771 151.605 65.8295C151.233 65.6091 150.964 64.8979 150.657 64.5317C149.2 62.7967 148.167 65.1924 147.146 66.1875C146.659 65.2665 146.459 65.0193 145.679 64.3526C144.32 64.4011 144.452 63.7959 143.536 65.0663C143.385 64.5356 143.279 63.7516 142.734 63.5318C141.915 63.7186 141.729 65.0861 140.308 65.9923C139.499 64.615 139.408 65.4496 138.701 65.1364L138.619 64.8426Z" fill="#9B3B17"/>
<path d="M107.105 52.6611C109.086 52.7156 111.727 53.5786 113.783 53.7907C115.053 53.9217 116.441 54.0516 117.689 54.273C119.629 54.617 121.58 55.3475 123.568 55.3627C124.645 55.3694 126.365 54.8516 127.398 54.5291C128.932 54.4709 131.27 54.9256 132.834 55.2257C132.275 55.5307 131.715 55.4116 131.067 55.495C130.157 55.5608 128.266 56.1769 127.412 56.0555C124.484 55.6392 122.12 55.4689 119.296 56.5613C118.985 56.6813 117.772 57.243 117.474 57.2828C116.336 57.4345 114.85 57.9795 113.743 58.033C113.337 57.7696 113.283 57.2265 113.164 56.7379C112.229 55.8948 111.396 55.7819 110.214 55.5845L112.546 55.3935C109.959 54.5481 109.254 54.2746 107.105 52.6611Z" fill="#9F421D"/>
<path d="M82.1002 55.8048C82.1804 55.7354 82.2788 55.65 82.3954 55.5489C84.1846 55.3562 87.5466 55.4205 89.1749 55.5004C88.0894 55.9282 88.2307 56.2609 87.2968 56.797L87.2615 56.9413C87.9274 57.2113 90.8941 56.6347 91.8576 56.6378C93.9444 56.6445 96.0301 56.7257 98.1143 56.7448L98.1123 56.8028C97.007 56.9876 95.7006 56.9642 94.5862 57.1432C94.5241 57.2146 94.4714 57.2753 94.428 57.3252C94.5112 57.9245 95.9342 58.1144 96.4575 58.1358C95.6431 58.8559 95.0719 59.5248 94.3099 60.2426C93.8864 59.8772 93.6649 59.6809 93.1748 59.3881C92.9911 59.9097 92.8611 60.5134 92.4177 60.8161C91.547 60.9105 91.4635 59.4845 90.8483 59.0654C90.3878 59.1553 90.3068 59.4869 90.1406 59.8962C88.6824 59.6107 87.575 59.1484 86.1862 58.6919C85.3575 58.4196 84.5354 58.3144 83.6932 57.9711L83.6276 57.8114C84.1481 57.3156 84.1696 58.1084 85.0253 56.8752C84.4848 56.2149 82.7474 57.0627 81.8722 56.2922L82.1002 55.8048Z" fill="#9F421D"/>
<path d="M100.886 58.591L103.375 58.5283L103.414 58.3891L103.175 58.0639C103.987 56.7533 108.341 58.2211 109.43 58.505C108.755 58.5607 108.079 58.5982 107.402 58.6173C107.854 58.8488 108.304 59.0839 108.764 59.3015C109.209 59.5123 109.701 59.3831 109.932 59.66C109.632 59.9731 106.452 60.453 105.775 60.7516C105.327 60.9494 104.232 60.9259 103.711 61.0068C103.652 60.8121 103.157 59.8511 103.038 59.6116C102.851 60.0595 102.769 60.8843 102.28 60.9661C102.004 60.8438 101.884 60.5793 101.727 60.3186C101.355 59.6696 100.648 59.4246 100.886 58.591Z" fill="#9F421D"/>
<path d="M135.127 55.215C136.313 54.9178 137.288 54.9547 138.479 55.1134C138.178 55.203 138.003 55.2619 137.688 55.2968C136.837 55.1424 135.625 55.5335 135.194 55.4475L135.127 55.215Z" fill="#9B3B17"/>
<path d="M139.366 54.9204C139.646 55.0853 139.945 55.1913 140.058 55.4427C139.693 55.6028 138.086 55.3884 137.688 55.2969C138.003 55.2619 138.178 55.203 138.479 55.1135C138.705 55.0456 139.121 54.9717 139.366 54.9204Z" fill="#9F421D"/>
<path d="M101.644 54.9395C102.381 54.5099 104.085 54.4782 104.881 54.7352C105.63 54.7169 106.019 54.9183 106.7 55.2251C106.552 55.4642 106.082 56.1626 106.049 56.3891C105.424 56.5038 103.919 56.3635 103.116 56.4205C101.668 56.5235 100.795 57.1702 99.4619 56.5418C99.835 56.0026 103.587 55.7487 104.833 55.0667L104.871 55.0452C103.938 54.9509 102.687 54.9923 101.755 55.0896L101.644 54.9395Z" fill="#9F421D"/>
<path d="M104.881 54.7352C105.63 54.7169 106.019 54.9182 106.7 55.2251C106.552 55.4641 106.082 56.1626 106.049 56.389C105.81 55.4687 105.063 55.4896 104.881 54.7352Z" fill="#B05833"/>
<path d="M129.524 58.1154C129.309 58.1256 129.206 58.0802 128.995 58.02L129.01 57.9505C129.844 57.8905 131.228 57.8522 132.035 57.9918C133.449 58.0709 133.993 58.3816 135.304 58.5868C136.273 58.7386 137.776 58.5967 138.781 58.7429C137.997 59.0193 133.999 59.7272 133.526 59.5634C133.659 59.3772 133.702 59.3507 133.882 59.2034L133.856 59.0812C132.037 57.9412 131.514 58.5298 129.524 58.1154Z" fill="#9F421D"/>
<path d="M112.758 59.7357C113.122 60.0189 112.695 60.2203 112.897 60.6127C113.412 60.8414 114.254 60.9629 114.832 61.0693C113.855 61.5129 112.702 61.8811 111.637 62.0138C111.369 62.0522 111.277 62.0555 111.007 62.0447L110.929 61.9293C111.101 61.7281 111.148 61.6894 111.2 61.4332C111.047 61.0594 110.7 61.0435 110.364 60.7019C110.895 60.3636 111.229 61.0235 112.758 59.7357Z" fill="#9F421D"/>
<path d="M123.091 57.8174C123.487 57.7805 124.672 57.8528 125.156 57.8653L125.252 57.9856L125.167 58.3331C125.23 58.6826 125.658 59.0112 125.934 59.2718L124.469 59.6532C124.234 59.6864 124.205 59.6882 123.987 59.5971C123.774 59.3322 123.807 58.8196 123.792 58.4567C123.014 58.4324 121.878 58.5109 121.075 58.542C121.751 58.3114 122.423 58.0699 123.091 57.8174Z" fill="#9F421D"/>
<path d="M99.4424 54.0724L99.5605 54.0977C99.4346 54.4517 98.2754 55.0087 97.9609 55.0004C96.5511 54.963 94.2427 55.216 92.9122 54.8021L92.8494 54.7739L92.8161 54.6555C94.6298 55.1071 96.2102 54.5949 97.917 54.1332C98.1191 54.0782 99.1748 54.0731 99.4424 54.0724Z" fill="#9F421D"/>
<path d="M138.847 60.7543C139.51 60.7354 141.664 60.7878 142.126 61.1743L141.98 61.2623C141.384 61.2969 139.11 61.4179 138.733 61.0372L138.847 60.7543Z" fill="#9B3B17"/>
<path d="M89.9469 52.7545C90.1192 52.7768 91.6228 53.3168 91.8067 53.4096L91.832 53.5615C91.6413 53.7313 91.4574 53.7065 91.1912 53.724C90.7441 53.7893 90.4542 53.8037 90.0009 53.8177L89.9818 53.6168L89.8978 53.6823C90.086 53.5697 90.3939 53.4152 90.5089 53.2464C90.2668 53.0856 90.1064 53.0035 89.9469 52.7545Z" fill="#9F421D"/>
<path d="M88.4514 52.4556L88.7229 52.4757L88.7071 52.596C88.0214 53.0646 87.0044 53.0749 86.2059 53.0199L86.0768 52.9961L86.1015 52.9253C87.0422 52.795 87.5431 52.7121 88.4514 52.4556Z" fill="#88290B"/>
<path d="M136.487 56.6953C136.719 56.6616 137.715 56.7332 137.882 56.8636C137.095 56.9752 136.227 56.938 135.425 56.9261C134.972 56.9296 134.631 56.9104 134.178 56.8747C134.773 56.8634 135.986 56.8935 136.487 56.6953Z" fill="#88290B"/>
<path d="M101.755 55.0897C101.389 55.2737 101.025 55.4611 100.611 55.3283C100.815 55.0997 101.319 55.0217 101.644 54.9396L101.755 55.0897Z" fill="#9F421D"/>
<path d="M159.158 62.5109C159.143 61.954 159.034 61.7228 159.496 61.3973C159.872 61.3148 160.536 61.5418 160.938 61.6473V100H154.981C155.401 99.707 155.993 99.4248 155.856 98.8672C155.612 98.5791 155.262 98.5176 154.896 98.4082C155.153 98.0195 155.402 97.53 155.627 97.1146C155.234 96.7661 154.278 96.2118 154.172 95.9852L154.004 95.9527C153.791 95.4056 153.125 94.3364 152.661 93.969L152.437 93.8223C152.585 93.5047 152.396 93.016 152.306 92.616C151.78 92.8324 151.635 92.8824 151.064 92.86C150.941 92.7705 150.361 92.6429 150.177 92.5964C150.45 92.3126 150.983 91.8127 151.032 91.4456C150.26 90.5638 149.868 92.2184 149.44 90.8055C149.202 90.019 148.511 88.3458 147.398 89.2138C147.241 90.1266 147.979 91.2673 147.221 92.1808C146.976 92.4758 146.56 92.1176 146.285 92.2079C145.535 92.4552 145.822 93.5689 144.873 93.6855C144.266 93.4768 144.013 92.9732 143.686 92.4482C142.653 92.6833 142.118 92.9122 141.278 93.5268C141.566 93.7533 141.876 93.9589 142.041 94.2823C142.016 94.8947 141.165 95.3032 140.495 95.9658C138.438 95.4872 137.882 95.393 139.601 93.762C138.862 93.3599 138.723 93.1003 138.125 92.6363C137.999 92.5386 136.961 92.6879 136.586 92.4608C136.442 92.0352 136.612 92.1006 136.668 91.5582L136.511 91.3977C136.036 91.2329 135.389 91.3085 134.872 91.3323L135.405 90.3012C135.021 90.3454 134.215 90.46 133.881 90.3552C132.247 89.8418 133.396 87.874 131.132 89.1316C130.947 88.7157 130.647 87.9517 130.259 87.7317C130.228 87.6051 130.076 87.502 129.963 87.397C130.233 86.953 130.76 86.1407 130.019 85.8338C129.401 86.044 128.965 87.3409 128.382 87.9126C127.765 87.2653 127.707 87.1088 126.826 86.9949L126.76 86.7354C127.446 86.3534 127.568 86.737 128.026 86.4544C128.036 86.2086 128.045 86.2968 127.847 86.0538C127.415 85.9009 126.707 85.9412 126.228 85.9407C128.095 84.9952 127.791 84.8668 130.002 84.5497C130.193 84.4121 130.811 83.8068 130.958 83.7957C131.179 83.7791 131.441 83.8142 131.808 83.707C132.036 83.1756 130.774 82.9871 130.533 82.2929C130.918 81.9716 132.295 82.0198 132.866 82.0079C133.292 81.3966 133.815 80.6892 134.138 80.0315C136.597 78.3659 137.015 79.5987 138.148 79.2162C138.27 78.984 138.312 78.8583 138.396 78.6144L138.569 78.5851C138.744 78.7972 138.623 78.9756 138.754 79.3905C139.422 79.7308 139.444 79.1162 140.092 79.0072C140.309 79.1474 140.329 79.1769 140.577 79.1942C140.918 78.9848 141.459 78.1107 141.795 77.7079L141.931 77.7081C142.105 78.1036 142.132 78.7511 142.176 79.2002C142.73 78.3516 143.726 76.7668 144.325 76.0839C144.514 74.1561 144.479 74.0411 146.259 73.2669C145.789 73.9083 145.599 74.2127 145.229 74.9171C146.928 74.3977 147.19 74.2514 148.989 74.2439C146.599 75.741 144.383 77.5534 142.994 80.0656C143.677 80.2364 144.479 80.1552 144.81 80.4405C144.761 80.8077 144.556 80.9745 144.312 81.3016C145.075 81.2821 145.575 81.1087 146.316 81.0915C146.904 81.0778 147.91 81.4261 148.397 81.1206C148.716 80.695 148.711 79.9068 148.765 79.3448C149.21 79.3633 149.713 79.303 150.162 79.2628C150.301 78.6167 150.29 78.1551 150.301 77.4973C150.836 77.5562 151.62 77.7212 151.973 77.2024C152.083 76.424 150.84 75.8274 150.683 75.0628C150.807 74.5997 152.427 73.7076 152.981 73.3093C152.064 72.7994 151.464 72.6747 150.472 72.3983C150.242 72.3342 150.179 72.1569 150.113 71.9522C150.265 71.3422 151.282 70.7591 151.83 70.2495C152.254 69.3043 150.857 68.4348 151.346 67.6172C152.319 66.9971 154.191 67.303 155.345 67.3939C153.968 66.1637 154.936 65.9601 155.756 64.4275L155.786 64.3704C156.429 63.601 156.149 63.2143 156.527 62.7399C156.791 62.8667 156.918 63.0038 157.132 63.1985C157.876 62.9869 158.433 62.7865 159.158 62.5109Z" fill="#577862"/>
<path d="M156.916 72.2817C158.387 72.1831 158.364 72.4879 158.843 73.8378C157.555 73.8838 157.011 73.61 156.916 72.2817Z" fill="#90A677"/>
<path d="M101.727 60.3187C101.884 60.5793 102.004 60.8439 102.28 60.9661C102.769 60.8843 102.851 60.0595 103.038 59.6116C103.157 59.8511 103.652 60.8121 103.711 61.0069C104.073 61.7286 104.494 62.8035 105.349 63.0399C106.37 63.3224 107.469 63.3715 108.474 62.9893C109.415 62.6316 109.123 60.5597 110.038 60.7284C110.553 61.333 110.404 63.0267 110.262 63.7631C111.614 63.3597 112.71 63.06 114.08 62.7307C114.517 62.2629 114.678 61.9632 115.001 61.42C115.564 61.9284 116.105 62.4458 116.748 62.8509C116.905 62.3543 117.085 61.6943 117.333 61.2522L117.458 61.2668C117.951 62.1087 118.119 64.0688 119.604 63.2466C120.286 62.8692 120.815 60.2842 121.36 60.1153C121.717 60.5831 121.41 62.9972 122.574 63.285C123.494 63.2507 123.765 62.4345 124.053 61.7328C126.491 64.5461 126.096 60.6028 127.107 60.3947C127.684 60.9426 127.247 62.2551 127.855 62.5976C128.143 62.1932 128.047 61.7676 128.306 61.5702C129.031 61.912 128.938 63.7366 129.96 63.9018C130.56 63.5021 131.069 62.2027 131.508 61.5996C131.824 61.7692 132.493 63.2789 132.807 63.7329C133.504 64.008 134.55 64.4978 135.261 64.4204C135.558 64.241 135.483 64.3434 135.566 64.0496C135.461 63.7589 135.393 63.5834 135.331 63.2781L135.446 63.0986C135.65 63.0935 136.104 63.1359 136.188 63.0002C136.505 62.4916 136.427 61.4543 137.032 61.2828C137.6 61.615 138.396 63.8605 138.545 64.4502C138.577 64.5795 138.603 64.7105 138.619 64.8426L138.701 65.1364C139.408 65.4496 139.499 64.6151 140.308 65.9923C141.729 65.0861 141.915 63.7186 142.734 63.5318C143.279 63.7516 143.385 64.5357 143.536 65.0663C144.452 63.7959 144.32 64.4011 145.679 64.3527C146.459 65.0194 146.659 65.2665 147.146 66.1875C148.167 65.1924 149.2 62.7967 150.657 64.5318C150.964 64.8979 151.233 65.6091 151.604 65.8295C151.392 66.2472 150.593 66.4233 150.298 66.9145C150.125 67.2033 150.344 67.6897 150.151 67.9905C149.553 68.0169 148.998 67.6487 148.32 67.5954C147.946 67.9493 148.809 68.5955 148.775 69.1587C148.519 69.2744 148.376 68.8397 147.9 68.8873C147.408 69.5494 148.117 71.0778 147.673 71.8187C147.168 72.004 144.321 70.6821 143.283 70.5435C142.078 70.3823 142.086 70.2928 140.723 70.355C138.914 64.5597 138.166 68.3687 136.893 68.6796C136.678 68.6595 136.323 68.4676 136.197 68.3087C134.8 66.5414 136.477 65.5834 133.336 65.6557C133.128 65.3433 133.576 64.7897 132.999 64.2423C131.468 63.8518 131.507 66.9534 129.854 66.2179C129.621 65.9419 129.68 65.4332 129.672 65.042C129.259 64.3682 128.266 65.0569 127.698 65.3266C126.688 62.9917 125.569 63.6585 124.291 65.2844C124.265 64.7485 124.226 63.5246 123.499 63.5509C123.036 63.7684 122.715 64.3592 122.458 64.7905C121.725 65.1135 121.559 64.148 119.567 65.5785C119.134 65.5269 119.093 64.9403 118.461 64.8158C117.815 65.1971 118.278 66.4528 117.819 66.9998C117.059 66.7682 117.111 65.1107 116.35 65.0115C116 65.2207 116.052 65.4989 115.737 65.8681C115.32 65.76 115.188 64.9547 114.697 64.7603C113.938 64.7149 112.504 64.9943 112.343 65.9123C112.178 66.8448 112.026 66.8026 112.175 67.7682C111.706 67.6902 111.096 67.5031 110.935 68.0205C110.977 68.2305 111.032 68.3635 111.143 68.5216C112.715 71.0653 113.471 69.0873 115.662 69.4534C116.482 69.5905 116.495 70.7434 116.995 70.6557C119.307 70.2498 120.21 66.6816 122.879 66.6889C123.539 66.6906 123.037 67.669 123.359 68.1236C123.497 68.2008 123.769 68.3581 123.903 68.2275C124.64 67.5103 125.138 67.5153 126.165 67.4447L126.202 68.6317C126.863 69.2758 126.656 69.2528 126.676 70.1209C127.339 70.9778 130.082 70.1308 130.903 69.8004C130.696 70.2706 130.153 70.931 130.127 71.3217C130.325 71.5045 130.378 71.5399 130.518 71.7657C130.317 72.3164 129.316 71.9314 128.839 72.6527C129.351 72.9978 130.421 72.536 130.554 73.2166C130.211 73.5043 130.104 73.1757 129.68 73.4877L129.701 73.6322C130.006 73.9476 131.003 74.3096 131.465 74.5012C131.67 74.7828 131.648 74.6702 131.621 74.9439C130.977 75.3496 128.982 74.7038 128.847 75.573C129.184 76.2652 131.289 76.2985 131.984 76.2768C130.942 77.9595 130.025 76.5109 129.07 77.1642C128.956 77.5517 129.075 77.7067 129.193 78.1386C128.421 78.1471 127.236 77.9919 126.437 77.9104C126.719 78.2165 127.175 78.5671 127.205 78.8808C126.854 79.3754 125.296 79.8845 124.677 80.0974C124.21 79.9723 123.148 79.616 122.744 79.7457L122.543 80.224C122.129 80.3174 122.391 79.8657 121.835 79.7279C121.367 79.9054 121.605 79.8145 121.284 80.3284C120.871 80.4117 120.549 80.0399 120.088 80.0174C119.158 79.9721 119.706 80.8076 119.334 81.1528C118.801 80.6644 118.467 80.1649 117.752 80.0959C117.39 80.061 116.777 80.0559 116.614 79.7357C116.901 79.315 116.962 79.2735 116.901 78.8343C116.729 78.5025 116.393 78.3899 116.05 78.2248C115.71 78.4373 115.582 78.638 115.164 78.6976C114.865 78.5232 114.937 78.4677 114.803 78.0283C114.316 77.8026 114.101 78.4133 113.48 78.6009C112.926 78.2469 113.698 76.853 111.509 78.924C111.048 78.2952 110.567 77.2561 110.205 76.5334C109.617 76.4122 109.412 76.3778 108.8 76.3575C108.026 75.549 107.208 74.9562 106.707 73.9592C106.791 73.7519 106.852 73.6444 106.961 73.4488C106.852 72.8574 106.308 72.9468 106.521 72.5172C107.029 72.3333 107.876 72.6252 108.391 72.7859L109.201 72.0885C109.088 72.0194 108.975 71.9492 108.863 71.8778C108.476 71.6294 108.425 71.6033 108.34 71.2086C108.445 70.919 108.771 70.7953 109.051 70.6422L109.033 70.3135C108.876 70.1859 108.485 70.0141 108.287 69.9182C107.216 69.8427 105.944 71.6067 105.143 69.5596C105.269 68.5625 107.094 68.7707 106.963 67.5717C106.765 67.2045 106.465 67.0515 106.115 66.8252C105.613 66.8871 104.992 67.0751 104.523 67.0828C104.074 66.1737 104.429 66.2323 103.388 65.951C103.255 65.5481 103.751 65.4707 103.744 64.8906C103.571 64.535 103.191 64.5185 102.938 64.2933C102.737 64.1137 103.166 64.0236 103.196 63.4862C102.64 62.999 102.269 63.6539 101.685 63.5111C101.726 63.1481 101.767 62.9519 101.686 62.5937L101.563 62.5355C101.202 62.6964 100.771 63.5896 100.6 63.9513C100.313 63.6111 99.9531 63.2601 99.6387 62.9395C99.332 62.8981 98.877 62.8737 98.6504 62.6884C98.8115 62.3536 99.5674 62.2908 99.8496 62.1052C100.573 61.6285 100.998 60.8867 101.727 60.3187Z" fill="#577862"/>
<path d="M107.547 65.5938C108.091 65.6906 109.386 66.27 109.815 66.6169L109.739 66.7647C108.93 67.0328 108.167 66.6194 107.494 66.1698C107.387 65.8855 107.429 65.9496 107.547 65.5938Z" fill="#90A677"/>
<path d="M98.1494 65.3272L99.4199 65.314L99.3926 66.5304C98.7861 66.6362 96.9788 66.7473 96.751 66.903L96.7356 66.9813C96.3611 67.0307 95.9912 67.0333 95.6511 66.8637C95.4684 66.5542 95.5202 66.6511 95.5265 66.2564C95.6742 66.0214 95.7135 65.9485 95.8135 65.6957L95.8372 65.6345C96.4783 65.4856 97.3973 65.4753 98.1494 65.3272Z" fill="#BD5C33"/>
<path d="M96.8406 58.3281C97.8477 58.5052 98.6465 58.4301 99.6904 58.6969C99.0098 59.2743 98.6494 59.4206 97.832 59.6943C97.0284 59.3165 96.8667 59.2434 96.8406 58.3281Z" fill="#9B3B17"/>
<path d="M152.661 93.9691C153.125 94.3364 153.791 95.4057 154.004 95.9528C153.598 96.0003 152.634 95.8495 152.354 95.5039C152.25 95.1203 152.552 94.5963 152.646 94.0552L152.661 93.9691Z" fill="#577862"/>
<path d="M95.045 64.7068C95.7262 65.1035 97.3482 65.1523 98.1494 65.3273C97.3973 65.4753 96.4783 65.4857 95.8372 65.6345L95.0648 65.6077L95.045 64.7068Z" fill="#D28B64"/>
<path d="M129.963 87.3971C130.076 87.5021 130.228 87.6051 130.259 87.7318C130.09 87.9472 129.88 88.2522 129.6 88.2413C129.563 87.9398 129.794 87.6636 129.963 87.3971Z" fill="#6B735B"/>
<path d="M126.826 86.9949C126.536 87.0168 126.132 87.0003 125.831 86.9967L125.854 86.9796L125.537 86.9473C125.808 86.7935 126.406 86.7792 126.76 86.7355L126.826 86.9949Z" fill="#6B735B"/>
<path d="M137.394 73.4662C138.908 73.2989 139.563 73.5482 140.895 74.1329C140.099 74.7838 140.025 75.4388 139.218 76.0323C138.581 76.1533 137.986 76.158 137.341 76.1814C137.312 76.809 137.343 77.3753 137.407 77.998C136.674 77.6397 135.936 77.2448 135.194 76.8801L135.003 76.741L135.037 76.5521C135.522 76.1625 136.973 76.0499 137.706 75.8919C135.879 75.3557 135.505 75.7911 134.034 75.6132C133.798 75.2113 133.89 74.6383 134.233 74.3222C134.606 74.3997 134.265 74.6983 134.658 74.9313C135.389 74.6587 136.359 73.8989 137.394 73.4662Z" fill="#577862"/>
<path d="M126.012 87.5933C126.549 87.7202 127.626 89.0954 127.17 89.3429C126.153 89.8936 126.271 89.1888 125.478 90.3722C125.263 90.5416 125.229 90.5761 124.964 90.6289C124.488 90.3744 124.369 89.8897 124.471 89.3813C124.663 88.414 125.248 88.0955 126.012 87.5933Z" fill="#577862"/>
<path d="M133.379 70.2633L133.63 70.3396C133.907 70.5492 134.164 71.355 134.321 71.7262C133.653 72.4471 133.896 73.0024 132.965 73.5692C132.789 73.6568 132.785 73.6486 132.586 73.6724C132.354 73.4431 132.154 72.7319 132.028 72.3865C132.465 71.416 132.625 71.0322 133.379 70.2633Z" fill="#577862"/>
<path d="M135.426 71.5651C136.312 71.5624 136.687 71.9226 137.309 72.4955C136.951 72.6435 136.678 72.7354 136.309 72.8511C135.75 73.0565 135.036 73.453 134.647 72.8312C134.692 72.2918 135.051 71.9162 135.426 71.5651Z" fill="#577862"/>
<path d="M75.7739 60.2872C76.4172 60.2376 77.7012 60.3627 78.0163 60.282C78.3512 61.0205 78.5383 60.9576 79.3139 60.9769C79.9918 61.0779 81.4984 60.7269 82.3317 60.7183C83.628 60.7049 84.7364 60.8802 86.0219 61.036C86.6551 61.1301 87.75 61.3249 88.3501 61.3103C89.1398 61.53 89.3226 61.3227 90.0278 61.478C90.3371 61.4442 90.7171 61.3674 90.9966 61.4785C91.1453 61.8979 91.2937 64.1106 91.2532 64.5706C92.0755 64.5836 94.4143 64.2861 94.859 64.4813L95.045 64.7069L95.0648 65.6077L95.8372 65.6345L95.8135 65.6957C95.7135 65.9486 95.6742 66.0214 95.5265 66.2565C95.5202 66.6511 95.4684 66.5542 95.6511 66.8637C95.9912 67.0333 96.3611 67.0307 96.7356 66.9814C96.6556 67.5735 96.5995 67.7568 96.1385 68.1467C96.8374 68.353 98.5234 67.7123 99.1689 68.1855C99.4883 68.4193 98.9883 69.5258 99.2266 69.8295C99.3418 69.9994 99.3027 70.2181 99.2441 70.413C98.8125 70.8364 97.5586 70.7701 96.8691 70.8439C97.0333 71.1939 97.0927 71.2712 97.005 71.65C96.9667 72.6552 97.6768 72.5726 97.8828 73.0874C98.4512 74.5116 98.8447 76.0633 99.3359 77.5282C101.704 78.5016 105.188 79.89 107.218 81.4861C107.68 81.8492 108.413 83.5957 108.886 84.0808C110.294 85.0399 112.317 88.9671 113.353 89.5828C116.123 91.2294 119.833 91.4504 122.793 92.6894C124.785 93.4987 125.956 96.3155 127.615 97.3155C129.208 98.2754 133.183 98.9287 134.676 100H120.33H99.124H75.9457H14.1417H5.86386C6.71537 99.3184 9.36456 97.8848 10.4298 97.2964C12.3173 96.2531 14.629 94.832 16.5818 94.0256C17.5936 93.6078 19.9765 93.2025 21.192 92.9517C23.3722 92.5077 25.5413 92.011 27.6975 91.4619C29.4052 91.013 30.5115 90.3555 32.0749 89.848C33.1339 89.5041 35.6113 89.9579 36.7816 89.2855C39.726 87.5938 42.0415 83.9219 44.9581 82.2126C45.2328 82.0516 46.6151 81.8613 47.0305 81.7989C48.9378 79.9188 50.8391 80.1264 53.4996 79.5067C54.8465 79.2697 56.1895 79.0114 57.5281 78.732C58.3847 78.7437 59.1303 78.489 60.0458 78.5147C60.1032 78.0415 60.1188 77.7342 60.1244 77.257C60.189 76.6195 60.6428 75.9713 60.9978 75.4472C60.8732 73.448 61.3665 73.9823 61.7015 72.4459C61.734 72.1573 61.8815 71.752 61.9745 71.4639C62.087 71.3772 62.1983 71.2889 62.3083 71.199C62.5831 70.9699 62.5522 70.9862 62.5764 70.7013C62.187 70.2067 60.6601 70.0577 59.8648 69.8561L59.8236 68.4972C59.8444 67.86 59.8582 67.2226 59.8649 66.5852C60.3288 66.5931 60.7952 66.5764 61.2592 66.5644C62.1954 66.4508 63.1334 66.3825 64.0758 66.4285C64.0682 65.9508 64.0086 64.5263 64.1498 64.1471L64.3425 64.0839C65.7348 64.085 67.1269 64.0488 68.5172 63.9754C68.4166 62.7587 68.4028 61.5365 68.4759 60.3179C68.7176 60.3556 69.0513 60.42 69.2882 60.4228L70.1625 60.5257L70.4513 60.2145C70.8255 60.2895 71.2659 60.3958 71.6401 60.3917L71.686 60.6621C72.4691 60.8154 73.1475 60.7034 73.8893 60.8569L74.019 60.6732L73.9927 60.4952L74.5378 60.5034C74.8292 60.5178 75.2017 60.5462 75.4844 60.5358C75.6322 60.4574 75.656 60.4092 75.7739 60.2872Z" fill="#9B3B17"/>
<path d="M97.005 71.65C96.9667 72.6552 97.6767 72.5726 97.8828 73.0874C98.4512 74.5116 98.8447 76.0633 99.3359 77.5282C101.704 78.5016 105.188 79.89 107.218 81.4861C107.68 81.8492 108.413 83.5957 108.886 84.0808C110.294 85.0399 112.317 88.9671 113.353 89.5828C116.123 91.2294 119.833 91.4504 122.793 92.6894C124.785 93.4987 125.956 96.3155 127.615 97.3155C129.208 98.2754 133.183 98.9287 134.676 100H120.33H99.124H75.9457C75.9541 99.3936 76.3851 96.5635 76.492 95.7481C76.4259 95.6312 76.3638 95.5119 76.3057 95.3908C75.7372 94.1884 76.1998 91.777 76.2737 90.4661C76.3601 88.9323 76.1721 88.006 76.6946 86.5343C76.9451 87.0274 77.2562 87.5636 77.5196 88.0672L77.5945 88.084C77.5815 87.3815 76.9318 85.399 77.2162 84.9736L77.1525 84.8403C76.7479 85.0142 76.618 85.6657 76.4137 86.0444L76.3114 86.0017L76.48 85.9388L76.2783 85.9652C76.1001 85.7122 75.7931 84.8642 75.8506 84.6122C76.0611 83.6901 75.87 77.9586 76.1554 77.5245L76.3275 77.565C76.5718 77.9109 76.6521 78.1407 77.0947 78.083C77.4707 77.7878 77.7042 77.0124 77.9578 76.5469C79.2877 74.1055 79.9201 75.0785 81.5465 74.5583L81.6073 74.5385C82.2257 74.3434 82.776 73.7409 83.1474 73.5108C83.4798 73.3047 83.9242 74.0512 84.7388 73.794C84.9747 73.5646 85.0297 73.0441 85.1607 72.6604C85.4234 72.5625 87.1964 73.155 87.7463 73.2361C88.3828 73.3299 89.5047 73.3434 90.0272 73.5178C90.7145 73.7471 91.6382 74.424 92.3894 74.5833C93.3243 74.1569 92.3174 72.8734 94.798 73.3313C95.127 73.1588 94.7907 72.9407 95.0122 72.7168C95.3869 72.338 96.5072 71.6986 97.005 71.65Z" fill="#BD5C33"/>
<path d="M99.3584 85.316C99.9873 86.0244 100.568 86.7024 101.3 87.2784C101.794 87.6683 102.997 88.1788 103.302 88.6058C104.781 90.6848 104.768 93.648 107.541 94.7275C107.94 94.8832 108.628 95.1946 108.911 95.5499C109.579 96.4509 109.57 97.324 110.192 98.3555C111.241 98.7783 112.647 98.8633 113.856 99.2813C112.514 97.6136 112.575 96.8309 112.05 94.8443C111.67 93.4067 111.03 91.9852 110.453 90.6181C109.796 89.0161 108.969 88.9902 108.315 87.689C108.209 87.4767 108.145 87.111 108.215 86.8646L108.352 86.7914C108.793 86.9572 111.656 89.6197 111.928 90.2411C112.107 90.6516 111.7 90.9492 111.884 91.242C112.439 92.1259 113.879 92.556 114.454 93.4439C114.896 94.1256 115.198 95.1328 115.544 95.8671C116.903 98.7578 118.109 98.6201 120.33 100H99.124L99.3535 90.4521C99.3828 89.0578 99.4883 86.6708 99.3584 85.316Z" fill="#9B3B17"/>
<path d="M87.6077 86.1848C87.9461 86.3951 88.39 87.7434 88.562 88.1921L87.1831 88.2896C86.9774 88.2958 86.8786 88.2952 86.674 88.2754C86.534 87.7424 87.282 86.7514 87.6077 86.1848Z" fill="#B05833"/>
<path d="M77.1904 78.3976C77.5176 78.8982 76.8898 79.4901 76.8357 80.2786C76.9435 80.6123 77.3166 80.7113 77.634 81.0556L77.5885 81.1932C77.4033 81.1668 77.2395 81.1497 77.0531 81.1338L76.917 81.2942C76.779 81.5574 76.7519 81.5957 76.5424 81.8064L76.3999 81.7742C76.2562 81.1444 76.7502 78.8397 77.1904 78.3976Z" fill="#9B3B17"/>
<path d="M97.4768 83.5253C97.489 82.6278 97.1025 81.6907 97.3058 81.2477L97.502 81.2733C97.6582 81.4527 97.7285 81.5558 97.8575 81.7558L97.9463 81.7209L98.127 81.83C98.0547 82.3407 97.9043 83.7209 97.5492 84.0819C97.4294 83.9485 97.4549 83.7107 97.4768 83.5253Z" fill="#9B3B17"/>
<path d="M97.4768 83.5253C97.489 82.6278 97.1025 81.6907 97.3058 81.2477L97.502 81.2733C97.6582 81.4527 97.7285 81.5558 97.8575 81.7558C97.5156 82.7061 97.6367 82.677 97.4768 83.5253Z" fill="#9F421D"/>
<path d="M95.0729 74.7037C95.1723 74.7255 96.5119 75.0253 96.424 74.9831C96.6148 75.329 96.4937 75.8982 96.4685 76.3648L96.4072 76.4754C96.1893 76.3946 95.532 75.155 95.0729 74.7037Z" fill="#9B3B17"/>
<path d="M88.5317 83.5355C89.0376 83.698 89.4387 84.4009 89.4143 84.9314C89.2563 84.9404 89.0732 84.9376 88.9131 84.9391C88.312 84.6431 88.4189 84.0913 88.5317 83.5355Z" fill="#88290B"/>
<path d="M86.3559 82.9467C86.6397 83.0881 86.8981 83.6188 86.9371 83.9255C86.9663 84.1552 86.8288 84.2352 86.6843 84.4001C86.1559 83.85 85.786 83.497 86.3559 82.9467Z" fill="#9B3B17"/>
<path d="M97.2523 75.7998L97.5042 75.9238C97.7217 76.4053 97.7383 76.9206 97.7373 77.4445L97.4526 77.2544C97.2007 76.7561 97.1246 76.3495 97.2523 75.7998Z" fill="#88290B"/>
<path d="M106.707 92.1547C107.049 92.38 107.155 92.8304 107.047 93.2086L106.819 93.3247C106.681 93.0318 106.635 92.9903 106.386 92.7939L106.32 92.7432L106.306 92.5928L106.707 92.1547Z" fill="#9B3B17"/>
<path d="M97.9463 81.7209C98.0303 81.1988 98.0967 80.5763 98.3135 80.1046C98.4053 80.589 98.2656 81.351 98.127 81.83L97.9463 81.7209Z" fill="#88290B"/>
<path d="M81.7889 81.6063C81.9403 81.7256 81.9492 81.8037 82.0147 81.9843C82.0012 82.2655 81.8563 82.3896 81.6763 82.6025C81.5279 82.5048 81.4971 82.4498 81.3903 82.3135C81.4331 81.9442 81.5194 81.949 81.7889 81.6063Z" fill="#B05833"/>
<path d="M97.1263 87.9547C97.253 88.268 96.8347 89.2909 96.7001 89.7119C96.4018 89.1467 96.8515 88.4818 97.1263 87.9547Z" fill="#9B3B17"/>
<path d="M60.0458 78.5146C59.8096 80.5071 59.4018 80.9743 59.6979 83.0488C59.1452 83.4329 57.7089 83.905 57.56 84.0378C56.2851 85.1748 55.9049 85.59 54.1693 85.9847C53.8284 86.0621 50.8253 88.1126 50.7039 88.3371C51.0288 88.5946 51.9533 88.4365 52.3878 88.394C53.683 88.2675 54.9085 87.2655 56.0926 86.7644C57.248 86.2755 58.4159 85.856 59.569 85.3531C59.5289 87.9814 59.7955 90.6671 59.7657 93.4308C58.7289 94.0374 57.3984 94.8742 56.2929 95.2866C54.5712 95.9288 52.5252 96.0758 50.7497 96.5759C48.7875 97.1286 47.7575 97.7256 45.6574 97.6611C48.0007 96.2886 50.9207 94.3657 53.2433 93.1904L53.2556 93.1178C52.6113 93.2671 51.6066 93.4887 50.9594 93.6802C49.7692 94.0323 48.4991 94.2273 47.3232 94.545C46.2862 94.8252 45.2834 95.697 44.207 95.9286C42.9678 96.2806 41.9876 95.8884 40.8833 95.9549C38.8845 96.0754 37.1465 97.3505 35.532 98.376C34.6346 98.9463 34.0802 99.2148 33.2134 99.9228L33.2348 99.8857C33.7484 99 35.935 96.8295 36.7627 96.1053L36.6894 95.9754C35.0845 95.9259 31.3742 98.1328 29.456 98.0605C28.6205 98.0303 27.8807 97.6982 27.036 97.6324C25.7652 97.5337 24.7556 97.7041 24.0906 96.4537C21.4578 97.1522 16.1134 98.4512 14.1417 100H5.86386C6.71537 99.3184 9.36456 97.8848 10.4298 97.2964C12.3173 96.253 14.629 94.8319 16.5818 94.0256C17.5936 93.6078 19.9765 93.2024 21.192 92.9517C23.3722 92.5077 25.5413 92.0109 27.6975 91.4619C29.4052 91.013 30.5115 90.3555 32.0749 89.8479C33.1339 89.5041 35.6113 89.9579 36.7816 89.2854C39.726 87.5937 42.0415 83.9219 44.9581 82.2126C45.2328 82.0516 46.6151 81.8612 47.0305 81.7988C48.9378 79.9187 50.8391 80.1264 53.4996 79.5066C54.8465 79.2696 56.1895 79.0113 57.5281 78.7319C58.3847 78.7436 59.1303 78.489 60.0458 78.5146Z" fill="#BD5C33"/>
<path d="M48.3023 84.7777L48.5237 84.8039L48.5116 84.9344C47.2829 86.4618 46.5004 86.1684 45.7171 86.8289C44.4119 87.9293 44.6223 88.2398 42.8094 89.2341C42.5653 89.7114 42.2876 90.2076 42.0316 90.6818C40.6818 88.9312 41.3449 89.8886 39.4043 90.598C39.0446 90.6653 38.4041 90.9384 38.0407 91.0799C39.0207 89.9057 40.4132 88.7995 41.5091 87.7069C42.0047 87.2129 43.6317 85.4123 44.2255 85.316C45.6103 85.0914 46.888 85.1354 48.3023 84.7777Z" fill="#9B3B17"/>
<path d="M37.3643 92.3173L37.3649 92.3879C36.8729 92.9885 34.1201 94.3499 33.2788 94.6635C33.2223 94.2933 35.894 93.0905 36.2678 92.7188C36.3785 92.6087 37.1551 92.3771 37.3643 92.3173Z" fill="#88290B"/>
<path d="M31.4228 95.4173C31.5426 95.4833 31.4871 95.4453 31.5638 95.5997C31.3799 95.8538 31.1 95.9326 30.8012 96.0637C30.7639 96.0169 30.7342 95.9288 30.7086 95.8681C30.9668 95.6609 31.1346 95.5752 31.4228 95.4173Z" fill="#88290B"/>
<path d="M75.7739 60.2872C76.4172 60.2376 77.7012 60.3627 78.0163 60.2819C78.3512 61.0205 78.5383 60.9576 79.3139 60.9768C79.9918 61.0778 81.4985 60.7268 82.3318 60.7182C83.6281 60.7049 84.7364 60.8801 86.0219 61.0359C86.6551 61.1301 87.75 61.3249 88.3501 61.3102C89.1399 61.53 89.3226 61.3226 90.0279 61.4779C90.3371 61.4441 90.7171 61.3674 90.9966 61.4785C91.1453 61.8978 91.2937 64.1105 91.2532 64.5706C92.0755 64.5836 94.4143 64.286 94.859 64.4812L95.045 64.7068L95.0648 65.6077L95.8372 65.6344L95.8135 65.6957C95.7135 65.9485 95.6742 66.0214 95.5265 66.2564C95.5202 66.651 95.4684 66.5542 95.6511 66.8636C95.9912 67.0333 96.3612 67.0306 96.7357 66.9813C96.6556 67.5734 96.5995 67.7567 96.1385 68.1467C96.8374 68.3529 98.5235 67.7123 99.169 68.1854C99.4883 68.4192 98.9883 69.5258 99.2266 69.8295C99.3418 69.9994 99.3028 70.218 99.2442 70.413C98.8125 70.8363 97.5586 70.7701 96.8692 70.8438C95.8695 70.7342 96.2659 71.0478 95.1359 70.4564L95.1654 70.1366C95.5503 69.8597 95.8234 69.9061 96.322 69.8372C95.8003 69.8289 95.2003 69.8963 94.7897 69.6232C94.2804 69.4412 92.8921 69.6178 92.287 69.6756C93.0255 69.9345 94.3287 69.7801 94.6235 70.0697C94.6859 70.3798 94.7437 70.5415 94.6453 70.8484C94.3026 70.9416 92.7399 70.9748 92.2675 71.0109C90.079 71.1782 87.7296 71.444 85.5438 71.4849C85.5889 70.459 85.3654 69.0645 85.5063 68.2331C84.2606 68.1429 82.5347 68.1889 81.224 68.1612C81.3555 66.596 81.0361 67.2912 80.1558 66.7229C79.9258 66.4344 79.9529 66.1032 79.9332 65.7283C79.0776 65.5743 76.9987 65.5894 76.5754 65.3657C76.2665 65.3245 75.7938 65.1506 75.5503 65.1467C74.8257 65.1351 74.1838 65.1362 73.4534 65.0922L73.4001 64.5347C73.3976 64.3086 73.5392 63.819 73.6014 63.5868C73.9133 62.4226 74.0014 62.0547 73.8893 60.8568L74.0191 60.6731L73.9927 60.4952L74.5378 60.5034C74.8292 60.5177 75.2017 60.5462 75.4844 60.5357C75.6322 60.4574 75.656 60.4092 75.7739 60.2872Z" fill="#BD5C33"/>
<path d="M75.7739 60.2872C76.4172 60.2376 77.7012 60.3627 78.0163 60.2819C78.3512 61.0205 78.5383 60.9576 79.3139 60.9768C79.9918 61.0778 81.4985 60.7268 82.3318 60.7182C83.6281 60.7049 84.7364 60.8801 86.0219 61.0359C86.6551 61.1301 87.75 61.3249 88.3501 61.3102C89.1399 61.53 89.3226 61.3226 90.0279 61.4779C88.7312 61.7187 86.3446 61.5617 85.4013 61.9108C85.5385 62.6694 85.4548 63.1884 85.5478 63.8497L85.5126 64.3611C85.4448 65.0223 85.3482 66.6059 85.4565 67.2322C84.4028 67.1223 83.4232 67.0681 82.3674 67.0125C83.2721 66.9501 83.7891 67.0225 84.4993 66.4958L84.6139 66.2557C84.3163 65.5632 82.4868 65.3609 81.8457 65.4592C81.4409 65.726 80.4329 65.7256 79.9332 65.7283C79.0776 65.5743 76.9987 65.5894 76.5754 65.3657C76.2665 65.3245 75.7938 65.1506 75.5503 65.1467C74.8257 65.1351 74.1838 65.1362 73.4534 65.0922L73.4001 64.5347C73.3976 64.3086 73.5392 63.819 73.6014 63.5868C73.9133 62.4226 74.0014 62.0547 73.8893 60.8568L74.0191 60.6731L73.9927 60.4952L74.5378 60.5034C74.8292 60.5177 75.2017 60.5462 75.4844 60.5357C75.6322 60.4574 75.656 60.4092 75.7739 60.2872Z" fill="#9B3B17"/>
<path d="M73.9927 60.4952L74.5378 60.5034C74.8292 60.5178 75.2017 60.5462 75.4844 60.5358L75.7419 60.7603C75.639 61.2332 75.5477 61.7086 75.468 62.1861C76.1949 64.2765 77.7943 63.8776 78.2739 64.6518L78.2771 65.0555C77.575 65.2666 77.3347 65.3303 76.5754 65.3657C76.2665 65.3245 75.7938 65.1506 75.5503 65.1467C74.8257 65.1352 74.1838 65.1363 73.4534 65.0922L73.4001 64.5348C73.3976 64.3086 73.5392 63.8191 73.6014 63.5868C73.9133 62.4227 74.0014 62.0547 73.8893 60.8569L74.0191 60.6732L73.9927 60.4952Z" fill="#4B3D29"/>
<path d="M73.9927 60.4952L74.5378 60.5034C74.8292 60.5178 75.2017 60.5462 75.4844 60.5358L75.7419 60.7603C75.639 61.2332 75.5477 61.7086 75.468 62.1861C75.0476 62.4124 74.7776 62.8378 74.2762 62.7824C73.8844 62.3872 74.0402 61.384 74.019 60.6732L73.9927 60.4952Z" fill="#3C3B36"/>
<path d="M75.7739 60.2872C76.4172 60.2376 77.7012 60.3627 78.0163 60.2819C78.3512 61.0205 78.5383 60.9576 79.3139 60.9768C79.9918 61.0778 81.4984 60.7268 82.3317 60.7182C83.628 60.7049 84.7364 60.8801 86.0219 61.0359C86.6551 61.1301 87.75 61.3249 88.3501 61.3102C89.1398 61.53 89.3226 61.3226 90.0278 61.4779C88.7312 61.7187 86.3446 61.5617 85.4013 61.9108C84.3857 61.8816 82.4884 61.5906 81.4038 61.4907C79.75 61.3383 77.2448 61.2469 75.7419 60.7602L75.4844 60.5357C75.6322 60.4574 75.656 60.4092 75.7739 60.2872Z" fill="#D28B64"/>
<path d="M78.277 65.0555C79.5913 65.2923 80.6197 65.2794 81.8457 65.4592C81.4409 65.7261 80.4329 65.7256 79.9332 65.7283C79.0775 65.5743 76.9986 65.5895 76.5754 65.3657C77.3347 65.3303 77.575 65.2666 78.277 65.0555Z" fill="#D28B64"/>
<path d="M95.0647 65.6077L95.8372 65.6345L95.8135 65.6957C95.7135 65.9485 95.6742 66.0214 95.5264 66.2565C95.5202 66.6511 95.4683 66.5542 95.651 66.8637C95.9912 67.0333 96.3611 67.0307 96.7356 66.9814C96.6555 67.5734 96.5995 67.7568 96.1385 68.1467C95.1675 68.5504 93.7304 68.4836 92.6748 68.6558C92.143 68.7425 91.6634 68.8876 91.1479 69.0399C91.1567 68.4101 91.1213 67.6678 91.1073 67.0292C92.2472 67.0096 93.387 66.9821 94.5266 66.9469L95.0647 65.6077Z" fill="#9B3B17"/>
<path d="M94.7897 69.6232C95.9664 69.5858 97.1682 69.5233 98.3291 69.3185C97.578 69.6913 97.1617 69.781 96.322 69.8372C95.8003 69.8289 95.2003 69.8963 94.7897 69.6232Z" fill="#88290B"/>
<path d="M85.5477 63.8497C85.9529 63.8865 86.0303 63.8862 86.3957 64.0633L86.4592 64.2009C86.2351 64.3947 85.8249 64.3615 85.5126 64.3612L85.5477 63.8497Z" fill="#9F421D"/>
<path d="M91.4264 69.5869C91.8108 69.639 91.8238 69.578 92.0727 69.7913C91.9341 70.0843 91.8733 70.0496 91.5519 70.2555L91.2681 70.2654L91.1154 70.1182C91.1753 69.7596 91.1404 69.8765 91.4264 69.5869Z" fill="#9F421D"/>
<path d="M87.99 67.9491C88.2519 68.1235 88.716 69.2133 88.6201 69.5673C88.2058 69.3037 87.8872 68.4648 87.99 67.9491Z" fill="#9B3B17"/>
<path d="M87.2682 62.6713C87.39 62.7602 87.3348 62.7118 87.4012 62.8838C87.2387 63.1921 86.8661 63.3955 86.5679 63.5945L86.463 63.5242L86.4716 63.3831C86.7333 63.1415 86.9988 62.9042 87.2682 62.6713Z" fill="#9B3B17"/>
<path d="M91.1326 65.6604C91.578 65.6555 92.4419 65.7025 92.8409 65.8689C92.2742 65.9527 91.5203 66.1039 91.1326 65.6604Z" fill="#88290B"/>
<path d="M70.4513 60.2145C70.8255 60.2895 71.2659 60.3958 71.6401 60.3917L71.686 60.6621C72.4691 60.8154 73.1475 60.7034 73.8893 60.8569C74.0014 62.0547 73.9133 62.4227 73.6014 63.5868C73.5392 63.8191 73.3976 64.3086 73.4001 64.5348C73.3119 64.4337 73.119 64.3509 72.9913 64.2857C72.2541 64.5572 71.4744 64.5535 70.6928 64.5759C70.1699 64.639 69.9725 64.6456 69.4469 64.6143L69.3656 64.0986L68.5172 63.9754C68.4166 62.7587 68.4028 61.5365 68.4759 60.3179C68.7176 60.3556 69.0513 60.42 69.2882 60.4228L70.1625 60.5257L70.4513 60.2145Z" fill="#4B3D29"/>
<path d="M71.6861 60.6621C72.4692 60.8153 73.1475 60.7034 73.8893 60.8568C74.0014 62.0547 73.9133 62.4227 73.6014 63.5868C73.5392 63.819 73.3976 64.3086 73.4001 64.5348C73.3119 64.4337 73.1191 64.3509 72.9913 64.2856C72.6576 63.272 71.7967 63.6725 71.4977 62.07C71.518 61.5326 71.4693 61.1506 71.6861 60.6621Z" fill="#9B3B17"/>
<path d="M68.4759 60.3179C68.7176 60.3556 69.0513 60.42 69.2882 60.4228L70.1625 60.5257C70.1281 61.2916 70.1357 61.6044 69.8411 62.3293C69.7122 62.7722 69.4264 63.6784 69.3656 64.0985L68.5172 63.9754C68.4166 62.7587 68.4028 61.5364 68.4759 60.3179Z" fill="#9B3B17"/>
<path d="M70.4513 60.2145C70.8255 60.2895 71.2659 60.3958 71.6401 60.3917L71.686 60.6621C71.4692 61.1506 71.518 61.5326 71.4976 62.07C70.9632 62.3687 70.3854 62.8191 69.8411 62.3293C70.1357 61.6044 70.1281 61.2916 70.1625 60.5257L70.4513 60.2145Z" fill="#3C3B36"/>
<path d="M64.0758 66.4285C65.1457 66.5719 66.5173 66.5197 67.5067 66.6967C70.3187 67.1998 73.4149 67.0553 76.1817 67.5088C75.8085 67.8509 74.3696 67.8308 73.76 67.8924C71.1207 67.7063 68.3975 67.207 65.7388 67.0696C64.2137 66.9908 62.7571 66.8929 61.2592 66.5643C62.1954 66.4508 63.1334 66.3825 64.0758 66.4285Z" fill="#D28B64"/>
<path d="M76.1818 67.5088C76.7042 67.4538 77.8739 67.5118 78.0665 68.1029C77.6467 68.8784 74.7443 69.0637 73.8929 68.9734C73.6778 68.6649 73.7519 68.2882 73.76 67.8924C74.3697 67.8308 75.8085 67.8509 76.1818 67.5088Z" fill="#BD5C33"/>
<path d="M68.5172 63.9754L69.3656 64.0986L69.4469 64.6143C69.2371 64.6305 64.6326 64.163 64.3425 64.0839C65.7348 64.085 67.1268 64.0487 68.5172 63.9754Z" fill="#D28B64"/>
<path d="M72.9913 64.2856C73.1191 64.3509 73.3119 64.4337 73.4001 64.5348L73.4534 65.0922C72.3921 65.0508 71.6721 65.0556 70.6928 64.5759C71.4744 64.5535 72.2541 64.5572 72.9913 64.2856Z" fill="#D28B64"/>
<path d="M67.9916 83.1696L68.1243 83.3162C68.2913 84.3997 68.7229 85.6029 68.8292 86.6283C68.6453 86.7656 68.3683 86.7161 68.0904 86.7212L67.0327 86.4679C67.2959 85.2889 67.5678 84.3022 67.9916 83.1696Z" fill="#9B3B17"/>
<path d="M77.888 68.9925C78.4243 68.9284 79.4085 68.9347 79.8087 69.326C80.0988 70.1957 79.5287 70.138 79.4211 70.9731C79.3931 71.1904 79.2846 71.4218 79.0803 71.5305C78.4195 71.8818 76.2406 71.8835 75.5581 71.732C75.5705 71.5171 75.5939 71.4467 75.6497 71.2369C76.0954 70.7995 77.8053 70.6432 78.5837 70.4318C77.5289 70.3915 76.4479 70.3354 75.3943 70.3494C76.1764 68.78 76.1835 69.126 77.888 68.9925Z" fill="#BD5C33"/>
<path d="M84.1237 70.2573C84.3142 70.2376 84.8127 70.1681 84.9573 70.2933C86.5096 71.6361 83.1739 71.7615 82.4242 71.8728L81.1096 71.8489C81.017 71.3292 80.916 71.1096 81.1219 70.6551C81.6611 70.2063 83.1872 70.3438 84.1237 70.2573Z" fill="#B05833"/>
<path d="M70.4059 77.3871L70.5488 77.4981C70.6456 77.7762 70.5909 78.2311 70.5741 78.5428C70.331 78.2568 70.4139 77.8394 70.4059 77.3871Z" fill="#9F421D"/>
<path d="M35.3636 70.0936C37.6336 69.36 39.5823 69.5225 41.6562 68.2309C42.1954 67.895 46.4164 67.5417 47.0244 67.7972C47.2437 68.0485 47.2005 67.9242 47.1827 68.2623C46.3115 70.019 43.5236 70.4391 41.8096 70.5245C40.9133 71.1685 40.6574 71.2978 39.5706 71.5356C37.3979 70.7692 38.3157 71.4991 37.6682 72.3471C37.2362 72.3614 36.5565 72.1233 36.2158 72.2039C33.8234 72.769 35.0401 73.201 32.7586 72.4089C31.9843 73.2863 31.2906 74.546 30.6835 75.572C31.0248 75.846 31.5286 76.1974 31.7327 76.5639C31.7926 77.1412 31.4335 77.4774 31.5772 77.8572C32.0364 77.9835 33.0344 77.3875 33.5668 77.1749C33.8648 77.3387 34.2105 77.5166 34.4831 77.7141C35.9339 75.9758 36.3088 77.2799 37.0995 76.774C37.2238 76.3402 37.1541 76.3137 37.4435 76.0758C37.7198 76.0813 37.947 76.0828 38.2245 76.0696L38.2645 75.9378C37.9783 75.583 37.5916 75.1628 37.4464 74.7437C37.5439 73.8517 39.1095 74.1892 39.727 74.317C41.4401 74.6718 42.4236 75.6223 42.8564 73.2833C44.3668 73.0739 45.3855 72.8935 46.4644 74.1752C47.1706 74.0283 47.504 73.997 48.2428 74.0343C48.9682 74.0709 49.7336 74.5573 50.3884 74.37C51.0786 74.1727 51.7415 74.8941 52.2046 75.3285C53.0031 74.919 53.3407 74.7265 54.2739 74.9832C54.764 75.118 54.9742 75.766 54.775 76.142C54.2386 77.154 52.6051 77.8482 51.6276 78.3436C52.5937 78.605 52.8355 78.4049 53.4996 79.5067C50.8391 80.1264 48.9378 79.9188 47.0305 81.7988C46.6151 81.8612 45.2328 82.0516 44.9581 82.2126C42.0415 83.9219 39.726 87.5938 36.7816 89.2855C35.6113 89.9579 33.1339 89.5041 32.0749 89.848C30.5115 90.3555 29.4052 91.013 27.6975 91.4619C25.5413 92.0109 23.3722 92.5077 21.192 92.9517C19.9765 93.2024 17.5936 93.6078 16.5818 94.0256C14.629 94.8319 12.3173 96.253 10.4298 97.2964C9.36456 97.8848 6.71537 99.3184 5.86386 100H0V85.7156V85.3999V71.3937C0.665864 70.853 0.979697 70.1892 1.37298 69.4426C1.66245 69.7271 1.95753 70.085 2.34331 70.1703C2.85854 70.1022 2.86033 69.8107 3.05199 69.346L3.22621 69.304C3.91021 69.8593 2.68028 70.6184 3.77357 71.6172C3.85193 71.6884 3.93107 71.7588 4.01099 71.8282C5.42791 71.4615 6.85203 71.1233 8.28248 70.8137L9.28426 71.5574C9.32007 70.8545 9.26977 70.0254 9.78154 69.5179L9.96201 69.5299C10.1691 69.787 10.2789 69.9275 10.5242 70.1525C10.9916 70.1839 11.0673 70.0407 11.3838 69.7182C11.8347 69.778 12.1217 70.147 12.4294 70.4936C12.597 70.2363 12.8301 69.8686 13.0326 69.651C13.3943 69.2624 14.0365 69.0512 14.1882 68.5211C14.2569 68.281 14.3769 68.0461 14.5904 67.9353C15.0842 68.1882 15.1618 69.1042 15.2646 69.6155C15.0911 70.0263 14.7049 70.6223 14.762 70.9532C14.9075 71.1982 15.1791 71.2961 15.4377 71.4236C15.8821 72.3241 16.4709 73.1787 16.8402 74.031C17.344 72.2919 17.2477 72.1731 19.0228 72.5793C19.3801 72.27 19.6708 72.0076 20.0072 71.6746C20.2564 72.0391 20.4958 72.3885 20.6865 72.7412C20.9299 73.191 20.9062 74.4533 21.4631 74.4487C22.1553 74.4431 23.7896 74.0798 24.4659 73.9024C24.673 73.188 25.2745 71.8539 25.2293 71.3182C25.1981 70.9497 25.1087 71.0988 25.2842 70.7108L25.4395 70.6638C25.6221 70.8084 25.7859 70.9345 25.9765 71.0706C26.4282 70.6378 26.0539 69.5251 27.0469 70.0226C27.2776 70.5411 26.9143 70.6257 27.1479 70.925C27.683 70.9117 27.6169 70.5557 28.0377 70.6685C28.4973 71.5778 28.1015 71.8104 28.8265 73.0797C29.0283 72.7546 29.6773 71.5913 29.9339 71.4791C30.1049 71.7394 29.8758 72.8693 29.8237 73.2184C32.1747 71.3202 32.2024 70.655 35.3908 70.9917C35.8344 71.0395 36.2776 71.0903 36.7204 71.1445L35.3636 70.0936Z" fill="#90A677"/>
<path d="M0.314478 82.1529C0.940455 82.3891 1.74478 82.873 2.36646 82.625L2.42651 82.4618C2.22629 82.0516 1.83921 81.7272 1.87314 81.504C2.2221 81.4931 4.21058 82.391 4.57888 82.6401C4.61336 83.1809 4.07155 83.7117 3.72262 84.1274L4.2808 85.8847C1.31031 83.5426 2.325 85.3809 1.47165 86.0553C1.07654 86.1286 0.777294 85.6668 0 85.7156V85.3999C0.41533 85.0205 0.337159 84.8362 0.579318 84.5659C0.94098 84.1622 1.76016 84.6897 1.77155 83.7403C1.77421 83.5193 1.60984 83.25 1.45764 83.1273C1.03245 82.7846 0.712819 82.5263 0.314478 82.1529Z" fill="#577862"/>
<path d="M2.8031 76.5927C3.17575 76.581 3.6973 76.6196 4.08079 76.6363C4.12554 77.05 4.14602 77.8698 4.34112 78.1521C4.83331 78.3605 5.44873 78.5167 5.85388 78.0871C5.94669 77.5877 5.42861 77.3714 5.61833 76.8722L5.90926 76.8487C6.37359 78.8298 7.41881 77.8684 7.90999 78.5952C7.93064 78.9276 7.67048 79.2464 7.48228 79.5389C7.70935 80.0594 7.79811 80.3096 8.16669 80.7562C8.3844 80.8796 8.5743 80.9524 8.69934 81.1603C5.92251 81.2316 7.74404 78.9286 4.91907 79.8777C4.69327 79.9536 3.75858 79.9915 3.45435 80.0025C3.81808 79.7139 4.27644 79.4329 4.34435 78.9947C3.84744 78.7777 3.35237 78.6604 3.47996 78.0115C3.65465 77.123 2.98227 77.2936 2.8031 76.5927Z" fill="#577862"/>
<path d="M12.3118 82.1825C12.7656 82.2783 13.0877 82.8124 13.3526 83.1798C13.2941 83.9367 12.8883 86.0359 12.1124 86.3264C11.7946 86.2508 11.8819 86.2538 11.6523 85.8905C11.5023 85.556 10.8263 85.1274 10.5095 84.9061C10.3479 84.1093 10.265 83.7414 9.98135 82.9848C11.1138 82.989 11.5277 83.1344 12.3118 82.1825Z" fill="#577862"/>
<path d="M14.1521 80.0708C14.2894 80.069 14.9823 80.0651 15.0024 80.0792C15.68 80.5552 14.7804 81.4759 16.2113 81.6879L16.3072 81.7014L16.3567 81.8343C15.8884 82.7259 15.849 82.8903 14.8216 82.8279C14.0511 82.7576 14.0408 81.872 13.6299 81.3682C13.4861 81.192 12.9181 81.203 12.7584 80.9909L13.7715 80.8372C13.9498 80.7246 14.0687 80.2958 14.1521 80.0708Z" fill="#577862"/>
<path d="M24.635 84.7539C23.4204 86.1374 24.5043 86.4198 24.4253 86.9889C24.2338 86.8745 24.1794 86.8288 24.014 86.6786C23.6061 87.1552 23.3678 87.4296 22.8983 87.8527C21.6662 85.8545 22.4305 86.6948 22.8118 84.745C23.3795 84.7856 24.0581 84.7602 24.635 84.7539Z" fill="#577862"/>
<path d="M17.9879 85.592C18.3859 85.64 19.1325 85.9418 19.5726 86.0339C20.4522 86.2178 19.9492 87.2547 19.9035 88.005C19.9005 88.1323 19.8939 88.1001 19.8309 88.2266L19.4774 88.2549C18.4431 87.744 18.7092 86.7304 17.9879 85.592Z" fill="#577862"/>
<path d="M75.5945 48.2838L75.8527 48.2689C76.0964 48.3839 76.3214 48.4708 76.5247 48.6459L76.5699 48.7449C76.5056 49.143 76.7344 49.3718 76.8793 49.749C76.9229 50.0227 76.9913 50.5424 77.0702 50.7844L77.9232 50.9001C77.5221 52.1643 77.8894 52.9101 77.652 53.8415C77.4305 54.452 77.2846 54.9254 76.9383 55.4774L76.8442 55.4645C76.7117 56.3002 76.4014 56.9437 76.1829 57.7534C75.9636 58.5661 75.8854 59.4484 75.7739 60.2872C75.656 60.4092 75.6322 60.4574 75.4844 60.5358C75.2017 60.5462 74.8292 60.5178 74.5378 60.5034L73.9927 60.4952L74.019 60.6732L73.8892 60.8568C73.1475 60.7034 72.4691 60.8153 71.686 60.6621L71.6401 60.3917C71.2659 60.3958 70.8255 60.2895 70.4513 60.2145L70.1625 60.5257L69.2882 60.4228C69.0513 60.42 68.7176 60.3556 68.4759 60.3179C67.5153 60.3073 67.8448 59.6107 66.659 59.8536C66.1713 60.0629 63.5789 58.8767 62.6502 59.0391C62.5202 59.3305 62.4478 59.4481 62.1941 59.5844C61.2966 59.5577 59.4149 58.7429 58.4661 58.5391C57.9809 58.4349 57.4001 58.664 56.9437 58.5614C56.6171 58.4881 56.8305 58.2022 56.4002 57.935C56.0656 58.0939 56.005 58.5808 55.7695 58.6996C55.4581 58.8567 55.1239 58.4984 54.361 59.0216C53.7302 58.8978 52.7804 58.7577 52.1457 58.7559C50.5387 58.7513 50.4389 57.7027 49.794 56.552L49.8022 56.3697C49.3658 56.2712 49.1969 56.19 48.7854 56.0033L48.4936 55.8961C48.1491 56.5367 48.1215 57.6233 47.3749 57.9082C46.8956 57.7851 46.0526 56.4663 45.7202 56.0002C45.5741 56.6347 45.4662 57.4732 44.9403 57.891C43.8325 58.7714 42.7233 57.6199 42.0559 56.8568C41.573 56.8526 41.6664 57.2842 41.4384 57.4104C41.0137 57.6455 39.8076 57.1351 39.2506 56.9632C38.5329 57.2147 38.0946 57.4776 37.4293 57.8517C37.3 57.3071 37.3201 56.3536 36.9586 56.0539C36.5758 56.223 36.6343 56.8055 36.1055 57.0054C35.7282 56.8191 35.8138 56.4208 35.3909 56.0925C34.8819 56.2931 35.0881 56.6777 34.6086 56.8956C34.1408 56.6988 34.4697 56.3143 34.0356 56.0527C33.7306 56.1541 33.2682 56.7996 32.9839 57.1023C31.5625 56.0992 31.2542 55.9635 30.6985 54.3093C30.1829 54.8181 29.6616 55.321 29.1348 55.8181C28.3518 55.9728 28.2625 56.0054 27.5379 56.3158C27.5496 55.9389 27.6215 55.1969 27.4439 54.911C26.9675 55.0186 26.8844 55.4685 26.5038 55.6064C26.0591 55.7675 26.2028 55.131 25.7339 54.9303C25.4062 54.8596 25.0699 55.0594 24.7526 55.2016C24.4182 54.8626 24.03 54.5133 23.68 54.185C23.4919 54.5895 23.3637 55.0723 23.0554 55.3355C22.5997 55.3564 22.9457 55.0933 22.3847 54.9887C22.0813 55.1668 21.8645 55.7295 21.6967 56.0692L20.9436 55.1326L20.0129 56.0661C19.8263 55.6813 19.6953 55.402 19.4603 55.0464C18.8984 54.9169 19.018 55.2946 18.4376 55.2146C18.288 54.979 18.224 54.8206 17.9534 54.7407C17.2843 54.9131 17.1439 54.893 16.4878 54.6605C16.1803 54.7086 15.8218 55.1255 15.5816 55.361L15.488 55.3381C14.2021 55.013 12.5444 54.4309 11.8489 53.2563C10.4508 53.6177 8.9741 53.0726 7.76388 53.4788C7.62315 53.526 7.69485 53.5901 7.37781 53.5905C6.79268 53.3122 6.48581 52.6418 6.16247 52.0812C5.13183 52.5358 3.95972 52.7063 2.86395 52.3901C2.56937 52.1219 2.65484 52.1843 2.54514 51.736C1.82152 51.9542 2.0633 52.255 0.814876 52.3987C0.500996 52.1051 0.363293 51.9688 0 51.7463V51.6855C0.934826 51.5241 1.46464 51.3983 2.46022 51.2845C3.80172 51.1949 5.14361 51.2073 6.49063 51.1019C7.28219 51.0399 7.87137 50.8749 8.62924 50.7705C10.8935 49.9754 14.6342 50.5292 16.9751 50.6696C17.7849 50.7182 19.3206 50.3747 20.1606 50.2165C21.0668 50.1943 22.3353 50.1619 23.2482 50.2095C23.6395 50.1588 23.9926 50.0975 24.3808 50.0261C25.5179 49.6765 27.5532 49.6879 28.6914 50.0141L29.2588 50.2866C30.9697 49.5913 32.1375 50.6132 33.7047 50.7211C35.7476 50.8617 37.8027 50.8879 39.8603 51.117C40.6074 51.2002 42.1856 50.8042 43.0922 50.7858C45.1403 50.7441 46.879 51.1708 48.8768 51.3592C50.3283 51.3954 52.1846 50.9908 53.6967 50.9016L62.8495 50.2697C64.5595 50.1611 66.0598 50.1778 67.8059 50.0051L71.5 50.1241C71.4642 49.5049 71.2019 49.2391 71.2717 48.9193C72.966 48.0822 74.3458 48.5515 75.5945 48.2838Z" fill="#BD5C33"/>
<path d="M75.5945 48.2838L75.8527 48.2689C76.0964 48.3839 76.3214 48.4708 76.5247 48.6459L76.5699 48.7449C76.5056 49.143 76.7344 49.3718 76.8793 49.749C76.923 50.0227 76.9913 50.5424 77.0702 50.7844L77.9232 50.9001C77.5221 52.1643 77.8895 52.9101 77.6521 53.8415C77.4305 54.452 77.2846 54.9254 76.9383 55.4774L76.8442 55.4645C76.6928 55.3699 76.4987 55.3511 76.3192 55.3184L76.2724 55.108C75.7612 55.1231 74.5622 55.1981 74.1698 54.9855L73.8887 55.1186L73.583 54.9302L73.3303 55.1611C72.4611 55.0691 72.3781 55.0955 71.5681 54.7961C71.449 54.3366 71.5371 53.9326 71.6002 53.4643L71.5974 53.2052C71.5933 52.5855 71.6019 52.0025 71.5248 51.386C71.4677 50.9328 71.4872 50.5764 71.5 50.1241C71.4642 49.5049 71.202 49.2391 71.2717 48.9193C72.966 48.0822 74.3458 48.5515 75.5945 48.2838Z" fill="#685129"/>
<path d="M76.5247 48.6459L76.5699 48.7449C76.5055 49.1429 76.7343 49.3718 76.8793 49.749C76.9229 50.0226 76.9913 50.5424 77.0702 50.7843L77.9232 50.9001C77.522 52.1642 77.8894 52.91 77.652 53.8415C77.4304 54.4519 77.2845 54.9254 76.9382 55.4773L76.8442 55.4644C76.6927 55.3699 76.4987 55.3511 76.3192 55.3183L76.2723 55.108C76.0866 54.7868 75.8451 54.704 75.5125 54.5343L75.5453 54.3468L75.9788 54.1359C75.8345 53.7029 75.4036 52.7638 75.4154 52.4054C75.6137 52.2597 75.694 52.2359 75.9239 52.1402L75.8492 52.0447L75.1947 51.9781C75.073 51.7492 74.9742 49.8907 75.1692 49.7109C75.577 49.3349 76.1177 49.1197 76.5247 48.6459Z" fill="#977C45"/>
<path d="M77.0702 50.7844L77.9232 50.9001C77.5221 52.1642 77.8894 52.91 77.652 53.8415C77.6159 52.7784 77.1549 51.8472 77.0702 50.7844Z" fill="#BD5C33"/>
<path d="M73.583 54.9302C73.4403 54.2759 73.5958 53.633 73.5151 52.9635C73.4529 52.4462 73.1496 52.1937 73.2013 51.6976L73.2942 51.7057C74.1924 53.2982 73.8286 53.8341 74.1698 54.9854L73.8887 55.1185L73.583 54.9302Z" fill="#977C45"/>
<path d="M20.1606 50.2165C21.0668 50.1943 22.3354 50.1619 23.2482 50.2095C23.6596 51.0505 27.2125 53.2366 28.2517 53.5859C28.7951 53.7686 29.9315 53.7192 30.5847 53.9366C30.9221 54.0169 31.2272 54.0644 31.5157 54.2563L31.4797 54.3585C30.8544 54.4402 30.511 54.3164 29.9064 54.1413C27.0561 54.0554 25.1472 52.8967 22.5821 52.5642C21.3823 52.4088 18.0868 53.0494 16.8846 53.2663C16.5044 53.3349 15.9144 53.2592 15.5298 53.1718C14.4062 52.9164 13.3351 52.4073 12.2369 52.0392C11.2289 51.7015 9.42911 51.4052 8.62924 50.7705C10.8935 49.9754 14.6342 50.5292 16.9751 50.6696C17.7849 50.7181 19.3206 50.3747 20.1606 50.2165Z" fill="#9F421D"/>
<path d="M71.5681 54.7961C72.3781 55.0955 72.4611 55.0691 73.3303 55.1611L73.583 54.9302L73.8887 55.1185L74.1698 54.9854C74.5622 55.198 75.7612 55.123 76.2724 55.108L76.3192 55.3183C76.4987 55.3511 76.6928 55.3699 76.8443 55.4644C76.7117 56.3002 76.4014 56.9436 76.1829 57.7534C75.9636 58.5661 75.8855 59.4483 75.7739 60.2872C75.656 60.4092 75.6322 60.4574 75.4844 60.5357C75.2017 60.5462 74.8292 60.5178 74.5378 60.5034L73.9927 60.4952L74.0191 60.6731L73.8893 60.8568C73.1475 60.7034 72.4692 60.8153 71.686 60.6621L71.6401 60.3917C71.2659 60.3958 70.8255 60.2894 70.4513 60.2144L69.952 60.0132L70.1863 59.829C70.3308 59.4574 70.2784 59.5332 70.2081 59.0885C70.2989 58.8677 70.3476 58.5508 70.4372 58.3101C70.9133 57.0323 71.5396 56.1995 71.5681 54.7961Z" fill="#B05833"/>
<path d="M71.5681 54.7961C72.3781 55.0955 72.4611 55.0691 73.3303 55.1611C72.7901 57.349 71.8754 57.1076 71.6292 59.769C71.5888 60.0279 71.5547 60.1366 71.6401 60.3917C71.2659 60.3958 70.8255 60.2894 70.4513 60.2144L69.952 60.0132L70.1863 59.829C70.3308 59.4574 70.2784 59.5332 70.2081 59.0885C70.2989 58.8677 70.3476 58.5508 70.4372 58.3101C70.9133 57.0323 71.5396 56.1995 71.5681 54.7961Z" fill="#B05833"/>
<path d="M76.3192 55.3184C76.4987 55.3511 76.6928 55.3699 76.8442 55.4645C76.7117 56.3002 76.4013 56.9437 76.1829 57.7534C75.9636 58.5661 75.8854 59.4483 75.7739 60.2872C75.6559 60.4092 75.6322 60.4574 75.4844 60.5357C75.2016 60.5462 74.8292 60.5178 74.5378 60.5034C74.5648 59.0256 74.6035 55.8342 76.3192 55.3184Z" fill="#D28B64"/>
<path d="M73.583 54.9302L73.8887 55.1186C72.9696 57.2058 72.5806 57.8169 71.9295 60.0595L71.7367 60.1725L71.6292 59.769C71.8754 57.1076 72.7901 57.349 73.3303 55.1611L73.583 54.9302Z" fill="#D28B64"/>
<path d="M71.6402 60.3917C71.5547 60.1366 71.5888 60.0279 71.6292 59.769L71.7367 60.1725L71.9295 60.0595C72.6717 60.4189 73.8766 59.5271 73.9927 60.4952L74.0191 60.6732L73.8893 60.8568C73.1475 60.7034 72.4692 60.8153 71.6861 60.6621L71.6402 60.3917Z" fill="#D28B64"/>
<path d="M57.1225 57.6929C58.1495 57.4659 59.2739 57.1141 60.3244 57.0984C61.3297 57.0834 69.0598 58.3334 69.8122 58.7992C69.9523 58.8859 70.0798 58.9856 70.2081 59.0884C70.2784 59.5332 70.3308 59.4574 70.1863 59.829L69.952 60.0131L70.4513 60.2144L70.1625 60.5257L69.2882 60.4227C69.0513 60.42 68.7176 60.3555 68.4759 60.3178C67.5153 60.3073 67.8448 59.6106 66.659 59.8536C66.1713 60.0629 63.5789 58.8766 62.6502 59.039L62.6676 58.6774C61.3106 58.5077 60.1631 58.0298 58.8477 57.7615C58.5067 57.692 57.5037 57.6939 57.1225 57.6929Z" fill="#9F421D"/>
<path d="M62.6676 58.6774C64.0307 58.8201 65.5526 59.0263 66.8643 59.4195L66.659 59.8536C66.1713 60.0629 63.5789 58.8766 62.6502 59.0391L62.6676 58.6774Z" fill="#BD5C33"/>
<path d="M66.659 59.8536L66.8642 59.4196C67.8573 59.5262 68.02 59.5982 68.9544 59.7906C69.2657 59.8493 69.6597 59.911 69.9519 60.0132L70.4513 60.2145L70.1625 60.5257L69.2882 60.4228C69.0512 60.42 68.7176 60.3556 68.4759 60.3179C67.5153 60.3074 67.8448 59.6107 66.659 59.8536Z" fill="#B05833"/>
<path d="M68.9544 59.7905C69.2657 59.8493 69.6598 59.9109 69.952 60.0132L70.4513 60.2145L70.1625 60.5257L69.2882 60.4228C68.9654 60.1793 69.0615 60.2649 68.9544 59.7905Z" fill="#BD5C33"/>
<path d="M24.3808 50.0261C25.5179 49.6765 27.5532 49.6879 28.6914 50.0141L29.2588 50.2866C30.3544 50.2964 32.1669 51.6165 33.3705 52.0288C34.2621 52.3342 35.3545 52.5831 36.1503 52.9643L36.1191 53.0194C34.8484 52.7402 34.5236 52.8017 33.2355 53.0713C33.1609 53.0869 32.4475 52.6278 32.0872 52.5304C30.9713 52.2286 29.7957 52.3417 28.7229 51.9493C28.5381 51.8785 27.8962 51.0556 27.7339 50.8547C26.6808 50.6515 25.417 50.3079 24.3808 50.0261Z" fill="#9F421D"/>
<path d="M39.3651 55.1881C40.381 55.1764 41.5274 55.2024 42.5246 55.0333C43.0571 54.9555 43.7439 54.4747 44.269 54.4942C45.5905 54.5433 46.8917 54.9113 48.2128 55.0697C49.9725 55.2807 51.843 54.9922 53.5015 55.6813C52.8124 55.811 50.0197 56.0634 49.8023 56.3697C49.3658 56.2712 49.1969 56.1899 48.7855 56.0033L48.4937 55.8961C46.9931 54.8405 44.7463 55.7549 43.2296 56.0562C42.3697 56.227 40.3776 55.4019 39.3651 55.1881Z" fill="#9F421D"/>
<path d="M71.5248 51.386C71.6019 52.0025 71.5933 52.5855 71.5974 53.2052L71.6002 53.4643C69.4996 53.3252 68.4083 53.7019 66.3394 52.9039C67.8121 52.3141 67.9743 52.2 69.5339 52.3607C69.7579 52.1479 71.0562 51.6308 71.5248 51.386Z" fill="#9F421D"/>
<path d="M71.5248 51.386C71.6018 52.0025 71.5932 52.5855 71.5974 53.2052C71.0962 53.1817 69.9946 52.6237 69.5339 52.3607C69.7579 52.1479 71.0561 51.6308 71.5248 51.386Z" fill="#B05833"/>
<path d="M63.0633 54.8169C62.5347 54.5038 61.7381 54.2804 61.2118 53.8333C61.0092 53.6611 60.4922 53.3546 60.2426 53.3942C60.1591 53.4961 59.8458 53.8524 59.7373 53.9122C58.9802 54.3289 56.5468 54.9006 56.0017 54.1405C56.0359 53.8139 56.4119 53.493 56.6564 53.2217C54.3795 52.7339 49.8449 54.7949 46.8022 53.6342L46.8397 53.4645C46.7838 53.4941 51.857 52.4935 52.0734 52.4888C54.5135 52.4363 58.7055 52.0747 61.0479 52.1399C61.3181 52.5827 62.8588 54.2863 63.2717 54.5258L63.0633 54.8169Z" fill="#9F421D"/>
<path d="M63.2717 54.5258C65.153 54.832 65.6538 54.9068 67.3437 55.7713C65.9026 55.3704 64.5465 55.2798 63.0633 54.8169L63.2717 54.5258Z" fill="#9B3B17"/>
<path d="M43.7273 52.8768C44.2824 52.7908 45.9112 52.8706 46.4278 53.0762C45.8285 53.0753 44.1401 53.1492 43.7273 52.8768Z" fill="#9F421D"/>
<path d="M49.704 64.3082C49.8621 63.9475 50.0265 63.4652 50.3349 63.2719C51.2638 63.2471 51.3082 64.0574 51.8767 64.318C52.476 64.5928 55.4157 63.7027 55.5513 64.635C55.3983 65.0266 54.9959 65.278 54.6566 65.5414C55.6164 65.8635 56.5497 65.937 57.5498 66.1732C58.0471 66.7379 58.4166 67.5308 58.762 68.2078C59.1689 68.1468 59.418 68.0238 59.7342 68.1696L59.8236 68.4972L59.8648 69.8561C60.66 70.0578 62.187 70.2067 62.5764 70.7013C62.5522 70.9862 62.5831 70.9699 62.3083 71.199C62.1983 71.2889 62.087 71.3772 61.9745 71.4639C61.8814 71.752 61.734 72.1574 61.7015 72.4459C60.1172 72.1817 58.3251 72.0268 56.7192 71.9224C56.0487 71.8789 54.7227 72.818 53.9394 71.8473C53.9754 71.5676 54.299 71.1749 54.4772 70.9228C53.9032 70.7318 53.332 70.5325 52.7638 70.3248C52.9808 70.0324 53.4851 69.3654 53.5333 69.0248C53.3448 68.8463 52.9769 68.9523 52.5326 68.8501C52.2109 68.5243 52.2773 67.6539 52.277 67.1801C51.8597 67.0625 50.9203 67.2577 50.5039 67.2188C50.2791 67.1979 49.4419 66.8529 49.1107 66.7478L49.0129 66.8228C49.0842 67.0718 49.1308 67.1712 49.1067 67.4328C48.7251 67.708 46.6942 67.5548 46.4694 66.9103C47.145 66.3086 49.6629 66.9256 48.0246 64.8199C48.6292 64.5283 49.0523 64.4551 49.704 64.3082Z" fill="#90A677"/>
<path d="M57.5281 78.7319C58.2408 77.8084 58.8975 76.3718 60.1244 77.2569C60.1187 77.7342 60.1032 78.0415 60.0458 78.5147C59.1303 78.489 58.3846 78.7437 57.5281 78.7319Z" fill="#90A677"/>
<path d="M48.7855 56.0034C49.1969 56.19 49.3658 56.2712 49.8023 56.3698L49.7941 56.552C49.5202 56.914 49.8262 57.1332 49.2229 57.403C49.0346 57.1582 48.8721 56.3475 48.7855 56.0034Z" fill="#BD5C33"/>
<path d="M160.938 17.2188V37.4615C159.786 37.5467 158.031 37.5019 156.813 37.5095L149.046 37.5791C147.338 37.6023 145.621 37.6338 143.914 37.6934C135.127 38.0004 126.353 37.7713 117.566 38.1761C120.344 36.2751 127.646 34.2878 130.993 34.4009C135.066 34.5386 138.639 35.312 142.816 34.4191C145.578 33.8289 147.162 32.8483 149.645 31.7143C146.51 31.793 143.187 31.7294 140.031 31.7537L121.248 31.9287C111.649 31.9902 101.579 32.1909 91.992 32.0131C95.4424 30.5726 99.9658 30.5594 103.664 30.5907C105.545 30.6066 107.931 30.7793 109.771 30.6019C111.282 30.4562 114.153 30.1406 115.469 29.5282C117.564 28.553 118.982 27.414 121.431 27.0893C124.115 26.7334 126.756 26.9548 129.416 27.4499C130.648 27.6793 132.154 27.9413 133.396 27.9582C135.287 27.984 136.117 26.4594 137.98 26.3559C139.053 26.2962 139.803 26.6557 140.814 26.7409C143.379 26.9572 146.383 25.5824 148.539 24.3589C146.276 24.5061 143.63 24.4137 141.317 24.5035C137.799 24.6402 134.252 24.7487 130.731 24.7226C133.045 21.9066 136.625 23.4655 139.554 23.2191C141.915 23.0205 144.212 20.4065 146.579 20.1506C149.794 19.8029 153.045 21.8057 155.763 19.0518C157.386 17.4173 158.717 17.2207 160.938 17.2188Z" fill="#F5F0E5"/>
<path d="M0 26.3707C1.4738 26.3513 2.81525 26.5162 4.06604 27.2489C6.12192 28.4533 7.66871 27.628 9.76709 27.1531C10.751 26.712 12.548 27.0029 13.3542 26.9028C14.813 26.7218 17.9347 29.3086 18.5188 29.1977C21.0966 28.6013 22.7166 27.1527 25.0187 29.6971C26.3573 31.1765 28.4274 32.7987 30.5484 32.5888C37.5057 31.9001 42.0789 31.6057 48.3258 35.5359C41.4696 35.7561 34.1975 35.6195 27.3156 35.6037C18.2221 35.5829 9.07422 35.7932 0 35.7378V26.3707Z" fill="#F5F0E5"/>
<path d="M0 12.5142C6.41264 11.5709 6.48995 14.5098 12.3246 15.7761C14.1887 16.1806 16.0383 15.3523 17.6369 15.4878C18.7382 15.777 19.9968 16.9169 21.097 17.0619C23.0929 17.3251 25.4549 16.4975 27.4101 16.3118C32.2205 15.8551 35.3969 16.0259 39.6107 18.6107C41.6199 19.8433 46.1985 19.7387 48.5242 19.7434C51.9028 19.7586 55.2817 19.5698 58.6315 20.0851C60.365 20.3519 61.5865 20.47 63.2155 21.2566C61.0285 21.1445 58.8176 21.1754 56.6262 21.1463C51.1552 21.0842 45.6837 21.0659 40.2124 21.0914C26.8079 21.1008 13.4034 21.0193 0 20.8469V12.5142Z" fill="#F5F0E5"/>
<path d="M28.6914 50.014C30.7493 49.9003 31.7041 49.2882 33.9931 49.3539C36.5102 49.4261 39.9469 50.3815 42.2856 50.1778C44.5102 49.9842 47.8811 49.0852 50.1538 48.6052C51.2975 48.3636 53.0402 47.7403 54.1713 47.6547C56.0004 47.5162 58.3022 48.3358 60.0836 48.626C61.6926 48.8883 63.2629 49.0404 64.8771 49.2851C66.1086 49.4719 66.764 49.7671 67.8059 50.0051C66.0598 50.1778 64.5595 50.1611 62.8495 50.2697L53.6967 50.9015C52.1846 50.9908 50.3283 51.3954 48.8768 51.3592C46.879 51.1708 45.1403 50.744 43.0922 50.7857C42.1856 50.8042 40.6074 51.2002 39.8604 51.117C37.8027 50.8879 35.7476 50.8617 33.7047 50.7211C32.1375 50.6132 30.9697 49.5913 29.2588 50.2866L28.6914 50.014Z" fill="#D28B64"/>
<path d="M72.4488 38.8973L73.7333 39.3051C76.004 40.1216 75.9151 40.0821 75.7672 42.5591C75.6831 43.9687 76.5333 45.9881 76.2997 47.338L76.5233 47.3949L76.4608 47.6966C76.3049 47.7659 75.9004 47.9136 75.796 47.9761L75.8528 48.2688L75.5946 48.2838C74.3458 48.5514 72.966 48.0822 71.2717 48.9193C71.4332 48.4571 71.4535 48.3571 71.488 47.8705C70.3857 47.3511 69.1404 46.1789 68.4048 45.2172C67.2383 44.2766 69.1652 42.1134 69.7424 41.3094C70.5051 40.2473 71.3914 39.6261 72.4488 38.8973Z" fill="#172535"/>
<path d="M69.8392 44.43C70.5549 45.1473 70.4003 45.9395 71.6009 46.529L71.5665 47.0695L71.488 47.8705C70.3856 47.3512 69.1403 46.1789 68.4048 45.2172C68.7027 44.9858 69.1164 44.8655 69.4771 44.7372L69.8392 44.43Z" fill="#B05833"/>
<path d="M69.8392 44.43C70.5549 45.1473 70.4003 45.9395 71.6009 46.529L71.5665 47.0695C70.7873 46.4642 70.0614 45.5124 69.4771 44.7372L69.8392 44.43Z" fill="#D0B29A"/>
<path d="M73.9733 44.6408C76.2264 44.1604 74.9355 46.4866 76.0289 47.2685L76.2997 47.338L76.5233 47.3949L76.4608 47.6966C76.3049 47.7659 75.9004 47.9137 75.796 47.9762L75.8528 48.2689L75.5946 48.2838L74.9556 47.9332C75.0118 47.4341 75.0079 47.238 75.2663 46.8164C74.8006 45.7434 74.4896 45.5803 73.9733 44.6408Z" fill="#D28B64"/>
<path d="M75.2663 46.8164C75.431 47.3705 75.4845 47.4895 75.796 47.9762L75.8527 48.2688L75.5945 48.2838L74.9556 47.9332C75.0118 47.4341 75.0079 47.238 75.2663 46.8164Z" fill="#BD5C33"/>
<path d="M73.9732 44.6408C74.4895 45.5803 74.8006 45.7433 75.2663 46.8164C75.0079 47.238 75.0118 47.4341 74.9556 47.9332C74.5907 47.8301 74.2524 47.7563 74.0522 47.4594C74.2256 47.289 74.3268 47.3446 74.6339 47.3301C74.9336 46.5656 72.6066 45.6895 73.9732 44.6408Z" fill="#B05833"/>
<path d="M70.5695 43.3351C70.9919 44.2638 71.4933 45.5013 71.6009 46.529C70.4003 45.9394 70.5549 45.1473 69.8392 44.43L70.5695 43.3351Z" fill="#90A677"/>
<path d="M0 48.7796C2.17956 48.6327 4.39948 47.6514 6.613 47.8832C10.5138 48.2916 14.0104 50.0004 18.0221 49.9924C18.6904 49.991 19.4643 50.2332 20.1606 50.2165C19.3206 50.3747 17.7849 50.7182 16.9751 50.6697C14.6342 50.5292 10.8935 49.9754 8.62924 50.7705C7.87137 50.8749 7.28219 51.0399 6.49064 51.1019C5.14361 51.2074 3.80172 51.195 2.46022 51.2845C1.46464 51.3983 0.934826 51.5241 0 51.6855V48.7796Z" fill="#D28B64"/>
<path d="M71.6861 37.2421C71.6772 37.0219 71.65 36.5146 71.6997 36.3197C72.0345 35.0051 73.925 34.87 74.9535 35.1008C75.0752 35.4067 74.9017 35.7331 74.7265 35.9823C74.7073 36.0209 74.5061 36.4289 74.5061 36.4289C74.4664 36.8059 74.6673 36.9507 74.3946 37.155L73.9175 37.1533L73.833 37.2667C73.8727 37.4977 73.8726 37.5631 73.9766 37.7692C73.3614 38.7513 73.248 38.2948 72.6174 38.6598C72.2476 38.3253 71.939 37.6925 71.6861 37.2421Z" fill="#685129"/>
<path d="M74.7265 35.9822C75.1845 36.6346 75.4489 38.3154 74.7389 38.9733C74.5821 38.5383 74.3999 38.0107 73.9766 37.7692C73.8727 37.5631 73.8728 37.4977 73.833 37.2667L73.9175 37.1532L74.3946 37.155C74.6673 36.9507 74.4664 36.8059 74.5062 36.4289C74.5062 36.4289 74.7073 36.0209 74.7265 35.9822Z" fill="#D28B64"/>
<path d="M73.9766 37.7692C74.3999 38.0107 74.5821 38.5383 74.7389 38.9733L74.5309 39.0138C74.3183 38.8316 74.1866 38.681 74.0021 38.4759L73.884 38.4916C73.7668 38.8249 73.7649 38.9566 73.7333 39.3051L72.4487 38.8974L72.6174 38.6598C73.248 38.2948 73.3614 38.7513 73.9766 37.7692Z" fill="#B05833"/>
<path d="M76.5232 47.3949C76.6334 47.7901 76.7695 48.1656 76.7185 48.5719L76.5699 48.7449L76.5247 48.6459C76.3213 48.4708 76.0963 48.3839 75.8527 48.2688L75.796 47.9761C75.9004 47.9136 76.3048 47.7659 76.4607 47.6966L76.5232 47.3949Z" fill="#D0B29A"/>
</svg>
