<svg xmlns="http://www.w3.org/2000/svg" width="160" height="100" viewBox="0 0 160 100">
  <defs>
    <!-- Top-right corner only r=16 -->
    <clipPath id="clip">
      <path d="M0,0 H144 Q160,0 160,16 V100 H0 Z"/>
    </clipPath>
    <!-- Headlamp glow radial -->
    <radialGradient id="lampGlow" cx="50%" cy="100%" r="80%">
      <stop offset="0%"   stop-color="#FFE880" stop-opacity="0.35"/>
      <stop offset="100%" stop-color="#FFE880" stop-opacity="0"/>
    </radialGradient>
  </defs>

  <g clip-path="url(#clip)">
    <!-- Night sky: deep navy -->
    <rect width="160" height="100" fill="#1E2A3A"/>

    <!-- Stars: cream dots, various sizes -->
    <circle cx="8"   cy="8"  r="1.2" fill="#F5F0E8"/>
    <circle cx="20"  cy="15" r="0.9" fill="#F5F0E8"/>
    <circle cx="35"  cy="6"  r="1.5" fill="#F5F0E8"/>
    <circle cx="50"  cy="18" r="1.0" fill="#F5F0E8"/>
    <circle cx="42"  cy="28" r="0.8" fill="#F5F0E8"/>
    <circle cx="62"  cy="10" r="1.8" fill="#F5F0E8"/>
    <circle cx="74"  cy="22" r="1.1" fill="#F5F0E8"/>
    <circle cx="60"  cy="35" r="0.9" fill="#F5F0E8"/>
    <circle cx="85"  cy="12" r="1.3" fill="#F5F0E8"/>
    <circle cx="95"  cy="30" r="0.8" fill="#F5F0E8"/>
    <circle cx="100" cy="8"  r="2.0" fill="#F5F0E8"/>
    <circle cx="112" cy="18" r="1.0" fill="#F5F0E8"/>
    <circle cx="108" cy="38" r="0.9" fill="#F5F0E8"/>
    <circle cx="118" cy="45" r="1.1" fill="#F5F0E8"/>
    <circle cx="14"  cy="40" r="1.0" fill="#F5F0E8"/>
    <circle cx="28"  cy="48" r="0.8" fill="#F5F0E8"/>
    <circle cx="48"  cy="44" r="1.4" fill="#F5F0E8"/>
    <circle cx="78"  cy="42" r="0.8" fill="#F5F0E8"/>
    <circle cx="90"  cy="50" r="1.2" fill="#F5F0E8"/>
    <circle cx="148" cy="12" r="1.0" fill="#F5F0E8"/>
    <circle cx="155" cy="30" r="0.8" fill="#F5F0E8"/>
    <circle cx="138" cy="40" r="1.3" fill="#F5F0E8"/>

    <!-- Crescent moon: upper right -->
    <circle cx="130" cy="20" r="9" fill="#F5F0E8"/>
    <circle cx="134" cy="18" r="8" fill="#1E2A3A"/>

    <!-- Headlamp beam: warm amber cone from runner position -->
    <polygon points="80,100 36,50 62,50" fill="#E8A83A" opacity="0.18"/>
    <!-- Headlamp core beam (brighter center) -->
    <polygon points="80,100 46,52 56,52" fill="#FFE880" opacity="0.22"/>
    <!-- Headlamp glow on ground -->
    <rect width="160" height="100" fill="url(#lampGlow)"/>

    <!-- Presidential/Franconia ridge silhouette: night navy, jagged rocky peaks -->
    <polygon
      points="0,82
              10,70 18,74 26,62 34,67
              42,57 50,64 58,54
              66,62 74,58 80,67
              88,60 96,66 104,56
              112,64 120,60 130,68
              140,62 150,70 160,74
              160,100 0,100"
      fill="#2C3E50"/>

    <!-- Tiny runner with headlamp (center bottom of scene) -->
    <circle cx="80" cy="93" r="3"   fill="#D4C5B0"/>
    <!-- Headlamp dot bright -->
    <circle cx="80" cy="90" r="1.8" fill="#FFE880"/>
    <!-- Runner body suggestion -->
    <line x1="80" y1="93" x2="80" y2="100" stroke="#D4C5B0" stroke-width="2" stroke-linecap="round"/>
  </g>
</svg>
