<svg width="161" height="100" viewBox="0 0 161 100" fill="none" xmlns="http://www.w3.org/2000/svg">
<g clip-path="url(#clip0_53_1323)">
<path d="M76.828 98.4004C76.9105 98.3867 76.993 98.3731 77.0758 98.3613C77.4576 98.3047 77.4983 98.2969 77.7513 98.4864L77.7423 98.7031C77.3839 99.1299 77.1583 99.1768 76.621 99.1182C76.3264 98.9424 75.7328 98.7129 75.3964 98.5723C75.8452 98.4951 76.3703 98.4512 76.828 98.4004Z" fill="#8CA47D"/>
<path d="M0 0H160.938V10.6003V21.4719V24.0256V45.0552V55.1541V67.1993V77.1848V96.551V100H152.897H97.0369H87.5461H74.6858H0V93.0943V90.392V87.5012V65.3059V63.4169V62.2937V59.8797V52.987V50.8005V9.39111V0Z" fill="#FCE1BB"/>
<path d="M1.27111 57.5071C1.8128 57.8058 2.07215 57.9752 2.56993 58.3402C2.77548 58.0272 2.76158 55.3797 3.28557 54.9056C3.49159 55.2536 3.4225 55.8385 3.55506 56.1977C3.67332 56.5182 4.04276 57.0719 4.23516 57.3735L5.65121 56.739C5.38725 57.13 4.82183 57.7344 4.76985 58.0747C4.84885 58.2779 4.86628 58.2895 5.01141 58.4568C4.9192 58.7864 4.33906 59.0911 4.02947 59.2896C4.4661 59.2357 5.92559 59.0216 6.26948 59.2065C6.10023 59.7385 4.94529 60.0939 4.70835 60.5334L4.8051 60.69L5.36212 60.6439C5.25235 60.924 5.18581 60.9586 5.2364 61.2235C5.81357 61.4119 6.78454 61.0379 7.14915 61.2523C6.8777 61.7097 5.76956 62.1255 5.25235 62.3809C5.73716 62.4072 6.38131 62.3865 6.76982 62.6713L6.76584 63.034C6.39163 63.329 5.99676 63.2125 5.70704 63.5326C6.03958 64.0792 8.74279 64.6278 8.88501 63.1829L8.76741 63.0749C9.18273 62.8089 9.18178 61.9313 9.18479 61.4776L9.07639 61.1153L9.16844 60.9751C9.49595 60.998 10.0793 61.0734 10.3648 60.9703L10.3822 60.8452C10.0972 60.5813 9.614 60.2317 9.51917 59.9085C9.83975 59.6386 9.93525 59.8923 10.154 59.5726C10.0543 59.3648 10.0287 59.3486 9.86592 59.1802L9.9249 59.0194L9.98018 59.0164C10.1963 59.0029 10.2241 59.0005 10.4274 58.9372L10.4673 58.7599L10.2105 58.4586C10.2389 58.351 10.2601 58.3047 10.3457 58.2343C10.9844 57.709 10.7871 57.1534 11.0898 56.2974C11.1953 57.1008 11.1798 57.6075 11.4163 58.405C11.805 59.7161 12.0405 58.9664 12.4637 59.4233C12.2132 59.945 11.9572 59.5381 11.8256 60.0045C12.2342 60.3377 12.3972 60.1231 12.4365 60.4537C12.0048 60.7232 11.9102 60.4411 11.8156 60.786C12.2304 61.3157 12.5621 60.5845 13.0588 60.7558C13.0666 61.3772 12.6584 61.5604 12.2207 61.9491C12.4733 62.1307 12.9505 62.1481 13.2817 62.1884C13.3525 62.4902 13.3252 62.5598 13.196 62.8393L13.2653 63.0282C13.6031 63.1336 13.683 63.0964 13.884 63.3322C13.8372 63.6476 13.6886 63.741 13.4572 63.9538L13.601 64.1569L13.7738 64.1843C13.9361 63.9938 13.942 63.9554 13.9993 63.7101C14.2504 63.7063 14.4126 63.7952 14.6475 63.8887L14.747 63.7707C14.613 63.5868 14.5687 63.5764 14.3674 63.4577C14.5942 63.2859 14.4836 63.3684 14.7727 63.3213C14.7846 63.3193 14.8389 63.1275 14.9327 63.0417L15.3728 63.0621C15.7436 62.6659 15.6389 61.1312 15.8635 60.2524C16.1399 61.5624 15.6506 62.5422 16.8866 63.1498L16.9529 63.1813L16.8687 63.6512C17.1077 63.6583 17.2326 63.4399 17.5352 63.3227C22.6035 63.606 27.1595 64.6612 32.063 65.8659C32.4163 65.9527 33.1394 66.1478 33.4776 66.1677C34.5942 66.3665 37.0521 66.8737 38.1364 67.1815C38.2229 66.7013 38.1727 66.2144 38.6714 66.1228C38.6643 66.5037 38.6412 66.9572 38.6889 67.329C39.5179 67.3121 39.8231 67.6827 40.4173 67.8007C43.9886 69.0937 48.4123 69.9786 52.125 70.7703C52.3293 70.0252 52.2856 69.1844 52.4955 68.3312C52.7827 69.6868 52.7513 70.2758 53.6674 71.2863C54.0704 71.2163 54.4007 71.1369 54.8091 71.1925C55.088 71.292 56.4016 71.3213 56.8498 71.3618L64.475 72.0222C69.275 72.3968 74.1076 72.9955 78.9103 73.3838C80.1953 73.4876 81.5378 73.7638 82.8173 73.9341C83.6185 74.0415 86.0779 74.6592 86.7448 74.5837C88.2128 75.7042 97.6826 76.8451 99.9033 77.0364C100.474 77.0855 101.499 77.0235 102.076 77.0643C106.492 77.0609 109.479 76.3696 113.825 75.7098C117.416 75.1482 121.038 74.8018 124.671 74.6726C128.524 74.5711 132.424 74.8763 136.268 74.8796C139.144 74.8517 142.072 74.354 144.946 74.5512C147.169 74.7037 149.416 75.1158 151.647 75.3012C152.852 75.4012 153.958 75.7493 155.201 75.7061C156.763 76.1068 159.454 76.9016 160.938 77.1848V96.551V100H152.897H97.0369H87.5461H74.6858H0V93.0944V90.392V87.5012V65.3059V63.4169V62.2937V59.8797L0.310855 60.0499C1.06971 60.3403 1.58146 60.6334 2.37354 60.5257L2.43891 60.425C2.06268 59.9445 1.41437 59.7997 1.44036 59.4791C2.23645 59.0003 1.60864 58.2026 1.27111 57.5071Z" fill="#354433"/>
<path d="M102.076 77.0642C106.492 77.0608 109.479 76.3696 113.825 75.7097C117.416 75.1481 121.038 74.8017 124.671 74.6725C128.524 74.5711 132.424 74.8762 136.268 74.8796C139.144 74.8516 142.072 74.354 144.946 74.5511C147.169 74.7037 149.416 75.1158 151.647 75.3011C152.852 75.4011 153.958 75.7493 155.201 75.706C156.763 76.1067 159.454 76.9015 160.937 77.1847V96.551V100H152.897H97.0369H87.5461H74.6858C74.4237 99.6328 73.9357 99.4492 73.7697 99.1269C74.0487 98.8593 74.8243 98.832 74.9488 98.6904C75.4339 98.1396 75.9946 97.4962 76.4911 96.9558C75.7608 96.8615 73.3468 96.5409 73.0059 95.8621C73.1141 95.2269 73.9374 95.4617 74.1425 95.2058C74.6152 94.6161 74.6668 94.4033 75.2824 93.8573C74.1483 93.6667 72.5286 93.2148 71.6024 92.5282L71.5814 92.3841C72.1068 92.1917 73.0539 92.384 73.6435 92.2912C73.3921 92.3307 74.8209 90.7259 74.9934 90.5704C74.4992 90.6441 74.0014 90.6922 73.502 90.7144C72.9475 90.7392 71.1791 90.6001 71.1598 89.8574C71.3137 89.7239 72.7963 89.3024 73.1632 89.1701C72.8205 88.9968 72.3287 88.8356 72.1527 88.5511C72.291 88.3902 73.1051 88.0874 73.6324 87.6848C73.163 87.5593 72.752 87.4466 72.2655 87.3681C71.7872 87.291 70.8124 87.5349 70.5443 87.2919C70.5811 86.9202 70.5923 86.7931 70.4773 86.4353L70.4327 86.3227L70.5361 86.1194C70.8588 85.9183 71.3072 85.9044 71.694 85.8607C72.0873 85.7068 72.0589 85.3889 72.5149 84.99C72.5916 85.1009 72.6938 85.1304 72.8183 85.1888L72.9674 85.1347L72.9937 84.9901C72.7785 84.6455 72.4046 84.4893 72.0427 84.2782L72.0344 84.1441C72.2428 84.055 72.3614 84.0002 72.5568 83.8857L72.5821 83.6845L72.298 83.3579L72.3565 83.211C72.7947 83.2118 72.8967 83.2787 73.0792 82.8629C72.9577 82.3073 72.9328 82.3353 73.3294 82.0337C73.4168 81.4699 73.5164 80.9009 73.6106 80.3375C73.8126 80.9163 73.9123 81.2595 74.2495 81.7802C76.2103 81.4427 78.6583 81.493 80.6374 81.4276C87.283 81.2193 93.3836 78.7775 99.7461 77.2048C100.204 77.0916 101.471 77.1283 102.076 77.0642Z" fill="#8CA47D"/>
<path d="M73.6106 80.3375C73.8126 80.9163 73.9123 81.2596 74.2495 81.7802C74.532 82.1741 74.5058 82.1103 74.3306 82.6169L74.4494 82.7601C74.6136 82.644 74.7799 82.5309 74.9481 82.4209L75.1194 82.495C75.277 83.0134 74.5527 83.3798 74.6516 83.9048C74.8538 83.9735 75.0568 84.0398 75.2607 84.1036C75.3378 84.3373 75.3346 84.2375 75.2097 84.5093C74.7471 84.8248 74.3115 85.014 73.9102 85.2894C74.5342 85.1519 75.911 84.6627 76.3673 84.8597C76.3722 85.0033 76.1141 85.5789 76.0495 85.832C75.6322 86.2247 75.0482 85.8963 74.9989 86.4481C75.4199 86.8055 76.6806 86.7661 77.2679 86.7923C76.6176 87.1225 75.9629 87.444 75.3039 87.7567C75.3738 87.9327 75.3496 87.9176 75.5971 88.0223C75.962 88.1768 76.498 88.1448 76.8837 88.1331C76.9334 88.2332 76.978 88.3232 77.0177 88.403C76.9213 89.0971 76.6066 88.8072 76.6303 89.3684C76.9205 89.6873 76.9363 89.5989 76.9356 89.9353C76.639 90.3407 76.425 90.1619 76.3216 90.4992C76.8333 90.9065 78.3754 91.5061 79.0003 91.1701L79.0638 91.0174C77.9217 90.1481 77.37 89.7869 77.2786 88.3345C77.8597 88.5612 79.481 89.3223 80.0013 89.1473C80.1667 88.6344 78.9269 88.2788 78.5127 88.1269C78.8715 87.8792 79.3933 87.5425 79.7214 87.2778C78.9382 86.4614 78.7922 86.1744 78.2973 85.152C78.9559 85.5679 79.439 85.9232 80.0608 86.3955L80.1076 84.9353C80.9961 84.1383 80.6775 83.2224 81.0858 81.8954C81.1894 82.6236 81.6018 84.8724 82.1688 85.3515C82.6803 85.4134 83.2047 85.324 83.7182 85.262C82.9906 85.9794 82.4883 86.5542 81.832 87.3249C83.4884 87.2724 83.5702 86.8408 84.8841 87.5099C84.3219 87.9007 82.9561 88.7081 82.5814 89.0915L82.608 89.231C82.8476 89.301 82.9831 89.2557 83.2295 89.2146C83.3038 89.5034 83.2826 89.7535 83.6018 89.8956C84.1856 90.1556 85.2515 90.287 85.896 90.3962C85.3308 90.7339 85.0072 91.0037 84.3465 91.0507L84.2115 91.2651C84.4524 91.4064 84.7655 91.523 85.0276 91.6317L85.0536 91.8039C84.7261 92.1754 83.7418 92.3601 83.2382 92.4784C84.4974 93.7412 85.0131 93.7532 86.7486 93.6002L86.8413 93.7021C86.7123 94.1521 86.3517 94.6728 86.1138 95.1011C85.6475 95.0533 84.5034 94.8975 84.1061 94.9841L84.0203 95.1485C84.4926 96.4545 86.7928 95.9614 87.314 96.8179C87.072 97.545 86.4978 97.2197 86.8498 97.9424C86.4329 98.2588 85.6122 97.8106 85.2898 98.3965C85.5136 99.1543 87.3158 99.7315 87.859 99.5059L88.0168 99.5801C87.8747 99.8584 87.7425 99.6748 87.5461 100H74.6858C74.4237 99.6328 73.9357 99.4492 73.7697 99.127C74.0487 98.8594 74.8243 98.8321 74.9488 98.6905C75.4339 98.1397 75.9946 97.4962 76.4911 96.9559C75.7608 96.8615 73.3468 96.5409 73.0059 95.8621C73.1141 95.227 73.9374 95.4617 74.1425 95.2059C74.6152 94.6161 74.6668 94.4033 75.2824 93.8573C74.1483 93.6667 72.5286 93.2149 71.6024 92.5282L71.5814 92.3841C72.1068 92.1917 73.0539 92.384 73.6435 92.2912C73.3921 92.3308 74.8209 90.726 74.9934 90.5704C74.4992 90.6442 74.0014 90.6922 73.502 90.7145C72.9475 90.7393 71.1791 90.6001 71.1598 89.8574C71.3137 89.724 72.7963 89.3025 73.1632 89.1701C72.8205 88.9968 72.3287 88.8357 72.1527 88.5512C72.291 88.3903 73.1051 88.0874 73.6324 87.6849C73.163 87.5593 72.752 87.4466 72.2655 87.3682C71.7872 87.291 70.8124 87.535 70.5443 87.2919C70.5811 86.9202 70.5923 86.7932 70.4773 86.4354L70.4327 86.3228L70.5361 86.1195C70.8588 85.9184 71.3072 85.9044 71.694 85.8608C72.0873 85.7069 72.0589 85.389 72.5149 84.9901C72.5916 85.1009 72.6938 85.1305 72.8183 85.1889L72.9674 85.1348L72.9937 84.9902C72.7785 84.6455 72.4046 84.4894 72.0427 84.2782L72.0344 84.1442C72.2428 84.055 72.3614 84.0002 72.5568 83.8858L72.5821 83.6846L72.298 83.3579L72.3565 83.2111C72.7947 83.2118 72.8967 83.2787 73.0792 82.8629C72.9577 82.3073 72.9328 82.3354 73.3294 82.0337C73.4168 81.4699 73.5164 80.9009 73.6106 80.3375Z" fill="#50614A"/>
<path d="M71.694 85.8607C72.0805 85.9465 72.1785 85.9013 72.4253 86.1342C72.0935 86.6375 70.9512 86.4076 70.4773 86.4353L70.4327 86.3227L70.5361 86.1194C70.8588 85.9183 71.3072 85.9044 71.694 85.8607Z" fill="#8CA47D"/>
<path d="M78.3855 93.1003L78.661 93.2104C78.8475 93.4618 78.8498 94.1222 78.6743 94.379C78.3015 94.5286 77.7166 94.5159 77.2989 94.532L77.3058 94.357C77.6765 94.0924 78.0353 94.266 78.5389 94.0578L78.5468 93.9096L78.2904 93.6807C78.21 93.3833 78.2487 93.4447 78.3855 93.1003Z" fill="#8CA47D"/>
<path d="M91.6151 88.8092L91.9782 90.8614C92.6105 91.4127 92.5777 91.6131 92.5106 92.4265C93.1586 92.1866 93.8426 91.945 94.4749 91.6748C94.0738 92.1733 93.5714 92.7905 93.0403 93.1574C92.9356 93.4641 92.7883 93.7544 92.9138 94.0448C93.6389 94.4484 94.7348 93.4303 95.3399 93.7255C95.4956 94.0008 95.4703 93.8781 95.4403 94.1879C94.3786 95.1785 93.6854 95.2238 93.1103 95.7437L93.1155 95.8753C93.3934 95.8634 93.5407 95.847 93.8135 95.8045L93.9104 95.9058C93.8499 96.2663 93.5303 96.6224 93.3014 96.9252C93.998 96.7321 95.4817 96.179 96.1016 96.3639L96.1627 96.4586C95.8842 97.1976 94.7101 97.2613 94.5591 97.7295C94.9581 98.1748 95.9937 98.0303 95.9682 98.5489C95.6941 98.7754 94.386 99.1758 93.8114 99.4541C94.7006 99.7051 95.5014 99.8311 96.4239 99.8701C96.6549 99.8799 96.8838 99.8438 97.0369 100H87.5461C87.7425 99.6748 87.8747 99.8584 88.0168 99.5801L87.859 99.5059C87.3149 99.1914 87.3165 99.0371 87.1572 98.4395C87.1155 98.2813 87.0754 98.1231 87.0368 97.9639C87.6722 97.916 88.9614 97.9014 89.4796 97.6826L89.556 97.5553C89.1333 97.2584 88.8484 97.3368 88.7504 97.0339L88.9338 96.7902C88.7736 96.1772 87.5949 96.2041 88.013 95.2356C88.5978 94.9649 88.6921 95.3511 89.2785 95.4668C89.8774 95.585 90.4794 95.6903 91.0763 95.8169C90.2375 95.2121 89.9442 95.0579 88.9927 94.6239C89.3462 94.5282 90.0363 94.3867 90.29 94.1697C90.1632 93.6864 89.139 92.7642 89.2085 92.2985C89.6608 92.204 90.3264 92.7907 90.6708 93.0738C91.0463 91.6211 91.4212 90.2998 91.6151 88.8092Z" fill="#354433"/>
<path d="M152.897 100C153.697 99.3154 159.546 97.3379 160.937 96.551V100H152.897Z" fill="#75906C"/>
<path d="M40.4173 67.8007C43.9886 69.0936 48.4123 69.9786 52.125 70.7703C52.3293 70.0252 52.2857 69.1844 52.4955 68.3311C52.7827 69.6868 52.7513 70.2758 53.6674 71.2863C54.0704 71.2163 54.4007 71.1369 54.8091 71.1925C55.088 71.292 56.4016 71.3213 56.8498 71.3618L64.475 72.0221C69.275 72.3968 74.1076 72.9955 78.9103 73.3838C80.1953 73.4876 81.5378 73.7637 82.8173 73.9341C83.6185 74.0415 86.0779 74.6592 86.7448 74.5837C88.2128 75.7042 97.6826 76.8451 99.9033 77.0364C100.474 77.0854 101.499 77.0234 102.076 77.0642C101.471 77.1283 100.204 77.0916 99.7461 77.2048C93.3836 78.7775 87.283 81.2193 80.6374 81.4276C78.6583 81.493 76.2104 81.4427 74.2495 81.7802C73.9123 81.2595 73.8126 80.9163 73.6107 80.3375C73.5164 80.9009 73.4168 81.4699 73.3294 82.0337C72.2019 81.9895 70.9662 82.1555 70.0476 82.1148C69.8169 82.1629 69.3523 82.2978 69.1628 82.2058C68.9788 81.6646 68.5992 79.563 68.3173 79.4071C67.8494 80.1427 68.2705 82.0869 67.6802 82.2448L67.313 82.0733L67.1491 82.1408C67.1317 82.4485 67.4478 83.0368 67.59 83.3505C67.1657 83.0556 66.6985 82.686 66.2121 82.5396C66.0704 82.5886 66.0073 82.6023 65.8753 82.6775C66.1648 83.1737 66.8732 84.1211 66.9857 84.5259L66.9268 84.7239C66.6384 84.7639 66.4999 84.7946 66.221 84.8677L66.1272 85.0291C66.3122 85.5842 67.4246 86.0401 68.0149 86.5604C66.8961 86.3967 64.7107 85.3671 64.3981 85.441C64.4176 86.027 65.1905 86.7132 65.4901 87.1661C65.6226 87.3666 65.2556 87.6457 65.4587 88.1222C66.0205 88.1279 66.6287 87.8702 67.0591 87.9523L67.1436 88.063C66.5781 89.221 63.4077 88.8035 62.8299 89.4801L62.852 89.6179C63.3713 89.9275 63.9419 89.8278 64.3499 90.1711C64.4592 90.7286 63.6997 90.9852 63.2619 91.2161L64.1863 91.8086C64.7848 91.8179 65.9642 91.8068 66.5087 91.8945C65.7081 92.2337 64.2146 92.9906 63.4444 92.8377C63.3285 92.8146 63.1487 92.8317 63.0269 92.8376L62.9152 92.9732C62.9631 93.2281 62.966 93.3222 63.0988 93.554C62.9083 93.8436 62.794 94.0059 62.6574 94.3273C62.8832 95.0302 64.2644 94.5139 64.9045 94.8171L64.9219 94.9571C64.34 95.5984 63.8225 95.6564 62.977 95.9251C59.5565 95.231 56.5615 93.9112 53.0267 93.4821C52.1076 93.3705 49.0123 93.1316 48.5015 92.7829L48.4783 92.5924C48.932 92.1522 49.8439 92.5834 50.1797 92.2309C50.1426 91.9546 50.1125 91.8069 50.1454 91.5233C50.4633 91.1871 50.8547 90.9424 51.2366 90.6803C50.019 90.3426 47.7137 90.0373 46.949 89.0936L46.9652 88.9559C47.6322 88.7056 49.0035 89.1917 49.3678 88.9547C49.5806 87.9563 49.7867 87.9794 50.6428 87.3123C48.4898 87.3254 47.6274 87.646 46.0685 86.1219C47.0012 85.9002 47.5564 85.8071 48.398 85.3412C48.0002 85.2088 47.5374 85.0988 47.2464 84.8091L47.1862 84.6053C47.5798 84.074 48.6816 84.2678 48.9691 83.347L48.8515 83.1509L48.1624 83.2548C48.0549 83.2787 46.9372 83.5544 46.9685 83.5621C46.2646 83.3882 46.6769 82.8498 45.6973 82.7139L45.6062 82.5828C45.792 81.9728 47.036 81.31 47.6528 81.3217C47.891 81.0954 48.1321 80.9187 48.2329 80.6177C48.0695 80.3623 47.7428 80.3054 47.4322 80.1997L45.9402 80.8892C45.4757 80.5588 45.2171 80.3692 44.792 79.976C45.1779 79.6253 46.5619 78.3779 46.596 77.9511C46.0464 77.6576 44.4238 78.6225 44.3058 77.0598C44.2822 76.748 44.2014 76.6658 44.2789 76.295C43.9925 75.8127 43.8451 75.6214 43.8009 75.0681L43.5869 74.9589C43.0828 75.2971 43.2682 76.4973 43.2269 77.0483C42.647 76.9476 41.1623 76.5248 40.7751 76.0847L40.8186 75.9197C41.1653 75.7317 41.7066 75.7896 42.1183 75.7962C42.4179 75.3133 42.6115 75.0987 42.9798 74.6797C42.1158 74.7112 40.7695 74.8294 40.148 74.0448C40.3568 73.7423 40.9243 73.9377 41.261 73.4427C41.1027 73.0221 40.9037 73.2354 40.6775 72.808L40.8127 72.6235C40.7083 72.4917 40.7088 72.3786 40.682 72.2115C40.6036 72.1728 40.5032 72.1233 40.381 72.063C40.3708 72.0421 40.183 71.6338 40.1818 71.6328C39.9381 71.4186 39.8975 71.5225 39.7886 71.2185C40.1304 70.8002 40.967 70.7737 41.2913 70.3448L41.2294 70.2035C40.5956 69.9662 39.658 70.3873 39.3221 69.8399C39.3817 69.3274 39.9472 68.9737 40.1849 68.1803L40.2091 68.0976C40.2636 67.9631 40.3229 67.9146 40.4173 67.8007Z" fill="#50614A"/>
<path d="M54.8091 71.1925C55.088 71.292 56.4016 71.3213 56.8498 71.3618L64.475 72.0222C69.275 72.3968 74.1076 72.9955 78.9103 73.3838C80.1953 73.4876 81.5378 73.7638 82.8173 73.9341C83.6185 74.0415 86.0779 74.6592 86.7448 74.5837C88.2128 75.7042 97.6826 76.8451 99.9033 77.0365C100.474 77.0855 101.499 77.0235 102.076 77.0643C101.471 77.1283 100.204 77.0916 99.7461 77.2048C93.3836 78.7776 87.283 81.2194 80.6374 81.4277C78.6583 81.4931 76.2104 81.4427 74.2495 81.7802C73.9123 81.2596 73.8126 80.9163 73.6106 80.3375C73.5164 80.9009 73.4168 81.47 73.3294 82.0337C72.2019 81.9896 70.9662 82.1556 70.0476 82.1149C69.8169 82.1629 69.3522 82.2979 69.1628 82.2059C68.9788 81.6647 68.5992 79.563 68.3173 79.4072C67.8494 80.1427 68.2705 82.0869 67.6802 82.2449L67.313 82.0734L67.1491 82.1408C67.1316 82.4486 67.4478 83.0368 67.5899 83.3505C67.1657 83.0557 66.6984 82.6861 66.2121 82.5397C66.0704 82.5887 66.0073 82.6024 65.8753 82.6776L65.7211 82.783C65.3336 82.7919 65.1438 82.8195 64.785 82.6702L64.7496 82.5239C65.0693 82.0956 66.0587 81.5639 66.5515 81.3153C65.9436 81.2803 64.7574 81.2478 64.407 80.7305C64.6032 80.5089 64.8602 80.6527 65.1866 80.5616C65.5128 80.4706 65.3064 80.2606 65.5264 79.8151C65.7976 79.6819 65.8622 79.6614 66.0271 79.3991L65.9958 79.2625C65.4932 79.1494 64.1925 80.1053 63.5265 79.585C63.6368 79.2431 64.7442 79.1537 64.767 78.6177C64.534 78.5344 63.7897 78.6388 63.4992 78.6656C63.8018 78.3414 64.5207 77.743 64.6236 77.3868C64.2854 77.1804 63.7945 77.5009 63.417 77.2445C63.4179 76.8703 63.5397 76.8333 63.7959 76.4599C63.6482 76.0416 63.0214 75.9889 62.9215 75.5031C62.8264 75.0407 62.7993 74.4778 62.7511 74.0107L62.5867 73.909C62.0513 74.2147 62.5168 75.4124 62.1328 75.8525C61.918 75.9388 61.8187 75.9513 61.5873 75.9469C61.5583 76.3363 61.829 76.7525 62.0088 77.1307C61.35 77.1593 60.9069 77.1279 60.2497 77.0797C60.6298 77.4492 61.363 77.9558 61.1809 78.4985C60.9934 78.555 60.8434 78.5971 60.652 78.6388C60.8191 78.982 61.6843 79.4096 62.0627 79.6254C61.5063 79.7064 60.0011 79.6469 59.7248 79.931C59.8424 80.3771 60.2568 80.3364 60.374 80.7197C60.255 80.8952 60.1432 81.0397 60.0121 81.2065L60.0476 81.3596C60.405 81.5692 60.6306 81.3215 61.1388 81.4972L61.1453 81.632C60.6932 82.3091 59.6016 82.2275 58.851 82.252L58.8332 82.6949C58.7473 82.757 58.7117 82.7959 58.6167 82.8283C57.79 82.8265 56.7609 82.9132 56.1047 82.3717L56.1242 82.2343C56.6301 81.9656 57.1318 82.1252 57.4381 81.931C57.4539 81.8199 57.451 81.3846 57.4281 81.418C57.6021 81.1641 57.7323 81.1015 57.7797 80.773C57.4527 80.2645 56.3424 80.3977 55.7068 80.1113C55.4678 80.0045 55.2827 79.8046 55.1947 79.5579L55.2952 79.4417C55.7271 79.4544 56.1789 79.5652 56.6047 79.6533C56.9222 79.1346 57.2316 78.6977 57.583 78.2031C56.773 78.2672 56.3773 78.2641 55.5698 78.2053C55.4468 78.1217 55.3244 78.0372 55.2027 77.9518C54.9471 77.7712 54.6598 77.613 54.613 77.3418C54.8598 77.1457 55.4743 77.1008 55.8137 77.051L55.9153 76.8589C55.688 76.4508 55.5527 76.7598 55.2062 76.4406C55.3965 76.1367 56.2132 75.6924 56.6873 75.1422L56.7153 75.1093C56.1263 75.1705 55.288 75.4758 54.8527 75.3162C54.6211 75.0463 54.6858 75.1505 54.6513 74.756L54.5278 74.6603C54.3379 74.7657 54.2312 74.8505 54.0189 74.8512L53.9674 74.7696C54.2381 74.2953 55.7419 73.5607 56.2967 73.2645C55.6768 73.2356 54.1559 73.402 53.7958 72.9704C53.844 72.2785 54.4221 71.8533 54.7669 71.2653L54.8091 71.1925Z" fill="#ACBF89"/>
<path d="M40.4173 67.8007C43.9886 69.0936 48.4123 69.9786 52.125 70.7703C51.9662 71.2898 52.0088 72.0636 51.7982 72.382C51.2935 72.1261 51.4166 71.9554 50.919 71.8579C50.7313 72.0717 50.7743 71.9653 50.7658 72.2616C51.0453 72.6834 51.4259 72.8521 51.4621 73.2003C51.2242 73.6552 50.9608 73.4388 50.8984 73.8259C51.0907 74.1067 51.9166 74.5614 52.3082 74.8514C51.2734 74.6301 50.2508 74.3569 49.2291 74.1387C49.8534 75.0315 50.4237 75.6779 51.1354 76.4957C50.3784 76.4392 49.426 76.3433 48.6831 76.3481C49.5683 79.1206 50.4709 77.9175 50.8715 78.4218C50.6517 79.4192 48.8777 79.1934 48.3746 79.4975C48.4505 79.8351 48.615 79.5448 48.9613 80.2565C49.198 80.3166 49.224 80.2979 49.47 80.2425L49.5969 80.3329C49.4875 80.8141 48.2049 81.4928 47.763 81.4462L47.6528 81.3217C47.891 81.0954 48.1321 80.9187 48.2329 80.6177C48.0695 80.3623 47.7428 80.3054 47.4322 80.1997L45.9402 80.8892C45.4757 80.5588 45.2171 80.3692 44.792 79.976C45.1779 79.6253 46.5619 78.3779 46.596 77.9511C46.0464 77.6576 44.4238 78.6225 44.3058 77.0598C44.2822 76.748 44.2014 76.6658 44.2789 76.295C43.9925 75.8127 43.8451 75.6214 43.8009 75.0681L43.5869 74.9589C43.0828 75.2971 43.2682 76.4973 43.2269 77.0483C42.647 76.9476 41.1623 76.5248 40.7751 76.0847L40.8186 75.9197C41.1653 75.7317 41.7066 75.7896 42.1183 75.7962C42.4179 75.3133 42.6115 75.0987 42.9798 74.6797C42.1158 74.7112 40.7695 74.8294 40.148 74.0448C40.3568 73.7423 40.9243 73.9377 41.261 73.4427C41.1027 73.0221 40.9037 73.2354 40.6775 72.808L40.8127 72.6235C40.7083 72.4917 40.7088 72.3786 40.682 72.2115C40.6036 72.1728 40.5032 72.1233 40.381 72.063C40.3708 72.0421 40.183 71.6338 40.1818 71.6328C39.9381 71.4186 39.8975 71.5225 39.7886 71.2185C40.1304 70.8002 40.967 70.7737 41.2913 70.3448L41.2294 70.2035C40.5956 69.9662 39.658 70.3873 39.3221 69.8399C39.3817 69.3274 39.9472 68.9737 40.1849 68.1803L40.2091 68.0976C40.2636 67.9631 40.3229 67.9146 40.4173 67.8007Z" fill="#ACBF89"/>
<path d="M44.2382 74.9757C44.1814 74.6457 44.1218 74.6297 44.2473 74.3635C44.4817 74.3639 44.505 74.3789 44.7307 74.4553C44.9383 74.0186 44.6257 73.0536 45.3405 72.0383L45.5137 71.9738C45.7198 72.6281 45.7843 74.0283 46.1863 74.4547C46.516 74.5904 46.5974 74.5501 46.7139 74.8042C46.5707 75.0131 46.3831 75.044 46.1354 75.1341L46.0886 75.2967C46.3927 75.5289 46.8118 75.3346 47.1559 75.22L47.2491 75.2962C46.9466 75.8559 46.6387 75.8877 47.1563 76.3335C47.0129 76.8257 46.5212 76.629 46.6383 77.1254C47.0351 77.1696 47.6132 77.0918 47.8348 77.2432C47.6022 77.8408 47.1717 77.6878 46.9076 78.0934C47.1997 78.3185 47.634 78.0806 48.007 78.3581C47.9445 79.1053 47.3587 78.7155 47.9642 79.6288C47.6058 79.6776 47.3095 79.6524 47.0201 79.8549L47.0387 80.0015L47.4322 80.1997L45.9402 80.8892C45.4757 80.5588 45.2171 80.3692 44.792 79.976C45.1779 79.6253 46.5619 78.3779 46.596 77.9512C46.0464 77.6576 44.4238 78.6225 44.3058 77.0599C44.2822 76.748 44.2014 76.6658 44.2789 76.295C43.9925 75.8127 43.8451 75.6214 43.8009 75.0681L44.2382 74.9757Z" fill="#50614A"/>
<path d="M43.8009 75.0682L44.2382 74.9757L44.2544 75.0705C44.3307 75.5035 44.5781 75.9253 44.5373 76.1424L44.2789 76.295C43.9925 75.8127 43.8451 75.6214 43.8009 75.0682Z" fill="#8CA47D"/>
<path d="M40.682 72.2115C40.9946 72.1088 41.3605 71.9383 41.6473 72.0624L41.745 72.228C41.53 72.4988 41.4694 72.5518 41.0781 72.5977C40.9898 72.6078 40.9014 72.6164 40.8127 72.6235C40.7083 72.4917 40.7088 72.3786 40.682 72.2115Z" fill="#354433"/>
<path d="M58.6167 82.8283C58.7117 82.7959 58.7473 82.7569 58.8332 82.6949L58.851 82.252C59.0303 82.9627 59.4402 83.157 60.0364 83.6003C59.7357 83.5976 58.934 83.5587 58.6965 83.6499C58.6674 84.2061 59.6289 84.3841 59.8925 84.9033C59.6048 85.4124 58.7064 85.1036 58.0914 85.3061L58.1163 85.407C58.3412 85.513 58.639 85.5936 58.7138 85.7719C57.9927 86.1188 56.6567 85.5922 56.3909 84.9723C56.5749 84.8875 56.9628 84.8081 57.0559 84.7556C57.6965 84.3936 58.5478 83.587 58.6167 82.8283Z" fill="#ACBF89"/>
<path d="M48.1624 83.2548L47.7825 83.1719C47.6744 82.8885 47.6707 82.9986 47.7679 82.7511C48.1533 82.6094 48.8539 82.8082 48.9024 82.7799C49.2614 82.5701 49.63 82.2123 50.1358 82.0856L50.2727 82.1725C50.1371 82.742 49.3521 82.9823 48.8515 83.1509L48.1624 83.2548Z" fill="#8CA47D"/>
<path d="M60.1189 87.5176L60.2752 87.5506L60.3306 87.6918C60.1758 88.0153 59.8723 88.238 59.5977 88.4745L58.3537 88.4573C58.1169 88.3085 58.0652 88.3362 57.9994 88.1166C58.4712 87.8284 59.1827 88.0384 60.1189 87.5176Z" fill="#ACBF89"/>
<path d="M11.0898 56.2974C11.1953 57.1008 11.1798 57.6075 11.4163 58.405C11.805 59.7161 12.0405 58.9664 12.4637 59.4232C12.2132 59.945 11.9572 59.5381 11.8256 60.0045C12.2342 60.3377 12.3972 60.1231 12.4365 60.4537C12.0048 60.7231 11.9102 60.4411 11.8156 60.786C12.2304 61.3157 12.5621 60.5845 13.0588 60.7558C13.0666 61.3771 12.6584 61.5604 12.2207 61.9491C12.4733 62.1307 12.9505 62.148 13.2817 62.1884C13.3525 62.4901 13.3252 62.5598 13.196 62.8393L13.2653 63.0282C13.6031 63.1336 13.683 63.0964 13.884 63.3322C13.8372 63.6476 13.6886 63.741 13.4572 63.9538L13.601 64.1569L13.7738 64.1843C13.9361 63.9938 13.942 63.9554 13.9993 63.7101C14.2504 63.7063 14.4126 63.7952 14.6475 63.8887L14.747 63.7707C14.613 63.5868 14.5687 63.5764 14.3674 63.4577C14.5942 63.2858 14.4836 63.3684 14.7727 63.3213C14.7846 63.3193 14.8389 63.1274 14.9327 63.0417L15.3728 63.0621C15.7436 62.6659 15.6389 61.1312 15.8635 60.2523C16.1399 61.5624 15.6506 62.5422 16.8866 63.1498L16.9529 63.1813L16.8687 63.6512C17.1077 63.6583 17.2326 63.4398 17.5352 63.3227C22.6035 63.606 27.1595 64.6612 32.063 65.8659C32.4163 65.9527 33.1394 66.1478 33.4776 66.1677C34.5942 66.3665 37.0521 66.8737 38.1364 67.1814C38.0839 67.6435 37.9607 69.2534 37.7347 69.5892L37.717 69.8487L37.3595 69.989L37.3175 70.2136L36.8716 70.4592C36.9239 70.8143 37.6188 71.273 37.9397 71.5148C37.4576 71.4132 36.1071 71.0562 35.7268 71.0917L35.6267 71.2148C35.8997 71.8796 36.2312 71.6562 36.2142 72.572C36.7102 72.7872 36.7057 72.6154 36.9759 72.9387C36.6511 73.301 35.328 73.1747 34.8327 73.1403C35.0723 73.6674 35.2728 74.2733 35.8072 74.5115C36.3685 74.4856 36.3339 74.381 36.7882 74.5938C37.2489 75.7246 34.7784 75.7957 34.6103 76.0232C35.0789 76.6419 35.4617 76.2994 35.6968 76.6929C35.5083 77.0351 34.3457 77.7119 33.9603 77.954C33.7791 78.06 33.653 78.0862 33.5958 78.2471C32.8993 78.353 32.4267 78.4587 31.8722 77.9566L32.0885 77.7088C32.1172 77.3506 32.1556 77.4674 31.9966 77.2129C31.3938 76.9791 30.7348 77.8153 30.1433 77.7989L30.0523 77.6764C30.0513 77.2933 30.3011 76.7356 30.4432 76.3585L30.3712 76.2125C30.1271 76.1741 30.0722 76.1637 29.8454 76.0669C29.618 75.5807 29.2354 73.6621 29.0939 73.0168C28.727 74.6113 28.3522 74.4961 28.2983 76.3665C28.0123 76.2405 27.7869 76.1491 27.4922 76.0452L27.3695 76.1232C27.2942 76.5434 27.6371 76.9087 27.7294 77.3181C27.86 77.8974 27.0445 77.667 26.7325 78.1649C26.9043 78.7475 28.345 78.9311 28.0869 79.627C27.3583 79.8343 25.9864 78.5069 25.246 78.4325C24.9534 78.9768 26.3453 79.7313 26.4674 80.0814L26.327 80.2398C26.001 80.2905 25.8521 80.2537 25.5277 80.2069L25.4658 80.3291C25.8554 80.7689 27.1219 80.9779 27.5006 81.3828C26.9593 81.7791 24.6295 81.2777 24.11 81.5857C24.2386 82.0396 24.7154 81.947 24.8988 82.4196C24.7579 82.7518 24.6157 82.719 24.2282 82.9699C24.5916 83.8146 26.0179 83.1899 26.6381 83.7326L26.6216 83.9176C25.7517 85.1175 23.4137 84.2336 22.786 84.5592C23.4021 85.3708 23.992 85.59 24.4794 86.5579L24.5027 86.6054C24.0349 86.6238 22.3481 86.5911 22.1195 86.9018C22.6361 87.8786 25.0382 87.8765 25.7436 88.1851L25.7445 88.3108C25.0054 88.784 22.3396 88.6314 21.9063 89.0447C22.1685 89.5621 23.1964 89.9699 23.2533 90.4033C22.793 90.5066 19.7906 89.6182 19.2219 89.4292C19.7254 88.9925 20.623 88.3735 20.5697 87.6576C20.202 87.2372 18.7145 87.3976 18.095 87.2972C17.4419 87.1913 15.8791 86.7611 16.0777 85.8546C16.5637 85.4198 17.6104 85.5893 18.3253 85.4997C18.4685 85.1585 18.2684 85.1582 18.2312 84.7923C18.1595 84.0838 19.0025 84.2023 19.427 83.6892C19.3743 82.5521 14.0507 82.7927 14.1125 80.961C14.5001 80.7305 16.5476 81.0068 17.1288 81.0646C17.6639 79.8116 17.9767 79.5692 18.8524 78.5497C16.5021 78.9149 14.8384 79.1397 13.0097 77.2347C13.7922 76.6681 14.7163 76.4603 15.6483 76.2142L15.6603 76.1097C15.1822 75.7223 14.463 75.4303 13.8737 75.1071C15.2627 74.5166 15.9894 74.3202 16.9271 73.0873C16.1911 73.1403 13.2062 73.8629 12.9585 73.0988C13.0886 72.8393 13.1736 72.7467 13.3529 72.5289C13.167 72.2151 12.3955 72.6725 11.961 72.3914C11.704 71.3756 14.9527 70.6596 15.2979 69.8091L15.2191 69.6242C14.2304 69.0642 13.778 69.5047 12.8671 69.6506C12.7319 69.6723 11.4349 69.4898 11.2076 69.4582C12.3567 69.1278 12.4251 69.1043 13.2411 68.237C12.8915 67.9609 12.4873 67.6771 12.1252 67.4107C12.3835 67.1356 12.6375 66.8565 12.8871 66.5734C13.094 66.3352 13.2776 66.0991 13.2532 65.7714L13.0689 65.6772C12.3543 65.7281 11.8051 66.0502 11.1463 66.3502C10.8115 65.6279 10.2693 64.6934 10.0354 63.9756C9.73799 63.063 10.3477 62.0635 9.18479 61.4775L9.07639 61.1152L9.16844 60.9751C9.49595 60.998 10.0793 61.0733 10.3648 60.9703L10.3822 60.8452C10.0972 60.5813 9.614 60.2316 9.51917 59.9085C9.83975 59.6386 9.93525 59.8923 10.154 59.5726C10.0543 59.3647 10.0287 59.3486 9.86592 59.1802L9.9249 59.0194L9.98017 59.0164C10.1963 59.0029 10.2241 59.0005 10.4274 58.9372L10.4673 58.7599L10.2105 58.4586C10.2389 58.351 10.2601 58.3047 10.3457 58.2343C10.9844 57.709 10.7871 57.1534 11.0898 56.2974Z" fill="#50614A"/>
<path d="M17.5352 63.3226C22.6035 63.6059 27.1595 64.6612 32.063 65.8659C32.4163 65.9527 33.1394 66.1477 33.4776 66.1677C34.5942 66.3665 37.0522 66.8737 38.1364 67.1814C38.0839 67.6434 37.9608 69.2534 37.7347 69.5891L37.717 69.8487L37.3595 69.9889L37.3175 70.2135L36.8716 70.4592C36.9239 70.8142 37.6189 71.2729 37.9398 71.5148C37.4576 71.4132 36.1071 71.0561 35.7268 71.0917L35.6267 71.2148C35.8997 71.8796 36.2312 71.6561 36.2142 72.5719C36.7102 72.7872 36.7057 72.6154 36.9759 72.9386C36.6511 73.301 35.328 73.1747 34.8327 73.1403C35.0723 73.6674 35.2728 74.2733 35.8072 74.5115C36.3685 74.4856 36.3339 74.3809 36.7882 74.5937C37.2489 75.7246 34.7784 75.7957 34.6103 76.0232C35.0789 76.6419 35.4617 76.2994 35.6968 76.6928C35.5083 77.035 34.3457 77.7119 33.9603 77.954C33.7791 78.0599 33.653 78.0862 33.5958 78.247C32.8993 78.353 32.4267 78.4587 31.8722 77.9566L32.0885 77.7088C32.5663 77.7901 32.6469 77.8009 33.019 77.4575C33.1055 76.7862 32.0859 76.7588 31.6917 76.1334L31.7418 75.931C31.9898 75.8216 32.1012 75.9941 32.4717 76.1336C32.7102 75.7854 32.3586 76.0761 32.332 75.5455C32.6067 75.2404 32.8876 74.9866 33.1876 74.7089C32.7928 74.7107 32.142 74.7338 31.7709 74.6786C31.7462 74.5002 32.1595 74.2366 32.1428 73.8656C31.8071 73.6957 31.5337 73.5551 31.2139 73.3581C31.1819 72.8403 32.0916 72.7876 32.2346 72.4255C31.8663 72.2994 31.4451 72.7315 30.9649 72.6125C30.8973 72.2948 31.1852 72.4386 31.4209 72.048C31.1378 71.9146 30.9001 71.8427 30.7763 71.5546C30.6711 71.4378 30.6349 71.3294 30.5709 71.1867C30.4593 70.9095 30.4722 71.0326 30.5608 70.7043C30.3583 70.4934 30.5773 70.4318 30.0978 70.357C29.783 70.504 29.6996 70.5483 29.3518 70.5745L29.2781 70.5795C29.4399 70.7001 29.4511 70.7502 29.5507 70.9323C29.4541 71.0748 29.0814 70.8311 28.8368 71.0563C28.9687 71.558 29.2316 71.2581 29.3043 71.7265C29.1327 71.8973 29.0877 71.8923 28.8441 71.9581L28.8378 72.1315L29.2914 72.408L29.2772 72.5505C28.8114 72.8607 28.5483 72.3934 28.0118 72.5938L27.7513 72.4067C27.349 71.564 25.7365 72.2573 25.3902 71.6256C25.5997 71.477 25.9979 71.5012 26.2798 71.4903C26.5203 71.2219 27.0488 70.5086 27.0974 70.1581C26.6892 70.02 25.6545 70.6622 25.1519 70.5781L25.0999 70.3585C25.3627 69.8902 25.423 70.2943 25.8106 69.8233C25.7258 69.2997 25.3616 69.7139 25.099 69.1949C25.2138 68.7557 25.4488 68.6839 25.7798 68.2518L25.7447 68.0262C25.3526 67.894 25.3733 68.2419 24.8143 68.2378L24.6549 68.0721C24.6 67.5227 24.8252 67.6475 24.8505 67.2461C24.871 66.9209 24.4524 67.3085 24.2259 66.6546C24.0727 66.2127 24.145 65.3702 23.9857 65.2082C23.3358 65.6247 23.8947 67.0536 23.2172 67.2476L22.8712 67.0128L22.7427 67.0519C22.5977 67.4745 22.8793 67.1512 22.9556 67.8403C22.7874 68.2945 22.552 68.3536 22.1751 68.6182C22.0456 68.6724 21.8976 68.7252 21.7841 68.8041L21.5921 68.7987L21.5285 68.9351C21.8313 69.4342 22.078 69.4124 22.1757 69.7859C22.0606 69.9663 22.0003 69.9776 21.8037 70.0824L21.8371 70.1868C22.1143 70.2662 22.5424 70.3449 22.704 70.5497L22.6031 70.6868C22.0915 70.7521 21.0089 70.6429 20.7461 70.7801L20.7489 70.9293L21.1336 71.2149C21.0891 71.4929 20.9958 71.4852 20.7282 71.7117C21.1367 72.2321 22.3314 71.8352 22.3266 72.4287C21.6956 72.9509 20.3306 72.3986 20.0753 72.8018C19.8422 72.7888 19.8332 72.778 19.6241 72.6631C19.6191 72.4799 19.7549 71.8106 19.7033 71.6878C19.563 71.3532 18.4429 71.4264 18.1363 70.9582C18.3489 70.6247 18.6028 70.8372 19.0104 70.4453C18.9608 69.9839 18.6162 70.1414 18.4987 69.6859C18.7515 69.3347 19.0843 69.4639 19.4937 69.1601L19.5045 68.9535C19.0089 68.6927 18.0643 68.8762 17.5975 68.6085C17.7822 68.2637 18.3266 68.33 18.913 67.5584L18.8594 67.4244C18.3904 67.4068 17.3553 67.4285 17.1333 66.9953C17.4853 66.5992 18.4927 67.0937 18.3411 65.7205C18.106 65.5775 18.1136 65.6406 17.7763 65.72L17.6778 65.4107C17.5213 64.8824 17.5006 64.9858 16.9877 64.6514C16.9247 64.1976 17.5151 64.1294 17.5352 63.3226Z" fill="#ACBF89"/>
<path d="M29.8889 68.4276C30.0744 69.103 30.2872 69.9571 30.775 70.4795L30.7458 70.6104L30.5609 70.7043C30.3583 70.4935 30.5773 70.4318 30.0978 70.357C29.783 70.504 29.6996 70.5484 29.3518 70.5745L29.2781 70.5795C29.6839 69.822 29.7261 69.278 29.8889 68.4276Z" fill="#526549"/>
<path d="M36.4301 68.4494C37.0673 68.8648 37.2521 69.0366 37.7347 69.5891L37.717 69.8487L37.3595 69.989C37.0077 69.448 36.736 69.0167 36.4301 68.4494Z" fill="#354433"/>
<path d="M30.5709 71.1867C30.9028 70.9425 30.8728 70.8866 31.2294 70.8459L31.2902 70.9925C31.1569 71.2932 31.032 71.3604 30.7763 71.5546C30.6711 71.4378 30.6349 71.3294 30.5709 71.1867Z" fill="#354433"/>
<path d="M13.2817 62.1884C13.3525 62.4901 13.3252 62.5597 13.196 62.8392L13.2653 63.0282C13.6031 63.1336 13.683 63.0964 13.884 63.3322C13.8372 63.6475 13.6886 63.741 13.4572 63.9538L13.601 64.1569L13.7738 64.1843C13.9361 63.9937 13.942 63.9553 13.9993 63.71C14.2504 63.7062 14.4126 63.7952 14.6475 63.8886L14.747 63.7707C14.613 63.5868 14.5688 63.5763 14.3674 63.4577C14.5942 63.2858 14.4836 63.3683 14.7727 63.3213C14.7846 63.3193 14.8389 63.1274 14.9327 63.0417C14.9961 63.3681 15.1135 63.7836 15.0218 64.09C14.6488 64.2353 14.5845 63.9798 14.1212 64.0305C14.1115 64.4445 14.5551 64.5041 14.9065 65.0409L14.7936 65.1479C14.5785 65.118 14.4504 65.0043 14.267 64.8813L14.1125 65.0016C14.2061 65.6209 14.8862 65.8166 14.9465 66.3031L14.7075 66.4216C14.1199 66.266 14.2109 65.7923 13.723 65.5462C13.3493 65.3577 12.8272 64.9265 12.5402 64.629L12.5604 64.5247L13.3634 64.4168L13.4523 64.2585L13.1913 63.8676C13.3538 63.7078 13.4962 63.5546 13.6497 63.3878L13.5913 63.2515C13.2455 63.1513 12.6798 63.2486 12.3026 63.2886C12.6615 62.9496 13.0567 62.6238 13.2817 62.1884Z" fill="#ACBF89"/>
<path d="M28.0118 72.5938C28.2214 72.848 28.3671 72.9987 28.4935 73.305C28.1926 73.6063 26.6341 73.7299 26.2691 73.4013L26.2833 73.2199C26.754 72.6644 27.065 72.6123 27.7513 72.4067L28.0118 72.5938Z" fill="#C6CEA5"/>
<path d="M20.0753 72.8019L20.0741 73.1493C19.6093 73.6077 18.7519 73.2899 18.3256 72.8885L18.3414 72.7572C18.7136 72.6437 19.2245 72.6665 19.6241 72.6631C19.8332 72.778 19.8422 72.7889 20.0753 72.8019Z" fill="#C6CEA5"/>
<path d="M21.7841 68.8041C21.8976 68.7252 22.0456 68.6724 22.1751 68.6182C22.5077 68.7181 22.8067 68.7668 23.0209 69.0343L23.0286 69.2119C22.5296 69.3684 22.1738 69.1155 21.7841 68.8041Z" fill="#C6CEA5"/>
<path d="M17.7763 65.72C17.4342 65.8922 17.2682 66.0083 16.8865 65.9868L16.799 65.8758C16.9453 65.612 17.3764 65.5146 17.6778 65.4108L17.7763 65.72Z" fill="#C6CEA5"/>
<path d="M19.5464 74.9312C20.0877 74.8923 21.0556 75.0129 21.5432 75.2381L21.5142 75.3825L21.2745 75.4467C20.7442 75.5595 19.6325 75.7419 19.2362 75.25L19.2776 75.0894L19.5464 74.9312Z" fill="#C6CEA5"/>
<path d="M1.27111 57.5071C1.8128 57.8058 2.07215 57.9752 2.56993 58.3402C2.77548 58.0272 2.76158 55.3797 3.28557 54.9056C3.49159 55.2536 3.4225 55.8385 3.55506 56.1977C3.67332 56.5182 4.04276 57.0719 4.23516 57.3735L5.65121 56.739C5.38725 57.13 4.82183 57.7344 4.76985 58.0747C4.84885 58.2779 4.86628 58.2895 5.01141 58.4568C4.9192 58.7864 4.33906 59.0911 4.02947 59.2896C4.4661 59.2357 5.92559 59.0216 6.26948 59.2065C6.10023 59.7385 4.94529 60.0939 4.70835 60.5334L4.8051 60.69L5.36212 60.6439C5.25235 60.924 5.18581 60.9586 5.2364 61.2235C5.81357 61.4119 6.78454 61.0379 7.14915 61.2523C6.87771 61.7097 5.76956 62.1255 5.25235 62.3809C5.73716 62.4072 6.38131 62.3865 6.76982 62.6713L6.76584 63.034C6.39163 63.329 5.99676 63.2125 5.70704 63.5326C6.03958 64.0792 8.74279 64.6278 8.88501 63.1829C9.00038 63.5832 9.04728 63.5283 8.95973 63.8843C8.6061 64.0512 8.50143 64.0126 8.37766 64.2944C8.6312 64.4538 8.88406 64.57 8.98062 64.8518C8.84018 65.2946 8.22415 65.2631 7.80461 65.3416C8.17828 65.5838 8.20647 65.5107 8.30427 65.8437L8.16313 66.4359C8.24432 66.6539 8.25782 66.6717 8.27152 66.9027C8.30878 67.5311 8.67573 67.3842 8.42186 67.9069C7.58946 67.7316 6.69984 66.6848 6.12234 66.7475C5.6875 67.2945 7.22429 69.3085 7.56847 69.8357C7.11743 69.9626 6.26064 70.1226 5.99261 70.4265C6.05802 71.1436 7.89568 71.2595 8.1771 72.0377L8.12315 72.2184C7.60895 72.4775 6.2078 71.904 5.61862 71.7402C4.71923 71.4902 4.81903 71.0954 3.75541 71.305L3.61318 71.4388C3.76902 72.2137 4.43435 71.8872 4.11315 72.9362C4.50889 73.6142 4.94117 73.0471 5.42119 73.4445L5.45476 73.6219C5.1936 73.9679 5.07098 73.9914 5.10416 74.315C5.57288 74.7146 6.15375 74.137 6.73209 74.9259C6.69179 75.9563 3.38532 75.5887 2.68743 75.511L2.20062 75.4542C2.70846 76.2386 2.82705 76.7611 3.14539 77.6069C3.15378 77.6292 3.60279 77.7527 3.67188 77.7677C3.79796 77.7945 3.92434 77.8201 4.05098 77.8442C4.16776 78.3742 3.9186 78.3022 4.17021 78.7511C4.94879 79.0423 5.89351 77.7236 6.45271 78.6701C6.49904 79.0839 6.37055 79.3205 6.11166 79.635C5.04615 80.929 2.75471 80.8093 1.25747 80.9062C1.64078 81.2651 2.30257 81.8409 2.56355 82.2508L4.26537 82.5814C2.58137 84.4633 1.90194 83.9729 0.0614491 85.0553C3.37381 86.2948 2.4075 85.7998 5.5111 85.842C4.27585 87.9703 2.16197 88.1633 0 87.5012V65.3059V63.4169V62.2937V59.8797L0.310855 60.0499C1.06971 60.3403 1.58146 60.6334 2.37355 60.5257L2.43891 60.425C2.06268 59.9445 1.41437 59.7997 1.44036 59.4791C2.23645 59.0003 1.60864 58.2026 1.27111 57.5071Z" fill="#50614A"/>
<path d="M6.76982 62.6713L6.76584 63.034C6.39163 63.329 5.99675 63.2125 5.70704 63.5326C6.03958 64.0792 8.74279 64.6278 8.88501 63.1829C9.00038 63.5832 9.04727 63.5283 8.95972 63.8842C8.6061 64.0511 8.50142 64.0126 8.37765 64.2943C8.6312 64.4538 8.88406 64.57 8.98061 64.8517C8.84017 65.2946 8.22415 65.2631 7.80461 65.3416C8.17828 65.5838 8.20646 65.5106 8.30426 65.8436L8.16312 66.4358C7.58361 66.438 5.85209 66.1171 5.71888 65.4505C6.28229 65.2831 6.87468 65.8218 7.33139 65.4036C7.51964 64.8773 7.68566 64.6403 7.97923 64.1759C7.1985 64.2538 5.93078 64.3254 5.444 63.55C5.52471 62.9198 6.12841 63.3389 6.76982 62.6713Z" fill="#ACBF89"/>
<path d="M0 59.8797L0.310855 60.0499C0.0386148 60.9911 1.32158 61.7788 1.93141 62.2885C1.32038 62.302 0.59768 62.3367 0 62.2937V59.8797Z" fill="#ACBF89"/>
<path d="M0 63.4169C0.452738 63.8871 0.384267 64.1647 0.752177 64.1961C1.066 64.0433 1.2657 63.8629 1.52125 63.9464C1.60141 64.2595 1.57351 64.3356 1.50914 64.6394C1.22283 64.9319 0.399415 65.1858 0 65.3058V63.4169Z" fill="#ACBF89"/>
<path d="M38.1364 67.1814C38.2229 66.7013 38.1727 66.2143 38.6714 66.1227C38.6643 66.5037 38.6412 66.9572 38.6889 67.329C39.5179 67.3121 39.8231 67.6827 40.4173 67.8007C40.3228 67.9146 40.2636 67.9631 40.2091 68.0976L40.1849 68.1803C39.9472 68.9737 39.3816 69.3274 39.3221 69.8399C39.658 70.3873 40.5956 69.9662 41.2294 70.2035L41.2913 70.3448C40.967 70.7737 40.1304 70.8002 39.7886 71.2185C39.8975 71.5225 39.9381 71.4186 40.1818 71.6328C40.183 71.6338 40.3708 72.0421 40.381 72.063C40.5032 72.1233 40.6036 72.1728 40.682 72.2115C40.7088 72.3786 40.7083 72.4917 40.8127 72.6235L40.6774 72.808C40.9037 73.2354 41.1027 73.0222 41.2609 73.4427C40.9243 73.9377 40.3567 73.7423 40.1479 74.0448C40.7695 74.8294 42.1158 74.7112 42.9798 74.6797C42.6115 75.0987 42.4179 75.3133 42.1183 75.7962C41.7065 75.7896 41.1653 75.7317 40.8185 75.9197L40.7751 76.0848C41.1623 76.5248 42.647 76.9476 43.2269 77.0483C43.1698 77.7539 43.2653 77.4224 42.8529 77.8768C42.706 78.0386 42.9311 78.541 42.6897 78.9L42.4944 79.0374C41.763 78.8358 41.6295 78.3601 41.0596 78.5992C40.8339 79.22 41.7823 80.0681 42.1563 80.7327C41.68 80.9123 41.2209 81.0829 40.7536 81.288C41.3568 81.5782 42.2531 81.9349 42.5615 82.5509C42.0381 82.8405 40.1107 81.7007 39.5082 82.0421C39.4501 82.7874 41.0603 84.3244 41.6699 84.7616C40.2312 85.1643 39.8093 85.0745 38.3354 84.8317C38.4902 85.3386 38.6596 85.9475 38.8313 86.4397C39.0383 86.5589 39.4999 86.829 39.5989 87.0205C39.9892 87.7755 40.5925 86.931 41.2017 87.1432C41.4867 87.5953 41.071 88.1771 40.6633 88.3934C39.7955 88.8538 38.5933 88.8513 37.6367 88.764C38.448 89.8913 38.4755 89.9012 39.8665 89.9646C39.5495 90.2903 39.3887 90.4617 39.0063 90.7168C38.3654 91.1443 37.2723 91.2897 36.9733 91.9699C37.1814 92.3343 37.5144 92.3661 37.9513 92.4977C37.8765 92.5608 37.6488 92.7627 37.5748 92.7998C35.0302 92.7456 35.1766 93.6251 32.4421 91.8772C33.2128 91.8563 35.3337 92.0775 35.6918 91.8551C35.6987 91.4144 35.3702 91.3682 35.2542 90.8128C35.5605 90.4045 35.9068 90.9 36.1418 90.2858C35.8449 89.8069 34.9249 89.893 34.3873 89.6978C33.3328 89.3152 32.9102 88.7855 32.2773 87.9204C32.7479 87.9458 33.2189 87.9647 33.6901 87.9771C34.0058 87.9826 34.3235 87.9968 34.5454 87.7838C34.4208 87.5175 34.3355 87.3871 34.3506 87.0874C34.5462 86.8234 34.8278 86.7659 35.1421 86.6578C35.2228 86.2316 35.3413 85.9033 35.4789 85.496C34.6842 85.6317 32.0494 86.0151 31.7443 84.9216L31.9257 84.7923C32.1964 84.8865 32.2988 84.9871 32.5235 85.1594C32.9766 85.0899 33.447 84.21 33.9927 84.0656C34.0866 84.0407 34.5062 83.8387 34.6272 83.7831L34.6683 83.6639C34.0977 83.3695 31.7883 83.4209 31.52 82.8922C32.1478 82.6105 32.7906 82.8971 33.1619 82.5002C33.1135 82.2316 33.0188 82.0657 32.902 81.8236C33.0774 81.3225 33.8499 81.432 33.9604 80.6725L33.8347 80.5797C33.4635 80.8348 30.8698 81.1356 30.1798 81.239C30.5684 80.9038 32.2452 79.9577 32.2549 79.944C31.9628 79.6456 31.3806 79.7678 30.9111 79.4798C30.633 78.8143 31.3038 78.1914 31.8722 77.9566C32.4267 78.4587 32.8993 78.353 33.5958 78.2471C33.653 78.0862 33.7791 78.06 33.9602 77.954C34.3457 77.7119 35.5083 77.0351 35.6968 76.6929C35.4617 76.2994 35.0789 76.6419 34.6102 76.0232C34.7784 75.7957 37.2489 75.7246 36.7882 74.5937C36.3339 74.3809 36.3685 74.4856 35.8072 74.5115C35.2727 74.2733 35.0723 73.6674 34.8327 73.1403C35.328 73.1747 36.6511 73.301 36.9759 72.9387C36.7057 72.6154 36.7102 72.7872 36.2142 72.572C36.2311 71.6561 35.8997 71.8796 35.6267 71.2148L35.7268 71.0917C36.1071 71.0561 37.4576 71.4132 37.9397 71.5148C37.6188 71.2729 36.9239 70.8142 36.8716 70.4592L37.3175 70.2136L37.3595 69.989L37.717 69.8487L37.7347 69.5892C37.9607 69.2534 38.0839 67.6434 38.1364 67.1814Z" fill="#50614A"/>
<path d="M33.5958 78.247C33.653 78.0862 33.7791 78.0599 33.9602 77.954L34.0431 78.0012C34.9856 78.5316 35.8295 78.0176 36.1272 78.5352C35.8698 79.0196 34.4059 79.5861 33.8185 79.4434L33.636 79.2714C33.6913 78.7203 33.9673 78.9901 33.956 78.4317C33.8005 78.2961 33.7919 78.275 33.5958 78.247Z" fill="#ACBF89"/>
<path d="M38.6889 67.329C39.5179 67.3121 39.8231 67.6827 40.4173 67.8007C40.3229 67.9146 40.2636 67.9631 40.2091 68.0976C39.8949 68.2387 39.641 68.4006 39.3148 68.3153C39.0162 68.1497 38.8438 67.6593 38.6889 67.329Z" fill="#C6CEA5"/>
<path d="M35.5002 80.5545C35.579 80.5431 35.7026 80.5559 35.7867 80.5603L35.7832 80.7001C35.4299 81.0102 35.1101 81.2597 34.7395 81.5449C34.5833 81.5054 34.5077 81.4396 34.3672 81.3533L34.3399 81.1739C34.5608 80.901 35.1484 80.7089 35.5002 80.5545Z" fill="#8CA47D"/>
<path d="M70.0476 82.1148C70.9662 82.1555 72.2019 81.9895 73.3294 82.0337C72.9328 82.3353 72.9577 82.3073 73.0792 82.8629C72.8967 83.2787 72.7947 83.2118 72.3565 83.211L72.298 83.3579L72.5821 83.6845L72.5568 83.8857C72.3614 84.0002 72.2428 84.0549 72.0344 84.1441L72.0427 84.2782C72.4046 84.4893 72.7785 84.6455 72.9937 84.9901L72.9674 85.1347L72.8183 85.1888C72.6938 85.1304 72.5916 85.1008 72.5149 84.99C71.1149 84.1521 70.1 85.0427 69.4304 84.5867C69.4276 84.0214 70.2301 83.5293 70.6787 83.3211C70.6747 82.7799 69.8105 83.2596 70.0476 82.1148Z" fill="#8CA47D"/>
<path d="M0 90.392C1.27078 90.5328 0.766755 91.5006 1.23927 91.4939C2.07735 91.482 3.17721 90.8136 4.0305 90.7907L4.09846 90.8668C3.35075 92.2721 1.49489 92.9413 0 93.0943V90.392Z" fill="#50614A"/>
<path d="M37.9513 92.4978C38.7557 92.4551 39.7693 92.374 40.5589 92.3906C39.2296 93.8568 38.631 94.1667 36.6739 94.514C37.2961 93.8458 37.3393 93.7065 37.5748 92.7998C37.6488 92.7627 37.8765 92.5609 37.9513 92.4978Z" fill="#526549"/>
<path d="M34.0659 95.9139C34.5371 95.8762 36.9493 95.9899 37.2736 96.4501C37.8622 97.2851 38.8911 96.1066 39.4826 96.2751L39.4583 96.4667L38.2239 97.4082C36.895 97.0044 34.8614 97.0957 34.0659 95.9139Z" fill="#50614A"/>
<path d="M0 0H160.938V10.6003C160.374 11.1536 160.756 13.1424 160.612 14.1003C158.968 14.1676 157.272 14.3948 155.574 14.3838C154.028 14.3738 152.519 14.233 150.995 14.2178C150.004 14.2079 148.922 14.3611 147.849 14.3665L100.047 14.321C99.8506 14.3188 99.6699 14.2092 99.5 14.1207L99.4619 14.1005C98.8145 14.5957 97.5677 14.0927 96.7489 14.2212C92.5219 14.8849 88.4598 14.3158 84.2374 14.2331C83.9792 14.228 82.9521 14.6691 82.7827 14.6235C82.2285 14.4744 81.5332 13.9587 80.9278 13.9973C78.0166 13.9894 75.133 13.9888 72.2212 13.8988C71.7452 13.8842 70.703 14.1176 70.1648 14.3863C69.2669 14.8349 69.3076 14.0583 68.8546 14.0335C67.5639 13.9629 65.8033 14.1298 64.5074 14.1579C64.1913 14.1647 63.4229 14.7253 63.2332 14.8475C61.7207 14.9145 60.1293 15.0104 58.8029 14.3229C58.5139 14.5548 58.1038 14.6224 57.7435 14.6343C57.6219 14.4836 57.2791 14.2123 57.0762 14.2152C54.9779 14.2458 52.9043 15.0191 50.8519 15.2382C49.903 15.3395 48.4153 14.8391 47.489 14.6553C46.0031 14.5071 44.1357 14.0042 42.6492 14.0751C41.6284 14.1237 40.8893 14.1426 39.8496 14.1352C34.4839 14.0965 29.1366 14.0651 23.778 14.3156C23.0912 14.3478 22.3609 14.2812 21.6729 14.2728C20.6709 14.2552 19.6673 14.2869 18.6652 14.2778C18.1821 14.271 17.5905 14.049 17.15 14.0554C16.6917 14.062 16.2542 14.3428 15.7352 14.2023C13.5197 14.1938 11.271 14.1893 9.05763 14.2534C6.95525 14.3144 4.88021 14.2651 2.78009 14.3539C2.15279 14.3805 1.41386 14.3657 0.780698 14.341C0.759026 14.3401 0.502052 14.5688 0.455926 14.6098L0.305515 14.5597C0.197797 13.1706 0.306172 10.7361 0.281958 9.22644L0.199885 9.15844L0 9.39111V0Z" fill="#FCCB8F"/>
<path d="M0 16H160.938V26.6003C160.374 27.1536 160.756 29.1424 160.612 30.1003C158.968 30.1676 157.272 30.3948 155.574 30.3838C154.028 30.3738 152.519 30.233 150.995 30.2178C150.004 30.2079 148.922 30.3611 147.849 30.3665L100.047 30.321C99.8506 30.3188 99.6699 30.2092 99.5 30.1207L99.4619 30.1005C98.8145 30.5957 97.5677 30.0927 96.7489 30.2212C92.5219 30.8849 88.4598 30.3158 84.2374 30.2331C83.9792 30.228 82.9521 30.6691 82.7827 30.6235C82.2285 30.4744 81.5332 29.9587 80.9278 29.9973C78.0166 29.9894 75.133 29.9888 72.2212 29.8988C71.7452 29.8842 70.703 30.1176 70.1648 30.3863C69.2669 30.8349 69.3076 30.0583 68.8546 30.0335C67.5639 29.9629 65.8033 30.1298 64.5074 30.1579C64.1913 30.1647 63.4229 30.7253 63.2332 30.8475C61.7207 30.9145 60.1293 31.0104 58.8029 30.3229C58.5139 30.5548 58.1038 30.6224 57.7435 30.6343C57.6219 30.4836 57.2791 30.2123 57.0762 30.2152C54.9779 30.2458 52.9043 31.0191 50.8519 31.2382C49.903 31.3395 48.4153 30.8391 47.489 30.6553C46.0031 30.5071 44.1357 30.0042 42.6492 30.0751C41.6284 30.1237 40.8893 30.1426 39.8496 30.1352C34.4839 30.0965 29.1366 30.0651 23.778 30.3156C23.0912 30.3478 22.3609 30.2812 21.6729 30.2728C20.6709 30.2552 19.6673 30.2869 18.6652 30.2778C18.1821 30.271 17.5905 30.049 17.15 30.0554C16.6917 30.062 16.2542 30.3428 15.7352 30.2023C13.5197 30.1938 11.271 30.1893 9.05763 30.2534C6.95525 30.3144 4.88021 30.2651 2.78009 30.3539C2.15279 30.3805 1.41386 30.3657 0.780698 30.341C0.759026 30.3401 0.502052 30.5688 0.455926 30.6098L0.305515 30.5597C0.197797 29.1706 0.306172 26.7361 0.281958 25.2264L0.199885 25.1584L0 25.3911V16Z" fill="#FAD8A2"/>
<path d="M0 52.987C4.69331 52.6652 9.4027 52.6526 14.0977 52.9491C14.7524 53.0888 15.4068 53.2187 16.0505 53.4026C16.9553 53.617 18.2089 53.9658 19.1108 54.0953C21.2244 54.3991 23.7353 54.1844 25.8763 54.0285C27.7939 53.8888 30.1713 53.2984 32.0783 53.6243C33.9461 53.9435 35.6542 55.7832 37.4499 56.347C39.1921 56.894 41.1635 57.2351 42.9774 57.4908C45.5038 57.8467 47.8213 58.248 50.3243 58.7564C52.7667 59.2525 54.9874 60.5847 57.3942 60.6039C60.3512 60.6276 63.5884 58.2664 66.2521 57.4349C68.8071 56.6373 72.5184 55.9932 75.1702 55.5869C76.462 55.3889 79.3003 56.5637 80.961 56.6436C84.7335 56.8249 88.7061 56.0001 92.3963 57.1167C93.7313 57.4853 95.292 58.1588 96.5121 58.4678C98.8369 59.0567 100.164 59.1211 102.467 59.9826C103.254 60.346 105.187 61.2503 105.982 61.4252C106.923 61.8917 109.987 62.7056 111.083 62.9756C113.301 63.5222 117.115 64.688 119.354 64.8065C122.781 64.9878 126.138 64.6182 129.667 64.837C131.648 64.7093 135.475 65.2648 137.703 65.3661C139.457 65.4313 141.212 65.4425 142.967 65.3998C144.195 65.3677 145.582 65.282 146.791 65.3383C151.345 65.5503 156.09 66.8803 160.528 67.9864C160.654 67.7461 160.64 67.1019 160.651 66.7955L160.717 66.7893L160.938 67.1993V77.1848C159.454 76.9016 156.763 76.1068 155.201 75.7061C153.958 75.7494 152.852 75.4012 151.647 75.3012C149.416 75.1159 147.169 74.7037 144.946 74.5512C142.072 74.354 139.144 74.8517 136.268 74.8796C132.424 74.8763 128.524 74.5711 124.671 74.6726C121.038 74.8018 117.416 75.1482 113.825 75.7098C109.479 76.3697 106.492 77.0609 102.076 77.0643C101.499 77.0235 100.474 77.0855 99.9033 77.0365C97.6826 76.8452 88.2128 75.7042 86.7448 74.5837C86.0779 74.6592 83.6185 74.0415 82.8173 73.9341C81.5378 73.7638 80.1953 73.4876 78.9103 73.3838C74.1076 72.9955 69.275 72.3968 64.475 72.0222L56.8498 71.3619C56.4016 71.3213 55.088 71.292 54.8091 71.1925C54.4007 71.1369 54.0704 71.2163 53.6674 71.2864C52.7513 70.2758 52.7827 69.6869 52.4955 68.3312C52.2856 69.1844 52.3293 70.0252 52.125 70.7703C48.4123 69.9786 43.9886 69.0937 40.4173 67.8007C39.8231 67.6827 39.5179 67.3121 38.6889 67.329C38.6412 66.9573 38.6643 66.5037 38.6714 66.1228C38.1727 66.2144 38.2229 66.7013 38.1364 67.1815C37.0521 66.8738 34.5942 66.3665 33.4776 66.1677C33.1394 66.1478 32.4163 65.9528 32.063 65.866C27.1595 64.6613 22.6035 63.606 17.5352 63.3227C17.2326 63.4399 17.1077 63.6583 16.8687 63.6512L16.9529 63.1813L16.8866 63.1498C15.6506 62.5422 16.1399 61.5624 15.8635 60.2524C15.6389 61.1312 15.7436 62.666 15.3728 63.0621L14.9327 63.0417C14.8389 63.1275 14.7846 63.3194 14.7727 63.3213C14.4836 63.3684 14.5942 63.2859 14.3674 63.4578C14.5687 63.5764 14.613 63.5869 14.747 63.7707L14.6475 63.8887C14.4126 63.7952 14.2504 63.7063 13.9993 63.7101C13.942 63.9554 13.9361 63.9938 13.7738 64.1843L13.601 64.157L13.4572 63.9538C13.6886 63.7411 13.8372 63.6476 13.884 63.3323C13.683 63.0964 13.6031 63.1336 13.2653 63.0283L13.196 62.8393C13.3252 62.5598 13.3525 62.4902 13.2817 62.1884C12.9505 62.1481 12.4733 62.1307 12.2207 61.9492C12.6584 61.5604 13.0666 61.3772 13.0588 60.7558C12.5621 60.5845 12.2304 61.3158 11.8156 60.7861C11.9102 60.4411 12.0048 60.7232 12.4365 60.4537C12.3972 60.1231 12.2342 60.3377 11.8256 60.0045C11.9572 59.5381 12.2132 59.9451 12.4637 59.4233C12.0405 58.9664 11.805 59.7162 11.4163 58.405C11.1798 57.6076 11.1953 57.1008 11.0898 56.2974C10.7871 57.1535 10.9844 57.709 10.3457 58.2343C10.2601 58.3047 10.2389 58.351 10.2105 58.4586L10.4673 58.7599L10.4274 58.9372C10.2241 59.0005 10.1963 59.003 9.98018 59.0164L9.9249 59.0195L9.86592 59.1802C10.0287 59.3487 10.0543 59.3648 10.154 59.5726C9.93525 59.8923 9.83975 59.6386 9.51917 59.9085C9.614 60.2317 10.0972 60.5813 10.3822 60.8452L10.3648 60.9703C10.0793 61.0734 9.49595 60.998 9.16844 60.9751L9.07639 61.1153L9.18479 61.4776C9.18178 61.9313 9.18273 62.8089 8.76741 63.0749L8.88501 63.1829C8.74279 64.6279 6.03958 64.0792 5.70704 63.5326C5.99676 63.2125 6.39163 63.329 6.76584 63.034L6.76982 62.6713C6.38131 62.3866 5.73716 62.4073 5.25235 62.3809C5.76956 62.1255 6.8777 61.7097 7.14915 61.2523C6.78454 61.0379 5.81357 61.4119 5.2364 61.2235C5.18581 60.9586 5.25235 60.9241 5.36212 60.6439L4.8051 60.69L4.70835 60.5334C4.94529 60.0939 6.10023 59.7385 6.26948 59.2065C5.92559 59.0216 4.4661 59.2357 4.02947 59.2896C4.33906 59.0911 4.9192 58.7865 5.01141 58.4568C4.86628 58.2895 4.84885 58.278 4.76985 58.0747C4.82183 57.7344 5.38725 57.13 5.65121 56.739L4.23516 57.3735C4.04276 57.0719 3.67332 56.5182 3.55506 56.1977C3.4225 55.8385 3.49159 55.2536 3.28557 54.9056C2.76158 55.3797 2.77548 58.0272 2.56993 58.3403C2.07215 57.9752 1.8128 57.8058 1.27111 57.5072C1.60864 58.2026 2.23645 59.0003 1.44036 59.4791C1.41437 59.7997 2.06268 59.9446 2.43891 60.425L2.37354 60.5257C1.58146 60.6334 1.06971 60.3403 0.310855 60.0499L0 59.8797L0 52.987Z" fill="#BAC99B"/>
<path d="M129.667 64.837C131.648 64.7093 135.475 65.2648 137.703 65.366C139.457 65.4313 141.212 65.4425 142.967 65.3998C144.195 65.3677 145.582 65.2819 146.791 65.3383C151.345 65.5503 156.09 66.8803 160.528 67.9863C160.654 67.7461 160.64 67.1019 160.651 66.7955L160.717 66.7893L160.937 67.1993V77.1848C159.454 76.9016 156.763 76.1067 155.201 75.7061C153.958 75.7493 152.852 75.4012 151.647 75.3012C149.416 75.1158 147.169 74.7037 144.946 74.5512C142.072 74.354 139.144 74.8517 136.268 74.8796C132.424 74.8763 128.524 74.5711 124.671 74.6726C121.038 74.8018 117.416 75.1482 113.825 75.7098C109.479 76.3696 106.492 77.0608 102.076 77.0643C101.499 77.0234 100.474 77.0855 99.9033 77.0364C97.6826 76.8451 88.2128 75.7042 86.7448 74.5837C86.0779 74.6592 83.6184 74.0415 82.8173 73.9341C81.5378 73.7638 80.1953 73.4876 78.9102 73.3838C74.1076 72.9955 69.275 72.3968 64.475 72.0222L56.8498 71.3618C56.4015 71.3213 55.088 71.292 54.8091 71.1925C54.4007 71.1369 54.0704 71.2163 53.6674 71.2863C52.7513 70.2758 52.7827 69.6868 52.4955 68.3312C52.2856 69.1844 52.3293 70.0252 52.125 70.7703C48.4123 69.9786 43.9886 69.0937 40.4173 67.8007C39.8231 67.6827 39.5179 67.3121 38.6889 67.329C38.6412 66.9572 38.6642 66.5037 38.6714 66.1228L38.72 65.9997C38.7772 66.1106 38.8373 66.1654 38.9206 66.2559C41.2976 66.3487 44.5478 66.0629 47.0859 66.1167C65.4501 66.381 83.8167 66.4287 102.182 66.2598C103.546 66.2541 104.918 66.1733 106.267 66.17L130.126 66.1614C132.427 66.1578 134.678 66.2358 136.971 66.2509C138.389 66.28 139.952 65.9653 141.35 65.9826C144.175 66.0177 147.123 66.1387 149.945 65.8676L149.707 65.8671L149.753 65.7962C146.58 65.3366 143.545 65.6281 140.363 65.6359C137.561 65.6426 134.772 65.3044 131.98 65.112C131.214 65.0592 130.455 65.0743 129.713 64.8513L129.667 64.837Z" fill="#EAEAD9"/>
<path d="M86.7448 74.5837C87.4535 74.4011 88.1942 74.2622 88.9455 74.0828C92.3874 73.2608 95.7855 71.484 99.2363 70.8392C101.376 70.4395 103.63 70.4765 105.779 70.1121C107.586 69.9136 109.647 69.18 111.438 69.4172C113.623 69.7064 115.895 70.9044 118.161 70.8043C121.797 70.6437 125.379 69.7336 129.046 69.7035C136.156 69.5629 142.778 71.4112 149.41 73.7414C151.138 74.3484 153.63 74.7881 155.201 75.706C153.958 75.7493 152.852 75.4011 151.647 75.3011C149.416 75.1158 147.169 74.7037 144.946 74.5511C142.072 74.354 139.144 74.8516 136.268 74.8796C132.424 74.8762 128.524 74.5711 124.671 74.6725C121.038 74.8017 117.416 75.1481 113.825 75.7097C109.479 76.3696 106.492 77.0608 102.076 77.0642C101.499 77.0234 100.474 77.0854 99.9033 77.0364C97.6826 76.8451 88.2128 75.7042 86.7448 74.5837Z" fill="#C6CEA5"/>
<path d="M33.4776 66.1677C34.201 65.9027 35.0887 66.5273 35.8564 66.452C36.5166 66.3872 38.1409 65.6788 38.72 65.9997L38.6714 66.1227C38.1726 66.2144 38.2229 66.7013 38.1364 67.1814C37.0521 66.8737 34.5942 66.3665 33.4776 66.1677Z" fill="#F0E2C3"/>
<path d="M92.3963 57.1167C93.4222 56.1139 98.9287 54.919 100.557 54.4252C102.76 53.757 104.781 52.5077 106.947 51.8933C108.514 51.4488 110.508 51.1598 112.137 50.763C113.794 50.3554 115.434 49.8851 117.1 49.5163C118.256 49.2604 119.877 49.8852 120.92 49.7325C122.148 50.0384 123.725 50.5968 124.92 50.7286C126.438 50.8963 128.312 50.7317 129.847 50.822C132.364 50.9701 135.385 51.5652 137.791 52.3308C139.093 52.7455 139.47 52.8189 140.843 52.6969C140.863 52.6997 140.884 52.7025 140.903 52.7053C145.029 53.8434 149.082 54.5065 153.37 54.6333C155.638 54.7003 158.747 54.6167 160.938 55.1541V67.1993L160.717 66.7892L160.651 66.7955C160.64 67.1018 160.654 67.7461 160.528 67.9863C156.09 66.8802 151.345 65.5503 146.791 65.3383C145.582 65.2819 144.195 65.3676 142.967 65.3998C141.212 65.4425 139.457 65.4312 137.703 65.366C135.475 65.2647 131.648 64.7093 129.667 64.837C126.138 64.6181 122.781 64.9878 119.355 64.8064C117.115 64.688 113.301 63.5221 111.083 62.9756C109.987 62.7055 106.923 61.8917 105.982 61.4252C105.187 61.2503 103.254 60.346 102.467 59.9825C100.164 59.1211 98.8369 59.0566 96.5121 58.4678C95.292 58.1588 93.7313 57.4852 92.3963 57.1167Z" fill="#C9D5B4"/>
<path d="M102.467 59.9825L102.576 59.8663C103.925 60.5985 103.668 60.1834 105.078 60.4732C105.592 60.5787 105.396 61.1121 105.981 61.3026L105.982 61.4252C105.187 61.2503 103.254 60.346 102.467 59.9825Z" fill="#F0E2C3"/>
<path d="M82.4179 51.029C85.6704 51.7671 89.6847 50.1317 92.4848 48.7144C95.2607 47.3094 96.292 48.4189 99.0332 48.5008C100.171 48.5383 101.45 47.9965 102.535 47.925C104.994 47.7631 108.189 46.9478 110.58 47.2501C112.629 47.5091 114.791 48.7147 116.762 49.1842C118.192 49.5252 119.436 49.1699 120.92 49.7325C119.877 49.8852 118.256 49.2604 117.1 49.5163C115.434 49.8851 113.794 50.3554 112.137 50.763C110.508 51.1598 108.514 51.4488 106.947 51.8933C104.781 52.5077 102.76 53.757 100.557 54.4252C98.9287 54.919 93.4222 56.1139 92.3963 57.1167C88.706 56.0001 84.7335 56.8249 80.961 56.6435C79.3003 56.5636 76.462 55.3888 75.1702 55.5868C72.5183 55.9931 68.8071 56.6373 66.2521 57.4348C63.5884 58.2664 60.3512 60.6275 57.3942 60.6039C54.9874 60.5846 52.7667 59.2524 50.3243 58.7563C47.8213 58.2479 45.5038 57.8467 42.9774 57.4907C41.1635 57.235 39.1921 56.8939 37.4499 56.3469C35.6542 55.7832 33.9461 53.9434 32.0783 53.6243C30.1713 53.2983 27.7939 53.8887 25.8763 54.0284C23.7352 54.1843 21.2244 54.399 19.1108 54.0953C18.2089 53.9657 16.9553 53.617 16.0505 53.4025C16.2041 53.3761 16.8802 53.0575 17.0986 52.9702C19.8763 51.8598 21.6782 51.933 24.5464 52.6734C26.3467 52.1996 28.4968 50.8991 30.2307 50.7288C34.2133 50.3377 38.2175 51.3203 42.0685 52.1855C43.3492 52.5737 45.1355 51.4696 46.2781 51.6605C48.0192 51.9513 49.6371 52.1713 51.4198 52.2086C52.1807 52.2245 53.3093 52.6406 54.0614 52.6441C55.8077 52.6522 57.4648 52.3948 59.2237 52.616C59.8445 52.6145 60.7312 52.3108 61.3215 52.2769C64.2708 52.1075 66.5603 51.0279 69.3185 50.0558C72.8234 49.2482 75.9565 50.205 79.4678 50.5939C80.1905 50.674 81.7681 50.8504 82.4179 51.029Z" fill="#A9B692"/>
<path d="M69.3186 50.0559C67.4063 46.9707 69.1345 42.5259 72.0748 40.7361C73.8123 39.6856 75.895 39.3659 77.8676 39.8471C79.8012 40.3187 81.4674 41.5409 82.4979 43.2438C83.5847 45.0721 83.6961 46.8801 83.3056 48.989C83.2016 49.5503 82.6132 50.4389 82.4179 51.029C81.7681 50.8504 80.1905 50.6741 79.4678 50.594C75.9565 50.2051 72.8234 49.2483 69.3186 50.0559Z" fill="#F5BF79"/>
<path d="M141.469 22.2381C141.16 22.1176 140.054 22.1403 139.665 22.1067C138.087 21.9707 132.973 21.9674 131.894 21.4078L131.931 21.2985C133.907 20.6052 158.54 19.9599 159.362 20.5082C159.136 21.1966 158.19 20.6318 157.562 21.238C157.91 21.4856 160.255 21.4168 160.938 21.4719V24.0256C156.154 23.9657 151.346 24.4995 146.593 24.526C136.688 24.581 126.381 25.0046 116.537 24.075C118.881 23.4253 122.825 23.5327 125.335 23.4203C130.315 23.1571 135.298 22.936 140.282 22.7566C140.23 22.6786 140.253 22.6953 140.244 22.5784C140.727 22.4519 141.246 22.6447 141.543 22.4778L140.757 22.3026L140.836 22.2516C141.07 22.2644 141.237 22.2519 141.469 22.2381Z" fill="#F0E2C3"/>
<path d="M140.282 22.7566C140.23 22.6786 140.253 22.6953 140.244 22.5784C140.727 22.4519 141.246 22.6447 141.543 22.4778L140.757 22.3026L140.836 22.2516C141.07 22.2644 141.237 22.2519 141.469 22.2381C142.06 22.2611 144.868 22.3786 145.275 22.5007C143.711 22.656 141.857 22.7824 140.282 22.7566Z" fill="#FCCB8F"/>
<path d="M160.938 45.0552V55.1541C158.747 54.6167 155.638 54.7003 153.37 54.6333C149.082 54.5065 145.029 53.8435 140.903 52.7054C140.884 52.7025 140.863 52.6997 140.843 52.6969C142.473 52.3274 144.432 51.2716 146.038 50.7147C148.462 49.9909 150.824 48.7669 153.109 47.8482C154.832 47.1556 159.289 45.182 160.938 45.0552Z" fill="#F0E2C3"/>
<path d="M0 50.8005C2.85952 51.3738 3.14365 50.7323 5.85169 50.7127C6.6948 50.7067 8.08236 51.7829 8.9354 52.0038C10.0417 52.2903 11.2831 51.9044 12.4368 52.1124C13.3387 52.275 13.4379 52.7527 14.0977 52.9491C9.4027 52.6526 4.69331 52.6652 0 52.987L0 50.8005Z" fill="#F0E2C3"/>
<path d="M55.367 15.7096C57.6708 15.5861 60.1088 15.3187 62.3757 15.2382C66.2954 15.0988 70.3728 15.523 74.2891 15.7203C75.742 15.7935 83.1733 15.5213 84.0935 15.9087L84.1142 16.0584L83.9991 16.1642C84.0928 16.8343 82.8831 16.8508 82.4036 16.8903C82.3279 16.8965 82.252 16.902 82.1763 16.9071C82.9018 17.0706 84.4726 17.0509 85.2852 17.1172C88.5691 17.3851 93.116 17.0675 96.2352 17.7469C93.3546 18.1633 88.6486 17.981 85.6597 18.06C82.7247 18.0522 79.7891 18.229 76.855 18.1333C75.4007 18.0858 73.8092 17.5175 72.369 17.5853C65.6973 17.8998 59.0243 18.0103 52.3443 17.9018C50.3022 17.8686 46.8419 18.0028 44.9601 17.421C48.1963 16.9555 52.0423 17.2691 55.2635 16.9403C54.7449 16.483 54.5383 16.7682 54.1751 16.5145C54.4741 16.2999 54.5642 16.2981 54.9221 16.2334C54.6563 16.1533 54.4533 16.127 54.2809 15.9206L54.4627 15.7733L55.367 15.7096Z" fill="#F0E2C3"/>
<path d="M54.9221 16.2334C55.4694 16.2326 56.0801 16.2706 56.6278 16.3169C58.6792 16.4902 60.8331 16.407 62.8701 16.649C60.4783 16.9097 57.7089 16.7685 55.2635 16.9403C54.7449 16.483 54.5383 16.7682 54.1751 16.5146C54.4741 16.2999 54.5641 16.2982 54.9221 16.2334Z" fill="#FCCB8F"/>
<path d="M79.9331 16.6329C81.1951 16.38 82.6533 16.406 83.9991 16.1642C84.0928 16.8343 82.8831 16.8508 82.4036 16.8903C82.3279 16.8965 82.252 16.902 82.1763 16.9071C81.3671 16.8916 80.7322 16.7685 79.9331 16.6329Z" fill="#FCCB8F"/>
<path d="M85.2181 46.5069C86.5995 46.4652 97.2898 46.8906 97.9971 47.2012C97.7344 47.2219 96.4685 47.2788 96.306 47.2523C95.0949 47.0549 85.6354 47.4413 85.2009 47.1353C85.1031 46.7753 85.1262 46.8912 85.2181 46.5069Z" fill="#FCCB8F"/>
<path d="M87.1119 28.9096L87.1478 29.0293C86.8441 29.7023 86.5115 30.2562 86.1225 30.8817C84.4053 33.6437 82.8229 36.4903 81.2254 39.3219C81.1527 39.4506 80.9835 39.5534 80.8552 39.617C80.7864 39.5299 80.7262 39.4463 80.7003 39.3358C80.5624 38.7496 86.425 29.9418 87.1119 28.9096Z" fill="#FCCB8F"/>
<path d="M64.6033 46.5374C65.1525 46.5227 66.7175 46.3281 66.9562 46.8802C66.9093 46.9435 66.9042 46.9589 66.8494 47.006C66.3283 47.4542 58.3356 47.203 57.1525 47.1471C58.4519 46.9874 60.6134 47.0615 61.9629 47.0703L62.8262 47.055C62.5752 46.9991 61.7996 46.7915 61.5924 46.7751C60.2065 46.6657 57.2177 47.1532 55.9731 46.9474C56.5641 46.7028 63.2977 46.571 64.6033 46.5374Z" fill="#FCCB8F"/>
<path d="M97.3126 39.6797L97.4176 39.7454C97.4975 39.6693 85.5975 44.0576 84.7904 44.4169C84.634 44.2432 84.6324 44.2365 84.6108 44.0093C84.9558 43.4927 95.9834 40.1095 97.3126 39.6797Z" fill="#FCCB8F"/>
<path d="M92.801 33.5817L92.9123 33.6592C92.7812 33.978 84.1138 41.0224 83.4002 41.5153C83.2839 41.4355 83.2798 41.3939 83.2174 41.2668C83.5639 40.4749 91.5411 34.7506 92.801 33.5817Z" fill="#FCCB8F"/>
<path d="M65.4842 29.7645C65.968 30.1163 71.4175 38.8745 71.5879 39.5025C71.4875 39.4996 71.1521 39.4784 71.1195 39.4328C70.1796 38.1164 65.8111 30.674 65.4842 29.7645Z" fill="#FCCB8F"/>
<path d="M59.4229 33.6426C59.4508 33.6517 59.4787 33.6608 59.5066 33.6699C60.7658 35.0262 68.5459 40.3389 68.8751 41.4483C68.5485 41.4961 68.3343 41.2811 68.0931 41.0833C65.5377 38.9887 62.9714 36.8956 60.4551 34.7549C60.1442 34.4903 59.6179 33.9905 59.4229 33.6426Z" fill="#FCCB8F"/>
<path d="M72.6211 28.4404C73.0994 31.2523 73.7016 33.9838 74.3607 36.7546C74.443 37.1004 74.3805 37.845 74.2117 38.1722L74.0886 38.1803C73.8682 37.7423 73.75 36.6397 73.6514 36.0814C73.3803 34.5942 73.1219 33.1047 72.8763 31.613C72.7591 30.8981 72.5728 29.5076 72.4035 28.8554L72.6211 28.4404Z" fill="#FCCB8F"/>
<path d="M63.1732 42.8087C61.5276 42.3318 59.9262 41.5736 58.3115 40.9837C57.8272 40.8068 54.913 39.8679 54.7391 39.63C55.1066 39.8057 55.345 39.7896 55.6916 39.9048C58.485 40.8329 61.3001 41.7023 64.0807 42.6679C63.3777 42.9574 63.449 42.6336 63.1732 42.8087Z" fill="#FCCB8F"/>
<path d="M78.7499 32.5655C78.9666 32.8593 78.9607 32.9186 78.9673 33.2765C78.797 34.3216 78.323 37.5844 77.7959 38.2441L77.6969 38.1904C77.5647 37.3618 78.4897 33.5314 78.7499 32.5655Z" fill="#FCCB8F"/>
<path d="M64.0807 42.6678C64.9027 42.9411 66.8411 43.5063 67.4329 44.0321L67.4953 44.2061C66.8961 44.3248 63.8775 43.129 63.1732 42.8087C63.449 42.6336 63.3777 42.9574 64.0807 42.6678Z" fill="#FCCB8F"/>
<path d="M78.7499 32.5655C78.8189 32.0264 79.7515 27.0336 79.8778 26.8992C80.1202 27.4172 79.1053 32.3574 78.9673 33.2765C78.9607 32.9187 78.9666 32.8593 78.7499 32.5655Z" fill="#FCCB8F"/>
<path d="M54.4627 15.7733L54.2482 15.6731L54.313 15.587L54.0589 15.5431C53.9106 15.3316 53.9379 15.4355 53.9711 15.1642C54.4641 14.8688 54.6436 15.3429 54.9923 15.1189C55.3574 14.8846 55.7523 14.6071 56.2164 14.7085L56.2858 14.8174C56.1723 15.0909 56.1328 15.112 55.8813 15.2737C55.7152 15.2502 55.6535 15.2391 55.4803 15.2463C55.3743 15.4205 55.43 15.5273 55.367 15.7096L54.4627 15.7733Z" fill="#FCCB8F"/>
<path d="M72.4035 28.8554C72.3051 28.3808 72.0527 26.7351 72.2135 26.3242C72.3952 27.0008 72.6187 27.7448 72.6211 28.4404L72.4035 28.8554Z" fill="#FCCB8F"/>
</g>
<defs>
<clipPath id="clip0_53_1323">
<rect width="160.938" height="100" fill="white"/>
</clipPath>
</defs>
</svg>
