<svg width="161" height="100" viewBox="0 0 161 100" fill="none" xmlns="http://www.w3.org/2000/svg">

<path d="M0 0H160.938V54.6643V61.0875V61.5934V63.2429V68.4351V69.383V73.408V82.8652V89.5102V94.9465V100H147.363H140.05H75.6245H0V69.5589V59.9396V0Z" fill="#7B9566"/>
<path d="M0 0H160.938V54.6643C155.102 54.141 149.509 54.9284 144.026 52.7131C140.629 51.3407 137.57 48.8622 134.121 47.9014C132.658 47.4939 128.695 48.8058 127.151 49.2731L126.607 49.2286C124.919 48.4384 122.593 47.2547 120.88 46.7517C119.667 46.3958 118.136 46.381 116.785 45.9115C115.501 45.4655 113.757 44.5377 112.525 44.2879C110.813 44.0127 107.186 44.9645 105.308 45.352C104.882 45.0718 103.21 44.3053 102.751 44.2069C101.449 43.9285 97.1126 42.694 96.0739 42.6856C94.2317 42.4873 93.6058 42.7548 91.9256 43.46C89.7257 44.3833 87.8865 45.1327 85.4631 45.1448C85.2352 45.038 84.2297 44.3802 83.9489 44.1947C81.8235 42.7914 80.5704 42.0524 77.9773 41.9973C73.9186 41.3121 71.7419 43.0104 68.0623 44.3666L61.4271 46.7928C60.947 46.9721 59.7589 47.3364 59.4088 47.5545C58.3679 47.1735 56.2739 45.5397 54.8361 45.0463C52.8765 44.3738 51.6584 44.8576 49.7863 44.3587C46.9273 43.5968 43.839 40.8251 40.8241 41.1731C38.202 41.164 33.9021 44.6587 31.3593 45.7833C29.635 46.546 27.2855 47.0828 25.7533 47.9246C23.1201 49.3713 20.6724 51.1945 17.9329 52.5156C13.7196 54.5475 9.28089 55.8283 4.96191 57.6469C4.14316 57.9917 0.476918 59.8191 0 59.9396V0Z" fill="#BD6136"/>
<path d="M7.39877 13.4498C8.74878 13.5095 8.85905 14.4066 9.65039 15.3955C9.26871 15.4082 8.69001 15.3786 8.38379 15.566C8.5396 16.3873 9.42551 15.8995 9.3161 16.8803C8.59993 16.7833 7.22801 15.6014 7.16694 14.9854C7.61279 14.6942 7.81248 14.9858 8.33779 14.7413L8.35851 14.5732C7.90897 13.917 7.44579 14.4477 7.39877 13.4498Z" fill="#BD6136"/>
<path d="M13.0021 15.4846C13.4701 15.7228 13.4698 16.1811 13.2051 16.5885C13.029 16.8596 12.726 16.8345 12.4277 16.8852L12.2059 16.8108C11.8786 16.2593 12.5932 15.8062 13.0021 15.4846Z" fill="#BD6136"/>
<path d="M0 59.9396C0.476918 59.8191 4.14316 57.9917 4.96191 57.6468C9.28089 55.8283 13.7196 54.5474 17.9329 52.5156C20.6724 51.1945 23.1201 49.3713 25.7533 47.9246C27.2855 47.0828 29.635 46.546 31.3593 45.7833C33.9021 44.6587 38.202 41.1639 40.8241 41.1731C39.858 42.1104 38.7219 43.4193 38.7649 44.8173C38.8843 48.6923 43.0306 49.5598 45.4936 51.4645C47.0847 52.6949 47.6872 54.8103 49.6754 55.6553C50.7859 56.2165 52.5451 56.7254 53.7824 56.7371C58.5252 56.782 60.955 59.0918 63.7163 62.6508C65.0553 64.3765 67.1959 65.9124 65.167 68.1531C63.951 69.496 59.9879 70.3037 59.5482 71.635C59.9743 73.8423 76.4709 76.2864 77.0605 78.7421C75.6906 80.6613 54.7282 77.7553 51.5478 77.0728C46.6335 76.0181 41.5186 74.6915 36.5006 73.9163C34.6655 73.6362 32.8199 73.4305 30.9683 73.2998C28.2672 73.1172 25.5476 73.0586 22.8854 72.5235C18.7653 71.6953 14.9968 69.9691 10.8021 69.4161C7.11683 68.9302 3.64289 69.4875 0 69.5589V59.9396Z" fill="#E4A43A"/>
<path d="M82.1996 63.7184C83.105 63.791 84.5008 63.8081 85.3249 63.9632C88.2059 64.5053 91.394 64.6409 94.212 65.3254C96.0996 65.7844 97.9756 66.2907 99.8379 66.844C103.979 68.0573 106.908 68.76 111.268 68.5937C112.732 68.5378 115.229 69.4441 116.702 69.7968C119.527 70.5358 122.072 71.9193 124.777 72.8652C130.106 74.7285 135.479 76.6838 140.824 78.4849C143.368 79.342 146.549 79.5556 149.179 80.0848C152.643 80.7204 157.658 81.6273 160.937 82.8652V89.5101V94.9465V100H147.363C146.794 99.5654 142.107 97.6953 141.278 97.3615C139.093 96.4935 136.934 95.5623 134.802 94.5688C128.496 91.6685 122.237 88.6676 116.028 85.5671C113.251 84.197 111.479 82.9241 108.432 81.6425C104.25 79.8194 99.833 79.646 95.548 78.0859C91.7957 76.7198 89.3913 74.4742 86.0291 72.5998C83.4127 71.1411 80.0472 70.2248 77.2728 69.0386C74.9286 68.0363 73.1236 66.9474 70.957 65.6252L71.1203 65.3048C70.9648 65.1944 70.8603 65.1069 70.7152 64.9829C72.2089 65.3223 75.5125 66.6584 77.2133 67.2072C84.0779 69.4621 91.0148 71.4911 98.0127 73.2908C100.787 73.9931 105.501 75.2168 108.34 75.2229C105.743 73.2565 102.988 71.5739 99.9902 70.304C95.8166 68.5364 85.2542 66.6455 82.1996 63.7184Z" fill="#474D3F"/>
<path d="M123.232 81.0247C125.761 81.055 129.012 81.8258 131.542 82.3471C137.608 83.597 143.681 85.1983 149.701 86.6915L156.523 88.3258C157.814 88.636 159.718 89.0756 160.937 89.5102V94.9465C160.021 94.6489 157.838 93.993 157.12 93.4706C156.749 93.4221 156.536 93.4415 156.162 93.463C155.455 92.959 153.109 92.4875 152.891 92.1377L152.827 92.1954C152.273 92.0695 150.997 91.6185 150.399 91.4224C148.662 90.8474 146.927 90.2634 145.194 89.6704C140.838 88.2028 136.506 86.6611 132.201 85.0459C129.308 83.9475 125.831 82.6572 123.232 81.0247Z" fill="#7B9566"/>
<path d="M75.6245 100C72.6004 97.54 69.3651 95.6537 66.0493 93.6719C62.7188 91.6813 59.9725 90.0172 56.332 88.5754C53.2796 87.3664 50.2229 86.5356 47.1545 85.4604C43.3126 84.1141 39.818 82.192 36.3811 80.043C35.6209 79.5677 33.9062 78.6542 33.2484 78.1784C34.8387 78.7401 36.6521 78.9581 38.2974 79.4134C45.4897 81.4033 52.91 82.4811 60.1592 84.1187C65.1523 85.2467 69.8663 88.6433 74.8089 90.0936C83.3468 92.9879 92.1518 94.0973 100.963 95.9388C105.396 96.8651 112.026 98.7178 116.345 98.6172C115.318 97.7002 112.796 96.4706 111.504 95.7017C105.991 92.4213 100.649 89.2964 94.7413 86.773C92.1336 85.6592 85.3531 83.1323 83.2707 81.5852C86.6453 81.7737 88.6134 82.525 91.8375 83.1432C95.6618 83.8765 98.9922 84.4324 102.773 85.5377C112.041 88.2465 120.699 92.4241 129.639 95.9813C131.672 96.7917 133.717 97.5716 135.773 98.3203C136.595 98.6201 139.447 99.6289 140.05 100H75.6245Z" fill="#474D3F"/>
<path d="M102.131 54.5555C102.726 54.7102 103.487 54.9612 104.076 55.1661C113.254 58.3598 122.542 60.3885 131.997 62.5931L148.089 66.4187L156.357 68.3532C157.325 68.5869 160.084 69.3291 160.937 69.383V73.408C159.97 73.224 157.071 72.3438 155.958 72.0494L142.11 68.2587C135.555 66.4878 129.02 64.6455 122.504 62.7321C114.769 60.5096 108.962 59.1965 102.131 54.5555Z" fill="#474D3F"/>
<path d="M127.151 49.2731C128.695 48.8057 132.658 47.4939 134.121 47.9013C137.57 48.8622 140.629 51.3407 144.026 52.7131C149.509 54.9284 155.102 54.141 160.937 54.6642V61.0875L159.313 60.6053C158.861 60.3329 156.985 59.8037 156.383 59.6422C154.123 59.0256 151.839 58.5004 149.536 58.0678C145.596 57.3428 142.564 57.1203 139.154 54.8209C138.254 54.2553 136.768 53.8285 135.922 53.256C133.006 51.2825 130.606 50.0871 127.151 49.2731Z" fill="#7B9566"/>
<path d="M122.565 55.4125C125.644 55.8046 128.837 56.5584 131.882 57.2073L143.807 59.7167L154.138 61.8365C156.161 62.2354 158.976 62.7189 160.937 63.2428V68.435C160.479 68.2529 159.611 68.0076 159.087 67.8241C157.085 67.117 155.076 66.4307 153.06 65.7654C145.876 63.3627 138.672 61.0194 131.448 58.7359C128.682 57.8422 124.876 56.8114 122.249 55.742C122.565 55.7337 122.487 55.7818 122.701 55.622L122.839 55.6548C122.696 55.5803 122.655 55.555 122.565 55.4125Z" fill="#474D3F"/>
<path d="M59.4088 47.5545C59.7589 47.3364 60.947 46.9721 61.4271 46.7928L68.0623 44.3666C71.7419 43.0104 73.9187 41.3121 77.9773 41.9973C75.8079 42.9514 73.9741 42.8331 72.1664 44.6591C70.998 45.8394 63.8322 47.0812 67.9419 49.7439C68.7382 50.2598 70.1944 50.5374 71.0691 50.9855C72.3957 51.5917 73.5727 52.2187 74.9619 52.713C75.557 52.9185 76.1609 53.0974 76.7719 53.2492C76.5053 53.5525 76.4946 53.583 76.0306 53.6112C75.935 53.6167 75.8393 53.6211 75.7437 53.6242C72.1961 53.5382 62.5954 49.4783 59.4088 47.5545Z" fill="#E4A43A"/>
<path d="M85.4631 45.1449C87.8865 45.1328 89.7257 44.3833 91.9256 43.46C93.6058 42.7548 94.2317 42.4873 96.0739 42.6857C94.9644 43.309 92.5924 43.8441 93.8421 45.6244C94.7486 46.9159 96.5819 47.7337 97.665 48.8863C98.9863 50.3287 100.243 52.4829 101.379 54.1299C96.3629 51.2856 90.0248 48.3966 85.4631 45.1449Z" fill="#E4A43A"/>
<path d="M126.607 49.2286L127.151 49.2732C130.606 50.0871 133.006 51.2825 135.922 53.2561C136.768 53.8285 138.254 54.2554 139.154 54.8209C142.564 57.1203 145.596 57.3429 149.536 58.0679C151.839 58.5004 154.123 59.0256 156.383 59.6422C156.985 59.8037 158.861 60.3329 159.313 60.6054L160.938 61.0875V61.5934C160.466 61.4166 159.244 61.1463 158.684 61.0056C158.25 61.0031 155.407 60.3461 154.832 60.2291L148.184 58.8475C146.444 58.499 144.361 58.211 142.717 57.596C139.99 56.5762 137.393 55.0852 134.823 53.7323C132.624 52.5748 128.321 50.8532 126.607 49.2286Z" fill="#474D3F"/>
<path d="M105.308 45.352C107.186 44.9646 110.813 44.0127 112.525 44.2879C111.946 44.5143 110.571 45.0433 110.751 45.7997C112.504 47.2929 115.166 48.2081 116.567 50.4435C114.45 49.4262 112.677 48.6069 110.422 47.8814C109.31 47.5232 106.267 46.0585 105.308 45.352Z" fill="#E4A43A"/>
<path d="M70.957 65.6252C70.3775 65.3071 63.7518 61.427 63.7307 61.3909C64.7282 61.7056 66.2164 62.6496 67.2045 63.1979C68.3588 63.8237 69.5294 64.419 70.7152 64.9829C70.8603 65.1069 70.9648 65.1944 71.1203 65.3048L70.957 65.6252Z" fill="#445540"/>
<path d="M76.7719 53.2492C78.1315 53.4812 79.0077 53.6771 80.31 54.1227C79.4685 54.1252 76.6333 53.803 75.7437 53.6242C75.8393 53.6211 75.935 53.6167 76.0306 53.6111C76.4946 53.583 76.5053 53.5524 76.7719 53.2492Z" fill="#E7BD8D"/>
<path d="M118 54.4195C119.139 54.5674 121.375 55.1446 122.565 55.4125C122.655 55.5549 122.696 55.5803 122.839 55.6548L122.701 55.622C122.487 55.7818 122.565 55.7337 122.249 55.742C120.795 55.3583 119.408 54.9599 118 54.4195Z" fill="#262E26"/>
<path d="M99.8281 57.9058C100.39 57.9385 102.614 58.6423 103.239 58.8289L109.687 60.762C120.774 64.1717 131.816 67.7245 142.812 71.4195C146.639 72.6649 150.449 73.9641 154.24 75.3165C155.256 75.6782 158.701 76.9028 159.519 77.3283C158.255 77.3122 151.142 75.3634 149.447 74.9062C137.998 71.8933 126.643 68.539 115.394 64.8479C113.423 64.2188 111.092 63.7229 109.287 63.0297C106.095 61.8034 102.701 59.7759 99.8281 57.9058Z" fill="#474D3F"/>

</svg>
