<svg width="160" height="100" viewBox="0 0 160 100" fill="none" xmlns="http://www.w3.org/2000/svg">
<path d="M0 0H159.766V100H90.7273H83.7073H76.1098H28.8942H0V0Z" fill="#1E2A3A"/>
<path d="M70.3376 83.5055L70.3878 83.516L75.6896 89.892C76.3186 90.6607 77.3711 92.0927 77.9443 92.7281C78.4212 94.0999 77.6429 94.6504 78.7185 96.111C76.0959 97.8418 77.4113 99.209 76.1098 100H28.8942C28.73 99.3213 28.8749 99.4453 29.4255 99.1055C39.1209 93.1244 51.1481 92.5106 61.4309 87.775C62.89 87.103 64.3006 86.4031 65.7316 85.6733C67.1414 84.9542 68.847 83.9673 70.3376 83.5055Z" fill="#283543"/>
<path d="M74.6534 61.6056C74.9557 61.5816 75.3042 61.5115 75.5581 61.6386L75.6247 61.799C73.7804 62.0928 66.076 63.1094 65.1635 64.3516C65.055 64.4993 65.0716 64.578 65.0621 64.7561C65.7302 65.972 72.6857 66.6606 74.2499 66.8644C81.6406 67.8273 89.3963 68.1476 96.4276 70.8269C97.8193 71.3609 98.6699 71.6271 99.7529 72.5805C99.7656 72.7572 99.7715 72.7548 99.7207 72.9349C98.9648 73.632 97.6329 75.1801 96.8993 75.9964L91.3114 82.2483L85.0911 89.0509C84.4422 89.7612 82.2455 92.1309 81.8586 92.8179L81.3534 92.2399C80.4367 91.8063 79.3547 91.9083 78.4321 92.2602C78.2391 92.5022 78.1876 92.5406 77.9443 92.7281C77.3711 92.0927 76.3185 90.6606 75.6896 89.892L70.3878 83.516C71.2546 82.7721 73.5057 82.1741 74.6413 81.8025C77.9237 80.7283 91.1218 77.1795 92.9434 74.9451C93.1741 74.6622 93.3229 74.3212 93.2783 73.9508C92.7301 69.4093 65.9093 68.4377 62.3317 65.5102C62.053 65.2821 61.9464 65.0732 61.9164 64.7222C62.0669 64.3709 62.3818 64.1855 62.6721 63.9048C65.4225 62.7882 71.5403 61.8628 74.6534 61.6056Z" fill="#9D583D"/>
<path d="M79.8567 91.1901C80.3278 91.3838 81.3264 91.6625 81.3534 92.2399C80.4367 91.8063 79.3547 91.9083 78.4321 92.2602C78.6008 91.6758 79.3188 91.439 79.8567 91.1901Z" fill="#F4EFE4"/>
<path d="M70.3376 83.5055C69.8064 82.7501 68.1289 80.852 67.4711 80.0535L60.4668 71.6266C59.6889 70.6921 57.833 68.5607 57.258 67.6265C58.5601 69.0945 59.7178 70.3783 60.9454 71.9297C61.3931 72.4953 63.0271 74.5326 63.4701 74.8843L63.6296 74.8453C63.7024 74.707 63.8676 74.3975 64.0245 74.3696C66.0511 74.0091 68.1055 74.2224 70.1509 74.2503L77.4539 74.2906C81.1629 74.3159 84.8982 74.1775 88.6046 74.3215C89.4863 74.3558 92.3444 74.2541 92.8711 74.6651L93.0749 74.628C93.1151 74.5479 93.1432 74.471 93.1563 74.3815C93.8535 69.6091 64.1463 68.3707 61.9972 65.5058C61.8089 65.2549 61.7534 64.9343 61.8086 64.6296C61.8536 64.3811 61.9647 64.1622 62.1795 64.0202C62.3803 63.8875 62.4369 63.8582 62.6722 63.9048C62.3818 64.1856 62.0669 64.3709 61.9164 64.7223C61.9464 65.0733 62.053 65.2821 62.3317 65.5103C65.9094 68.4377 92.7301 69.4093 93.2783 73.9508C93.3229 74.3212 93.1741 74.6622 92.9434 74.9451C91.1218 77.1795 77.9237 80.7283 74.6413 81.8026C73.5057 82.1741 71.2546 82.7722 70.3878 83.516L70.3376 83.5055Z" fill="#75473A"/>
<path d="M81.8586 92.8179C82.2455 92.1309 84.4422 89.7612 85.0911 89.0509L91.3114 82.2483L96.8993 75.9964C97.6329 75.1801 98.9648 73.632 99.7207 72.9349C100.434 73.5429 100.884 74.0274 100.979 74.999C101.173 76.9509 98.8184 78.5246 97.4595 79.4435C93.0312 82.4383 87.4346 84.544 88.0171 90.9424C88.0824 92.0162 88.3464 92.9857 88.7275 94.0556C89.3576 95.8242 90.6137 97.667 90.9281 99.5234C90.9597 99.709 90.8242 99.8584 90.7273 100H83.7073H76.1098C77.4113 99.209 76.0959 97.8418 78.7185 96.1109C77.6429 94.6504 78.4212 94.0999 77.9443 92.7281C78.1876 92.5406 78.2392 92.5022 78.4321 92.2602C79.3547 91.9083 80.4367 91.8063 81.3534 92.2399L81.8586 92.8179Z" fill="#283543"/>
<path d="M78.4321 92.2602C79.3547 91.9083 80.4367 91.8063 81.3534 92.2399L81.8586 92.818C81.7284 93.5635 81.8337 94.1036 81.7686 94.8112C81.7473 95.0421 81.2842 95.7146 81.1954 96.0378C82.3259 97.5102 82.1313 97.7793 82.3883 99.6289C82.4179 99.8418 83.4647 99.8213 83.7073 100H76.1098C77.4113 99.209 76.0959 97.8418 78.7185 96.1109C77.6429 94.6504 78.4212 94.0999 77.9443 92.7281C78.1876 92.5406 78.2392 92.5022 78.4321 92.2602Z" fill="#1E2A3A"/>
<path d="M74.6534 61.6056C77.2038 61.1433 79.8263 61.2528 82.2362 60.6921L82.2411 60.7854C81.3728 61.2052 80.6431 61.2093 79.6977 61.2417C78.849 61.2708 76.3518 61.9477 75.6247 61.799L75.5581 61.6386C75.3042 61.5115 74.9558 61.5816 74.6534 61.6056Z" fill="#4D4546"/>
<path d="M78.8681 13.1035L78.9499 13.2154C78.4868 13.8458 78.1224 14.3155 77.7812 15.0315C77.0461 16.5477 76.9563 18.2969 77.5322 19.8803C78.3895 22.2972 80.419 23.9139 82.9343 24.3014C84.1528 24.4892 84.7836 24.3018 85.9162 23.8997C84.9025 24.8715 83.9484 25.6542 82.5959 26.0613C82.553 26.0777 82.5101 26.0937 82.4669 26.1095C79.0451 27.3476 75.2594 25.1973 74.0864 21.8238C73.5039 20.1172 73.6187 18.2496 74.4059 16.6271C75.3927 14.6253 76.8596 13.7942 78.8681 13.1035Z" fill="#F4EFE4"/>
<path d="M114.59 11.0298C114.758 11.0738 115.108 11.2756 115.28 11.3658C115.468 11.7406 115.501 12.367 115.102 12.612L114.788 12.4554L114.756 12.3841C114.387 12.2126 114.666 12.5116 114.176 12.5451L113.948 12.3152C113.758 11.7134 114.161 11.3385 114.59 11.0298Z" fill="#F4EFE4"/>
<path d="M24.1716 17.3377C24.4846 17.3914 24.9424 17.4287 25.1596 17.638C25.3121 17.9385 25.1469 18.3571 25.0574 18.7013C24.7489 18.6938 24.571 18.6872 24.2622 18.6426C23.7492 18.2445 23.8073 17.8373 24.1716 17.3377Z" fill="#F4EFE4"/>
<path d="M153.663 31.465C154.17 31.4423 154.422 32.3063 154.061 32.6708C153.831 32.9022 153.736 32.8403 153.427 32.8832C153.229 32.8706 153.246 32.8347 153.054 32.6968C152.689 32.0579 153.219 31.7321 153.663 31.465Z" fill="#F4EFE4"/>
<path d="M109.153 24.4182C109.923 24.8893 110.113 25.6682 109.098 25.9519L108.759 25.832C108.57 25.6285 108.485 25.5768 108.455 25.3036C108.646 24.7036 108.616 24.846 109.153 24.4182Z" fill="#F4EFE4"/>
<path d="M80.8762 42.8524C81.2789 43.0107 81.48 43.4362 81.4933 43.8428C81.3516 44.1968 81.2922 44.2225 80.9629 44.4181C80.5651 44.2165 80.3243 44.0556 80.2322 43.605C80.3932 43.1686 80.4925 43.1839 80.8762 42.8524Z" fill="#F4EFE4"/>
<path d="M33.7619 31.652C34.1151 31.958 34.271 31.985 34.3685 32.3724C34.2659 32.6862 33.9675 32.8747 33.7036 33.091C33.3016 33.0397 33.4389 33.0803 33.1063 32.818C32.9105 32.1727 33.3082 31.9714 33.7619 31.652Z" fill="#F4EFE4"/>
<path d="M124.321 46.3286C124.711 46.4427 125.019 47.0542 124.974 47.4586L124.784 47.538C124.393 47.4968 124.114 47.5244 123.875 47.2585C123.862 46.9653 124.153 46.5906 124.321 46.3286Z" fill="#F4EFE4"/>
<path d="M3.52225 28.8442L3.59359 28.8362C3.9743 28.7962 4.16981 28.7543 4.449 28.9805C4.50384 29.2851 4.26981 29.5694 4.09982 29.8445C3.589 30.0349 3.39592 29.3997 3.35439 29.0079L3.52225 28.8442Z" fill="#F4EFE4"/>
<path d="M55.2448 44.3993C55.6179 44.553 55.8876 45.0647 55.6348 45.4335C55.5795 45.514 55.3314 45.5681 55.2211 45.6037C54.8623 45.5156 54.794 45.5242 54.6285 45.2151C54.6887 44.8826 54.9951 44.6437 55.2448 44.3993Z" fill="#F4EFE4"/>
<path d="M131.404 5.26948C131.673 5.24898 131.819 5.45436 131.888 5.67521C131.807 6.06137 131.746 6.09956 131.446 6.35969C131.062 6.36277 131.014 6.33684 130.792 6.05857C130.743 5.56077 131.049 5.47352 131.404 5.26948Z" fill="#F4EFE4"/>
<path d="M63.4326 5.46521C63.7583 5.46368 64.2126 5.41301 64.4552 5.59158C64.5494 5.89059 64.3879 6.16036 64.2647 6.47417C63.7314 6.77223 63.5199 5.79447 63.4326 5.46521Z" fill="#F4EFE4"/>
<path d="M147.218 49.7783C147.492 49.804 147.68 49.8819 147.82 50.1054C147.798 50.4201 147.559 50.641 147.351 50.8928C147.027 50.7236 146.811 50.5522 146.709 50.2051C146.868 49.9051 146.871 49.9732 147.218 49.7783Z" fill="#F4EFE4"/>
<path d="M9.11811 7.21375C9.39597 7.29067 9.29672 7.22724 9.48555 7.46927C9.51351 7.87933 9.31477 8.14542 8.9811 8.35601C8.70643 8.16849 8.52827 7.98013 8.45665 7.66917C8.66293 7.34956 8.71423 7.4044 9.11811 7.21375Z" fill="#F4EFE4"/>
<path d="M90.4253 52.7078L90.5916 52.7536C90.7998 52.9725 90.7532 52.8587 90.7498 53.1877C90.5817 53.5326 90.4913 53.5616 90.1596 53.7486C89.8665 53.6508 89.8352 53.4601 89.8196 53.2075C89.9693 52.8914 90.108 52.8596 90.4253 52.7078Z" fill="#F4EFE4"/>
<path d="M55.4781 10.7697C55.6995 10.7023 55.9353 10.8176 56.018 11.0336C56.1007 11.2497 56.0023 11.493 55.7926 11.5906C55.6433 11.6602 55.4675 11.6407 55.337 11.5399C55.2066 11.4391 55.1434 11.2739 55.1731 11.1118C55.2027 10.9497 55.3205 10.8177 55.4781 10.7697Z" fill="#F4EFE4"/>
<path d="M49.4474 17.0457C49.7625 17.048 49.9647 17.0901 50.2352 17.2499C50.4071 17.5518 50.3822 17.4086 50.2871 17.8046C49.9503 17.8252 49.7561 17.8222 49.4713 17.6427C49.3105 17.3039 49.3279 17.4591 49.4474 17.0457Z" fill="#F4EFE4"/>
</svg>
