<svg width="67" height="71" viewBox="0 0 67 71" fill="none" xmlns="http://www.w3.org/2000/svg">
<path d="M27.8169 0.0836889L38.3796 0C39.3078 2.74013 39.9669 6.82973 40.5365 9.75238L45.1033 11.5402C54.722 5.94453 50.1499 4.70201 59.2413 12.4175C61.2716 16.2674 57.5749 19.0961 55.4286 22.4827L57.3165 27.3854L66.4923 29.0434C66.5134 32.6899 66.6716 37.3448 66.466 40.9049C63.3546 41.5229 60.2486 42.1663 57.1478 42.8355L55.4603 47.5236C57.2744 50.4482 58.7615 52.7659 60.797 55.535C58.3449 58.302 55.4761 61.6912 52.8658 64.2161C50.3134 62.286 47.5659 60.2848 45.0663 58.3136L40.5048 60.3106C39.9089 63.6255 39.2392 66.9272 38.4956 70.212C35.1945 70.2268 31.0232 70.3518 27.8064 70.1677C27.105 66.9335 26.4827 63.6825 25.9395 60.4177L21.0722 58.2682C18.4355 60.5785 16.4474 62.1336 13.605 64.1935C10.6888 61.2329 8.48975 58.9095 5.84249 55.7138C7.35596 53.2194 9.20171 49.9657 10.963 47.7145C10.4041 46.24 9.64993 44.0326 9.03294 42.6541C6.20638 42.1004 2.8261 41.5245 0.0628196 40.8717C0.0364524 37.0774 -0.105907 32.5634 0.152491 28.8435C3.11616 28.4153 5.97964 28.0193 8.91694 27.4144L11.1212 22.2559C9.08038 19.6609 7.56692 17.4807 5.73176 14.739C7.48255 12.1114 11.1792 8.38956 13.4626 5.9602L21.262 11.7295L25.7655 9.85832L27.8169 0.0836889Z" fill="#503620"/>
<path d="M30.0792 2.64197L36.5814 2.66406L37.9841 11.2099C39.4554 12.7631 43.3367 13.7699 45.562 15.1333C47.8929 13.2082 50.2396 11.2959 52.5915 9.39671L57.2005 14.6851C55.5974 17.2133 53.8941 20.0411 52.08 22.392C56.1986 30.3201 54.7167 29.856 63.9294 31.4607L63.9083 38.5857C54.0839 40.2009 56.1353 39.538 52.2857 47.6191L57.2322 55.4612C55.7925 57.0896 54.0048 59.2528 52.5388 60.7737C50.1763 58.8884 47.6661 56.8075 45.2193 55.0652C42.7355 56.2148 40.5153 57.2209 37.9524 58.2255C37.4778 61.2404 37.0191 64.5231 36.4601 67.4994L29.9632 67.4699C29.4886 64.7614 28.724 60.9793 28.4286 58.3405C26.43 57.4841 23.0181 56.1425 21.299 55.013L13.953 60.5643C12.4343 58.9976 10.7415 57.3174 9.32821 55.6758C10.8575 52.7564 12.2866 50.5411 14.0743 47.7852C13.2622 45.7317 11.8278 42.3767 11.3269 40.3417C8.73233 39.7949 5.30986 38.9701 2.74697 38.6431L2.72064 31.5003C5.58412 30.8068 8.44756 30.1308 11.3216 29.4726C12.3235 26.3639 12.7454 25.3277 14.2378 22.4168C12.7349 20.2932 10.2617 17.1173 9.45483 14.7616C9.65522 14.3658 9.87668 13.8221 10.2195 13.5729C11.0948 12.4139 12.8351 10.7126 13.9003 9.61081L18.504 13.0556C21.6733 16.012 25.022 13.2868 28.4023 11.6171C28.6132 9.21251 29.573 5.12634 30.0792 2.64197Z" fill="#AAB492"/>
<path d="M30.0793 2.64197L36.5814 2.66406L37.9841 11.2099C36.4496 12.6887 29.1986 13.5494 28.4023 11.6171C28.6132 9.21251 29.573 5.12634 30.0793 2.64197Z" fill="#BCC5A4"/>
<path d="M13.9003 9.61084L18.504 13.0557C16.7321 13.7591 11.8858 14.6643 10.2194 13.5729C11.0948 12.4139 12.835 10.7127 13.9003 9.61084Z" fill="#BCC5A4"/>
<path d="M31.2605 21.7217C36.0593 21.0129 40.8634 22.9488 43.827 26.7842C46.796 30.6201 47.4552 35.758 45.562 40.2214C43.6689 44.6849 39.5134 47.7783 34.6988 48.312C27.432 49.1162 20.8613 43.9529 19.9226 36.7035C18.9892 29.4541 24.0306 22.7906 31.2605 21.7217Z" fill="#503620"/>
<path d="M33.0376 23.9012C34.7831 24.1333 36.4126 24.321 37.9683 25.1748C40.4943 26.5585 42.361 28.8926 43.1626 31.659C43.9853 34.6026 43.6109 37.7519 42.1185 40.4192C40.0302 44.1428 37.4409 45.217 33.5544 46.3028C28.8716 45.5192 27.3687 44.3453 24.1835 41.003C21.531 32.5012 23.2712 25.4295 33.0376 23.9012Z" fill="#AAB492"/>
</svg>
