<svg width="168" height="279" viewBox="0 0 168 279" fill="none" xmlns="http://www.w3.org/2000/svg">
<path d="M4.20234 75.3622C4.16151 71.9968 3.84805 68.4813 3.75928 65.1099C3.42176 52.2797 2.17623 39.5166 1.52703 26.7267C1.34574 23.1576 0.381623 15.5518 0.629033 12.4643C0.793592 10.4704 1.55464 8.57216 2.81339 7.0169C3.8877 5.70781 5.57748 4.49859 7.23885 4.14018C12.135 3.08384 17.457 3.0305 22.4492 2.67307C29.3926 2.14054 36.3407 1.67611 43.2931 1.27991C47.3394 1.07674 51.3682 1.05198 55.4314 0.799662C60.4943 0.48528 67.1549 -1.45406 71.4571 2.16659C75.6082 5.66025 75.0296 11.7329 75.2539 16.5892C75.4971 21.8519 75.488 27.1777 75.8601 32.438C76.3404 39.5801 76.7764 46.7253 77.1679 53.8728C77.2366 55.2188 77.6323 60.8016 77.5394 61.8138C77.6984 62.7559 77.5556 63.8213 78.0223 64.6252L78.4034 64.6804C79.2177 63.7055 79.4122 61.2719 79.6695 59.9812C80.5678 55.4748 81.7469 50.9139 80.8799 46.3075C80.423 43.8809 79.6004 41.3972 79.5162 38.9217C79.4349 36.5328 81.84 21.9276 83.076 20.2458C83.2849 19.9617 83.4441 19.8348 83.7876 19.782C85.3912 19.535 87.9556 22.2048 89.2376 23.1379C90.9414 21.5962 91.1825 21.5722 93.4076 20.9072C94.5662 21.8795 94.7329 22.7571 95.5582 23.5918C97.2492 25.3019 98.0079 22.1813 99.7696 22.4005C101.371 22.5995 102.633 24.3335 103.69 25.5011C106.872 23.2183 108.514 22.6989 110.014 26.5766C112.214 25.9321 112.716 25.6903 114.543 24.3641C116.358 25.5064 116.666 26.2543 117.697 28.1026C118.387 27.9434 119.161 27.7091 119.852 27.5172C122.433 24.0709 123.991 27.0508 125.283 29.4652C129.35 27.3189 130.301 26.2805 132.707 30.8018C137.004 28.3145 138.002 27.8034 140.068 32.6524C140.986 31.8903 142.991 30.47 144.175 30.3988C146.21 30.2765 146.339 32.1638 147.712 33.2645C148.444 33.4097 148.307 33.3099 149.13 32.9001C154.17 29.4991 153.185 33.8437 155.262 35.3458C159.278 33.4539 160.12 31.3887 162.794 36.9814C163.918 35.8936 166.082 33.9464 167.567 35.1691C167.787 35.6514 167.954 36.4138 167.835 36.934C166.695 41.8858 166.329 47.885 164.73 52.6141C163.27 56.9308 159.464 60.4974 158.276 65.0312C157.695 67.0883 157.227 70.2244 156.84 72.3959L154.032 88.9348L145.865 133.604L130.606 217.99C129.297 225.471 127.767 233.02 126.55 240.481C125.281 248.261 126.644 251.474 127.527 258.59C127.976 262.213 125.184 275.136 123.768 278.626C122.267 277.381 120.667 276.097 119.223 274.801C118.205 275.602 117.327 276.144 116.135 276.665C114.797 275.655 113.52 274.539 112.244 273.448C108.175 277.131 108.133 275.089 105.239 272.193C103.845 272.745 102.604 273.296 101.24 273.919C99.3875 272.795 98.6792 272.051 97.6893 270.112C96.5345 271.436 96.1226 271.814 94.4261 272.495C93.9377 272.319 93.0748 272.033 92.6345 271.82C90.2003 268.056 89.989 269.81 86.5718 271.175C85.55 270.181 84.2472 269.011 83.5094 267.826C79.9348 270.485 78.7362 269.481 76.1208 266.808C74.6526 267.457 73.6016 267.837 72.0741 268.344C70.5353 267.25 70.1346 266.741 68.8345 265.381C67.0995 266.348 66.6343 266.672 64.6587 267.056C63.1887 265.831 62.3655 265.194 61.3735 263.507C60.0547 265.269 59.4799 265.285 57.3017 265.77C54.5676 263.002 54.8282 261.841 51.3305 264.46C50.6862 264.188 50.0078 263.922 49.4006 263.58C48.1304 262.286 47.4818 261.065 45.6644 262.129L45.389 262.734C44.6913 263.434 43.1631 263.18 42.2271 263.117C39.0237 258.4 37.4377 262.762 35.1798 261.347C34.2958 260.093 35.8879 254.591 35.8339 252.699C35.7518 249.835 35.3032 251.368 34.1429 249.965C30.0349 250.723 31.3064 254.445 26.0126 250.155C24.6781 251.218 23.125 252.723 21.2958 252.597C19.5567 252.474 19.8585 249.434 17.8032 251.271C16.8429 252.32 15.768 253.011 14.5426 253.689C13.187 253.042 12.0123 252.267 11.253 250.955C9.98321 251.735 8.87754 253.344 7.14535 253.974C6.79106 253.908 6.66146 253.958 6.42099 253.691C5.7929 252.997 5.66822 251.577 5.63074 250.693C5.55854 248.991 5.48536 247.314 5.43091 245.617C5.32143 242.205 4.64481 238.715 5.18453 235.318C5.82604 231.576 7.62529 228.017 8.13365 224.23C8.51181 221.373 8.24353 218.444 8.06263 215.588L2.94043 123.807L1.04333 94.9323C0.632978 89.1996 -0.169854 81.2594 0.0320082 75.691L4.20234 75.3622Z" fill="#6C3D1B"/>
<path d="M5.741 67.0506C5.4816 59.1024 4.57102 51.1206 4.09384 43.1797C3.50283 33.3429 3.05267 23.5449 2.36461 13.6991C2.03419 8.97153 4.51184 5.94445 9.29454 5.21848C13.1037 4.75429 17.1238 4.66315 20.964 4.57267C25.0117 4.45926 29.0572 4.2762 33.0988 4.02358C39.7632 3.56458 46.2448 3.119 53.0778 2.73699C59.0367 2.38245 71.0783 -1.71862 72.7993 7.16405C73.4875 10.7173 73.6339 18.0913 73.6049 21.9137C74.0168 25.4132 73.5461 30.0422 74.4395 33.4859L75.8601 32.438C76.3404 39.5802 76.7764 46.7254 77.1679 53.8729C77.2366 55.2188 77.6323 60.8016 77.5394 61.8138C77.3127 62.5833 77.0097 63.0889 77.3482 63.7192C77.4273 63.8654 77.5094 64.0098 77.5944 64.1526C77.3989 64.486 77.3981 64.6434 77.3837 65.0271C76.8929 65.223 77.0764 65.176 76.4739 65.0267C75.8117 63.9575 76.7694 63.1955 76.6454 62.4143L76.1307 62.6504L75.9741 62.5747C75.9839 63.4316 75.9622 64.5404 76.0816 65.3681C70.9679 65.3636 67.1097 65.9394 62.1235 66.921C59.9259 67.3536 56.5229 66.7265 54.2348 66.993C53.9016 67.222 53.5385 67.485 53.1932 67.6876L52.4265 68.2319C51.1965 69.0389 49.8869 69.3123 48.4776 69.6374L47.5899 69.9228C46.4896 70.1481 37.7245 73.5499 36.4979 74.209C35.766 74.6221 35.6279 74.7268 34.7951 74.8081C34.4828 74.6102 34.482 74.5382 34.3502 74.1985L34.2437 74.3031C32.9528 74.6858 27.6114 74.8801 26.7476 73.9135C26.6158 73.9372 26.3902 74.1338 26.2639 74.2273C22.0113 74.2591 16.5222 73.185 12.0663 73.5716C10.7671 73.6843 6.52316 75.5658 5.82228 75.3873C6.23259 73.3797 5.24527 69.7052 5.741 67.0506Z" fill="#BF8C53"/>
<path d="M74.4396 33.4859L75.8601 32.438C76.3404 39.5802 76.7764 46.7253 77.1679 53.8729C77.2366 55.2188 77.6323 60.8016 77.5394 61.8138C77.3127 62.5833 77.0097 63.0889 77.3482 63.7192C77.4273 63.8654 77.5094 64.0098 77.5944 64.1526C77.3989 64.486 77.3981 64.6434 77.3837 65.0271C76.8929 65.2229 77.0764 65.176 76.474 65.0267C75.8117 63.9575 76.7695 63.1954 76.6454 62.4143L76.1307 62.6504L75.9741 62.5747C75.4409 55.049 75.4671 47.3369 74.959 40.0015C74.9761 38.2198 74.7862 35.211 74.4396 33.4859Z" fill="#5C3110"/>
<path d="M30.0897 68.6899C33.2769 69.6166 33.7924 71.1598 34.2437 74.3031C32.9528 74.6858 27.6115 74.8801 26.7476 73.9135C28.3727 72.069 27.8466 70.482 30.0897 68.6899Z" fill="#E9BF89"/>
<path d="M50.9697 62.2059L51.8813 62.4326C52.5159 64.1853 52.7031 66.5996 53.1933 67.6876L52.4265 68.2318C51.1966 69.0388 49.8869 69.3122 48.4776 69.6373L48.1806 69.4535C48.5512 68.206 45.943 64.9172 48.5583 63.8738L49.7707 63.4929C50.3187 63.1666 50.59 62.7188 50.9697 62.2059Z" fill="#BF8C53"/>
<path d="M50.9697 62.2059L51.8813 62.4326C52.5159 64.1853 52.7031 66.5996 53.1933 67.6876L52.4265 68.2318C51.2538 66.7223 50.9918 65.0485 49.7707 63.4929C50.3187 63.1666 50.59 62.7188 50.9697 62.2059Z" fill="#B86339"/>
<path d="M5.74102 67.0507C6.05329 69.3407 6.12864 72.7729 6.16533 75.1015C13.8039 72.0486 17.6898 73.4298 25.857 73.8486C26.6058 71.3954 27.772 66.9447 31.067 67.414C30.8003 67.7584 30.3146 68.3495 30.0897 68.6899C27.8466 70.4821 28.3727 72.0691 26.7476 73.9135C26.6159 73.9372 26.3902 74.1339 26.2639 74.2274C22.0113 74.2591 16.5222 73.185 12.0663 73.5717C10.7671 73.6843 6.52318 75.5658 5.82229 75.3873C6.2326 73.3797 5.24529 69.7053 5.74102 67.0507Z" fill="#77491B"/>
<path d="M51.8812 62.4326C52.3618 61.5747 53.1621 60.9 53.8799 60.2169C54.088 61.1184 54.3023 62.1714 54.5475 63.0504C55.133 63.4627 55.7041 63.7505 55.8948 64.4222C55.8155 65.3083 54.7438 65.7005 54.2348 66.993C53.9016 67.222 53.5385 67.485 53.1933 67.6876C52.703 66.5996 52.5158 64.1853 51.8812 62.4326Z" fill="#CDAD84"/>
<path d="M31.067 67.4139C32.7352 68.5021 32.5981 68.4859 33.9027 69.8164C35.1052 71.0432 36.0345 73.9219 36.4979 74.209C35.766 74.622 35.6279 74.7268 34.7951 74.808C34.4828 74.6102 34.482 74.5382 34.3503 74.1985L34.2437 74.303C33.7924 71.1598 33.2769 69.6166 30.0897 68.6899C30.3146 68.3494 30.8003 67.7584 31.067 67.4139Z" fill="#915E2F"/>
<path d="M47.5899 69.9228C47.4564 69.3233 46.9958 69.0266 46.6446 68.4859C45.0714 66.0635 45.783 65.2358 47.6799 63.2803L48.5583 63.8738C45.9429 64.9172 48.5512 68.206 48.1805 69.4535L48.4776 69.6374L47.5899 69.9228Z" fill="#B86339"/>
<path d="M47.6799 63.2803C48.9992 61.9367 49.1227 61.7762 50.9697 62.206C50.5899 62.7189 50.3187 63.1667 49.7707 63.493L48.5583 63.8739L47.6799 63.2803Z" fill="#915E2F"/>
<path d="M25.2973 10.4131C27.0577 10.5025 28.5313 10.6891 30.2704 10.9158C30.4351 11.8605 30.6137 12.8544 30.6736 13.8126C31.1976 22.1792 24.2126 28.7217 15.989 29.0708C7.41324 27.9746 9.81357 21.2009 13.6044 16.2644C16.3841 12.6444 20.838 10.8548 25.2973 10.4131Z" fill="#7B491C"/>
<path d="M22.793 12.3514C24.3461 12.1063 27.7237 12.0495 29.148 12.8272C30.5673 14.7933 28.3593 20.4156 26.9808 22.2786C24.6842 25.3824 21.9468 26.9745 18.1899 27.6381C9.59578 28.3585 9.99998 23.2176 14.0974 17.5243C16.1257 14.7057 19.321 12.7808 22.793 12.3514Z" fill="#E9BF89"/>
<path d="M48.9945 17.9902C53.1771 17.7643 62.549 23.5347 65.5145 26.6348C67.6438 28.8603 68.1229 30.9452 68.0481 33.8949C67.11 35.5948 66.6209 36.1544 65.1842 37.3343C57.7026 42.7612 50.5955 31.1062 48.9185 25.2208C48.2158 22.7548 46.5866 19.9605 48.9945 17.9902Z" fill="#6C3D1B"/>
<path d="M49.6273 19.5861C53.5602 19.5269 62.709 25.1823 65.2791 28.4942C67.3084 31.1094 68.1101 32.8881 65.4028 35.1417C64.5725 35.9929 62.8366 36.7447 61.668 36.7705C53.6679 36.9476 50.0871 25.8694 49.6273 19.5861Z" fill="#B86339"/>
<path d="M22.6877 46.0105C26.9242 45.4873 25.7398 58.2173 24.7631 60.7624C22.7244 66.0754 20.3927 69.3689 14.2856 67.4385C14.0927 67.3607 13.9007 67.2803 13.71 67.1974C12.4045 66.6271 11.0271 65.379 10.637 64.0191C8.49919 56.567 16.6031 48.2132 22.6877 46.0105Z" fill="#753913"/>
<path d="M22.1922 48.3593C22.9193 48.3589 22.6706 48.2534 23.1438 48.715C25.1318 54.7487 24.0125 69.1777 14.4282 65.813C6.41823 61.3443 16.6178 50.5872 22.1922 48.3593Z" fill="#B86339"/>
<path d="M63.2291 46.3785C64.553 46.2827 64.6932 46.6385 65.573 47.5965L66.0082 50.0998C66.9391 49.5417 67.9529 48.6992 68.8216 48.02C69.7859 49.0485 70.2084 49.4916 70.9718 50.6785C71.3297 56.4547 69.8973 60.1297 65.4762 63.9616C63.3361 65.462 62.419 65.1857 60.0541 64.0291C58.3701 63.2053 58.1361 62.7938 57.0786 61.279C56.3783 55.9152 58.2918 49.2008 63.2291 46.3785Z" fill="#77491B"/>
<path d="M63.7521 47.1183C63.9997 47.1197 64.16 47.2339 64.3831 47.3491C66.1096 50.3864 61.8923 60.6498 59.6129 62.5445C58.1346 61.772 57.9091 60.4417 58.0176 58.8391C58.3334 54.1674 60.2763 50.2545 63.7521 47.1183Z" fill="#E9BF89"/>
<path d="M68.0168 49.9023C70.4063 49.9638 69.8898 53.4083 69.5882 54.957C68.8088 58.9599 66.9589 61.2628 63.6623 63.5381C63.2122 63.7024 63.1907 63.6892 62.7056 63.6065C61.4668 61.496 66.3461 51.7148 68.0168 49.9023Z" fill="#E9BF89"/>
<path d="M45.1987 39.3835C50.4383 39.2085 53.4621 42.0906 54.3149 47.1072C52.6946 49.7516 51.2352 50.282 48.4358 51.078C45.8382 51.5862 42.4902 50.8685 40.3799 49.1703C38.3688 47.5517 39.7467 44.8097 39.6019 42.4109C41.713 40.4438 42.3121 39.7191 45.1987 39.3835Z" fill="#855324"/>
<path d="M40.7614 45.2539C42.7861 45.1758 51.4599 45.4451 52.015 47.7182C51.8203 48.3599 51.2723 48.6303 50.7069 49.0197C47.9624 50.1909 44.5982 50.184 41.9272 48.7919C40.6373 48.1196 39.9631 46.5433 40.7614 45.2539Z" fill="#E9BF89"/>
<path d="M44.4654 40.9504C46.791 40.8016 51.3901 41.6753 52.3932 44.571C52.4752 44.8075 52.276 44.9726 52.1225 45.1799C51.4859 45.4496 50.6505 45.1537 49.9488 44.9886C48.4425 44.7491 41.5633 43.9541 41.4769 42.2462C42.1474 41.454 43.4874 41.147 44.4654 40.9504Z" fill="#E9BF89"/>
<path d="M56.894 7.07715C58.7232 5.86452 60.9138 6.17387 62.8098 7.09863C64.4305 7.65001 67.5329 9.95979 68.1967 11.4067C71.9264 19.5384 59.4203 16.6366 57.408 11.9786C56.4197 9.69139 56.299 9.52928 56.894 7.07715Z" fill="#E9BF89"/>
<path d="M56.894 7.07715L57.7986 7.11972C57.9925 7.45671 57.9085 7.73116 57.8659 8.1294C57.5718 9.98384 58.0395 10.5632 58.8248 11.9496C59.8559 13.7697 65.2705 17.0115 67.0533 15.2291C69.9265 12.3565 63.6872 8.79188 62.0363 8.10052C62.1669 7.88805 62.6157 7.36232 62.8098 7.09863C64.4305 7.65001 67.5329 9.95979 68.1967 11.4067C71.9264 19.5384 59.4203 16.6366 57.408 11.9786C56.4197 9.69139 56.299 9.52928 56.894 7.07715Z" fill="#77491B"/>
<path d="M56.894 7.07715C58.7232 5.86452 60.9138 6.17387 62.8098 7.09863C62.6157 7.36231 62.1669 7.88805 62.0363 8.10052C60.236 7.80474 59.4192 7.24895 57.8659 8.1294C57.9085 7.73116 57.9925 7.45671 57.7986 7.11972L56.894 7.07715Z" fill="#915E2F"/>
<path d="M44.6994 7.41608C52.9563 7.34715 46.9894 17.0488 42.3431 19.2963C39.9102 19.9288 38.9761 18.0161 38.308 16.0887C38.9765 12.5171 41.004 8.55566 44.6994 7.41608Z" fill="#77491B"/>
<path d="M44.7276 8.72713C46.5594 8.44749 48.016 9.66095 47.3868 11.5961C46.5385 14.2047 45.0137 16.4307 42.6256 17.8354C41.7637 18.1721 41.1972 18.2609 40.4128 17.646C38.7998 14.8948 42.219 10.1858 44.7276 8.72713Z" fill="#E9BF89"/>
<path d="M34.1127 53.0935C39.0647 52.5733 46.6068 59.1375 41.9763 63.3168C39.5184 64.0553 36.9465 62.4354 35.4461 60.612C33.7545 58.5563 31.6353 55.2677 34.1127 53.0935Z" fill="#724011"/>
<path d="M34.2228 54.1149C36.2935 54.117 37.0303 54.4275 38.7434 55.6291C40.6049 56.9346 43.2146 59.8961 41.483 62.174C40.457 62.2588 39.9317 62.1745 38.9525 61.7867C36.9652 60.9998 33.187 56.2623 34.2228 54.1149Z" fill="#E9BF89"/>
<path d="M20.9456 33.2464L21.0979 33.2426C23.445 33.1669 29.5283 37.6947 28.2163 40.4095C27.8643 41.1376 26.622 41.4463 25.9144 41.6815C23.7908 41.732 22.3884 41.3923 20.6075 40.0353C19.1833 38.9503 17.0946 36.0391 18.6236 34.2625C19.33 33.4415 19.881 33.3156 20.9456 33.2464Z" fill="#824F1B"/>
<path d="M20.3907 34.5927C22.9347 34.443 27.27 37.1952 26.808 39.8297C26.3786 40.4458 26.5182 40.2621 25.6812 40.5339C23.2008 40.5249 18.7842 38.8523 19.0864 35.4895C19.1253 35.0573 20.0088 34.761 20.3907 34.5927Z" fill="#E9BF89"/>
<path d="M36.1209 24.2953C37.6138 24.3807 38.1224 25.0153 39.276 25.9699C40.2453 28.98 39.4182 33.4356 36.1844 34.5817C34.769 34.2245 33.4513 33.2178 32.7459 31.9362C32.1501 30.855 32.0237 29.5767 32.3957 28.3996C33.0142 26.3853 34.3293 25.2218 36.1209 24.2953Z" fill="#8C5A24"/>
<path d="M36.3876 25.4897C39.4077 26.8029 38.0949 32.8228 35.885 33.0333C31.8302 31.1946 33.1775 27.5103 36.3876 25.4897Z" fill="#E9BF89"/>
<path d="M9.4863 35.1307C11.6521 35.2964 13.6606 40.0189 13.2032 41.9091C13.0314 42.6187 11.7385 43.2024 11.1392 43.5559C10.1795 44.0167 9.06494 43.2389 8.27963 42.7581C7.54698 40.3304 7.19861 36.8242 9.4863 35.1307Z" fill="#5C3110"/>
<path d="M9.92147 39.3865L10.7141 39.5887C11.4635 40.3864 11.7951 41.6312 11.152 42.5881C10.6184 42.5415 10.4067 42.5542 9.90825 42.3336C9.17068 41.483 9.09197 40.1744 9.92147 39.3865Z" fill="#915E2F"/>
<path d="M10.4002 7.35162C12.1879 7.88408 13.1107 9.98394 12.5686 11.7287C11.962 13.6804 10.8725 14.1442 9.23518 15.0431C7.61839 14.4421 7.11655 13.5403 6.27817 12.041C6.98379 9.30157 7.53791 8.30394 10.4002 7.35162Z" fill="#915E2F"/>
<path d="M8.4692 9.16299C9.47545 9.14038 10.2375 8.98265 10.9905 9.81357C11.7898 10.6953 11.3769 12.1507 10.5152 12.8616C9.35512 12.9443 7.48958 13.2961 7.49214 11.0284C7.49274 10.4649 7.99813 9.52911 8.4692 9.16299Z" fill="#CDAD84"/>
<path d="M13.0302 45.6574C13.6969 45.0007 13.5261 44.9835 14.3272 44.7653C15.3818 44.9774 16.2334 45.4632 16.1776 46.6991L15.7994 47.2473C15.383 50.9427 8.72821 49.4673 13.0302 45.6574Z" fill="#CDAD84"/>
<path d="M13.0302 45.6574C13.6969 45.0007 13.5261 44.9835 14.3272 44.7653C15.3818 44.9774 16.2334 45.4632 16.1775 46.6991L15.7994 47.2473C15.0768 47.2807 14.4734 47.373 13.8153 47.0796C13.2639 46.6569 13.2268 46.3273 13.0302 45.6574Z" fill="#E9BF89"/>
<path d="M71.7068 35.5199C72.6048 36.6903 71.5867 38.5426 71.0598 39.8124C71.624 40.9074 72.2268 41.8452 71.1265 42.858C69.6884 43.2263 69.2817 42.2904 68.7682 41.17C69.3312 38.7793 70.3964 37.5699 71.7068 35.5199Z" fill="#CDAD84"/>
<path d="M37.4313 5.51082L37.7919 5.46606C37.9955 6.15348 37.7162 7.84767 37.6266 8.6422C36.547 8.77985 35.2192 9.04139 34.1262 9.22739C33.5338 8.90314 33.6705 8.25994 33.6275 7.65216C33.4564 5.22716 35.7714 5.49844 37.4313 5.51082Z" fill="#CDAD84"/>
<path d="M46.3353 30.995C47.458 31.7813 48.3591 33.2929 47.4136 34.5564C46.6103 34.947 46.7216 34.8081 45.7096 34.7383C44.6797 34.5856 44.0457 34.6201 43.56 33.6391C43.7225 32.4701 45.3101 31.8464 46.3353 30.995Z" fill="#CDAD84"/>
<path d="M11.2998 68.6041C12.452 68.8385 13.1316 68.7846 13.7102 69.8731C13.7518 70.6283 13.3914 71.0463 12.9826 71.6911C12.725 71.9036 12.5792 71.9732 12.2934 72.1293C10.994 71.6302 10.8697 69.7516 11.2998 68.6041Z" fill="#E9BF89"/>
<path d="M22.3788 6.43359C23.06 6.5976 23.8476 6.84854 24.214 7.48034C24.2686 8.37033 24.2726 8.08656 23.8106 8.94585C23.1696 9.25191 22.9481 9.17213 22.492 8.75659C22.2159 8.04869 22.3334 7.20449 22.3788 6.43359Z" fill="#CDAD84"/>
<path d="M94.5559 225.26C98.2353 225.869 101.894 226.589 105.587 227.214C112.186 228.335 119.939 229.402 126.387 231.126C124.767 238.794 122.925 245.544 124.626 253.311C124.965 254.861 125.123 256.708 125.625 258.24C113.615 256.556 102.534 254.072 90.6591 251.912C87.1711 251.279 79.3941 249.884 75.9502 249.786L75.9962 249.298C77.1701 248.604 78.1334 247.9 78.6944 246.633C81.6964 246.623 81.7252 251.163 85.9362 246.939C86.2514 246.623 86.5641 246.304 86.8742 245.98C87.9426 246.75 90.6268 249.766 91.7924 247.604C92.4643 246.933 93.0289 246.347 93.786 245.761C94.8893 246.681 96.2394 248.229 97.5333 248.119C97.9126 247.756 97.9645 247.132 97.9455 246.598C97.6948 239.528 98.4168 231.422 94.5559 225.26Z" fill="#CDAD84"/>
<path d="M37.3613 253.845C46.4833 256.12 57.2642 257.392 66.5998 259.173L105.845 266.364C111.841 267.429 118.118 268.766 124.133 269.611C123.745 271.286 123.153 273.538 122.898 275.193C121.196 273.83 118.938 271.327 117.029 273.868C116.775 274.213 116.531 274.564 116.298 274.923C114.96 273.008 114.378 272.56 112.071 271.724C110.796 272.29 110.251 272.605 109.072 273.359C107.575 271.589 107.256 270.936 105.178 269.94C103.519 270.652 102.583 271.228 101.109 272.292C100.008 270.471 99.5536 269.583 97.5658 268.569C96.2449 269.133 95.402 269.524 94.1515 270.222L94.0773 270.171C92.2442 268.918 92.0532 267.303 90.1806 267.563C88.8537 267.747 88.0818 269.118 86.902 269.114C85.7011 268.183 85.3872 267.133 83.7345 265.863L79.4351 267.902C76.8089 264.371 75.9699 264.431 72.1607 266.486C71.5052 265.348 70.7996 263.894 69.4107 263.559C67.2398 263.089 65.7839 267.036 63.9068 264.152C63.4505 263.45 62.6839 262.172 61.8029 262.052C59.8001 261.777 59.9392 263.87 57.6962 263.649C56.432 263.176 56.1852 260.097 53.6349 261.018C52.5431 261.412 51.7157 262.576 50.7539 262.33C50.4552 263.156 50.3881 263.393 49.4006 263.58C48.1304 262.286 47.4818 261.065 45.6644 262.129L45.389 262.734C44.4043 262.774 43.5231 262.892 42.8212 262.129C43.126 261.625 42.9493 261.793 43.617 261.547C42.0087 261.115 41.8931 259.296 40.3576 257.848C38.6489 258.41 38.1293 258.676 36.5604 259.669C36.9025 257.676 37.1262 255.846 37.3613 253.845Z" fill="#CDAD84"/>
<path d="M44.523 261.359C46.0144 259.724 47.1548 258.745 49.0876 260.639C49.6504 261.196 50.2059 261.76 50.7539 262.33C50.4552 263.156 50.3881 263.393 49.4006 263.58C48.1304 262.286 47.4818 261.065 45.6644 262.129L45.389 262.734C44.4043 262.774 43.5231 262.892 42.8212 262.129C43.126 261.626 42.9493 261.793 43.617 261.547L44.523 261.359Z" fill="#5C3110"/>
<path d="M7.41934 246.401C11.2473 246.03 15.9635 245.967 19.9788 245.649C37.847 244.152 55.7419 242.994 73.654 242.175C81.0616 241.798 88.5839 240.984 95.9147 240.698C96.0899 242.173 96.0881 243.702 96.1133 245.189C93.8438 243.935 93.3607 243.799 91.6898 245.858C89.0627 247.88 89.6251 245.022 87.8544 244.716C86.154 244.422 84.2971 246.158 83.0054 247.178C82.226 246.773 81.0215 245.872 80.1228 245.351C78.5918 244.615 76.5736 246.62 75.3983 247.606C72.101 245.349 70.1806 245.079 67.4463 248.251C63.6272 246.272 62.9603 245.28 59.7614 248.701C58.4591 248.263 57.0616 247.272 55.8859 246.511C54.4295 247.128 53.4118 247.985 52.2176 249.016C50.9146 248.371 49.416 247.564 48.0415 247.17C46.4959 248.01 46.0321 248.405 44.7116 249.618C43.2394 248.926 42.2847 248.43 40.8916 247.596C39.23 248.405 38.5725 249.123 37.3501 250.439C36.6054 249.689 35.5581 248.405 34.552 248.292L34.5296 248.653C32.6256 248.789 31.8489 249.074 30.4329 250.587C31.5528 251.121 32.8001 248.886 34.5193 249.689L34.4921 249.906L34.1429 249.965C30.0349 250.723 31.3064 254.445 26.0126 250.155C24.6781 251.218 23.125 252.723 21.2958 252.597C19.5567 252.474 19.8585 249.435 17.8032 251.271C16.8429 252.321 15.768 253.011 14.5426 253.69C13.187 253.043 12.0123 252.267 11.253 250.955C11.3469 250.667 11.1011 250.293 11.2516 249.673C9.98814 249.436 8.81105 250.362 7.66356 251.026C7.57163 249.486 7.49016 247.943 7.41934 246.401Z" fill="#EFE7D5"/>
<path d="M31.4544 248.675C32.7491 248.407 33.2126 248.314 34.5521 248.292L34.5296 248.653C32.6256 248.789 31.8489 249.074 30.433 250.587C31.5528 251.121 32.8001 248.886 34.5193 249.689L34.4921 249.906L34.1429 249.965C30.0349 250.723 31.3064 254.445 26.0126 250.155C24.6781 251.218 23.1251 252.723 21.2958 252.597C19.5567 252.474 19.8585 249.435 17.8032 251.271L17.2205 250.602C16.824 250.634 16.4271 250.665 16.0302 250.693C17.1858 249.77 18.2123 249.425 19.577 248.995C20.5241 249.876 21.1982 250.336 22.2545 251.076C23.3081 250.218 24.787 248.853 26.129 248.799C29.5401 248.659 28.1259 253.265 31.4544 248.675Z" fill="#5C3110"/>
<path d="M11.2516 249.673C12.5603 250.17 13.4336 250.89 14.4694 251.825C14.8172 251.559 15.6931 250.859 16.0302 250.693C16.4271 250.665 16.824 250.634 17.2205 250.602L17.8032 251.271C16.8429 252.321 15.768 253.011 14.5426 253.69C13.187 253.043 12.0123 252.267 11.253 250.955C11.3469 250.667 11.1011 250.293 11.2516 249.673Z" fill="#5C3110"/>
<path d="M82.7439 27.3925C83.2524 26.2006 83.8347 23.4373 84.5313 22.6183C85.231 22.6147 87.5327 24.3505 89.411 24.9667C92.2528 23.2793 93.1046 22.5011 94.6127 25.9385C95.1398 25.9412 97.7857 25.8929 98.0412 25.5258C100.282 22.3072 100.79 27.0471 102.846 27.2884C104.456 27.4771 105.756 26.4462 106.962 25.5548C107.032 25.6635 107.104 25.7716 107.176 25.8793C109.373 29.1425 111.501 28.8854 114.474 26.7222C116.618 30.7101 118.087 30.9261 121.2 28.5276C122.952 27.1781 123.574 31.0433 124.909 31.2573C126.567 31.5233 128.304 30.1763 129.661 29.2646C131.463 34.2913 132.943 33.1781 136.775 30.8159C139.295 35.0642 140.483 34.6621 144.465 32.4695C146.451 35.0733 147.668 36.4555 150.773 34.1137C150.271 33.316 150.138 33.002 149.13 32.9002C154.17 29.4991 153.185 33.8437 155.262 35.3459L154.654 35.3579C154.217 35.9753 154.374 36.114 154.362 37.0305C157.101 36.999 157.321 36.7508 159.27 34.8062C161.213 38.6589 162.392 39.3083 165.982 36.7977C165.594 38.7237 165.248 40.6576 164.944 42.5983C159.435 40.8594 151.28 39.8534 145.479 38.7734C138.83 37.5353 132.129 36.2827 125.47 35.1139C111.312 32.6289 96.9941 29.2107 82.7439 27.3925Z" fill="#CDAD84"/>
<path d="M149.13 32.9002C154.17 29.4991 153.185 33.8437 155.262 35.3459L154.654 35.3579C154.217 35.9753 154.374 36.114 154.362 37.0305C153.8 36.3918 151.921 34.0684 151.299 33.8547L150.773 34.1137C150.271 33.316 150.138 33.002 149.13 32.9002Z" fill="#77491B"/>
<path d="M83.0054 247.178C84.2971 246.158 86.154 244.422 87.8544 244.716C89.6251 245.022 89.0626 247.88 91.6898 245.858L92.1315 246.282C91.9392 246.791 91.777 247.069 91.7924 247.604C90.6268 249.766 87.9426 246.75 86.8742 245.98C86.5641 246.304 86.2514 246.623 85.9362 246.939C81.7252 251.163 81.6964 246.623 78.6944 246.633C78.6145 246.608 78.577 246.545 78.506 246.472L78.922 246.12C80.3875 246.049 80.2668 246.803 81.3281 247.685C82.8478 248.945 86.873 247.144 86.3177 245.292C85.7963 245.41 83.8473 246.984 83.1403 247.444C82.1913 247.397 80.8519 246.324 80.06 245.732L80.1228 245.351C81.0215 245.872 82.226 246.773 83.0054 247.178Z" fill="#5C3110"/>
<path d="M72.9161 249.547C71.3206 249.184 71.0922 249.267 70.3532 247.708L70.7379 247.107C71.9595 246.967 72.8019 247.973 73.6698 248.732C73.2171 249.014 73.2064 249.079 72.9161 249.547Z" fill="#BF8C53"/>
<path d="M73.6698 248.732C74.4208 248.991 75.2111 249.324 75.9962 249.298L75.9502 249.786C75.2008 249.833 73.7156 249.632 72.9161 249.547C73.2065 249.079 73.2171 249.014 73.6698 248.732Z" fill="#BF8C53"/>
<path d="M72.0996 67.0096C73.5319 66.7717 78.1109 66.9748 79.6953 67.0342L87.2196 189.379C82.3799 189.575 77.1478 189.617 72.3454 190.062C61.1575 191.1 50.0149 191.596 38.813 192.268C30.9614 192.74 23.2055 193.438 15.3337 193.804C13.232 193.98 11.0532 194.065 8.94205 194.175C8.08946 182.737 7.72748 171.807 7.05954 160.465L1.90598 77.4865C5.67395 77.2863 9.62399 75.464 13.9384 75.2551C19.7792 74.9722 29.6234 77.4765 34.859 76.2814C40.6699 74.9552 48.6457 71.0334 54.552 69.1122C56.8194 68.3748 60.4284 69.0114 62.7926 68.6903C66.1213 68.2383 68.6348 67.326 72.0996 67.0096Z" fill="#EFE7D5"/>
<path d="M24.6523 85.8972C31.9645 85.6926 39.8826 84.58 47.2473 84.3119C48.8501 84.2537 52.6328 83.9381 54.0758 84.1843C54.3484 84.6491 54.308 85.7192 54.3275 86.3173C54.5741 88.7046 54.5349 91.2072 54.683 93.6124C55.4693 106.36 56.3381 119.085 56.8955 131.847C56.9255 132.536 57.0259 133.313 57.005 133.989C57.1218 137.262 57.6169 141.794 57.6043 144.835C58.1523 147.048 58.265 155.617 58.4415 158.156C58.922 165.064 59.5241 172.018 59.9796 178.92C50.9284 179.888 39.459 180.557 30.2911 180.95C30.0327 178.482 29.9997 174.892 29.8171 172.265L28.1744 145.571L24.6523 85.8972Z" fill="#B86339"/>
<path d="M24.6523 85.8972C31.9645 85.6926 39.8826 84.58 47.2473 84.3119C48.8501 84.2537 52.6328 83.9381 54.0758 84.1843C54.3484 84.6491 54.308 85.7192 54.3275 86.3173C54.5741 88.7046 54.5349 91.2072 54.683 93.6124C55.4693 106.36 56.3381 119.085 56.8955 131.847C56.9255 132.536 57.0259 133.313 57.005 133.989L56.6635 133.723C56.531 134.237 56.5691 134.321 56.6393 134.861L56.4639 135.251C56.2305 135.052 56.4391 134.412 56.122 133.939L55.9848 134.123C54.7733 132.373 52.7113 93.8825 52.8447 89.0794C52.723 87.8112 52.6926 86.9752 52.6985 85.7017C44.8753 86.9429 36.3521 86.3907 28.48 87.4877C27.8344 87.5779 27.0814 87.6457 26.4294 87.6931C26.4616 97.0829 27.6602 104.661 28.1723 113.691L30.7077 162.69C31.009 167.576 32.5693 174.961 32.5756 179.043C41.0326 178.918 49.4785 178.379 57.8828 177.427C57.7312 170.975 57.2303 164.562 56.9085 158.128C56.8292 156.542 56.4128 150.082 56.6367 148.823C57.0539 147.432 56.72 145.652 57.1352 145.07L57.066 144.812L57.4903 146.769C57.5633 146.235 57.5787 145.395 57.6043 144.835C58.1523 147.048 58.265 155.617 58.4415 158.156C58.922 165.064 59.5241 172.018 59.9796 178.92C50.9284 179.888 39.459 180.557 30.2911 180.95C30.0327 178.482 29.9997 174.892 29.8171 172.265L28.1744 145.571L24.6523 85.8972Z" fill="#6C3D1B"/>
<path d="M55.9848 134.123L56.1221 133.939C56.4391 134.412 56.2305 135.052 56.4639 135.251L56.6393 134.861C56.5691 134.321 56.531 134.237 56.6635 133.723L57.005 133.989C57.1218 137.262 57.6169 141.794 57.6043 144.835C57.5787 145.395 57.5633 146.235 57.4903 146.769L57.066 144.812L57.1352 145.07C56.72 145.652 57.0539 147.432 56.6367 148.823C56.6525 144.546 56.3284 138.393 55.9848 134.123Z" fill="#270700"/>
<path d="M83.2737 87.1635C85.9242 87.4446 88.6961 87.9663 91.317 88.4729C102.99 90.7286 114.659 92.4291 126.313 94.8233C134.136 96.4306 142.195 97.2074 149.966 99.3527C148.038 109.16 146.905 118.978 144.852 128.748C143.968 132.955 143.317 137.178 142.619 141.415C142.063 144.67 141.474 147.918 140.852 151.161C140.621 152.391 140.063 154.972 139.991 156.138C140.141 156.288 140.307 156.359 140.276 156.548C139.021 164.247 137.61 172.002 135.955 179.632C135.554 181.485 136.635 182.128 135.5 183.621C134.473 185.085 133.708 193.851 133.05 194.946L132.881 194.626C132.648 195.06 132.428 196.808 132.328 197.376C131.189 203.843 130.397 210.8 128.698 217.124C122.712 216.785 114.431 214.763 108.443 213.696C102.521 212.641 96.558 211.593 90.6542 210.459C90.2677 206.435 90.3851 201.935 90.1993 197.818C94.8846 198.964 99.9381 200.14 104.749 200.605C106.093 190.865 107.688 182.759 109.365 173.154L121.482 106.55C118.336 105.576 113.812 104.809 110.505 104.179C104.512 103.059 98.5105 101.978 92.5024 100.936C91.5746 105.079 90.8187 109.259 90.2368 113.465C90.7008 114.171 90.7365 114.337 90.5439 115.253C90.492 115.496 90.437 115.738 90.3786 115.979C90.8503 116.009 90.9191 115.784 91.3841 115.38C90.698 118.36 90.1332 121.367 89.6915 124.393C89.5138 125.582 89.193 128.521 88.9301 129.544C88.2939 126.57 90.551 120.943 90.0218 118.691L89.7614 118.567C89.3189 119.341 89.7472 119.656 89.515 120.87C88.977 123.683 87.7455 127.595 87.5703 130.361C87.3362 130.028 87.3812 129.491 87.3453 129.017L87.0573 130.9L86.6809 131.305L86.4057 131.202C86.28 130.711 86.1496 130.221 86.0147 129.732C85.6271 122.833 85.17 115.938 84.6437 109.048L83.2737 87.1635Z" fill="#EFE7D5"/>
<path d="M139.991 156.138C140.141 156.288 140.307 156.359 140.276 156.548C139.021 164.247 137.61 172.002 135.955 179.632C135.554 181.485 136.635 182.128 135.5 183.621C134.473 185.085 133.708 193.851 133.05 194.946L132.881 194.626C133.018 192.985 133.683 189.931 134.008 188.169L136.852 173.397C137.535 169.79 138.19 166.177 138.817 162.56C139.103 160.899 139.564 157.642 139.991 156.138Z" fill="#5C3110"/>
<path d="M90.2368 113.465C90.7008 114.171 90.7365 114.337 90.5439 115.253C90.4921 115.496 90.437 115.738 90.3786 115.979C90.8503 116.009 90.9191 115.784 91.3841 115.38C90.698 118.36 90.1332 121.367 89.6915 124.393C89.5138 125.582 89.1931 128.521 88.9301 129.544C88.2939 126.57 90.551 120.943 90.0218 118.691L89.7614 118.567C89.3189 119.341 89.7472 119.656 89.515 120.87C88.9771 123.683 87.7455 127.595 87.5704 130.361C87.3362 130.028 87.3812 129.491 87.3453 129.017C88.3945 123.869 89.5418 118.666 90.2368 113.465Z" fill="#5C3110"/>
<path d="M81.3809 38.9037C86.799 39.3801 94.6926 41.1946 100.282 42.1805C109.928 43.8817 120.171 45.454 129.749 47.3445L151.862 51.6838C155.307 52.3614 159.097 53.2558 162.523 53.8109C161.263 55.7232 158.765 59.4705 157.938 61.4183C155.868 66.2901 154.684 73.9549 153.899 79.1907C153.516 81.4879 153.056 83.6456 152.569 85.9204C148.43 84.901 143.41 84.1354 139.172 83.2812C126.567 80.6396 113.904 78.2847 101.193 76.2185C96.2272 75.3772 87.0202 73.1427 82.4209 72.8056C82.3292 71.0265 82.0329 67.5619 81.4551 65.7771C81.438 65.7238 80.9201 64.9314 80.9199 64.9341C81.1117 60.1777 82.947 54.1177 83.0033 49.4719C83.0451 46.0024 81.6666 42.289 81.3809 38.9037Z" fill="#CDAD84"/>
<path d="M88.144 202.945C88.5541 203.41 88.7119 211.339 88.8202 212.623C88.9433 214.004 89.1392 215.379 89.4071 216.738C90.4848 222.127 92.4209 224.415 94.4474 229.244C92.7703 229.534 89.618 229.586 87.8272 229.672C84.4129 229.824 81.002 230.047 77.5968 230.339C66.775 231.213 56.7813 231.513 46.0542 232.107C34.7872 232.803 23.5269 233.604 12.2749 234.511C10.5989 234.657 8.86315 234.722 7.1785 234.807C8.86946 228.069 11.4517 223.593 10.3695 216.436C10.0256 214.161 9.92365 210.514 9.82324 208.188C19.1269 206.999 28.7599 206.798 38.0752 206.149L68.5082 204.308C75.013 203.888 81.6506 203.245 88.144 202.945Z" fill="#EFE7D5"/>
<path d="M94.0117 102.814C98.0702 103.039 103.002 104.548 107.178 105.28C109.73 105.72 112.287 106.13 114.849 106.507C116.417 106.722 118.673 106.927 120.152 107.286C118.057 113.879 117.747 117.876 116.596 124.557L112.429 148.11L109.009 167.287C107.807 173.731 106.302 180.136 105.448 186.709C104.954 190.516 103.811 194.8 103.469 198.548C99.1191 197.824 94.2671 197.471 89.9912 196.368C89.301 186.252 88.7766 176.07 88.1249 165.964C87.6721 158.944 86.2591 153.185 86.5388 145.752C86.7618 139.828 88.5026 134.715 88.9301 129.544C89.1931 128.521 89.5138 125.582 89.6915 124.393C90.1332 121.367 90.698 118.36 91.3841 115.38C92.5365 111.83 93.3739 106.524 94.0117 102.814Z" fill="#B86339"/>
<path d="M82.8328 191.492C84.1689 191.378 86.1502 191.39 87.5368 191.356C87.6226 194.48 88.0905 197.81 88.1923 201.069C78.608 201.913 68.7364 201.594 59.1288 202.572C54.1896 203.073 49.2949 203.58 44.3408 203.937C34.2617 204.58 24.1747 205.093 14.0824 205.478C12.7443 205.663 11.1204 205.746 9.67054 205.934C9.34821 202.718 9.3563 199.532 9.04817 196.315L63.1747 192.894C69.779 192.474 76.1994 191.833 82.8328 191.492Z" fill="#939C77"/>
<path d="M82.5701 74.7055C85.8494 75.5259 91.2391 76.2702 94.6962 76.8746L118.431 81.1277L139.997 85.2284C143.801 85.9781 148.145 87.1443 151.992 87.5668C151.513 90.1997 151.166 93.6363 150.831 96.3384C150.785 96.8271 150.837 96.6458 150.513 97.0648C147.442 96.4028 143.583 96.097 140.307 95.4571L82.9699 84.7663C82.729 81.482 82.6348 77.9951 82.5701 74.7055Z" fill="#939C77"/>
<path d="M90.669 212.337C95.1674 212.883 99.0778 213.933 103.513 214.797L128.465 219.715C128.362 222.46 127.988 225.191 127.349 227.864C127.226 228.475 127.35 228.303 126.946 228.676C121.954 228.012 116.69 227.485 111.788 226.406C105.712 225.07 99.9509 224.078 93.7862 223.313C91.7117 219.275 90.9477 216.978 90.669 212.337Z" fill="#B86339"/>
<path d="M47.5899 251.074C47.3842 250.066 47.2112 249.734 47.7247 248.91C49.0742 248.543 50.5172 250.987 52.3365 251.602C53.9859 252.303 62.6092 253.545 65.1797 254.106C71.6202 255.666 78.5804 256.272 84.9964 257.702C97.9885 260.598 111.657 262.032 124.533 265.194C124.522 265.914 124.344 266.92 124.238 267.654C119.17 267.196 110.819 265.405 105.636 264.446L73.3495 258.465L49.3868 254.195C46.0576 253.579 41.437 252.845 38.2429 251.975C38.9971 251.048 39.6251 250.506 40.5048 249.709C43.1708 251.019 44.6828 250.89 47.5899 251.074Z" fill="#CDAD84"/>
<path d="M47.5899 251.074C47.3842 250.066 47.2112 249.734 47.7247 248.91C49.0741 248.543 50.5171 250.987 52.3365 251.602C51.0644 251.52 48.7783 251.389 47.5899 251.074Z" fill="#915E2F"/>
<path d="M82.8784 29.1942C98.7297 31.775 115.235 35.1399 131.087 38.0605L153.985 42.1541C157.351 42.7426 160.797 43.2241 164.136 43.8855C164.098 44.9107 163.943 45.9607 163.814 46.981C158.913 46.1919 153.969 45.08 149.023 44.2254C126.782 40.4103 104.588 36.3316 82.4434 31.9904C82.5631 30.9348 82.6657 30.2428 82.8784 29.1942Z" fill="#CDAD84"/>
<path d="M93.9914 231.343L94.6078 231.4C94.885 231.732 95.1432 232.158 95.1333 232.602C95.0737 234.377 92.5393 233.845 91.3431 233.985C82.4085 235.022 73.5053 235.204 64.5548 235.74L8.07625 239.334C7.56869 239.35 7.51049 239.378 7.07158 239.161C6.67803 238.581 6.87747 237.614 6.94474 236.873C18.7489 235.667 29.5863 235.519 41.2733 234.76C58.8516 233.616 76.3578 231.864 93.9914 231.343Z" fill="#EFE7D5"/>
<path d="M81.7293 34.3771C90.1851 35.2228 97.3934 36.901 105.696 38.3163C114.791 39.8666 123.797 41.3921 132.875 43.1286L156.02 47.4227C158.604 47.8782 161.174 48.4814 163.764 48.8602C163.388 50.1016 163.219 50.8883 162.985 52.1658L162.813 52.2419C161.815 52.0454 160.057 51.4274 158.69 51.1343L140.819 47.4876C138.006 46.9372 135.098 46.6459 132.262 46.1162L96.529 39.4697C94.8741 39.1683 82.0992 37.0471 81.5744 36.6228C81.3661 35.9365 81.5957 35.1013 81.7293 34.3771Z" fill="#CDAD84"/>
<path d="M94.2859 235.683C94.8108 235.64 94.8688 235.604 95.3006 235.857C95.7549 236.567 95.6868 237.786 95.7192 238.672C87.3916 238.847 79.5973 239.565 71.321 240.094L24.8866 243.065C19.362 243.434 13.8052 244.041 8.30152 244.339C7.9277 244.41 7.85393 244.373 7.49333 244.29C7.05046 243.7 7.11971 242.652 7.08972 241.875C8.63333 241.601 11.0271 241.473 12.6305 241.305C17.8103 240.763 23.0229 240.585 28.2179 240.275L60.0082 238.281C71.4447 237.672 82.6955 236.162 94.2859 235.683Z" fill="#EFE7D5"/>
<path d="M61.8152 249.596C62.169 249.062 62.517 248.377 63.0921 248.158C63.9573 248.375 64.0981 248.851 64.598 249.675C66.0643 249.951 67.7489 250.164 69.2444 250.277C73.0484 250.557 76.7716 251.518 80.5144 252.048C85.7561 252.794 90.7509 254.043 95.9176 255.025L125.422 260.44C125.433 261.312 125.471 262.314 125.447 263.174C120.63 262.123 115.391 261.61 110.548 260.645C97.0324 257.954 83.3343 255.996 69.8946 252.979C67.5262 252.449 60.0404 251.502 58.4464 250.855C57.9704 250.65 57.4968 250.437 57.0257 250.222L57.9807 249.983C59.6689 250.358 60.2055 250.129 61.8152 249.596Z" fill="#CDAD84"/>
<path d="M58.4465 250.855C57.1514 250.736 54.9659 250.642 54.2482 249.557L54.3836 249.111C54.9337 248.604 55.0105 248.549 55.7358 248.342C56.2627 248.48 57.2804 249.5 57.9807 249.983L57.0257 250.222C57.4968 250.437 57.9705 250.65 58.4465 250.855Z" fill="#BF8C53"/>
<path d="M86.0147 129.732C86.1496 130.221 86.28 130.711 86.4057 131.202L86.6809 131.305L87.0573 130.9C86.8085 132.499 86.5817 134.101 86.3767 135.706C86.0504 133.674 85.982 131.781 86.0147 129.732Z" fill="#CDAD84"/>
</svg>
