<svg width="623" height="462" viewBox="0 0 623 462" fill="none" xmlns="http://www.w3.org/2000/svg">
<path d="M123.859 284.595C120.59 278.05 122.29 199.261 123.859 199.513C125.429 199.764 171.622 110.067 171.622 110.067C171.622 110.067 617.607 97.7344 620.791 110.067C623.768 121.597 620.921 184.485 620.779 188.631C620.787 188.613 620.791 188.605 620.791 188.605C620.772 188.924 620.769 188.92 620.779 188.631C619.929 190.422 576.266 282.434 573.028 284.595C569.759 286.776 127.129 291.139 123.859 284.595Z" fill="#807F7F"/>
<path d="M123.859 199.513C122.29 199.261 120.59 278.05 123.859 284.595C127.129 291.139 569.759 286.776 573.028 284.595C576.298 282.413 620.791 188.605 620.791 188.605C620.496 193.502 623.976 122.4 620.791 110.067C617.607 97.7344 171.622 110.067 171.622 110.067C171.622 110.067 125.429 199.764 123.859 199.513Z" stroke="black"/>
<line y1="-0.5" x2="65.482" y2="-0.5" transform="matrix(0.469618 -0.88287 0.56027 0.82831 579.897 177.697)" stroke="#D9D9D9"/>
<line y1="-0.5" x2="377.539" y2="-0.5" transform="matrix(0.999962 0.00866768 -0.00311867 0.999995 159.189 198.422)" stroke="#D9D9D9"/>
<path d="M32.3469 370.806C29.3323 414.28 24.6168 435.999 1.1433 461.5L218.932 460.783L219.071 460.424C227.168 439.575 231.75 427.776 251.727 409.879L563.126 70.4028C570.576 59.2554 577.483 39.9872 592.738 0.5H374.313C359.343 25.0004 352.072 33.3248 342.472 32.0459L32.3469 370.806Z" fill="#D9D9D9" stroke="black"/>
<line y1="-0.5" x2="460.833" y2="-0.5" transform="matrix(0.677112 -0.73588 0.650904 0.75916 31.7095 371.164)" stroke="black"/>
<line y1="-0.5" x2="460.833" y2="-0.5" transform="matrix(0.677112 -0.73588 0.650904 0.75916 250.772 371.164)" stroke="black"/>
<line x1="31.7095" y1="370.664" x2="250.771" y2="370.664" stroke="black"/>
<line x1="373.676" y1="0.71698" x2="592.738" y2="0.71698" stroke="black"/>
<line x1="343.747" y1="31.5458" x2="562.808" y2="31.5458" stroke="black"/>
<path d="M251.065 371.301C250.236 396.105 237.91 418.904 219.862 456.618" stroke="black"/>
<path d="M562.593 31.7814C570.697 34.5567 577.567 26.4908 592.523 0.952502" stroke="black"/>
</svg>
