<svg width="603" height="481" viewBox="0 0 603 481" fill="none" xmlns="http://www.w3.org/2000/svg">
<path d="M257.833 5.83948C298.766 13.7515 356.228 34.7972 372.333 48.8395L231.832 282.839L109.332 327.339C65.4449 309.11 17.4125 276.179 6.33245 265.339C-4.74762 254.5 2.7088 12.1194 6.33245 5.83948C9.95609 -0.440464 216.899 -2.07257 257.833 5.83948Z" fill="#807F7F" stroke="black"/>
<path d="M371.275 327.265C362.361 332.687 119.032 331.253 108.775 327.265C98.5188 323.277 99.8059 55.2778 108.275 48.2648C116.745 41.2519 363.284 45.7122 371.275 48.2648C379.267 50.8175 380.19 321.843 371.275 327.265Z" fill="#D9D9D9"/>
<path d="M371.275 327.265C362.361 332.687 119.032 331.253 108.775 327.265C98.5188 323.277 99.8059 55.2778 108.275 48.2648C116.745 41.2519 363.284 45.7122 371.275 48.2648C379.267 50.8175 380.19 321.843 371.275 327.265Z" fill="black" fill-opacity="0.2"/>
<path d="M371.275 327.265C362.361 332.687 119.032 331.253 108.775 327.265C98.5188 323.277 99.8059 55.2778 108.275 48.2648C116.745 41.2519 363.284 45.7122 371.275 48.2648C379.267 50.8175 380.19 321.843 371.275 327.265Z" stroke="#D9D9D9"/>
<line x1="101.311" y1="44.963" x2="20.3113" y2="11.963" stroke="#B3B3B3"/>
<path d="M490.83 173.116C527.376 186.793 577.126 214.805 589.795 229.876L423.528 414.472L303.499 433.988C265.839 410.683 226.652 373.669 218.119 362.255C209.587 350.841 254.361 137.161 258.687 132.183C263.014 127.205 454.284 159.439 490.83 173.116Z" fill="#807F7F" stroke="black"/>
<path d="M545.293 476.555C536.217 479.911 311.841 439.037 302.997 433.831C294.153 428.626 337.238 191.228 346.152 186.389C355.066 181.55 581.932 225.63 588.91 229.194C595.887 232.758 554.369 473.198 545.293 476.555Z" fill="#D9D9D9"/>
<path d="M545.293 476.555C536.217 479.911 311.841 439.037 302.997 433.831C294.153 428.626 337.238 191.228 346.152 186.389C355.066 181.55 581.932 225.63 588.91 229.194C595.887 232.758 554.369 473.198 545.293 476.555Z" fill="black" fill-opacity="0.2"/>
<path d="M545.293 476.555C536.217 479.911 311.841 439.037 302.997 433.831C294.153 428.626 337.238 191.228 346.152 186.389C355.066 181.55 581.932 225.63 588.91 229.194C595.887 232.758 554.369 473.198 545.293 476.555Z" stroke="#D9D9D9"/>
<line y1="-0.5" x2="81.5251" y2="-0.5" transform="matrix(-0.853808 -0.520587 0.544409 -0.83882 340.486 181.949)" stroke="#B3B3B3"/>
</svg>
