<svg width="147" height="258" viewBox="0 0 147 258" fill="none" xmlns="http://www.w3.org/2000/svg">
<path d="M45.6207 2.70272C46.2925 3.02306 46.6518 3.33498 47.4186 3.0085C50.0817 1.87442 51.0737 0.657686 54.0139 0C56.0005 1.15356 58.1967 3.0651 60.2068 3.5901C62.0212 2.70088 65.1236 -0.294697 67.2808 0.346173C69.221 0.922647 71.1644 2.544 73.1522 3.43855C76.3358 2.25935 77.5927 -0.208768 80.7091 0.39088C82.8807 1.32665 84.8814 2.37214 86.9822 3.44921C89.0726 2.0272 90.5746 0.748126 93.1135 0.328536C94.3599 0.623233 98.2706 2.50154 99.6105 3.21234C102.131 2.78106 104.84 -1.46918 108.032 0.721876C109.832 1.95706 110.63 3.0005 112.842 3.27305C115.21 2.80383 116.17 1.59858 118.36 0.594112C120.984 -0.447685 123.689 2.1808 125.922 3.45187C128.788 2.35409 130.24 0.464912 133.34 0.282392C135.867 1.15438 136.336 2.49703 138.602 3.40245C138.781 3.47402 139.557 3.21091 139.794 3.13113C140.615 2.14225 144.633 -0.00635569 146.095 0.78299C146.333 1.58813 146.229 1.44457 146.013 2.36824C145.447 4.93049 144.714 7.52411 144.025 10.0607C143.73 11.2008 143.456 12.227 143.102 13.3535C142.218 16.6897 140.875 21.4077 139.775 24.6664C138.675 29.6721 137.655 33.0674 137.488 38.2858C137.238 46.0745 136.45 53.8818 136.496 61.6961C136.492 62.3932 136.484 63.1501 136.419 63.8437L136.38 159.446C136.317 169.856 136.321 180.266 136.392 190.678C136.45 200.774 136.197 210.784 137.641 220.818C139.301 232.345 142.295 243.932 145.661 255.072C145.891 255.831 145.829 256.575 145.383 257.232C144.656 257.648 143.435 257.402 142.722 257.045C141.495 256.309 140.072 254.974 138.669 254.053C133.81 257.802 132.476 258.528 128.085 255.021C125.303 252.798 122.601 256.418 120.287 257.217C118.659 257.779 116.032 255.372 114.472 254.432C109.912 254.426 110.726 255.302 107.06 257.431C103.877 256.711 103.277 255.997 100.674 254.03C97.0559 254.58 96.4427 256.422 93.1405 257.324C90.476 256.817 88.7492 255.649 86.5036 254.201C78.5373 258.208 80.7893 258.774 72.8152 254.049C70.616 255.745 68.6819 257.449 65.7845 257.09C65.5387 257.059 65.2936 257.021 65.05 256.975C63.8548 256.157 61.2786 254.584 59.9929 254.154C55.6857 255.439 55.5801 258.864 50.7433 255.929C49.8276 255.566 47.9227 254.463 46.6791 253.918C45.5099 254.393 40.3707 257.545 39.3994 257.271C37.4224 256.717 35.1672 254.808 32.9485 254.067L32.8527 254.037C30.6834 254.951 29.7708 256.358 27.743 257.111C24.6756 258.251 23.8118 255.655 21.776 254.605C19.3399 253.345 17.0551 256.356 15.0088 257.117C12.3836 258.089 10.0464 255.345 7.53375 254.09C5.97474 254.888 2.37378 258.265 0.708542 256.92C0.252038 255.544 1.77146 250.714 2.20233 249.08C4.3454 239.802 8.22445 230.305 9.22175 220.677C10.1524 211.692 9.88805 202.263 9.88743 193.217L9.8743 151.391L9.89051 88.1971C9.88333 70.4353 9.97028 53.3761 9.0704 35.6354C8.02163 28.7454 4.96105 21.0642 3.30955 14.1787C2.52349 10.9011 0.442968 6.38285 0.27829 3.03988C0.0769032 2.31 0.0477832 1.08384 0 0.292443C2.62644 0.865227 4.72561 2.31021 7.26776 3.4084C9.6518 2.35204 11.5512 -0.378163 14.4785 0.553917C16.2824 1.57726 18.1685 2.73328 20.1212 3.40225C22.0689 2.53928 23.8221 1.20627 25.6704 0.329972C27.3248 -0.454246 30.7962 2.66868 32.4944 3.41865L32.5883 3.38953C36.1243 2.2655 38.8303 -1.12219 42.8107 0.917519C43.2865 1.16136 45.2439 2.36476 45.6207 2.70272Z" fill="#8B9874"/>
<path d="M135.203 54.7958C135.507 55.2023 135.841 55.6326 136.128 56.0466C136.108 57.7223 135.927 62.6177 136.419 63.8437L136.38 159.446C136.317 169.856 136.321 180.266 136.392 190.678C136.45 200.774 136.197 210.784 137.641 220.818C139.301 232.346 142.295 243.932 145.661 255.072C145.891 255.831 145.829 256.576 145.383 257.232C144.656 257.648 143.435 257.402 142.722 257.045C143.049 256.713 143.196 256.2 143.372 255.751C143.82 255.007 141.781 248.391 141.486 246.904C139.419 236.449 135.859 225.937 134.877 215.328C134.427 210.462 134.984 204.617 135.017 199.652L135.115 165.455L135.026 61.6838C135.338 60.3508 135.212 56.3548 135.203 54.7958Z" fill="#4F5842"/>
<path d="M9.0704 35.6354C9.77197 33.7202 8.12827 31.2361 8.66988 29.2595C9.90773 30.5884 9.82796 35.2755 10.5414 36.7244C11.4151 50.5678 11.1284 65.5497 11.1282 79.4731L11.1148 142.708L11.1132 191.482C11.1163 200.856 11.3593 211.013 10.7174 220.277C10.3099 226.156 7.48473 234.569 6.06887 240.342C5.72393 241.746 4.01071 248.725 3.63378 249.654C3.32308 250.064 2.8512 250.528 2.33789 250.511C2.19843 249.927 2.2091 249.666 2.20233 249.08C4.3454 239.802 8.22445 230.305 9.22174 220.677C10.1524 211.692 9.88804 202.263 9.88743 193.217L9.8743 151.391L9.89051 88.1971C9.88333 70.4353 9.97028 53.3761 9.0704 35.6354Z" fill="#171D10"/>
<path d="M100.289 252.509C103.153 253.423 103.694 255.236 106.671 256.477C112.722 251.611 113.721 252.117 119.522 256.387C123.105 254.199 122.924 252.755 127.73 253.019C129.627 253.944 129.952 255.099 132.745 256.1C135.047 255.156 136.767 253.372 138.705 252.823C138.72 253.173 138.784 253.743 138.669 254.053C133.81 257.802 132.476 258.528 128.085 255.021C125.303 252.798 122.601 256.418 120.287 257.217C118.659 257.779 116.032 255.372 114.472 254.432C109.912 254.426 110.726 255.302 107.06 257.431C103.877 256.711 103.277 255.997 100.674 254.031C97.0559 254.58 96.4427 256.422 93.1405 257.324C90.476 256.818 88.7492 255.649 86.5036 254.201C78.5373 258.208 80.7893 258.774 72.8152 254.049C70.616 255.745 68.6819 257.449 65.7845 257.09C65.5387 257.06 65.2936 257.021 65.05 256.975C65.6018 255.702 65.5862 255.831 66.8678 255.848C69.4491 255.599 69.8396 253.963 72.1465 253.145C74.8135 252.552 76.8739 254.863 79.0074 256.332C81.2128 255.487 83.3587 253.805 85.4965 253.11C87.5987 252.429 90.9005 254.945 92.8891 256.124C96.1373 254.342 96.2257 253.303 100.289 252.509Z" fill="#444A38"/>
<path d="M66.8678 255.847C69.4491 255.599 69.8396 253.963 72.1465 253.145L73.3199 253.335C72.6192 253.458 71.9147 253.51 71.343 253.916L71.3612 254.408C71.2259 254.135 71.2673 254.287 71.3491 253.92L71.367 254.414C71.8313 254.377 71.9061 254.252 72.2841 253.934L72.6635 253.909L72.8152 254.049C70.616 255.745 68.6819 257.449 65.7845 257.09C65.5387 257.059 65.2936 257.021 65.05 256.975C65.6018 255.702 65.5862 255.831 66.8678 255.847Z" fill="#1D2217"/>
<path d="M2.20233 249.08C2.20909 249.666 2.19843 249.927 2.33788 250.511C2.85119 250.528 3.32308 250.064 3.63377 249.654C3.35138 251.049 2.68385 253.639 3.21275 254.882L3.55317 254.972C4.80149 254.231 6.50117 252.105 7.91334 252.589C10.0689 253.323 11.326 254.935 13.7632 255.831C16.2059 254.555 19.36 252.314 22.2028 253.138C23.8493 253.616 23.5719 255.357 25.7344 255.815C29.2409 256.555 30.6799 251.754 33.9675 252.775C36.363 253.52 38.0894 257.051 40.8965 255.534C43.4234 254.219 45.4213 252.076 48.5535 253.067C49.0338 253.218 51.1504 254.426 51.4022 254.771L51.3959 255.052C51.9592 255.38 52.6952 255.671 52.9305 256.178L52.6737 256.5C51.6239 256.305 51.3538 255.521 50.7613 255.63L50.7433 255.929C49.8276 255.566 47.9226 254.463 46.6791 253.918C45.5099 254.393 40.3706 257.546 39.3994 257.271C37.4224 256.717 35.1672 254.808 32.9485 254.067L32.8527 254.037C30.6834 254.951 29.7708 256.358 27.743 257.111C24.6756 258.251 23.8118 255.655 21.776 254.605C19.3399 253.346 17.0551 256.356 15.0088 257.117C12.3836 258.089 10.0464 255.345 7.53374 254.09C5.97474 254.888 2.37377 258.265 0.708536 256.92C0.252032 255.544 1.77146 250.714 2.20233 249.08Z" fill="#444A38"/>
<path d="M138.341 25.3474C138.457 25.425 138.745 25.5501 138.884 25.6163C139.156 25.118 139.306 24.9849 139.775 24.6664C138.675 29.6721 137.655 33.0674 137.488 38.2858C137.238 46.0745 136.45 53.8818 136.496 61.6961C136.492 62.3932 136.484 63.1501 136.419 63.8437C135.927 62.6177 136.108 57.7223 136.128 56.0466C135.841 55.6326 135.507 55.2023 135.203 54.7958C135.212 56.3548 135.338 60.3508 135.026 61.6838C134.819 60.1094 134.889 57.3119 134.806 55.5432C134.473 48.4064 134.594 40.3663 135.803 33.3133C136.037 31.9434 137.81 27.1322 138.341 25.3474Z" fill="#667056"/>
<path d="M0.27829 3.03987C0.585702 2.57209 0.626923 2.19208 0.75079 1.64698L1.06559 1.55347L1.52599 1.99336C1.4782 2.12686 1.41852 2.294 1.34695 2.49477C1.72306 4.02363 2.59711 6.56209 2.95743 7.99702C4.52218 14.2296 10.8183 31.0995 10.5414 36.7244C9.82796 35.2755 9.90773 30.5884 8.66988 29.2595C8.12827 31.2361 9.77197 33.7202 9.0704 35.6354C8.02163 28.7454 4.96104 21.0642 3.30955 14.1787C2.52349 10.9011 0.442968 6.38285 0.27829 3.03987Z" fill="#444A38"/>
<path d="M32.4944 3.41865L32.5883 3.38953C36.1243 2.2655 38.8303 -1.12219 42.8107 0.917519C43.2865 1.16136 45.2439 2.36476 45.6207 2.70272L45.5643 3.07494L46.04 3.47608C45.7572 3.85363 45.7726 3.83783 45.37 4.08516L44.9152 3.83435C38.2559 0.189083 38.2122 2.97097 32.9788 4.50741C30.4988 4.01215 29.0354 2.78025 26.7432 1.61089C24.2612 2.28273 23.9656 2.82024 21.7282 3.95821C18.7858 5.45467 15.677 2.41869 12.8354 1.40889L12.6584 1.34736C13.8655 1.06784 13.6724 1.27866 14.4785 0.553917C16.2824 1.57726 18.1685 2.73328 20.1212 3.40225C22.0689 2.53928 23.8221 1.20627 25.6704 0.329972C27.3248 -0.454246 30.7962 2.66868 32.4944 3.41865Z" fill="#3F4437"/>
<path d="M73.1522 3.43857C76.3358 2.25937 77.5928 -0.208745 80.7091 0.390903C79.3435 0.473344 79.3076 0.340044 78.5968 1.62096C77.789 2.67814 75.3412 4.27242 73.8579 4.4131C70.7475 4.708 69.5453 2.83543 67.3641 1.48664C62.4957 2.52864 62.4678 5.47992 58.3956 4.49554C59.4261 4.16126 59.1363 3.72835 60.2068 3.59012C62.0212 2.7009 65.1236 -0.294674 67.2808 0.346195C69.2211 0.92267 71.1644 2.54402 73.1522 3.43857Z" fill="#2A2F1F"/>
<path d="M86.9822 3.44923C89.0726 2.02721 90.5746 0.748142 93.1135 0.328552C94.3599 0.62325 98.2706 2.50156 99.6105 3.21236C99.9975 3.49619 100.303 3.59319 100.752 3.73859L100.084 3.94941L100.228 3.6863L100.166 3.9732L99.0749 4.11368C96.9531 3.19308 94.889 2.05162 92.7109 1.35784C90.5592 2.22491 89.3011 3.24886 87.3655 4.4861C84.3267 3.94346 80.689 1.29919 78.5968 1.62095C79.3076 0.340037 79.3435 0.473338 80.7091 0.390896C82.8807 1.32667 84.8814 2.37215 86.9822 3.44923Z" fill="#282C23"/>
<path d="M45.6207 2.70272C46.2925 3.02306 46.6518 3.33498 47.4186 3.0085C50.0817 1.87442 51.0737 0.657686 54.0139 0C56.0005 1.15356 58.1967 3.0651 60.2068 3.5901C59.1363 3.72832 59.4261 4.16124 58.3956 4.49552C57.0763 3.77508 55.7772 2.9359 54.5003 2.13609C51.2142 2.04771 51.3251 2.62521 48.387 3.99718C46.9578 4.6645 46.8232 4.58986 45.3701 4.08516C45.7726 3.83783 45.7572 3.85363 46.04 3.47608L45.5643 3.07494L45.6207 2.70272Z" fill="#383D2D"/>
<path d="M99.6106 3.21236C102.131 2.78108 104.84 -1.46917 108.032 0.721888C109.832 1.95707 110.63 3.00051 112.842 3.27306L112.655 3.51833C113.161 3.76771 114.055 4.24062 114.55 4.41042C109.826 4.96803 109.884 2.42014 106.021 2.00404C103.682 1.752 102.012 4.54106 99.0749 4.11368L100.166 3.9732L100.228 3.68629L100.084 3.94941L100.752 3.73859C100.303 3.59319 99.9975 3.49618 99.6106 3.21236Z" fill="#404436"/>
<path d="M54.1835 255.934C55.6219 255.013 59.0853 252.49 60.6754 252.978C62.6752 253.594 64.4688 255.368 66.8678 255.847C65.5862 255.831 65.6018 255.702 65.05 256.975C63.8548 256.157 61.2786 254.584 59.9929 254.154C55.6857 255.439 55.5801 258.864 50.7433 255.93L50.7614 255.63C51.3538 255.521 51.6239 256.305 52.6737 256.5L52.9305 256.178C52.6952 255.671 51.9592 255.38 51.3959 255.052L51.4022 254.771C52.2408 255.138 53.3351 255.655 54.1835 255.934Z" fill="#2A2F1F"/>
<path d="M125.922 3.45189C128.788 2.35411 130.24 0.464929 133.34 0.28241L133.635 0.812128C133.353 1.11052 133.156 1.10723 132.736 1.20711C129.671 3.24887 126.47 6.00881 123.136 3.27245C123.278 1.82952 119.124 1.58794 118.36 0.594129C120.984 -0.447668 123.689 2.18082 125.922 3.45189Z" fill="#151610"/>
<path d="M7.26776 3.40838C9.6518 2.35202 11.5512 -0.378187 14.4785 0.553893C13.6724 1.27864 13.8655 1.06782 12.6584 1.34734C10.9547 2.39919 8.23389 4.81316 6.57644 4.35789C4.93336 3.90692 3.16312 2.65205 1.52599 1.99334L1.06559 1.55345L0.75079 1.64696C0.626923 2.19206 0.585702 2.57207 0.27829 3.03985C0.0769032 2.30998 0.0477832 1.08382 0 0.292419C2.62644 0.865203 4.72561 2.31018 7.26776 3.40838Z" fill="#151610"/>
<path d="M138.341 25.3475C139.729 21.2603 140.711 16.7116 142.033 12.8839L142.407 13.4714C142.904 13.5134 142.683 13.5643 143.102 13.3535C142.218 16.6897 140.875 21.4077 139.775 24.6664C139.307 24.9849 139.156 25.118 138.884 25.6163C138.745 25.5501 138.457 25.425 138.341 25.3475Z" fill="#2A2F1F"/>
<path d="M112.842 3.27305C115.21 2.80383 116.17 1.59859 118.36 0.594116C119.124 1.58792 123.278 1.82951 123.136 3.27244C121.826 2.52123 121.198 2.18429 119.795 1.64063C117.717 2.40578 116.424 3.53063 114.55 4.41042C114.055 4.24061 113.161 3.7677 112.655 3.51833L112.842 3.27305Z" fill="#2A2F1F"/>
<path d="M133.34 0.28241C135.867 1.1544 136.336 2.49705 138.602 3.40247C138.781 3.47404 139.557 3.21093 139.794 3.13115L139.973 3.34956L139.748 3.61678L139.941 4.17746C139.838 4.21191 139.735 4.24431 139.631 4.27446C136.682 5.14522 135.448 2.69413 132.736 1.20711C133.156 1.10723 133.353 1.11052 133.635 0.812128L133.34 0.28241Z" fill="#1D2217"/>
<path d="M144.744 2.21487L145.366 1.93494C145.619 2.06065 145.862 2.14001 146.013 2.36826C145.447 4.93051 144.714 7.52413 144.025 10.0607C144.074 8.71133 144.064 8.42299 143.323 7.2963C143.634 5.43254 144.001 3.94798 144.744 2.21487Z" fill="#1D2217"/>
<path d="M139.794 3.13111C140.615 2.14222 144.633 -0.00637839 146.095 0.782967C146.333 1.5881 146.229 1.44455 146.013 2.36822C145.862 2.13997 145.619 2.0606 145.366 1.93489L144.744 2.21482L144.354 1.92546C142.838 2.65472 141.422 3.4455 139.941 4.17742L139.748 3.61674L139.973 3.34952L139.794 3.13111Z" fill="#2A2F1F"/>
<path d="M138.705 252.823C141.151 252.624 141.683 254.363 143.372 255.751C143.196 256.2 143.049 256.713 142.722 257.045C141.495 256.309 140.072 254.974 138.669 254.053C138.784 253.743 138.72 253.173 138.705 252.823Z" fill="#444A38"/>
<path d="M143.323 7.29626C144.064 8.42296 144.074 8.7113 144.025 10.0607C143.73 11.2007 143.456 12.227 143.102 13.3534C142.683 13.5643 142.904 13.5134 142.407 13.4714L142.033 12.8838L143.323 7.29626Z" fill="#151610"/>
<path d="M52.0306 162.457C52.3532 162.443 52.6759 162.428 52.9987 162.416C68.0843 161.848 71.5446 161.53 70.8969 178.43C70.6336 185.307 71.6949 196.381 69.9792 202.843C69.6747 204.03 69.0568 205.111 68.1903 205.977C67.4881 206.68 66.1752 207.755 65.2175 208.05C62.0412 209.028 47.4545 208.524 43.1741 208.52C39.6006 208.485 35.9773 208.679 32.3966 208.505C30.1528 208.396 27.8088 207.461 26.1513 205.897C24.0128 203.881 23.8598 201.576 23.8485 198.784C23.8227 192.384 23.8331 185.934 23.8305 179.53C23.9845 175.871 23.5391 171.765 24.1289 168.162C25.2408 161.368 33.3836 162.465 38.3847 162.477C42.9333 162.51 47.4821 162.504 52.0306 162.457Z" fill="#7B502B"/>
<path d="M32.8119 163.878C40.1182 163.808 47.4249 163.817 54.731 163.899C60.4113 163.934 65.6633 162.496 68.929 168.093C69.3283 174.194 68.8053 181.728 68.9651 188.012C68.8513 192.468 69.261 197.004 68.8624 201.444C68.5707 204.695 65.6248 206.247 62.7318 206.459C54.8285 206.147 47.016 206.237 39.1322 206.26C34.2794 206.042 26.3411 207.523 25.9939 200.442C25.5847 191.377 25.6575 182.282 25.7234 173.211C25.7642 167.563 26.403 164.391 32.8119 163.878Z" fill="#CA805D"/>
<path d="M48.575 168.183C55.9785 167.855 58.1477 167.408 64.6392 170.256C64.834 172.738 65.1695 192.831 64.6675 194.338C64.0545 194.822 64.2709 194.79 63.5711 194.855C62.7853 194.178 62.9943 191.611 62.9891 190.524C62.7457 186.781 62.8958 182.996 62.8179 179.253C62.7824 177.555 63.048 172.502 61.6859 171.431C58.6064 169.009 44.383 170.724 42.0533 168.96L42.2896 168.687C44.0783 168.179 46.6495 168.226 48.575 168.183Z" fill="#E09C73"/>
<path d="M44.7074 112.417C50.407 112.322 63.3373 111.695 67.9409 113.646C71.6635 118.193 71.0739 121.348 71.1592 127.173C71.1853 132.006 71.1559 136.838 71.071 141.67C71.0173 145.707 71.5286 157.215 65.3717 158.072C61.1235 158.663 54.6492 158.312 50.198 158.3C44.0296 158.312 36.08 158.626 29.992 157.904C28.9349 157.779 27.4589 156.839 26.6802 156.082C24.2812 153.75 23.81 151.255 23.8338 148.042C23.8752 142.47 23.8258 137.027 23.8627 131.439C23.891 127.164 23.6642 122.207 24.2669 118C24.4154 116.965 25.5812 115.429 26.3021 114.671C28.869 111.97 34.1623 112.471 37.6915 112.471C40.0302 112.465 42.3689 112.447 44.7074 112.417Z" fill="#896A33"/>
<path d="M31.6692 114.236C32.9811 114.072 36.4803 114.155 37.8724 114.173L48.5713 114.311L58.7038 114.37C60.4646 114.38 62.3797 114.351 64.1165 114.497C65.6835 114.657 68.7586 116.772 68.8066 118.45C69.1181 129.405 69.0267 140.449 68.9258 151.409C68.8993 154.284 66.2066 156.113 63.5919 156.456C53.1655 156.791 42.1245 156.319 31.6639 156.225C26.6778 156.18 25.8456 151.751 25.7984 147.633C25.6947 138.569 25.4884 129.287 25.8827 120.224C26.063 116.389 27.8964 114.657 31.6692 114.236Z" fill="#D6A15D"/>
<path d="M44.9989 118.166C48.6349 117.824 52.484 118.035 56.1354 117.922C60.0282 117.802 61.6106 117.871 64.5982 120.437C64.617 120.565 64.6347 120.692 64.6513 120.82C65.0924 124.29 64.9429 129.022 65.0241 132.578C65.0879 135.374 65.5657 144.865 64.0443 146.829L63.7235 146.828C63.2945 146.297 63.3158 145.466 63.258 144.759C63.0638 138.696 62.8023 132.646 62.7363 126.574C62.7166 124.754 62.6393 122.446 61.6766 120.856C61.2577 120.164 60.5633 120.116 59.8672 119.951C57.2266 119.327 42.3681 120.401 41.1936 118.756L41.4846 118.628L41.3407 118.92C42.2053 118.082 43.7663 118.204 44.9989 118.166Z" fill="#E9B977"/>
<path d="M81.4289 162.605C86.5173 162.188 91.8963 162.531 97.012 162.539C102.775 162.547 108.666 162.25 114.411 162.617C115.689 162.699 117.005 162.781 118.192 163.306C119.771 164.003 120.638 165.427 121.222 166.997C122.52 170.488 122.275 195.128 121.852 199.816C121.732 201.151 121.569 202.531 120.995 203.758C119.91 206.077 117.963 207.353 115.627 208.181C113.215 208.513 110.917 208.55 108.485 208.513C99.9134 208.386 91.2333 208.6 82.6805 208.421C79.0316 208.343 76.0005 205.05 75.6103 201.615C75.1226 197.32 75.2949 192.61 75.2616 188.282C75.1909 183.836 75.1917 179.39 75.2643 174.944C75.3303 169.6 74.4711 163.646 81.4289 162.605Z" fill="#7B502B"/>
<path d="M88.3596 163.884L106.147 163.944C109.323 163.954 112.869 163.794 115.989 164.239C117.534 164.495 119.557 167.004 119.746 168.462C120.194 171.921 120.054 175.799 120.051 179.275L120.01 198.013C119.936 206.081 116.728 206.684 109.472 206.467C103.725 206.401 97.9769 206.413 92.2298 206.506C88.7972 206.543 85.4245 206.651 82.0105 206.333C76.9427 205.864 77.3877 200.784 77.367 196.976C77.3553 194.853 77.3764 192.704 77.3809 190.575C77.4184 184.242 77.3967 177.908 77.3155 171.575C77.3126 170.674 77.2923 169.741 77.3663 168.843C77.8501 162.978 84.202 163.893 88.3596 163.884Z" fill="#CA805D"/>
<path d="M90.4397 168.261C94.0884 167.81 110.28 167.272 113.023 168.521C116.763 166.874 117.374 170.012 116.553 172.871C116.18 178.158 117.227 189.228 116.196 194.874C116.126 195.255 115.818 195.315 115.521 195.409L115.13 195.194C114.227 193.405 114.38 176.7 113.566 172.354C109.753 167.672 97.2864 170.953 90.4397 168.261Z" fill="#EBA584"/>
<path d="M113.023 168.521C116.763 166.874 117.374 170.012 116.553 172.871C116.057 172.491 114.065 169.538 113.023 168.521Z" fill="#E09C73"/>
<path d="M82.5081 112.592C83.2004 112.516 84.0724 112.521 84.7814 112.521C94.5697 112.52 104.372 112.449 114.157 112.692C118.794 112.807 121.667 115.575 121.647 120.279C121.604 130.372 121.84 140.493 121.508 150.578C121.357 155.161 118.943 157.357 114.533 158.226C108.554 158.456 102.482 158.236 96.3291 158.269C91.4997 158.294 84.4141 158.731 79.6351 157.695C77.9377 157.326 75.8533 153.565 75.7819 151.703C75.3533 140.522 75.3057 129.11 75.6135 117.922C75.6318 117.254 76.6627 115.731 77.0967 115.193C78.6067 113.32 80.2526 112.839 82.5081 112.592Z" fill="#5D4036"/>
<path d="M81.368 114.65C86.3902 114.187 91.6753 114.535 96.7339 114.538C102.417 114.542 108.309 114.24 113.967 114.636C115.139 114.718 116.411 114.896 117.488 115.373C118.436 115.793 119.253 116.86 119.615 117.809C120.368 119.776 120.219 151.408 119.346 153.346C118.747 154.677 117.553 155.412 116.241 155.913C115.923 155.974 115.603 156.023 115.281 156.062C114.068 156.208 112.684 156.226 111.452 156.216C101.856 156.206 92.2796 156.317 82.6887 156.045C75.9497 155.854 77.392 148.589 77.416 143.584L77.4295 132.301C77.4225 127.863 77.1988 122.691 77.5249 118.257C77.604 117.178 78.5521 115.929 79.2432 115.097C79.9189 114.911 80.6745 114.783 81.368 114.65Z" fill="#A37271"/>
<path d="M97.4562 117.961C101.15 117.719 111.872 117.536 114.689 118.88C117.282 120.119 116.55 145.177 115.42 146.667C114.652 145.922 114.65 143.469 114.554 142.308C114.176 135.118 114.299 129.1 114.152 122.043C112.686 120.713 113.042 121.191 111.701 120.485C108.931 119.026 93.2154 120.252 91.7058 118.926L91.812 118.625C92.8553 118.012 96.059 118.028 97.4562 117.961Z" fill="#CB9A98"/>
<path d="M44.9933 44.1601C58.4104 42.6425 70.5114 52.3039 72.0021 65.7239C73.493 79.144 63.8074 91.2255 50.3846 92.6896C36.9994 94.1495 24.9592 84.4971 23.4726 71.1151C21.986 57.733 31.6142 45.6736 44.9933 44.1601Z" fill="#5A6A43"/>
<path d="M46.2644 46.3165C49.3082 46.0819 55.7827 46.7556 58.4387 48.0433C62.5601 50.0417 67.1725 54.9341 68.4822 59.3997C68.6007 59.7897 69.0943 61.3637 69.0834 61.675C69.0416 62.8749 69.3289 68.2783 68.7846 69.0697C68.3907 79.7487 60.0013 88.4088 49.3404 89.1419C38.6794 89.8749 29.1836 82.4449 27.3316 71.9203C26.7053 71.7503 26.3548 71.6976 25.8329 71.2897C25.3998 70.4185 25.4931 68.9756 25.5009 68.0302C25.564 60.1945 28.6613 53.4462 35.1961 48.9556C38.6408 46.5886 42.1025 46.2217 46.2644 46.3165Z" fill="#D3DC9C"/>
<path d="M27.3316 71.9203C26.7053 71.7503 26.3548 71.6976 25.8329 71.2897C25.3998 70.4185 25.4931 68.9755 25.5009 68.0301C25.564 60.1945 28.6613 53.4462 35.1961 48.9556C38.6408 46.5886 42.1025 46.2217 46.2644 46.3165C47.5002 47.5619 51.6393 45.7722 52.8121 47.9913C45.9631 46.3372 38.7415 48.2467 33.6053 53.0701C28.4692 57.8935 26.1103 64.981 27.3316 71.9203Z" fill="#677946"/>
<path d="M46.2644 46.3165C49.3082 46.0819 55.7827 46.7556 58.4386 48.0433C62.5601 50.0417 67.1725 54.9341 68.4821 59.3997C68.3644 60.3664 68.402 60.6939 67.6696 61.3489L67.6493 61.4648C65.3213 54.7397 59.7298 49.6623 52.8121 47.9914C51.6393 45.7722 47.5002 47.5619 46.2644 46.3165Z" fill="#6C7B46"/>
<path d="M68.4821 59.3997C68.6007 59.7897 69.0943 61.3637 69.0834 61.675C69.0416 62.8749 69.3289 68.2783 68.7846 69.0697C68.88 66.4863 68.4951 63.9077 67.6493 61.4648L67.6696 61.3489C68.402 60.6939 68.3644 60.3664 68.4821 59.3997Z" fill="#677946"/>
<path d="M43.7333 51.3231C43.665 50.5011 43.4934 50.3508 43.891 49.8377C47.1077 48.5664 53.1897 49.7805 56.045 51.6723C54.252 55.102 52.2283 58.3158 50.7409 61.9383C50.2035 63.2467 49.3137 65.5795 47.652 65.026C47.1272 64.4485 47.1056 64.2292 46.8995 63.4832C46.7152 64.5149 47.3175 65.1177 47.0365 65.8049C46.7326 65.8426 46.7494 65.8313 46.4559 65.7331C46.3382 66.0717 46.2997 66.2031 46.2252 66.553C45.5485 66.8327 45.7454 66.6356 45.4701 67.2718L45.7019 68.6788L44.392 68.4908C41.1278 69.6665 33.5869 71.8984 30.2581 72.1836C29.8401 69.3636 29.1748 61.9172 31.8478 60.0358L32.0424 59.9076C32.1991 59.3705 32.4056 58.8743 32.6099 58.3542C31.7738 55.2784 39.1882 51.5517 41.4291 50.464C41.9032 51.5232 42.3554 52.5921 42.7857 53.6698C43.872 52.959 43.6827 52.5818 43.7333 51.3231Z" fill="#A8B869"/>
<path d="M43.7333 51.3231C43.665 50.5011 43.4934 50.3508 43.891 49.8377C47.1077 48.5664 53.1897 49.7805 56.045 51.6723C54.252 55.102 52.2283 58.3158 50.7408 61.9383C50.2035 63.2467 49.3137 65.5795 47.6519 65.026C47.1271 64.4485 47.1056 64.2292 46.8995 63.4832C46.6425 60.5087 44.5243 54.3471 43.7333 51.3231Z" fill="#A8B869"/>
<path d="M31.8478 60.0358L31.9592 60.108C33.238 60.9222 34.7181 61.5696 36.0519 62.3136C39.0762 64.0008 42.338 65.7651 45.2402 67.6473L45.2363 67.9918C44.979 68.151 44.6601 68.361 44.392 68.4908C41.1278 69.6665 33.5869 71.8984 30.2581 72.1836C29.8401 69.3636 29.1748 61.9172 31.8478 60.0358Z" fill="#A8B869"/>
<path d="M43.7333 51.3231C44.5243 54.3472 46.6426 60.5088 46.8995 63.4832C46.7152 64.515 47.3175 65.1177 47.0365 65.8049C46.7326 65.8427 46.7494 65.8314 46.4559 65.7331C46.3382 66.0717 46.2997 66.2032 46.2252 66.553C45.5485 66.8328 45.7453 66.6357 45.4701 67.2718L45.7019 68.6789L44.392 68.4908C44.6601 68.361 44.979 68.151 45.2363 67.9919L45.2402 67.6473C42.338 65.7651 39.0762 64.0008 36.0519 62.3137C34.7181 61.5696 33.238 60.9222 31.9592 60.108L31.8478 60.0359L32.0424 59.9077C32.1991 59.3706 32.4056 58.8743 32.6099 58.3542C32.9304 58.4527 35.3103 60.1171 35.7755 60.42C39.0778 62.57 43.0481 64.0419 46.2322 66.3045C46.0503 63.884 43.7003 56.3387 42.7856 53.6698C43.8719 52.959 43.6827 52.5819 43.7333 51.3231Z" fill="#C6D58C"/>
<path d="M44.9712 69.8675C45.2162 69.7777 45.7816 69.7688 46.0685 69.7502C46.0246 70.3902 45.8987 70.9245 46.2205 71.4402L46.393 71.5602C47.2205 71.0672 46.9982 71.0225 47.774 71.1457C49.0233 72.2878 50.9849 83.7312 51.8807 86.3753C47.9095 86.8412 43.3271 87.1185 39.6678 85.1723C39.5335 84.9204 39.4763 84.8708 39.4265 84.5921L39.3135 84.4338C38.7474 84.4426 38.3802 84.2049 37.8611 83.9582L37.5418 83.9572C33.4222 80.8474 32.5375 78.9699 30.6175 74.3806C35.8216 72.0663 40.0027 71.5813 44.9712 69.8675Z" fill="#A8B869"/>
<path d="M46.393 71.5602C47.2205 71.0672 46.9982 71.0225 47.774 71.1457C49.0233 72.2878 50.9849 83.7312 51.8807 86.3753C47.9095 86.8412 43.3271 87.1185 39.6679 85.1723C39.5335 84.9204 39.4763 84.8708 39.4265 84.5921C40.8501 82.1104 46.4032 73.7293 46.393 71.5602Z" fill="#A8B869"/>
<path d="M44.9712 69.8675C45.2162 69.7777 45.7816 69.7688 46.0686 69.7502C46.0247 70.3902 45.8987 70.9245 46.2205 71.4402L46.393 71.5602C46.4032 73.7293 40.8501 82.1104 39.4265 84.5921L39.3135 84.4338C38.7475 84.4426 38.3802 84.2049 37.8611 83.9582C38.1244 83.3231 39.2497 81.7877 39.7046 81.0666C41.5402 78.1572 43.5931 75.2719 45.2532 72.2659C45.7035 71.4507 45.9016 70.8964 45.6196 70.0549L44.9712 69.8675Z" fill="#C6D58C"/>
<path d="M57.4128 52.6274C61.6551 53.3148 64.649 58.7529 65.1513 62.702C62.5884 63.4309 58.9552 64.3279 56.5521 65.2009C54.2768 65.9234 52.4479 66.5774 50.0741 66.8426C51.0548 64.0806 52.54 61.6726 53.9216 59.0964C54.9488 57.1807 55.8387 54.0268 57.4128 52.6274Z" fill="#A8B869"/>
<path d="M64.8117 64.9817C65.1847 64.9046 65.2692 64.948 65.6305 65.0331C67.749 67.5829 64.7602 75.3578 63.654 78.0656C62.6612 77.0964 58.3673 74.2116 56.9703 73.2197C56.4925 72.7154 50.9088 68.7641 50.2117 68.3093C54.7278 67.094 60.0586 66.1533 64.8117 64.9817Z" fill="#A8B869"/>
<path d="M49.5013 69.987C50.7794 70.2805 61.3834 77.9951 62.7955 79.5108C61.8235 80.7251 60.6149 81.8424 59.4921 82.9287C57.3273 84.576 56.3559 85.0582 53.7762 85.8162C52.5707 83.2268 50.0813 73.211 49.5013 69.987Z" fill="#A8B869"/>
<path d="M46.2252 66.553C48.1415 65.6824 48.4417 66.191 50.1164 67.3165C50.579 68.2268 50.594 67.9545 50.5374 68.8806C49.6361 70.1648 47.4268 70.0479 46.0686 69.7501L45.7019 68.6788L45.4701 67.2718C45.7454 66.6356 45.5485 66.8327 46.2252 66.553Z" fill="#E5EBB1"/>
<path d="M96.0083 48.6306C96.074 46.764 95.922 44.1808 97.2423 42.8054C99.9799 41.8304 101.615 47.7381 102.22 49.6611C103.077 48.742 103.937 47.7443 104.774 46.8628C106.14 45.4242 107.722 43.2475 109.773 42.9479C110.84 42.7923 111.193 43.9384 111.536 44.6515C111.234 47.5732 110.299 49.8951 109.75 52.7016C113.071 52.2365 117.824 52.2716 120.932 53.4867C118.709 55.5178 117.082 56.2435 114.457 57.7279C118.571 58.3942 119.989 58.3569 123.099 61.4365L120.884 62.2386C119.99 62.5384 117.686 63.2863 116.96 63.7709C119.871 67.092 119.784 73.4121 114.868 74.3146C114.06 75.9378 114.401 76.6037 113.856 77.8604C113.308 79.1241 110.504 80.5898 109.108 81.0129C106.156 87.5971 103.912 84.6446 101.976 86.341C101.073 87.1324 101.493 88.3534 100.807 89.063C99.6819 90.2258 97.0424 90.1491 95.5244 90.2063C95.0115 90.9093 94.4982 91.6921 93.7332 92.09C90.7071 93.6656 86.7513 92.8008 85.1415 89.6438C84.4071 88.2039 84.7783 87.9886 85.2194 86.5383C84.8053 85.9557 84.0254 85.7323 83.3435 85.4571C81.5315 82.1422 82.2579 81.1995 82.0706 77.8579C82.0384 77.2831 80.3322 75.1066 80.1076 74.1288C79.4007 71.052 80.4644 70.5758 81.7968 68.3204C81.9605 67.5378 81.4544 66.7505 81.1906 66.0319C79.0779 60.2727 84.1991 58.7715 84.5514 57.724C84.9075 56.666 84.3365 55.8613 85.203 54.0024C85.8145 52.3555 87.6026 51.5296 89.1836 51.1627C89.8189 51.0538 90.6265 51.0196 91.0676 50.6601C90.6277 49.7799 86.1984 43.7137 91.4361 45.0586C92.1275 45.2362 95.3174 47.9682 96.0083 48.6306Z" fill="#220D10"/>
<path d="M96.0083 48.6306C96.074 46.764 95.922 44.1808 97.2423 42.8054C99.9799 41.8304 101.615 47.7381 102.22 49.6611C103.077 48.742 103.937 47.7443 104.774 46.8628C106.14 45.4242 107.722 43.2475 109.773 42.9479C110.84 42.7923 111.193 43.9384 111.536 44.6515C111.234 47.5732 110.299 49.8951 109.75 52.7016C113.071 52.2365 117.824 52.2716 120.932 53.4867C118.709 55.5178 117.082 56.2435 114.457 57.7279C118.571 58.3942 119.989 58.3569 123.099 61.4365L120.884 62.2386C119.99 62.5384 117.686 63.2863 116.96 63.7709C116.547 63.2693 116.466 63.1536 115.902 62.7933C115.175 62.6409 114.942 62.8013 114.257 63.0896C113.355 63.4342 109.623 60.9232 108.557 61.0159C104.418 61.3758 105.734 59.8949 103.22 57.7625C101.745 56.5124 98.9447 56.4396 96.9353 56.6857C96.1675 54.9394 95.8441 54.5539 94.5541 53.2436C93.652 53.0496 93.0306 52.8659 92.1498 52.5837C91.9164 52.126 91.7173 51.8959 91.4074 51.4962C90.7528 51.0674 89.976 51.1578 89.1836 51.1627C89.8189 51.0538 90.6265 51.0196 91.0676 50.6601C90.6277 49.7799 86.1984 43.7137 91.4361 45.0586C92.1275 45.2362 95.3174 47.9682 96.0083 48.6306Z" fill="#8B9874"/>
<path d="M96.0083 48.6306C96.074 46.764 95.922 44.1808 97.2423 42.8054C99.9799 41.8304 101.615 47.7381 102.22 49.6611C103.077 48.742 103.937 47.7443 104.774 46.8628C106.14 45.4242 107.722 43.2475 109.773 42.9479C110.84 42.7923 111.193 43.9384 111.536 44.6515C111.234 47.5732 110.299 49.8951 109.75 52.7016C113.071 52.2365 117.824 52.2716 120.932 53.4867C118.709 55.5178 117.082 56.2435 114.457 57.7279C118.571 58.3942 119.989 58.3569 123.099 61.4365L120.884 62.2386C120.442 62.1026 119.821 61.7413 119.394 61.5159C119.544 61.2932 119.536 61.107 119.565 60.8387C118.12 58.9649 111.69 60.6509 110.25 59.3765C110.749 57.1313 116.552 55.6601 117.188 54.1325L116.88 53.791C113.102 52.4451 110.283 54.5352 107.945 54.9522L107.635 54.7262C107.55 53.9524 109.888 46.8374 110.082 43.9596C106.292 45.7923 104.386 49.1983 102.485 52.8327C101.676 51.3493 99.6255 44.8047 97.8657 45.3182C96.7813 47.1007 98.2289 51.5819 98.248 54.009C97.0419 52.377 93.5593 47.247 91.4983 46.7049L91.3449 47.0148C91.8219 49.4698 93.8864 51.0694 94.5541 53.2436C93.652 53.0496 93.0306 52.8659 92.1498 52.5837C91.9164 52.126 91.7173 51.8959 91.4074 51.4962C90.7528 51.0674 89.976 51.1578 89.1836 51.1627C89.8189 51.0538 90.6265 51.0196 91.0676 50.6601C90.6277 49.7799 86.1984 43.7137 91.4361 45.0586C92.1275 45.2362 95.3174 47.9682 96.0083 48.6306Z" fill="#5A6A43"/>
<path d="M119.394 61.5159C119.821 61.7412 120.442 62.1026 120.884 62.2386C119.99 62.5384 117.686 63.2863 116.96 63.7709C116.547 63.2693 116.466 63.1536 115.902 62.7933C115.175 62.6409 114.942 62.8013 114.257 63.0896C113.951 62.5497 113.823 62.6124 113.204 62.2935L113.23 62.03C113.736 61.8907 114.706 62.5164 115.525 62.4406C116.811 62.3216 118.154 61.8721 119.394 61.5159Z" fill="#444A38"/>
<path d="M85.203 54.0024C85.8145 52.3554 87.6026 51.5296 89.1836 51.1627C89.976 51.1578 90.7528 51.0673 91.4074 51.4962C91.7173 51.8959 91.9164 52.126 92.1498 52.5837L91.1652 52.75C90.3221 53.2188 89.0144 53.9028 88.4576 54.6517C87.7419 55.6141 87.5107 57.6996 86.3693 58.4112L86.0684 58.2795C85.7495 56.9264 85.7686 56.4158 86.1193 55.0785C85.8258 54.4612 85.7456 54.4056 85.203 54.0024Z" fill="#A37271"/>
<path d="M85.203 54.0024C85.8145 52.3554 87.6026 51.5296 89.1836 51.1627C89.976 51.1578 90.7528 51.0673 91.4074 51.4962C91.7173 51.8959 91.9164 52.126 92.1498 52.5837L91.1652 52.75C88.9213 51.771 87.2281 53.2077 86.1193 55.0785C85.8258 54.4612 85.7456 54.4056 85.203 54.0024Z" fill="#151610"/>
<path d="M98.5718 57.7707C105.529 57.3743 105.863 65.5858 99.6905 66.9984C96.3344 67.1379 95.3739 65.7903 93.9063 62.9198C94.986 60.5255 96.0689 58.7957 98.5718 57.7707Z" fill="#76545F"/>
<path d="M100.934 67.8439C103.29 67.2189 104.959 70.3354 105.615 72.1393C104.694 74.6396 103.582 75.3674 101.145 76.0768C96.8729 75.753 95.9187 72.9576 97.0633 69.3049C98.2416 68.5797 99.6144 68.2153 100.934 67.8439Z" fill="#76545F"/>
<path d="M90.2373 63.9387C90.8195 63.8946 91.9316 63.8066 92.4543 64.1206C94.4893 65.3254 96.4204 68.2527 95.2549 70.6351C94.7414 71.6851 94.0937 71.9675 93.0376 72.3015C89.6388 72.717 88.339 71.116 87.5134 68.0581C87.6069 67.7324 87.7064 67.4084 87.812 67.0862C88.3077 65.5859 88.8325 64.6458 90.2373 63.9387Z" fill="#76545F"/>
<path d="M90.8927 73.8017C91.6564 73.7604 92.9162 73.6493 93.6235 73.8558C97.4675 74.9778 99.1165 78.8433 95.0988 81.083C89.2207 83.0439 86.9603 76.2956 90.8927 73.8017Z" fill="#76545F"/>
<path d="M102.524 77.3243C108.077 76.7128 108.013 82.3752 102.853 84.4329C101.795 84.3497 100.783 83.9635 99.9378 83.3204C97.9252 81.7987 97.3036 78.934 99.9905 77.6539C100.408 77.4551 101.997 77.3676 102.524 77.3243Z" fill="#76545F"/>
<path d="M92.439 53.822C92.6492 53.8751 92.8577 53.9348 93.0641 54.001C94.5486 54.4852 95.1526 55.7821 95.8002 57.0878C94.7059 59.3115 93.9272 61.6943 91.6027 62.5493C89.0367 62.3446 87.6629 60.5992 88.4317 58.0144C89.0675 55.8775 90.5578 54.8162 92.439 53.822Z" fill="#76545F"/>
<path d="M106.21 62.2935C109.527 62.2382 112.239 63.4627 110.88 67.6551C110.459 68.9549 109.39 69.4427 108.134 69.8732L107.204 70.106C106.147 69.9917 104.242 67.5655 103.26 66.603C104.07 65.1607 104.969 63.3644 106.21 62.2935Z" fill="#76545F"/>
<path d="M84.2816 68.862C84.5301 68.8398 85.517 68.7943 85.6931 68.8694C86.9002 69.3839 87.7652 71.9337 88.2771 73.192C87.9078 75.3964 88.1534 76.6379 85.8346 77.2148C81.8727 77.5274 80.2563 71.221 84.2816 68.862Z" fill="#76545F"/>
<path d="M108.815 71.2737C111.081 71.23 113.287 72.7733 112.739 75.2379C112.338 77.0463 111.008 78.1032 109.538 79.0726C108.181 78.7681 106.428 77.0438 105.381 76.1007C106.078 73.9373 106.644 72.2487 108.815 71.2737Z" fill="#76545F"/>
<path d="M97.0778 82.4148C98.5255 82.5005 99.6503 84.854 100.333 85.9659C99.9309 86.5471 99.352 87.2399 98.9036 87.8073C97.3149 88.4244 96.8933 88.6092 95.2412 88.2831C93.8417 87.7803 91.2483 85.7693 91.8324 84.0671C92.6754 82.9144 95.5328 82.7025 97.0778 82.4148Z" fill="#76545F"/>
<path d="M85.2992 59.357C87.1709 59.6515 87.6574 61.394 88.3561 62.9592C87.8854 64.4091 86.9546 66.5481 85.6849 67.4114C80.8562 66.9383 81.8971 61.5495 85.2992 59.357Z" fill="#A37271"/>
<path d="M113.933 64.77C114.298 64.7891 115.375 64.8371 115.646 65.0143C118.409 66.8255 118.121 71.2169 114.895 72.3546C113.193 71.8378 112.834 71.5946 111.582 70.3943C112.66 68.3238 112.491 67.7877 112.965 65.5196C113.071 65.011 113.489 64.9493 113.933 64.77Z" fill="#76545F"/>
<path d="M85.6224 78.2275C85.8527 78.2125 86.7245 78.1508 86.8647 78.2714C87.844 79.1667 89.0002 80.3422 89.475 81.6016C90.2081 83.5474 89.7272 84.2592 87.8702 84.9612C86.2405 85.131 85.4805 85.0039 84.4981 83.5531C83.8448 82.5786 83.6169 81.3799 83.8671 80.2337C84.1124 79.122 84.693 78.7966 85.6224 78.2275Z" fill="#76545F"/>
<path d="M90.1078 85.7228L90.6488 85.7842C91.7485 86.8141 94.0741 88.6491 93.0848 90.0416C92.2626 90.52 91.7887 90.5489 90.8404 90.7089C89.0271 90.4306 86.9207 89.9665 86.5778 87.7771C86.9211 85.8426 88.5179 85.9302 90.1078 85.7228Z" fill="#A37271"/>
<path d="M32.3158 231.97L100.965 231.919L119.366 231.97C121.219 231.974 128.496 231.54 129.401 232.799C129.474 233.443 129.522 233.209 129.288 233.748C127.264 234.46 114.887 234.177 111.927 234.156L39.0145 234.126L20.807 234.115C19.1719 234.117 14.9371 234.708 14.094 233.463C14.0368 232.735 13.9338 232.871 14.2699 232.364C16.1567 231.88 19.9178 232.077 22.0084 232.069L32.3158 231.97Z" fill="#5A6A43"/>
<path d="M23.0141 23.6129C27.9158 23.3677 34.5438 23.5799 39.5655 23.5961L66.4633 23.5883C87.0932 23.6261 108.048 23.2075 128.694 23.9749C129.425 24.002 129.586 23.954 130.054 24.4533L129.913 24.8098C128.461 25.6719 121.972 25.5552 119.94 25.5872C116.116 25.8362 111.593 25.788 107.671 25.8198C96.4792 25.9104 85.2692 25.7818 74.0687 25.7857L39.0348 25.7767C30.8927 25.7861 22.5504 25.8571 14.3995 25.569C13.7474 25.5458 13.6709 25.5509 13.1838 25.1846C13.0913 24.5017 13.0231 24.7679 13.457 24.1951C15.0525 23.3974 20.8435 23.6367 23.0141 23.6129Z" fill="#5A6A43"/>
</svg>
