<svg width="172" height="253" viewBox="0 0 172 253" fill="none" xmlns="http://www.w3.org/2000/svg">
<path d="M61.8149 0C62.603 0.160295 63.6951 0.347661 64.4465 0.557649L65.9098 2.85437C67.048 0.91227 66.9559 0.824871 69.0423 0.144826C71.3838 0.739406 71.1802 0.96351 72.819 2.76059C74.9295 -0.831561 76.4547 -0.545466 78.7684 2.68828C81.1489 -0.709821 83.2012 -0.564415 85.5492 2.74377C89.6468 -2.72842 90.2507 1.94288 92.1889 2.26849C94.9791 1.95022 94.8954 -2.58458 98.7904 2.82517C99.9051 1.95409 101.336 0.726646 102.596 0.188333C103.988 1.10331 104.561 1.58419 105.799 2.70935C106.606 1.82512 108.323 0.138833 109.592 0.4863C110.161 1.24698 109.867 8.584 109.906 9.98798C110.119 17.7307 109.406 25.4894 108.343 33.1706C108.312 33.3814 108.278 33.5914 108.24 33.801C107.217 46.6858 106.957 61.9255 106.782 74.8829C106.798 78.0743 106.891 85.4196 106.597 88.4631C106.591 91.5719 106.539 94.6803 106.442 97.7876C106.633 100.321 105.809 114.636 106.863 115.654C106.887 115.677 106.914 115.695 106.939 115.716C106.741 117.033 106.221 118.816 105.735 120.055C104.938 123.242 104.072 126.492 103.312 129.677C102.539 132.918 101.957 136.073 101.075 139.317C99.5381 144.798 98.0937 150.304 96.7416 155.834C96.4316 157.081 95.1941 161.86 95.0793 162.887C94.6858 164.442 94.3053 165.945 93.9785 167.518L93.9924 167.666C93.6299 168.18 93.5322 168.286 93.4301 168.935C92.6306 171.913 90.8865 177.675 90.3569 180.51L90.2642 181.39C88.9865 186.624 87.6804 191.334 86.2509 196.52L85.8531 197.99C84.5984 201.748 83.6123 206.186 82.1836 209.81C81.9121 210.726 81.3121 212.103 81.2396 212.896C81.4737 213.816 81.3803 214.046 80.6827 214.68C80.3234 214.301 79.0473 213.839 78.5283 213.657C75.9678 216.252 75.7203 216.852 72.7352 214.023C72.0618 215.059 71.3755 216.314 70.0619 216.568C69.4232 216.687 68.7632 216.622 68.1621 216.374C67.4304 216.148 66.6771 215.829 65.9503 216.024C65.1594 216.523 64.9401 217.631 64.6182 218.553C62.8354 218.078 62.556 218.132 61.519 216.61C61.1749 216.631 60.7075 216.566 60.5376 216.921C59.0816 219.971 57.6464 220.549 55.3903 217.652L55.0376 217.677C54.7898 218.058 54.7662 218.097 54.6266 218.526C53.95 218.54 53.7553 218.571 53.1073 218.35C52.8517 218.923 52.687 219.015 52.2138 219.394L52.1073 220.073C51.9002 220.222 51.7658 220.348 51.5168 220.398C50.5519 219.802 49.7129 219.267 48.7803 218.619C48.406 219.259 47.9091 220.054 47.6269 220.721C47.1084 221.434 46.6095 221.438 45.6986 221.589C44.7966 221.45 43.7105 220.636 42.9299 220.118C42.0731 221.173 40.8861 222.579 39.5809 222.927C39.384 222.885 39.0955 222.873 38.9509 222.734C37.2213 221.059 35.9904 202.085 35.6369 198.632C35.2974 195.35 34.8778 192.077 34.3787 188.817C30.6266 164.457 25.4871 139.555 20.7802 115.321L14.618 83.3418C13.4965 77.3598 12.5137 71.1889 11.2617 65.2427C9.67862 57.631 7.90532 50.0602 5.9435 42.5371C5.17441 39.6499 3.99395 36.7599 3.23022 33.8497C2.25886 30.1482 1.7005 26.2947 0.989361 22.5248C0.616854 20.55 0.156582 18.2525 0.010054 16.2571C-0.0427911 15.5374 0.107391 15.1062 0.586593 14.6245C1.92019 14.2543 3.45361 15.9398 4.2627 16.8362C4.81687 15.4898 4.91353 15.0447 6.0251 14.1089C6.62741 14.6278 6.68175 14.7467 7.05358 15.4562C7.62747 15.8918 8.17777 16.3089 8.73194 16.7695C8.9864 16.3671 9.75113 15.6847 10.1417 15.4165C11.2678 14.3285 11.8918 13.5709 12.8801 12.3448C14.1245 12.1495 15.8437 13.7571 16.8488 14.5087C17.1473 14.076 17.9409 12.8588 18.2386 12.5173C18.9657 11.7182 19.282 11.3807 20.1461 10.7108C21.1357 11.2276 23.0367 12.5734 23.8495 12.5867C24.7357 11.298 25.4527 10.6555 26.603 9.64013C27.4636 10.1363 29.4603 11.2711 30.3698 11.3908C33.0318 7.52729 33.1182 8.03099 37.045 10.6415C37.4887 9.7136 38.3144 7.54914 39.5078 7.42249C40.9354 7.27089 41.7477 8.40301 42.7657 9.18515C43.4113 8.17079 45.722 5.32976 47.0036 6.07767C47.8739 8.36627 48.0566 11.6629 48.6191 14.0922C51.0179 24.4544 51.1471 34.9035 52.7421 45.3882C54.194 54.8876 55.7492 64.3711 57.4078 73.8366C58.7405 81.1143 60.4268 88.8305 61.4688 96.1313L61.5995 97.3671L62.2511 97.1776C63.0069 96.1439 62.372 90.5815 62.7034 88.8479C62.8124 77.6309 62.8815 66.4073 63.0131 55.191C63.1537 43.2212 62.5152 31.5354 61.5378 19.6157C61.509 15.6111 61.5281 11.6062 61.595 7.60193C61.6213 5.16173 61.5351 2.38818 61.8149 0Z" fill="#B7643A"/>
<path d="M61.8149 0C62.603 0.160295 63.6951 0.347661 64.4465 0.557649L65.9099 2.85437C67.048 0.91227 66.9559 0.824871 69.0423 0.144826C71.3839 0.739406 71.1803 0.96351 72.819 2.76059C74.9295 -0.831561 76.4547 -0.545466 78.7685 2.68828C81.1489 -0.709821 83.2012 -0.564415 85.5492 2.74377C89.6469 -2.72842 90.2507 1.94288 92.189 2.26849C94.9791 1.95022 94.8954 -2.58458 98.7904 2.82517C99.9052 1.95409 101.336 0.726646 102.596 0.188333C103.988 1.10331 104.561 1.58419 105.799 2.70935C106.606 1.82512 108.323 0.138833 109.592 0.4863C110.161 1.24698 109.867 8.584 109.906 9.98798C110.119 17.7307 109.406 25.4894 108.343 33.1706C108.312 33.3814 108.278 33.5914 108.24 33.801C107.217 46.6858 106.957 61.9255 106.782 74.8829C106.798 78.0743 106.891 85.4196 106.597 88.4631C106.591 91.5719 106.54 94.6803 106.442 97.7876C106.633 100.321 105.809 114.636 106.863 115.654C106.887 115.677 106.914 115.695 106.939 115.716C106.741 117.033 106.221 118.816 105.735 120.055C104.938 123.242 104.072 126.492 103.312 129.677C102.539 132.918 101.957 136.073 101.075 139.317C99.5382 144.798 98.0938 150.304 96.7416 155.834C96.4316 157.081 95.1941 161.86 95.0793 162.887C94.6858 164.442 94.3053 165.945 93.9785 167.518L93.9924 167.666C93.6299 168.18 93.5322 168.286 93.4301 168.935C92.6306 171.913 90.8865 177.675 90.3569 180.51L90.2643 181.39C88.9865 186.624 87.6804 191.334 86.2509 196.52L85.8531 197.99C82.498 198.726 61.3151 197.804 60.6078 198.167C60.6584 196.909 60.7862 196.398 61.068 195.192C61.3698 192.452 62.0583 185.075 61.941 182.469L61.7805 182.355C61.627 180.815 61.3762 180.914 61.357 179.011C61.3829 176.815 62.3229 169.512 61.2232 168.146L61.2078 167.687L61.5005 167.539C61.7855 167.007 61.8791 164.382 61.9578 163.542C61.918 162.904 61.923 162.271 61.9443 161.632C62.1181 156.391 62.3843 151.147 62.3571 145.902C62.2005 144.136 62.2952 140.521 62.2923 138.59L62.3132 123.976C62.3205 122.105 62.4812 117.64 62.0299 116.013C62.3018 114.783 62.1728 110.206 62.1722 108.639C62.1291 108.135 62.1724 107.676 62.202 107.173C61.986 105.367 61.7698 103.918 61.4264 102.135L61.1337 100.655C61.1445 99.8697 61.1476 99.5677 61.3118 98.8059L61.6908 98.6313L61.5995 97.3671L62.2511 97.1776C63.007 96.1439 62.372 90.5815 62.7034 88.8479C62.8124 77.6309 62.8815 66.4073 63.0131 55.191C63.1537 43.2212 62.5152 31.5354 61.5378 19.6157C61.509 15.6111 61.5282 11.6062 61.5951 7.60193C61.6214 5.16173 61.5351 2.38818 61.8149 0Z" fill="#8D9B75"/>
<path d="M83.733 149.889L84.0971 149.799C84.483 150.274 85.3721 152.291 85.7255 152.946C87.3743 156.003 93.2076 165.933 93.4301 168.935C92.6306 171.912 90.8865 177.675 90.3569 180.51L90.2643 181.39C89.4347 181.332 87.7566 183.459 85.8282 183.586C86.1596 183.24 86.1706 183.329 86.2793 182.925L85.2779 182.558C83.1896 182.712 81.0851 182.426 79.2461 181.422C67.5619 175.047 76.6469 162.506 80.9101 154.505C81.7561 152.918 82.877 151.603 83.6556 150.046L83.733 149.889Z" fill="#ABC1C6"/>
<path d="M85.2779 182.557C87.3434 182.062 88.4378 181.366 90.3569 180.51L90.2642 181.39C89.4347 181.332 87.7566 183.459 85.8282 183.586C86.1596 183.24 86.1706 183.329 86.2793 182.925L85.2779 182.557Z" fill="#3B494A"/>
<path d="M79.4771 178.234C77.7075 176.987 75.2953 171.691 76.9164 170.072L77.0642 170.089C77.4014 170.129 77.4797 170.714 77.5104 171.008C77.7926 173.698 78.229 175.258 80.1784 177.248C79.9327 177.662 79.823 177.89 79.4771 178.234Z" fill="#3B494A"/>
<path d="M80.1784 177.248C81.1462 177.915 82.3025 178.445 83.0873 179.091C81.7253 178.851 80.778 178.719 79.4771 178.234C79.823 177.89 79.9327 177.662 80.1784 177.248Z" fill="#0C1D23"/>
<path d="M61.8149 0C62.603 0.160295 63.6951 0.347661 64.4465 0.557649L65.9099 2.85437C67.048 0.91227 66.9559 0.824871 69.0423 0.144826C71.3839 0.739406 71.1802 0.96351 72.819 2.76059C74.9295 -0.831561 76.4547 -0.545466 78.7684 2.68828C81.1489 -0.709821 83.2012 -0.564415 85.5492 2.74377C89.6468 -2.72842 90.2507 1.94288 92.1889 2.26849C94.9791 1.95022 94.8954 -2.58458 98.7904 2.82517C99.9051 1.95409 101.336 0.726646 102.596 0.188333C103.988 1.10331 104.561 1.58419 105.799 2.70935C106.606 1.82512 108.323 0.138833 109.592 0.4863C110.161 1.24698 109.867 8.584 109.906 9.98798C110.119 17.7307 109.406 25.4894 108.343 33.1706C108.312 33.3814 108.278 33.5914 108.24 33.801L108.033 33.2847C107.952 33.6339 107.91 33.9796 107.685 34.2513C107.613 35.414 107.473 41.8437 107.184 42.4432L107.008 42.3227C106.686 40.271 107.195 36.3581 106.654 34.947C106.495 33.4521 108.02 21.0692 108.261 19.3837C103.2 19.7497 97.5195 19.2207 92.4111 19.2603C91.6756 19.2661 91.2509 19.0577 90.9135 18.4097L91.0994 18.0383C92.075 17.5721 106.21 17.8165 108.311 17.8645C108.381 12.9562 108.392 8.04742 108.344 3.139C107.118 3.66996 106.491 4.50508 105.567 4.63676C104.748 4.45055 103.168 2.55447 102.536 1.852C101.188 3.20648 100.271 3.98591 98.7738 5.18551C97.6272 4.25449 96.2965 2.46611 95.5143 2.27623C94.867 2.58115 93.3216 4.32197 92.6246 4.99795C91.2875 4.03406 90.5311 3.08408 89.478 1.84272C88.204 3.14035 86.8543 4.00718 85.433 5.1422C82.4769 0.940114 82.8491 2.08229 78.9467 4.79957C74.6333 1.76112 77.5729 1.92064 72.823 4.61182C70.9637 3.87918 70.5422 3.61427 69.1952 2.15112C68.2331 3.31051 66.9859 4.1377 65.8594 5.29766C65.1229 4.28774 64.3964 3.27048 63.6802 2.24626C63.0876 6.95862 63.8966 13.0239 63.2481 17.7842C62.6189 17.9801 62.2672 17.9602 61.933 18.4005C62.079 18.8402 62.3497 18.9699 62.7302 19.2528L61.5378 19.6157C61.509 15.6111 61.5281 11.6062 61.595 7.60193C61.6213 5.16173 61.5351 2.38818 61.8149 0Z" fill="#61694C"/>
<path d="M62.7303 19.2528C63.8461 19.1745 64.9922 19.019 66.0725 19.2748L62.9836 19.4063C64.6128 26.2835 64.6107 33.7864 64.6039 40.7978C64.6383 45.901 64.6142 51.0045 64.5314 56.1071L64.4359 83.479C64.4007 89.2411 65.0906 97.7952 64.4183 103.368C64.3009 104.17 63.9567 107.238 63.4772 107.82C63.0835 106.906 63.5312 106.364 63.2173 105.434L62.9084 105.207L62.844 104.074C62.539 103.074 62.3936 102.295 62.1999 101.278L61.8364 102.004L61.4264 102.135L61.1337 100.655C61.1445 99.8697 61.1476 99.5677 61.3118 98.8059L61.6908 98.6313L61.5995 97.3671L62.2511 97.1776C63.007 96.1439 62.372 90.5815 62.7034 88.8478C62.8124 77.6309 62.8815 66.4073 63.0132 55.1909C63.1537 43.2212 62.5152 31.5354 61.5378 19.6157L62.7303 19.2528Z" fill="#5A5F46"/>
<path d="M62.7034 88.8478C62.9687 91.0038 62.7332 94.0318 62.8134 96.3011C62.8699 97.9044 63.6392 103.018 62.844 104.074C62.539 103.074 62.3936 102.295 62.1999 101.278L61.8364 102.004L61.4264 102.135L61.1337 100.655C61.1445 99.8697 61.1476 99.5677 61.3118 98.8058L61.6908 98.6313L61.5995 97.3671L62.2511 97.1776C63.007 96.1439 62.372 90.5815 62.7034 88.8478Z" fill="#A38667"/>
<path d="M61.1337 100.655C61.1445 99.8697 61.1476 99.5677 61.3118 98.8058L61.6908 98.6312C61.8368 99.419 62.0069 100.527 62.1999 101.278L61.8364 102.004L61.4264 102.135L61.1337 100.655Z" fill="#411C14"/>
<path d="M61.4264 102.135L61.8363 102.004L62.1999 101.278C62.3936 102.295 62.539 103.074 62.8439 104.074L62.9083 105.207L63.2173 105.434C63.5311 106.364 63.0835 106.906 63.4772 107.82C63.9567 107.238 64.3009 104.17 64.4183 103.368C64.1655 115.384 64.8877 127.445 63.7699 139.477C63.6402 140.873 63.5228 145.656 63.3144 146.676C63.2189 145.716 63.2189 144.194 63.1904 143.188C63.0934 143.59 63.0572 148.104 62.9308 149.265L62.732 149.321C62.5054 148.796 62.7134 144.259 62.6738 143.179L62.3571 145.902C62.2004 144.136 62.2952 140.521 62.2923 138.59L62.3132 123.976C62.3205 122.105 62.4812 117.64 62.0299 116.013C62.3018 114.783 62.1728 110.206 62.1722 108.639C62.1291 108.135 62.1724 107.676 62.202 107.172C61.986 105.367 61.7698 103.918 61.4264 102.135Z" fill="#6D5D3A"/>
<path d="M61.4264 102.135L61.8363 102.004L62.1999 101.278C62.3936 102.295 62.539 103.074 62.8439 104.074L62.9083 105.207L63.2173 105.434C63.0325 108.54 63.0483 111.496 62.825 114.714L62.6956 114.666C62.1204 112.46 62.5628 110.537 62.1722 108.639C62.1291 108.135 62.1724 107.676 62.202 107.172C61.986 105.367 61.7698 103.918 61.4264 102.135Z" fill="#503919"/>
<path d="M61.4264 102.135L61.8363 102.004L62.1999 101.278C62.3936 102.295 62.539 103.074 62.8439 104.074L62.9083 105.207L62.7948 106.79C62.7036 106.082 62.5665 103.959 62.2252 103.601C62.133 105.053 62.5009 105.844 62.202 107.172C61.986 105.367 61.7698 103.918 61.4264 102.135Z" fill="#4D3227"/>
<path d="M61.068 195.192L61.2886 195.72C62.4644 196.079 65.2424 195.882 66.4557 195.938C69.5056 196.081 84.4018 195.822 86.2509 196.52L85.8531 197.99C82.498 198.726 61.3151 197.804 60.6078 198.167C60.6584 196.909 60.7862 196.398 61.068 195.192Z" fill="#61694C"/>
<path d="M105.622 91.0046C105.645 89.1043 105.631 87.1059 105.813 85.222C105.846 86.0308 105.935 88.8627 106.331 89.3906L106.597 88.4631C106.591 91.5719 106.539 94.6803 106.442 97.7876C106.633 100.321 105.809 114.636 106.863 115.654C106.887 115.677 106.914 115.695 106.939 115.716C106.741 117.033 106.221 118.816 105.735 120.055L105.567 119.859L105.011 119.877C103.898 118.222 105.861 96.8725 105.487 93.3875C105.444 92.9832 105.564 91.4874 105.622 91.0046Z" fill="#615A39"/>
<path d="M105.622 91.0046C105.645 89.1043 105.631 87.1059 105.813 85.222C105.846 86.0308 105.935 88.8627 106.331 89.3906L106.597 88.4631C106.591 91.5719 106.54 94.6803 106.442 97.7876C106.161 97.1934 106.033 95.7353 105.936 95.0121C105.783 95.6524 105.848 95.8359 106.004 96.4699L106.052 96.6607L105.992 96.6099C105.53 95.6444 105.665 92.2995 105.622 91.0046Z" fill="#2A2E1B"/>
<path d="M83.3118 148.892L83.7329 149.889L83.6556 150.046C82.8769 151.603 81.756 152.918 80.9101 154.505C76.6469 162.506 67.5619 175.047 79.246 181.422C81.0851 182.426 83.1896 182.712 85.2779 182.557L86.2793 182.925C86.1706 183.329 86.1596 183.24 85.8282 183.586C81.0528 185.599 73.302 179.485 72.6979 174.63C71.9342 168.492 75.4546 162.763 78.2543 157.547C79.8101 154.649 81.5054 151.576 83.3118 148.892Z" fill="#223033"/>
<path d="M106.654 34.947C107.195 36.3581 106.686 40.2709 107.008 42.3227L107.184 42.4431C107.473 41.8437 107.613 35.4139 107.685 34.2513C107.91 33.9796 107.952 33.6339 108.033 33.2847L108.24 33.8009C107.217 46.6858 106.957 61.9254 106.782 74.8828L106.339 74.7748C105.953 73.1409 106.517 69.4908 106.066 67.4861C105.889 63.9312 106.047 58.9328 106.119 55.3723C106.262 48.563 106.441 41.7544 106.654 34.947Z" fill="#232716"/>
<path d="M63.2481 17.7842C66.1867 17.7911 80.8559 17.4924 82.6499 17.9874C82.9413 18.4101 82.868 18.2202 82.8485 18.7914C81.9241 19.6128 79.0295 19.1752 77.6802 19.1756C73.8107 19.1655 69.9412 19.1984 66.0725 19.2748C64.9922 19.0189 63.8461 19.1744 62.7302 19.2527C62.3497 18.9698 62.079 18.8401 61.933 18.4004C62.2671 17.9601 62.6189 17.98 63.2481 17.7842Z" fill="#4D5638"/>
<path d="M84.0737 147.21C86.9137 152.757 90.2567 158.159 92.712 163.935C92.9328 164.455 93.7979 167.353 93.9785 167.518L93.9924 167.666C93.6299 168.18 93.5322 168.286 93.4301 168.935C93.2076 165.933 87.3743 156.004 85.7255 152.946C85.3721 152.291 84.483 150.274 84.0971 149.799L83.733 149.889L83.3118 148.892L84.0737 147.21Z" fill="#3B494A"/>
<path d="M62.3571 145.902L62.6738 143.179C62.7134 144.259 62.5054 148.796 62.732 149.321L62.9308 149.265C63.0572 148.104 63.0934 143.59 63.1905 143.188C63.2189 144.194 63.2189 145.716 63.3144 146.676C63.2104 151.194 63.0681 155.711 62.8875 160.227C62.8078 162.486 62.7887 165.99 62.5694 168.127C62.3762 166.055 62.64 165.807 61.9578 163.542C61.918 162.904 61.923 162.271 61.9443 161.632C62.1181 156.391 62.3844 151.147 62.3571 145.902Z" fill="#2A2E1B"/>
<path d="M61.9578 163.542C62.6399 165.807 62.3762 166.055 62.5694 168.127C62.678 173.375 62.3327 177.265 61.941 182.469L61.7805 182.354C61.6269 180.815 61.3761 180.914 61.357 179.011C61.3829 176.815 62.3228 169.512 61.2232 168.146L61.2077 167.687L61.5005 167.539C61.7855 167.007 61.8791 164.382 61.9578 163.542Z" fill="#171E1C"/>
<path d="M106.066 67.4861C106.517 69.4908 105.953 73.1409 106.339 74.7748L106.782 74.8829C106.798 78.0743 106.891 85.4196 106.597 88.4631L106.331 89.3906C105.935 88.8627 105.846 86.0308 105.813 85.222C105.562 80.5918 105.957 72.3541 106.066 67.4861Z" fill="#171E1C"/>
<path d="M91.0686 51.743C94.4112 57.8363 99.1487 66.7776 94.5551 73.4972C86.8782 84.7277 70.869 75.3713 74.7642 63.1065C76.6162 57.2754 80.039 52.0133 83.1098 46.7583C83.924 45.3723 84.8941 43.3871 85.7041 42.2078L86.0018 42.2438L86.3646 42.9024C87.807 45.5135 89.8988 49.0953 91.0686 51.743Z" fill="#ABC1C6"/>
<path d="M91.0686 51.743C94.4112 57.8363 99.1487 66.7776 94.5551 73.4972C86.8782 84.7277 70.869 75.3713 74.7642 63.1065C76.6162 57.2754 80.039 52.0133 83.1098 46.7583C83.924 45.3723 84.8941 43.3871 85.7041 42.2078L86.0018 42.2438L86.3646 42.9024C85.9398 43.3465 85.2978 43.7613 85.5335 44.4332C84.9991 46.1044 82.8702 48.6482 81.9492 50.2839C78.5167 56.3797 72.7898 64.6526 76.2865 71.8659C80.1869 79.9117 92.5511 78.7951 95.1495 70.3C97.1343 63.8103 92.7725 57.0014 89.892 51.4651C90.6525 51.3767 90.3414 51.3218 91.0686 51.743Z" fill="#171E1C"/>
<path d="M86.3646 42.9023C87.8071 45.5135 89.8988 49.0953 91.0686 51.7429C90.3414 51.3218 90.6525 51.3767 89.892 51.4651C89.386 50.9463 86.615 45.7436 85.5335 44.4332C85.2978 43.7612 85.9398 43.3465 86.3646 42.9023Z" fill="#3B494A"/>
<path d="M78.6654 64.3796C78.8638 64.5871 79.5073 69.5084 80.4652 70.6144C81.459 71.7617 82.8042 72.265 83.5427 73.0502L83.3783 73.492C82.408 73.3031 81.5857 73.0556 80.7633 72.4684C78.8988 71.1373 77.0754 66.3331 78.6654 64.3796Z" fill="#0C1D23"/>
<path d="M87.8766 117.068C87.9335 116.387 87.9998 116.267 88.4981 115.866L88.5109 116.18C89.322 116.256 89.723 116.566 90.4288 116.987C90.8892 118.029 91.3745 119.06 91.8842 120.079C92.4761 118.417 93.0703 116.926 94.7691 116.045L95.1686 116.1C95.5445 117.465 93.5647 119.988 92.7557 121.11C93.3183 122.238 95.2924 125.405 95.0866 126.335C93.4802 126.848 92.35 123.925 91.8275 122.793C91.0667 124.152 90.1639 126.494 88.4039 126.488C87.8391 126.519 86.9095 126.424 86.1936 126.442L85.6049 126.226C85.1352 125.139 84.8627 116.793 86.114 116.451L86.5059 116.687C87.3855 116.752 87.1943 116.622 87.8766 117.068Z" fill="#E5E9C6"/>
<path d="M86.1936 126.442L85.6049 126.226C85.1352 125.138 84.8627 116.793 86.114 116.451L86.5059 116.687C87.3855 116.752 87.1943 116.622 87.8766 117.068C87.7366 118.486 87.3838 123.176 88.012 124.352L88.543 124.785C88.6232 125.543 88.5605 125.738 88.4039 126.488C87.8391 126.519 86.9095 126.424 86.1936 126.442Z" fill="#A9B273"/>
<path d="M86.1936 126.442L85.6049 126.226C85.1352 125.138 84.8627 116.793 86.114 116.451L86.5059 116.687C86.4311 119.238 86.6215 124.251 86.1936 126.442Z" fill="#E5E9C6"/>
<path d="M87.8767 117.068C87.9335 116.387 87.9998 116.267 88.4981 115.866L88.5109 116.18C88.7717 118.109 89.1952 119.259 90.5889 120.591C91.0534 121.923 89.0917 123.754 88.543 124.785L88.012 124.352C87.3838 123.176 87.7367 118.486 87.8767 117.068Z" fill="#8D9B75"/>
<path d="M75.7938 118.967C75.5999 120.765 75.7093 123.771 75.3911 125.62C75.2226 125.794 75.0788 125.943 74.9599 126.065C74.3189 126.216 74.5507 126.256 74.0538 125.989C73.5317 124.849 73.6713 117.433 74.1226 116.033L74.483 115.879C75.2371 115.967 75.8694 116.437 76.5185 116.841C77.275 119.25 78.1557 121.582 78.7074 124.045C79.0827 121.967 79.178 120.891 79.9259 118.891C80.4083 117.498 80.5097 116.092 82.2427 116.369C84.0839 117.368 82.8706 121.749 83.0462 123.594C83.0976 124.137 83.1761 125.561 82.9972 125.973C82.5142 126.358 82.0401 126.442 81.4649 126.115C81.0039 125.143 81.5233 121.314 81.035 120.288C80.6207 120.655 80.6696 121.071 80.5369 121.729C80.5505 122.667 79.3547 126.159 78.3058 126.2C76.9016 125.214 76.3497 120.826 75.7938 118.967Z" fill="#E5E9C6"/>
<path d="M66.8469 101.148C68.7681 101.166 69.8813 101.2 71.7727 101.462C72.3132 102.464 72.4688 102.772 73.2738 103.614C73.5182 106.325 73.704 107.556 72.0632 109.765C70.6625 111.204 68.8631 110.989 66.8738 111.055C66.6814 107.748 66.8887 104.461 66.8469 101.148Z" fill="#E5E9C6"/>
<path d="M68.6975 102.632C69.8308 102.762 70.595 102.709 71.4009 103.655C72.3016 104.713 72.3368 107.707 71.1895 108.499L68.7801 109.375C68.4999 107.651 68.4794 104.355 68.6975 102.632Z" fill="#8D9B75"/>
<path d="M86.5034 111.121C86.3818 109.563 86.1074 102.621 86.5595 101.473C87.0003 101.352 87.3269 101.249 87.756 101.092C88.2539 101.137 88.6849 101.074 88.9438 101.517C90.1966 103.66 91.1349 106.204 92.2806 108.376C92.309 107.176 92.2394 102.157 92.4513 101.56C92.9782 101.095 93.3286 101.101 93.934 101.559C94.1987 102.636 94.2511 109.497 93.8861 110.955C93.8304 111.177 93.5133 111.21 93.2752 111.283C91.3238 110.878 89.6238 106.645 88.8906 105.004C88.8318 106.548 88.8852 110.01 88.617 111.257L86.5034 111.121Z" fill="#E5E9C6"/>
<path d="M86.5034 111.121C86.3818 109.563 86.1074 102.621 86.5595 101.473C87.0003 101.352 87.3269 101.249 87.756 101.092C87.5769 102.114 87.6293 110.083 87.9929 110.944L88.617 111.257L86.5034 111.121Z" fill="#D6DFA5"/>
<path d="M75.3081 101.146C77.2806 101.328 78.5128 101.294 80.5928 101.617C80.8473 102.15 81.2437 102.82 81.5376 103.35C81.4741 107.031 80.3049 105.734 79.8992 107.181L80.0342 107.388C81.0458 108.471 80.9215 109.357 82.3303 110.962C81.4185 111.069 80.5638 111.302 79.8085 110.894L79.6709 110.411C79.2741 109.341 78.7023 107.55 77.7481 106.915L77.4749 106.976C76.6431 108.064 77.1232 110.805 75.935 111.179L75.4552 110.844C75.2141 110.187 75.304 109.151 75.3201 108.42C75.2033 106.324 75.2996 103.31 75.3081 101.146Z" fill="#D6DFA5"/>
<path d="M75.3201 108.42C75.7385 107.044 75.2772 103.499 75.9178 101.684L76.1583 101.82C76.7809 103.132 76.5359 103.335 76.7275 104.787C76.9704 105.694 76.7637 105.455 77.4639 105.903C78.1277 105.951 78.5182 105.971 79.184 105.94C79.9926 106.551 79.4715 106.312 79.8992 107.181L80.0342 107.388C81.0458 108.471 80.9215 109.357 82.3303 110.962C81.4184 111.069 80.5638 111.302 79.8085 110.894L79.6709 110.411C79.2741 109.341 78.7023 107.55 77.7481 106.915L77.4749 106.976C76.643 108.064 77.1232 110.805 75.935 111.179L75.4552 110.844C75.2141 110.187 75.304 109.151 75.3201 108.42Z" fill="#E5E9C6"/>
<path d="M80.0342 107.388C81.0458 108.471 80.9215 109.357 82.3303 110.962C81.4184 111.069 80.5638 111.302 79.8085 110.894L79.6709 110.411C80.1287 110.312 80.3353 110.052 80.5976 109.701C80.685 108.976 80.273 108.164 80.0342 107.388Z" fill="#D6DFA5"/>
<path d="M76.7275 104.787C76.8256 103.58 76.7622 102.451 78.4444 102.576C79.9557 103.319 79.6734 104.613 79.184 105.94C78.5182 105.971 78.1277 105.951 77.4639 105.903C76.7637 105.455 76.9704 105.694 76.7275 104.787Z" fill="#A9B273"/>
<path d="M96.2056 101.01C96.5633 101.081 96.8601 101.184 97.2076 101.295C98.3991 102.404 97.3828 104.232 97.8459 105.464C98.076 105.401 98.1299 105.305 98.1477 105.016C98.227 103.729 101.372 100.472 102.543 101.531C102.41 101.988 100.031 104.858 99.3976 105.964C100.38 106.936 100.869 107.791 101.609 108.951C102.088 109.715 102.568 110.395 102.465 111.328L102.076 111.313C100.37 110.368 99.4979 108.564 98.1922 107.13C97.9949 108.286 97.8153 110.668 96.8029 111.301L96.4877 111.078C95.5955 109.028 95.8434 103.318 96.2056 101.01Z" fill="#E5E9C6"/>
<path d="M83.0456 101.376L85.4728 101.331C85.4709 104.59 85.4289 107.848 85.3471 111.106C84.6296 111.112 83.9845 111.185 83.346 110.869C82.8037 109.776 83.0316 103.056 83.0456 101.376Z" fill="#D6DFA5"/>
<path d="M92.4998 26.4252C93.5419 26.4349 94.2703 26.9709 94.9805 27.7146C95.6367 28.4018 95.5797 28.6431 95.5306 29.5259C94.1643 29.4339 92.5946 27.8777 92.4998 26.4252Z" fill="#61694C"/>
<path d="M102.41 33.6789C104.005 33.4504 105.505 34.1024 105.756 35.8119C104.424 35.8707 102.73 35.0255 102.41 33.6789Z" fill="#3D492D"/>
<path d="M86.0935 17.8109C86.8255 17.7823 87.977 17.6293 88.5547 17.9871C88.9683 18.6984 88.8278 18.6406 88.8216 19.5857C87.3178 19.589 86.544 19.2843 86.0935 17.8109Z" fill="#61694C"/>
<path d="M96.6794 30.8025C97.9542 30.8035 100.219 31.2669 100.602 32.6667C99.2673 32.8498 97.238 31.9567 96.6794 30.8025Z" fill="#3D492D"/>
<path d="M89.503 21.9203L90.1411 22.1483C90.7867 22.8529 91.1935 23.7029 91.3836 24.638C89.4811 24.3103 89.1277 23.7971 89.503 21.9203Z" fill="#61694C"/>
<path d="M51.469 155.511C54.3191 158.608 59.5213 164.035 61.2077 167.687L61.2232 168.146C62.3228 169.512 61.3829 176.815 61.357 179.011C60.9055 181.888 60.7129 185.317 60.133 188.117C56.6127 188.757 52.9134 189.234 49.7512 187.076C49.5145 186.914 49.2838 186.742 49.0599 186.562C40.9298 178.259 47.2913 169.811 49.3504 160.256C49.5716 159.23 50.2514 156.593 50.6722 155.856L51.039 155.76L51.469 155.511Z" fill="#ABC1C6"/>
<path d="M51.469 155.511C54.3191 158.608 59.5213 164.035 61.2077 167.687L61.2232 168.146C60.7446 167.788 51.3685 156.377 51.039 155.76L51.469 155.511Z" fill="#171E1C"/>
<path d="M47.9611 178C49.8485 178.186 49.153 180.883 50.6157 182.387C52.1806 183.998 54.3271 183.526 55.2241 185.259C50.4871 185.891 48.5278 181.956 47.9611 178Z" fill="#2A3A43"/>
<path d="M42.9299 220.118C42.0731 221.173 40.8861 222.579 39.5809 222.927C39.384 222.885 39.0955 222.873 38.9509 222.734C37.2213 221.059 35.9904 202.085 35.6369 198.631C35.2974 195.35 34.8778 192.077 34.3787 188.817C30.6266 164.457 25.4871 139.555 20.7802 115.321L14.618 83.3417C13.4965 77.3598 12.5137 71.1889 11.2617 65.2427C9.67862 57.6309 7.90532 50.0601 5.9435 42.5371C5.17441 39.6499 3.99395 36.7599 3.23022 33.8497C2.25886 30.1482 1.7005 26.2947 0.989361 22.5248C0.616854 20.55 0.156582 18.2525 0.010054 16.2571C-0.0427911 15.5374 0.107391 15.1062 0.586593 14.6245C1.92019 14.2542 3.45361 15.9398 4.2627 16.8362C3.57345 16.9125 3.57193 17.0562 3.14754 17.6483L2.31702 17.1579L2.08027 17.2511C1.77444 19.549 3.92624 29.6151 4.60856 32.0416C10.9258 31.4367 16.832 29.9073 23.0175 28.6152C23.5396 28.5062 23.6525 28.4855 23.9946 28.7405C24.028 29.5513 24.1392 29.3819 23.7643 29.9829C22.694 30.6345 21.1731 30.6755 19.9445 30.819C14.675 31.4342 9.84066 32.2972 4.8109 34.0305C7.80304 40.2137 8.7563 48.3704 10.32 55.0248C11.042 58.0977 11.9496 61.1638 12.604 64.2411C16.4986 82.5559 19.2457 101.086 23.3627 119.355C23.9333 121.888 23.9538 124.773 24.523 127.338C25.076 130.286 25.8605 133.182 26.4193 136.104C29.4494 151.238 32.1684 166.432 34.5748 181.678C35.0963 184.928 35.8185 188.186 36.3222 191.427C37.055 196.379 37.5204 201.366 37.7163 206.368L41.2519 206.026L41.081 206.331C40.3682 206.435 38.2341 206.567 37.9385 206.82L37.9609 207.137C39.4109 207.886 40.5013 206.432 41.0355 207.188C39.9343 207.541 39.0547 207.681 37.9228 207.884C38.0593 209.684 39.3173 219.344 40.2151 220.112C41.0628 219.549 41.7506 218.959 42.5089 218.449C43.5391 218.932 45.1777 220 45.8293 220.265L46.4567 219.623C46.8732 220.048 47.1608 220.346 47.6269 220.721C47.1084 221.434 46.6095 221.438 45.6986 221.589C44.7966 221.45 43.7105 220.636 42.9299 220.118Z" fill="#712F10"/>
<path d="M60.6078 198.167C61.3151 197.804 82.498 198.726 85.8531 197.99C84.5984 201.748 83.6123 206.186 82.1836 209.81C81.9121 210.726 81.3121 212.103 81.2396 212.896C81.4737 213.816 81.3804 214.046 80.6827 214.68C80.3235 214.301 79.0473 213.839 78.5283 213.657C75.9678 216.252 75.7203 216.852 72.7353 214.023C72.0618 215.059 71.3756 216.314 70.0619 216.567C69.4232 216.687 68.7633 216.622 68.1621 216.374C67.4304 216.148 66.6771 215.829 65.9503 216.024C65.1594 216.523 64.9402 217.631 64.6182 218.553C62.8354 218.078 62.556 218.132 61.5191 216.61C62.628 217.233 62.9095 216.997 64.2692 216.836L64.1785 216.712C64.8889 216.036 65.6312 213.541 64.8671 212.669L64.8785 212.575C65.0778 212.536 65.492 212.395 65.7053 212.329C65.3857 208.036 63.9596 208.895 60.4096 209.4C60.2046 205.929 60.4177 201.648 60.6078 198.167Z" fill="#8D9B75"/>
<path d="M66.8809 213.133C68.2601 211.246 69.8331 209.146 71.5505 212.116L72.7053 211.855L73.4511 212.391C74.1197 212.803 73.8589 212.766 74.5056 212.712C75.0472 213.375 75.2781 213.891 75.9991 214.129C76.5257 213.849 76.6102 213.688 76.9505 213.224C77.4134 213.377 78.0621 213.628 78.5283 213.657C75.9678 216.252 75.7203 216.852 72.7352 214.023C72.0618 215.059 71.3755 216.314 70.0619 216.568C69.4232 216.687 68.7633 216.622 68.1621 216.374C67.4304 216.148 66.6771 215.829 65.9503 216.024C65.1594 216.523 64.9401 217.631 64.6182 218.553C62.8354 218.078 62.556 218.132 61.519 216.61C62.628 217.233 62.9095 216.997 64.2692 216.836L64.1785 216.713C64.8889 216.036 65.6312 213.541 64.8671 212.669L64.8785 212.575C65.0778 212.536 65.492 212.395 65.7053 212.329L66.0966 212.534C66.4056 212.894 66.4482 212.946 66.8809 213.133Z" fill="#80522E"/>
<path d="M66.8809 213.133C68.2601 211.246 69.8331 209.146 71.5505 212.116C71.2705 213.249 70.1682 214.564 69.3607 215.388L68.8735 215.477C68.2671 214.044 67.2742 214.21 66.8809 213.133Z" fill="#9F6C46"/>
<path d="M74.2987 209.376C76.1507 209.011 77.1601 208.897 78.9048 209.634L79.1292 210.684C79.7029 211.9 79.8416 212.505 81.2396 212.896C81.4737 213.816 81.3803 214.046 80.6827 214.68C80.3234 214.301 79.0473 213.839 78.5283 213.657C78.0621 213.628 77.4134 213.377 76.9505 213.224C76.6102 213.688 76.5257 213.849 75.9991 214.129C75.2781 213.891 75.0472 213.375 74.5056 212.712C73.8588 212.766 74.1197 212.803 73.451 212.391L74.2987 209.376Z" fill="#615A39"/>
<path d="M79.1292 210.684C79.7029 211.9 79.8416 212.505 81.2396 212.896C81.4737 213.816 81.3803 214.046 80.6827 214.68C80.3234 214.301 79.0473 213.839 78.5283 213.657C78.0621 213.628 77.4134 213.377 76.9505 213.224C77.324 212.586 77.7413 211.979 78.1532 211.364C78.3359 211.123 78.8409 210.86 79.1292 210.684Z" fill="#663C1D"/>
<path d="M74.5056 212.712C75.3543 211.704 76.4636 209.057 78.1532 211.364C77.7413 211.979 77.3241 212.586 76.9505 213.224C76.6102 213.688 76.5257 213.849 75.9992 214.129C75.2781 213.891 75.0472 213.375 74.5056 212.712Z" fill="#9F6C46"/>
<path d="M67.2328 209.33C69.1479 208.98 69.6941 209.073 71.5952 209.278C72.0626 210.192 72.4375 210.85 72.7053 211.855L71.5505 212.116C69.8331 209.146 68.2601 211.246 66.8809 213.133C66.4482 212.946 66.4056 212.894 66.0966 212.534C66.5217 211.776 66.9559 210.212 67.2328 209.33Z" fill="#615A39"/>
<path d="M78.9048 209.634C79.9296 209.624 81.2189 209.545 82.1836 209.81C81.9121 210.726 81.3121 212.103 81.2396 212.896C79.8416 212.505 79.703 211.9 79.1293 210.684L78.9048 209.634Z" fill="#6D5D3A"/>
<path d="M51.6921 203.916C52.4901 203.626 54.4726 203.168 55.2975 203.04C56.1189 203.444 56.5219 203.581 57.4015 203.856C57.7779 203.829 58.4201 203.719 58.8168 203.663L58.8275 203.86C58.9503 206.401 57.5008 213.391 61.5219 212.824C62.1554 212.801 64.4018 212.6 64.8671 212.669C65.6312 213.541 64.8889 216.036 64.1785 216.712L64.2692 216.836C62.9095 216.997 62.628 217.233 61.519 216.61C61.1749 216.631 60.7075 216.566 60.5376 216.921C59.0816 219.971 57.6464 220.549 55.3903 217.652L55.0376 217.677C54.7898 218.058 54.7662 218.097 54.6266 218.526C53.95 218.54 53.7553 218.571 53.1073 218.35C52.8517 218.923 52.687 219.015 52.2138 219.394L52.1073 220.073C51.9002 220.222 51.7658 220.348 51.5168 220.398C50.5519 219.802 49.7129 219.267 48.7803 218.619C48.406 219.259 47.9091 220.054 47.6269 220.721C47.1608 220.346 46.8732 220.048 46.4567 219.623L45.8293 220.264C45.1777 220 43.5391 218.932 42.5089 218.449C41.7506 218.959 41.0628 219.549 40.2151 220.112C39.3173 219.344 38.0593 209.684 37.9228 207.884C39.0547 207.681 39.9343 207.541 41.0355 207.188C40.5013 206.432 39.4109 207.886 37.9609 207.137L37.9385 206.82C38.2341 206.567 40.3682 206.435 41.081 206.331L41.2519 206.025C44.6214 205.432 48.3882 204.37 51.6921 203.916Z" fill="#B7643A"/>
<path d="M51.6922 203.916C52.4902 203.626 54.4727 203.168 55.2975 203.04C56.1189 203.444 56.5219 203.581 57.4015 203.856C56.6041 204.02 54.8874 204.421 54.1571 204.492C51.3197 205.442 44.2774 206.551 41.0355 207.188C40.5013 206.432 39.4109 207.886 37.9609 207.137L37.9385 206.82C38.2342 206.567 40.3683 206.435 41.081 206.331L41.2519 206.025C44.6214 205.432 48.3882 204.37 51.6922 203.916Z" fill="#67270B"/>
<path d="M51.6921 203.916C52.4901 203.626 54.4726 203.168 55.2975 203.04C56.1189 203.444 56.5219 203.581 57.4015 203.856C56.604 204.02 54.8874 204.421 54.1571 204.492L53.8185 204.314C54.1762 204.229 54.2435 204.208 54.5821 204.063C53.8056 203.204 53.0277 204.392 51.6921 203.916Z" fill="#712F10"/>
<path d="M57.0882 217.109C57.5989 217.575 57.3841 217.49 57.967 217.631C58.9004 217.117 59.5651 215.856 60.3173 215.351C61.8876 214.296 61.5187 216.279 64.1785 216.713L64.2692 216.836C62.9095 216.997 62.628 217.233 61.519 216.61C61.1749 216.631 60.7075 216.566 60.5376 216.921C59.0816 219.971 57.6464 220.549 55.3903 217.652C56.1243 217.602 56.5128 217.556 57.0882 217.109Z" fill="#712F10"/>
<path d="M46.4568 219.623C47.1051 218.604 47.7146 217.337 48.8583 216.985C50.2087 217.026 50.8679 218.354 52.063 219.278L52.2138 219.394L52.1073 220.073C51.9002 220.222 51.7658 220.348 51.5168 220.398C50.5519 219.802 49.7129 219.267 48.7804 218.619C48.406 219.259 47.9091 220.054 47.627 220.721C47.1608 220.346 46.8733 220.048 46.4568 219.623Z" fill="#67270B"/>
<path d="M53.1074 218.35C53.9987 215.912 54.9926 215.293 57.0882 217.109C56.5128 217.556 56.1243 217.602 55.3904 217.652L55.0377 217.677C54.7898 218.058 54.7662 218.097 54.6266 218.526C53.95 218.54 53.7553 218.571 53.1074 218.35Z" fill="#712F10"/>
<path d="M42.7657 9.1851C43.4113 8.17073 45.722 5.32971 47.0036 6.07762C47.8739 8.36622 48.0566 11.6628 48.6191 14.0922C51.0179 24.4543 51.1471 34.9034 52.7421 45.3882C54.194 54.8875 55.7492 64.371 57.4079 73.8365C58.7405 81.1142 60.4268 88.8304 61.4688 96.1313L61.5995 97.367L61.6908 98.6312L61.3118 98.8058C61.1476 99.5676 61.1445 99.8697 61.1337 100.655L60.7242 98.9578C59.6255 94.2031 59.1991 89.0421 58.2314 84.2062C57.2433 78.6902 55.6518 73.3243 55.1836 67.7154C55.0879 66.5678 54.9135 65.1319 54.7066 63.9932C53.3701 56.6421 52.0843 49.2867 50.8568 41.9168C50.8568 41.9168 50.5405 41.5879 50.5101 41.5562C50.4935 41.3065 50.5225 40.8492 50.5308 40.5849C50.641 40.4324 50.6942 40.1531 50.6673 39.9666C49.9494 34.9852 49.1671 29.6872 48.9348 24.6699L48.8262 23.9436C48.4791 22.6967 48.2256 18.8782 47.9249 17.2606C47.3234 14.0226 46.4134 11.8477 45.2616 8.79006C44.8488 9.47417 44.369 10.4883 43.6836 10.8026C43.0892 10.9236 42.6944 10.6676 42.1489 10.41C42.9045 10.5363 43.4017 10.6535 43.9817 10.0349C43.729 9.48365 43.4448 9.50898 42.7657 9.1851Z" fill="#623013"/>
<path d="M61.4688 96.1313L61.5995 97.367L61.6908 98.6312L61.3118 98.8058C61.1476 99.5677 61.1445 99.8697 61.1337 100.655L60.7242 98.9578C60.7673 98.0397 61.2783 97.3518 61.4688 96.1313Z" fill="#67270B"/>
<path d="M60.1331 188.117C60.713 185.317 60.9055 181.888 61.357 179.011C61.3762 180.914 61.627 180.815 61.7805 182.354L61.941 182.469C62.0583 185.075 61.3698 192.452 61.068 195.192C60.7862 196.398 60.6584 196.909 60.6078 198.167C60.4177 201.648 60.2046 205.929 60.4096 209.4C63.9596 208.895 65.3857 208.036 65.7053 212.329C65.492 212.395 65.0778 212.536 64.8785 212.575L64.8671 212.669C64.4019 212.6 62.1554 212.801 61.522 212.824C57.5009 213.391 58.9503 206.401 58.8275 203.86L58.8169 203.663C58.9536 203.245 58.9911 202.843 59.0526 202.408C58.8275 199.523 59.4437 192.744 60.0317 189.874L59.7324 189.899C55.5199 190.238 51.6556 189.923 48.3351 187.088C48.6823 186.639 48.5013 186.784 49.06 186.562C49.2839 186.742 49.5145 186.914 49.7512 187.076C52.9134 189.234 56.6128 188.757 60.1331 188.117Z" fill="#615A39"/>
<path d="M62.668 210.258C64.0383 210.981 64.2373 211.169 64.8785 212.575L64.8671 212.669C64.4018 212.6 62.1554 212.801 61.5219 212.824C61.9955 212.19 62.3739 211.032 62.668 210.258Z" fill="#9F6C46"/>
<path d="M55.2362 111.123C56.274 109.399 57.5295 106.981 59.4033 106.183L59.68 106.315C59.6939 107.628 58.06 109.747 57.27 110.898C58.3708 112.049 59.4197 113.256 60.5619 114.439C60.3144 114.908 60.2203 115.181 59.7573 115.46C58.1032 114.455 58.1295 113.632 55.5239 112.473C55.8594 113.643 56.5429 115.323 56.9585 116.596L54.7275 117.385C54.5635 115.432 52.715 108.385 53.6857 107.041L54.0204 107.05C54.9075 107.843 55.0133 109.81 55.2362 111.123Z" fill="#F4D6B4"/>
<path d="M48.335 187.088C40.2725 181.852 45.9735 167.3 48.3343 160.238C48.8248 158.771 49.682 155.943 50.3553 154.682C50.9042 154.706 50.9794 154.995 51.469 155.511L51.039 155.76L50.6722 155.856C50.2514 156.593 49.5716 159.23 49.3504 160.256C47.2913 169.811 40.9298 178.259 49.0599 186.562C48.5013 186.784 48.6823 186.639 48.335 187.088Z" fill="#293943"/>
<path d="M37.045 10.6415C37.4888 9.71359 38.3144 7.54912 39.5078 7.42247C40.9354 7.27088 41.7477 8.403 42.7657 9.18514C43.4448 9.50902 43.729 9.48369 43.9818 10.035C43.4017 10.6535 42.9046 10.5363 42.1489 10.4101C41.2581 10.2937 40.0602 9.01285 39.0731 10.1285C36.7635 12.7385 36.5701 13.0071 33.7007 9.78436C32.696 10.8204 31.8705 11.7408 30.6487 12.5293C30.389 12.0314 30.3867 11.9546 30.3698 11.3908C33.0318 7.52728 33.1183 8.03098 37.045 10.6415Z" fill="#712F10"/>
<path d="M48.8262 23.9437L48.9348 24.6699C47.2358 25.4741 33.2196 28.4515 32.0298 27.4794L32.1019 27.0912C33.5276 25.773 46.2837 24.0214 48.8262 23.9437Z" fill="#67270B"/>
<path d="M26.603 9.64008C27.4637 10.1362 29.4603 11.2711 30.3699 11.3908C30.3867 11.9546 30.389 12.0313 30.6487 12.5292C29.2857 13.3214 27.727 12.3676 26.4858 11.7287C26.0823 12.1563 25.4286 12.8951 25.0206 13.2708C24.5892 12.8796 24.4386 12.6855 23.8496 12.5867C24.7357 11.2979 25.4527 10.6554 26.603 9.64008Z" fill="#712F10"/>
<path d="M20.1461 10.7108C21.1357 11.2276 23.0367 12.5734 23.8495 12.5867C24.4385 12.6855 24.5891 12.8797 25.0205 13.2708C23.0152 14.9126 22.184 14.1754 20.2055 12.8493C19.6948 13.436 18.7412 14.6965 18.338 15.1143C18.567 13.9851 19.2153 13.6432 19.2609 12.5138L18.9784 12.2147L18.2386 12.5173C18.9657 11.7182 19.282 11.3807 20.1461 10.7108Z" fill="#712F10"/>
<path d="M18.2386 12.5173L18.9784 12.2147L19.2609 12.5138C19.2153 13.6432 18.567 13.9851 18.338 15.1143C17.8817 15.885 17.6377 16.1335 17.0207 16.7953C15.8754 15.613 14.8125 14.7985 13.5918 13.4564C13.6502 13.265 13.6398 13.1053 13.6485 12.9022L12.8801 12.3448C14.1245 12.1495 15.8437 13.7571 16.8488 14.5087C17.1473 14.0759 17.9409 12.8587 18.2386 12.5173Z" fill="#67270B"/>
<path d="M10.1417 15.4165C11.2678 14.3285 11.8918 13.5709 12.8801 12.3448L13.6485 12.9022C13.6398 13.1053 13.6502 13.265 13.5918 13.4564L13.4787 13.5929C11.7949 15.6555 12.2323 18.4453 8.73193 16.7694C8.98639 16.367 9.75113 15.6847 10.1417 15.4165Z" fill="#712F10"/>
<path d="M6.02511 14.1088C6.62742 14.6278 6.68176 14.7467 7.05359 15.4562C6.34318 17.1177 5.67671 17.8882 4.45772 19.2234C3.9877 18.6866 3.58261 18.2133 3.14755 17.6483C3.57194 17.0562 3.57347 16.9125 4.26271 16.8362C4.81688 15.4898 4.91354 15.0447 6.02511 14.1088Z" fill="#67270B"/>
<path d="M45.3701 40.1199C47.2203 40.0951 48.7144 40.3305 50.5308 40.5849C50.5225 40.8492 50.4935 41.3065 50.5102 41.5562C48.872 41.661 46.8383 40.774 45.3701 40.1199Z" fill="#67270B"/>
<path d="M55.2975 203.04C56.4579 202.659 57.8369 202.53 59.0526 202.408C58.9911 202.843 58.9536 203.245 58.8168 203.663C58.4201 203.719 57.7779 203.829 57.4015 203.856C56.5219 203.581 56.1189 203.444 55.2975 203.04Z" fill="#67270B"/>
<path d="M60.5619 114.439C60.8984 114.789 61.7849 115.671 62.0299 116.013C61.7851 116.336 61.8876 116.232 61.4719 116.395C60.811 116.334 60.3069 115.863 59.7574 115.46C60.2203 115.181 60.3144 114.908 60.5619 114.439Z" fill="#F4D6B4"/>
<path d="M33.0842 56.1561C42.558 55.1056 51.0801 61.9581 52.0877 71.4366C53.0953 80.9148 46.2042 89.4058 36.7213 90.3703C27.2991 91.3288 18.8744 84.4912 17.8732 75.0736C16.8722 65.6559 23.6711 57.2001 33.0842 56.1561Z" fill="#615A39"/>
<path d="M32.2338 58.5071C40.5543 56.9366 48.5607 62.446 50.067 70.7782C51.5734 79.1105 46.0027 87.0744 37.6591 88.5166C29.4057 89.9434 21.5465 84.446 20.0564 76.2037C18.5664 67.9616 24.0033 60.0603 32.2338 58.5071Z" fill="#D6DFA5"/>
<path d="M34.4112 75.7145C35.5853 76.5713 37.4473 85.104 37.7517 86.8827C35.8782 86.9166 34.3082 86.9218 32.4241 86.8336C31.216 86.6352 29.6232 85.9478 28.4414 85.4869C29.9757 82.8568 32.7274 77.732 34.4112 75.7145Z" fill="#A9B273"/>
<path d="M22.8464 67.0286C26.1935 67.7113 30.2546 71.5261 32.8628 72.7292C31.6646 73.301 31.1079 73.5889 29.8122 73.9122C27.9478 74.3857 24.1659 75.7371 22.4591 75.7949C20.4217 74.8213 22.1329 68.7098 22.8464 67.0286Z" fill="#A9B273"/>
<path d="M32.9052 60.0199C35.2297 59.9435 38.1704 59.9971 40.457 60.5632C41.0603 60.7125 41.2241 61.0932 41.442 61.5606C41.5074 63.411 39.1097 65.7329 38.0574 67.2823C37.7647 67.8192 37.4547 68.3467 37.1281 68.8638C36.5185 69.8112 36.2457 70.3973 35.1654 70.6318L34.8651 70.4108C34.4859 67.6852 32.9862 62.177 32.9052 60.0199Z" fill="#A9B273"/>
<path d="M30.7629 60.3428C30.8737 60.3608 31.1212 60.4841 31.238 60.5363C32.7673 63.8385 33.2366 67.9749 33.3673 71.571C32.1913 70.9041 30.5806 69.7776 29.3862 69.0177C27.3217 67.7807 25.7712 67.1508 23.8362 65.5745C25.5095 62.9092 28.1017 61.7147 30.7629 60.3428Z" fill="#A9B273"/>
<path d="M48.0207 71.054L48.1287 71.1939C48.4234 72.8315 48.1601 78.3929 46.7602 79.4512C45.2962 79.6381 42.5103 77.1562 40.9656 76.2642C39.0447 75.1139 38.3274 74.6829 36.853 73.0053C40.5993 72.4997 44.3248 71.8487 48.0207 71.054Z" fill="#A9B273"/>
<path d="M36.3599 74.9493C37.6103 75.4004 41.4135 78.1603 42.9563 78.961C46.3672 80.7312 46.0091 81.4412 43.4539 83.7393C41.4945 85.186 40.9709 85.6657 38.6458 86.3864C38.0918 84.6392 36.6422 76.8868 36.3599 74.9493Z" fill="#A9B273"/>
<path d="M32.73 74.7274L32.9454 74.8037L33.0575 75.1135C30.5044 79.4703 30.7562 80.714 26.9719 84.4241C26.3248 83.7797 25.6857 83.1271 25.0546 82.4668C24.4173 81.6858 22.8126 78.5195 22.265 77.5007C24.5714 76.5792 30.3801 74.907 32.73 74.7274Z" fill="#A9B273"/>
<path d="M42.908 62.3916C43.9732 62.5753 47.4653 68.2943 48.0059 69.5277C46.0174 69.9666 43.642 70.6713 41.6425 71.213C40.1985 71.733 38.4493 71.9057 36.9284 72.0835C38.4898 68.1286 40.6192 66.0086 42.908 62.3916Z" fill="#A9B273"/>
<path d="M34.8304 72.0627C35.3291 71.9907 35.7514 72.1075 36.1194 72.4138C36.4825 73.5401 35.9521 74.2571 34.9443 74.6166C34.2194 74.0576 33.3182 73.5645 33.2561 72.6192C33.8379 72.0663 33.8803 72.2193 34.8304 72.0627Z" fill="#E5E9C6"/>
<path d="M27.1724 112.612C27.3665 112.602 27.5611 112.596 27.7556 112.595C32.0586 112.592 32.2146 116.135 32.1421 119.468C31.2235 120.726 30.7012 121.705 29.2027 122.168C27.9892 122.346 27.5997 122.475 26.4665 122.869C25.7907 119.652 25.4498 116.378 24.5835 113.188C25.4587 112.941 26.2837 112.787 27.1724 112.612Z" fill="#F4D6B4"/>
<path d="M26.7631 113.719C30.2035 113.68 31.5774 117.542 30.2851 119.994C30.2107 120.024 30.1357 120.052 30.0603 120.079C29.4438 120.296 28.6876 120.589 28.0994 120.307C27.2531 119.602 27.1249 115.496 26.7631 113.719Z" fill="#9F6C46"/>
<path d="M50.8213 107.647C51.4298 108.041 52.6562 116.574 52.5855 117.627C52.0241 118.139 52.2935 118.015 51.5767 118.128C50.56 117.766 47.5077 113.161 46.5335 111.892C46.8877 114.313 47.5376 115.98 47.8431 118.786C47.5042 118.787 45.8247 118.824 45.7052 118.491C45.1895 117.053 44.049 109.82 45.0218 108.826C46.5853 108.712 48.4265 112.329 50.1779 113.823L50.2576 113.89C50.0962 112.305 49.4888 109.84 49.8924 108.313C49.9991 107.91 50.4042 107.834 50.8213 107.647Z" fill="#F4D6B4"/>
<path d="M44.6995 124.302C45.7079 124.099 47.6469 123.563 48.5216 124.07C48.7189 125.182 46.7522 125.778 47.0276 126.765C47.5415 128.609 47.6927 130.945 48.2434 132.721L48.6002 133.857C47.9478 133.94 47.5048 134.019 46.8452 133.964C45.9268 134.256 45.653 134.38 44.8151 134.858C44.313 134.959 44.2422 134.977 43.7557 134.827C42.4275 133.628 42.6696 129.371 41.9031 127.806C42.3521 127.089 43.0293 126.35 42.4792 125.548C41.6321 125.425 41.8109 125.502 40.9114 125.878C41.2701 125.274 41.3217 125.145 41.9478 124.802C43.353 124.9 43.6173 126.791 43.9301 127.963C44.6568 128.543 44.943 130.884 45.1504 131.927L45.2517 131.94C45.2833 129.506 44.5355 128.602 44.971 126.445C44.883 125.736 44.8016 125.006 44.6995 124.302Z" fill="#ECC09B"/>
<path d="M40.9114 125.878C41.2701 125.274 41.3217 125.145 41.9478 124.802C43.353 124.9 43.6173 126.791 43.9301 127.963C44.4246 130.536 44.7877 132.223 44.8151 134.858C44.313 134.959 44.2422 134.977 43.7557 134.827C42.4275 133.628 42.6696 129.371 41.9031 127.806C42.3521 127.089 43.0293 126.35 42.4792 125.548C41.6321 125.425 41.8109 125.502 40.9114 125.878Z" fill="#ECC09B"/>
<path d="M44.971 126.445C45.2539 128.455 45.5928 132.427 46.8452 133.964C45.9267 134.256 45.6529 134.38 44.8151 134.858C44.7877 132.223 44.4245 130.536 43.9301 127.963C44.6568 128.543 44.9429 130.884 45.1504 131.927L45.2517 131.94C45.2832 129.506 44.5355 128.602 44.971 126.445Z" fill="#9F6C46"/>
<path d="M40.9114 125.878C41.8109 125.502 41.632 125.425 42.4791 125.548C43.0293 126.35 42.3521 127.089 41.9031 127.806C41.756 129.562 41.8215 133.717 41.0564 134.933C40.4717 135.255 40.7403 135.216 40.0417 135.044C39.4034 134.515 39.2179 134.224 38.7272 133.549C38.3954 133.673 37.7134 133.951 37.4008 134.019C37.544 135.034 37.8215 135.621 36.9841 136.288L36.654 136.211C35.2036 135.05 34.8799 131.18 34.5414 129.339C34.3534 128.318 34.0682 126.737 35.2566 126.362C37.108 126.756 37.8047 128.908 38.7235 130.306C39.1607 130.971 39.7918 131.711 40.3064 132.333C40.5666 130.566 40.701 127.792 40.9114 125.878Z" fill="#F4D6B4"/>
<path d="M37.4007 134.019C37.2557 133.14 36.5488 131.228 36.9255 130.475C37.5879 130.954 38.3347 132.732 38.7272 133.549C38.3954 133.673 37.7134 133.951 37.4007 134.019Z" fill="#9F6C46"/>
<path d="M32.6014 111.429C34.6968 111.019 35.6155 110.91 37.7387 111.01C38.7748 111.649 39.2887 112.084 39.9436 113.101L40.3141 114.881C39.7414 115.375 38.8765 115.923 38.7657 116.601C38.5199 117.06 38.3144 117.497 37.9839 117.9C37.4419 117.354 37.3661 117.28 36.6426 117.008C35.2067 117.373 36.5128 119.257 35.2581 120.667L34.8737 120.537C33.6734 118.971 32.9612 113.535 32.6014 111.429Z" fill="#F4D6B4"/>
<path d="M34.7239 112.522C37.253 112.441 38.653 112.475 37.7332 115.535C36.8578 115.699 36.1248 115.818 35.3664 115.332C34.6442 114.512 34.7417 113.616 34.7239 112.522Z" fill="#9F6C46"/>
<path d="M41.0736 112.413C41.016 111.639 40.8364 110.682 41.2385 110.061L41.655 109.765C42.9082 110.212 42.8396 111.66 42.9915 112.838C43.5838 114.735 44.6084 117.454 44.2613 119.354C43.8528 119.871 43.8118 119.721 42.9569 119.863C42.3533 119.836 41.756 120.042 41.4607 119.997C39.2131 120.161 38.8361 119.95 37.9839 117.899C38.3144 117.497 38.5199 117.06 38.7657 116.601C38.8765 115.923 39.7414 115.375 40.3141 114.881L39.9436 113.101C40.4015 112.745 40.5225 112.635 41.0736 112.413Z" fill="#F4D6B4"/>
<path d="M39.9436 113.102C40.4015 112.745 40.5225 112.635 41.0736 112.413C41.3522 114.298 41.4775 116.192 41.7861 118.063C41.9685 118.666 42.0932 119.369 42.5772 119.74L42.9569 119.863C42.3533 119.836 41.756 120.042 41.4607 119.997C39.2131 120.161 38.8361 119.95 37.9839 117.9C38.3144 117.497 38.5199 117.06 38.7657 116.601C38.8765 115.923 39.7414 115.375 40.3141 114.881L39.9436 113.102Z" fill="#9F6C46"/>
<path d="M38.7657 116.601C40.5985 117.83 40.7045 117.964 41.4607 119.997C39.2131 120.161 38.8361 119.95 37.9839 117.899C38.3144 117.497 38.5199 117.06 38.7657 116.601Z" fill="#F4D6B4"/>
<path d="M42.9916 112.838C43.5838 114.735 44.6084 117.454 44.2614 119.354C43.8528 119.871 43.8118 119.721 42.957 119.863L42.5772 119.74C42.0932 119.369 41.9685 118.666 41.7862 118.062C42.0263 118.142 42.2141 118.175 42.4594 118.227C43.3195 117.295 43.013 114.204 42.9916 112.838Z" fill="#ECC09B"/>
<path d="M50.5409 131.356C52.7809 125.942 49.7023 128.08 49.5669 124.421C49.8993 123.673 49.7373 123.915 50.4535 123.434C51.8064 123.388 51.6699 125.384 51.7741 126.466C51.8495 126.519 53.8645 127.551 53.9581 127.591C54.5175 127.869 56.8316 131.118 56.6487 131.954C56.1698 132.314 56.4022 132.238 55.7608 132.204C54.6101 131.479 54.4028 130.148 53.4788 129.769C52.0883 130.172 52.6999 132.895 50.4365 133.773C49.9517 133.8 49.0491 133.877 48.6001 133.857L48.2434 132.721C49.3589 132.391 49.7243 132.16 50.5409 131.356Z" fill="#F4D6B4"/>
<path d="M48.2434 132.721C49.3589 132.391 49.7243 132.16 50.5409 131.356C50.4407 132.178 50.3032 132.953 50.4365 133.773C49.9517 133.8 49.0491 133.877 48.6001 133.857L48.2434 132.721Z" fill="#9F6C46"/>
<path d="M51.7741 126.466C53.4136 125.652 52.9082 122.383 54.6362 122.749C55.6071 123.791 54.4489 126.38 53.9581 127.591C53.8646 127.551 51.8495 126.519 51.7741 126.466Z" fill="#F4D6B4"/>
<path d="M31.4322 31.4456C33.1774 31.4802 33.7741 32.4695 33.9271 34.0941C32.0316 34.0869 31.4627 33.1915 31.4322 31.4456Z" fill="#712F10"/>
<path d="M41.4466 38.2298C43.0386 38.3408 44.1047 38.6902 44.1366 40.3653C43.1795 40.0083 42.7752 40.0277 41.8148 39.5499C41.3426 38.9216 41.4783 39.1241 41.4466 38.2298Z" fill="#712F10"/>
<path d="M37.346 37.123C36.4989 36.7437 35.4504 36.2181 35.2489 35.2927L35.5171 35.0168C36.5701 34.9369 36.9537 35.3584 37.7395 36.0151L37.346 37.123Z" fill="#712F10"/>
<path d="M27.382 27.8965C28.8106 27.7971 29.6544 27.9163 29.9814 29.4755C28.3811 29.6623 27.7195 29.5656 27.382 27.8965Z" fill="#712F10"/>
<path d="M37.7395 36.0151C38.2444 36.4838 38.7989 36.861 38.8753 37.5155L38.7436 37.9059C37.9563 38.0247 37.7896 37.723 37.346 37.123L37.7395 36.0151Z" fill="#67270B"/>
<path d="M124.895 34.9487C125.073 34.3474 125.196 33.6339 125.645 33.2572C126.355 33.4179 126.309 33.5757 126.914 34.1931C127.277 34.5341 128.986 36.2792 129.223 36.4064L129.467 36.3378C129.98 35.7651 130.596 35.4402 131.251 35.0427C131.968 34.8775 132.321 34.7312 132.998 35.0112C133.272 35.3014 133.501 35.4928 133.646 35.8645L134.654 37.6192L134.844 38.0454C136.702 37.7574 137.688 36.2338 139.574 36.9888C140.283 37.8564 140.707 38.9443 141.174 39.9708C142.498 39.1253 143.643 38.1357 145.169 38.173C145.839 38.4149 145.941 38.6024 146.39 39.15L145.289 40.291C145.496 40.6679 145.834 41.3429 146.107 41.6372C146.665 41.4957 147.074 41.5802 147.638 41.648C148.638 41.498 149.91 40.7679 150.851 40.2997C152.303 39.4451 153.821 42.2095 154.52 43.2954C157.433 41.0552 158.242 40.7414 160.363 44.1093C160.564 44.4278 160.761 44.7482 160.955 45.0701L162.037 44.3496C162.774 43.7603 163.346 43.2316 164.29 43.1754C165.948 43.5 165.87 45.6005 167.148 46.2306C167.853 45.744 169.863 44.6859 170.698 44.6536C172.378 45.3083 171.35 47.6081 170.959 48.9214L169.885 48.4348C169.578 49.3062 169.384 49.7945 169.265 50.727L169.652 50.9084C169.848 51.6331 169.863 52.032 169.918 52.7828C168.942 56.1935 168.105 60.9078 166.936 64.0891C164.379 71.0483 162.101 77.3443 160.249 84.5696C158.726 90.5109 156.685 96.5132 155.426 102.561C153.616 108.686 152.109 115.317 150.359 121.501C149.541 124.389 148.862 128.07 147.948 130.843C145.902 140.219 142.831 149.852 140.726 159.271C140.368 160.874 139.764 163.171 139.224 164.726C137.1 174.199 134.39 183.263 132.137 192.722C130.134 202.315 127.403 211.25 125.482 220.934C123.675 230.043 122.89 241.952 120.12 250.512L119.85 251.39C119.666 251.999 119.628 252.088 119.103 252.275C117.948 251.999 116.929 250.353 116.205 249.388C114.268 250.779 113.3 251.637 111.426 249.543C111.086 249.112 110.745 248.684 110.4 248.257C109.735 248.019 109.975 248.064 109.206 248.319L108.258 247.157C107.433 247.733 107.361 247.876 106.506 247.325L106.018 247.948C105.718 247.76 105.421 247.569 105.127 247.372C103.378 245.813 103.104 248.315 100.933 247.772C99.8802 247.116 99.6379 246.093 99.2184 244.943C96.1919 247.656 95.3247 246.602 93.6007 243.296C92.1004 244.748 91.6174 244.862 89.678 245.469C89.17 244.241 88.7868 243.305 88.3987 242.035C87.3003 242.315 86.4425 243.607 84.7207 243.501C83.6274 243.048 83.2434 242.135 82.6693 241.116L82.2468 240.805C81.7758 240.848 79.9485 242.244 79.2704 242.665C78.974 242.306 78.5914 241.747 78.3073 241.354C77.8148 240.772 77.1934 240.194 76.6419 239.657C75.0639 240.231 74.3286 240.498 72.69 240.794C72.9122 238.057 75.6239 228.505 76.7034 225.913C77.4285 223.536 79.7223 216.801 80.6827 214.68C81.3804 214.046 81.4738 213.816 81.2396 212.896C81.3121 212.103 81.9121 210.726 82.1836 209.81C83.6123 206.186 84.5984 201.748 85.8532 197.99L86.2509 196.52C87.6804 191.334 88.9866 186.624 90.2643 181.39L90.3569 180.51C90.8865 177.675 92.6306 171.913 93.4301 168.935C93.5322 168.286 93.6299 168.18 93.9924 167.666L93.9785 167.518C94.3053 165.945 94.6858 164.442 95.0793 162.887C95.1942 161.86 96.4317 157.08 96.7416 155.834C98.0938 150.304 99.5382 144.798 101.075 139.317C101.957 136.073 102.539 132.918 103.312 129.677C104.072 126.492 104.938 123.242 105.735 120.055C106.221 118.816 106.741 117.033 106.939 115.716C107.911 111.566 108.84 107.16 109.92 103.061C109.926 102.158 111.275 97.2394 111.559 96.1624C112.779 91.5798 113.735 86.8988 114.835 82.2875C116.684 74.5361 118.493 66.8265 119.653 58.9359C119.899 57.2564 120.076 54.804 120.508 53.274C120.567 51.3901 121.671 47.3738 122.168 45.4404L124.895 34.9487Z" fill="#B7643A"/>
<path d="M77.8054 225.82L78.0335 225.632C79.004 225.789 80.7251 226.292 81.56 226.118C83.4344 226.411 85.7174 227.084 87.5824 227.57L99.4531 230.737L113.639 234.306C115.315 234.739 119.683 235.857 121.099 236.501L120.886 236.752C120.957 237.064 121.02 237.104 120.94 237.369C121.215 237.69 121.303 237.785 121.204 238.346C120.716 241.107 120.197 247.584 119.309 249.926L120.12 250.512L119.85 251.39C119.666 251.999 119.628 252.088 119.103 252.275C117.948 251.999 116.929 250.353 116.205 249.388C114.268 250.779 113.3 251.637 111.426 249.543C111.086 249.112 110.745 248.685 110.4 248.257C109.735 248.019 109.975 248.064 109.206 248.319L108.258 247.157C107.433 247.733 107.361 247.876 106.506 247.325L106.018 247.948C105.718 247.76 105.421 247.569 105.127 247.372C103.378 245.813 103.104 248.315 100.933 247.772C99.8802 247.116 99.6379 246.093 99.2184 244.943C96.1919 247.656 95.3247 246.602 93.6007 243.296C92.1004 244.748 91.6174 244.862 89.678 245.469C89.17 244.241 88.7868 243.305 88.3987 242.035C87.3003 242.315 86.4425 243.607 84.7207 243.501C83.6274 243.048 83.2434 242.135 82.6693 241.116L82.2468 240.805C81.7758 240.848 79.9485 242.244 79.2704 242.665C78.974 242.306 78.5914 241.747 78.3073 241.354C77.8148 240.772 77.1934 240.194 76.6419 239.657C75.0639 240.231 74.3286 240.498 72.69 240.794C72.9122 238.057 75.6239 228.506 76.7034 225.913L76.9509 226.127L77.8054 225.82Z" fill="#B7643A"/>
<path d="M77.8053 225.82L78.0335 225.632C79.004 225.789 80.7251 226.292 81.56 226.118C83.4344 226.411 85.7174 227.084 87.5824 227.57L99.4531 230.737L113.639 234.306C115.315 234.739 119.683 235.857 121.099 236.501L120.886 236.752C120.957 237.064 121.02 237.104 120.94 237.369C118.28 237.193 110.324 234.801 107.415 234.088C100.398 232.363 93.2238 230.586 86.2745 228.598C83.7059 227.864 80.6143 227.102 78.1493 226.166L77.8053 225.82Z" fill="#67270B"/>
<path d="M85.6888 242.108C86.2965 241.091 87.0703 239.978 88.3297 240.26C89.6364 241.271 89.8346 243.021 91.4049 243.174C92.3096 242.98 92.829 242.541 93.4719 241.886C94.1904 242.28 95.0538 242.723 95.7427 243.141C96.0188 243.845 96.257 244.512 96.6478 245.161L98.1139 243.905L99.2183 244.943C96.1919 247.656 95.3247 246.602 93.6007 243.296C92.1004 244.748 91.6174 244.862 89.678 245.469C89.17 244.241 88.7868 243.305 88.3987 242.035C87.3002 242.315 86.4425 243.607 84.7206 243.501C83.6274 243.048 83.2434 242.135 82.6693 241.116C83.4201 241.198 83.5409 241.107 84.156 240.734C84.466 241.244 84.6559 241.555 85.0283 242.029C85.3328 242.095 85.3775 242.132 85.6888 242.108Z" fill="#783B17"/>
<path d="M84.156 240.734C84.466 241.244 84.6559 241.555 85.0283 242.029C85.3328 242.095 85.3775 242.132 85.6888 242.108L85.6267 242.804L85.8555 242.969C86.7954 242.657 87.1655 241.795 88.0594 241.526L88.3409 241.716L88.3987 242.035C87.3002 242.315 86.4425 243.607 84.7206 243.501C83.6274 243.048 83.2434 242.135 82.6693 241.116C83.4201 241.198 83.5409 241.107 84.156 240.734Z" fill="#712F10"/>
<path d="M72.69 240.793C72.9122 238.057 75.6239 228.505 76.7034 225.913L76.9509 226.127L77.8054 225.82L78.1493 226.166C78.0412 226.261 77.91 226.373 77.7559 226.506C77.1151 229.685 75.2967 234.826 74.7447 237.793C77.7837 237.829 78.5985 237.504 78.9727 240.784L78.3073 241.354C77.8148 240.772 77.1934 240.194 76.6419 239.657C75.0639 240.231 74.3286 240.498 72.69 240.793Z" fill="#67270B"/>
<path d="M98.1139 243.905C100.771 242.704 100.833 243.599 101.832 245.935C104.44 244.477 105.549 243.97 106.506 247.325L106.018 247.948C105.718 247.76 105.421 247.569 105.127 247.372C103.378 245.813 103.104 248.315 100.933 247.772C99.8802 247.116 99.6379 246.093 99.2183 244.943L98.1139 243.905Z" fill="#67270B"/>
<path d="M116.077 247.076C117.631 248.337 117.963 249.036 119.134 250.059L119.309 249.926L120.12 250.512L119.85 251.39C119.666 251.999 119.628 252.088 119.103 252.275C117.948 251.999 116.929 250.353 116.205 249.388C114.268 250.779 113.3 251.637 111.426 249.543C111.925 249.75 112.876 250.266 113.263 250.108L113.178 249.854C114.24 249.187 115.128 247.942 116.077 247.076Z" fill="#712F10"/>
<path d="M119.309 249.926L120.12 250.512L119.85 251.39L119.577 251.335C119.06 250.85 119.218 250.955 119.134 250.059L119.309 249.926Z" fill="#712F10"/>
<path d="M108.257 247.157C112.061 245.185 111.735 247.356 113.178 249.854L113.263 250.108C112.876 250.266 111.925 249.75 111.425 249.543C111.086 249.112 110.744 248.685 110.4 248.257C109.735 248.019 109.975 248.064 109.206 248.319L108.257 247.157Z" fill="#67270B"/>
<path d="M78.9726 240.784C81.198 241.205 81.943 237.328 84.156 240.734C83.5409 241.107 83.4201 241.198 82.6693 241.116L82.2468 240.805C81.7758 240.848 79.9485 242.244 79.2704 242.665C78.974 242.306 78.5913 241.747 78.3073 241.354L78.9726 240.784Z" fill="#712F10"/>
<path d="M93.9924 167.666C94.2136 168.208 94.3457 168.628 94.7508 169.06C92.1002 180.04 89.2102 190.963 86.083 201.816C84.1268 208.729 81.2926 218.814 78.1404 225.271C79.0486 225.485 80.7392 225.837 81.56 226.118C80.7251 226.292 79.004 225.789 78.0335 225.632L77.8053 225.82L76.9509 226.127L76.7034 225.913C77.4285 223.536 79.7223 216.801 80.6827 214.68C81.3803 214.046 81.4737 213.816 81.2396 212.896C81.3121 212.103 81.9121 210.726 82.1836 209.81C83.6123 206.186 84.5984 201.748 85.8531 197.99L86.2509 196.52C87.6804 191.334 88.9865 186.624 90.2642 181.39L90.3569 180.51C90.8865 177.675 92.6306 171.913 93.4301 168.935C93.5322 168.286 93.6299 168.18 93.9924 167.666Z" fill="#712F10"/>
<path d="M109.92 103.061C110.501 103.825 110.093 105.577 110.26 106.469C108.699 113.693 106.881 120.832 105.282 128.048C104.691 130.719 103.705 133.39 103.072 136.084C101.546 142.708 99.8852 149.3 98.091 155.856C97.6254 157.59 96.5449 162.118 95.9774 163.527L95.6756 163.627C95.4437 164.351 95.3587 164.653 95.2459 165.401C94.9493 163.905 95.518 163.73 95.0793 162.887C95.1941 161.86 96.4316 157.08 96.7416 155.834C98.0937 150.304 99.5381 144.798 101.075 139.317C101.957 136.073 102.539 132.918 103.312 129.677C104.072 126.492 104.938 123.242 105.735 120.055C106.221 118.816 106.741 117.033 106.939 115.716C107.911 111.566 108.84 107.16 109.92 103.061Z" fill="#712F10"/>
<path d="M120.508 53.2739C120.876 52.7335 120.928 52.4206 121.052 51.792L121.335 51.5753C121.756 52.3377 121.373 55.275 121.507 56.5332C121.353 58.628 120.81 61.1378 120.369 63.2271C117.865 75.1011 115.415 87.0364 112.345 98.7783C111.681 101.32 111.094 103.995 110.26 106.469C110.093 105.577 110.501 103.825 109.92 103.061C109.926 102.158 111.275 97.2394 111.559 96.1624C112.779 91.5798 113.735 86.8987 114.835 82.2875C116.684 74.5361 118.493 66.8265 119.653 58.9359C119.899 57.2563 120.076 54.804 120.508 53.2739Z" fill="#712F10"/>
<path d="M131.02 193.132C131.073 193.328 131.115 194.176 131.179 194.555C131.429 193.757 131.511 193.301 132.137 192.722C130.134 202.315 127.403 211.25 125.482 220.934C123.675 230.043 122.89 241.952 120.12 250.512L119.309 249.926C120.197 247.584 120.716 241.107 121.204 238.346C121.303 237.785 121.214 237.69 120.94 237.369C121.02 237.104 120.957 237.064 120.886 236.752L121.099 236.501L121.458 236.379C121.767 235.934 122.228 232.05 122.372 231.185C124.515 218.314 127.762 205.757 131.02 193.132Z" fill="#521E06"/>
<path d="M169.264 50.7271L169.652 50.9084C169.847 51.6331 169.863 52.032 169.918 52.7828C168.942 56.1935 168.105 60.9078 166.936 64.0891C164.379 71.0483 162.101 77.3443 160.249 84.5696C158.726 90.5109 156.685 96.5132 155.426 102.561C155.31 101.979 155.265 101.858 155.013 101.32L154.521 101.159C154.691 98.8016 159.663 81.1032 160.541 79.3286C160.861 78.6033 160.829 78.8991 160.75 78.1767C160.615 75.468 164.803 65.7737 166.085 63.0237C166.332 62.5251 166.281 62.295 166.27 61.7404C166.429 60.3598 168.735 52.7417 169.264 50.7271Z" fill="#67270B"/>
<path d="M146.768 130.681L146.979 130.717C147.317 129.723 148.023 127.513 148.134 126.533L148.355 126.487C148.915 127.628 147.379 129.257 147.948 130.843C145.902 140.219 142.831 149.852 140.726 159.271C140.368 160.874 139.764 163.171 139.224 164.726L138.998 164.495C138.557 165.504 138.689 166.352 138.197 166.945C137.981 166.923 137.837 166.927 137.636 166.853C137.747 165.848 138.37 163.671 138.613 162.579C139.397 159.054 140.439 155.54 141.307 152.045L144.475 139.257C144.979 137.192 146.084 132.508 146.768 130.681Z" fill="#67270B"/>
<path d="M137.636 166.852C137.837 166.927 137.981 166.923 138.197 166.945C138.689 166.352 138.557 165.504 138.998 164.495L139.224 164.726C137.1 174.199 134.39 183.263 132.137 192.722C131.511 193.301 131.429 193.757 131.179 194.555C131.115 194.176 131.073 193.328 131.02 193.132C131.157 191.007 132.547 187.235 132.983 184.976C134.177 178.795 135.999 172.899 137.636 166.852Z" fill="#421200"/>
<path d="M154.521 101.159L155.013 101.32C155.265 101.858 155.31 101.979 155.426 102.561C153.616 108.686 152.108 115.317 150.359 121.501C149.541 124.389 148.862 128.07 147.948 130.843C147.379 129.257 148.915 127.628 148.355 126.487L148.134 126.533C148.023 127.513 147.317 129.723 146.979 130.717L146.768 130.681C146.907 129.878 147.137 128.935 147.38 128.161C149.711 120.741 151.147 113.091 153.394 105.651C153.838 104.181 154.197 102.659 154.521 101.159Z" fill="#411C14"/>
<path d="M124.895 34.9487L125.575 34.7875L126.06 35.6125L126.137 35.7249C125.791 37.02 122.535 50.0321 122.598 50.2119C123.036 50.4892 123.192 50.583 123.672 50.7729C123.257 50.8154 122.876 50.8522 122.458 50.8754C122.467 51.2828 122.476 51.3162 122.598 51.7074L122.063 51.7439C121.747 52.5245 121.837 55.1846 121.507 56.5332C121.373 55.2751 121.756 52.3377 121.335 51.5753L121.052 51.7921C120.928 52.4207 120.876 52.7335 120.508 53.274C120.567 51.3901 121.671 47.3738 122.168 45.4404L124.895 34.9487Z" fill="#67270B"/>
<path d="M123.672 50.7728C124.124 50.8825 126.097 51.4442 126.424 51.5975C128.329 52.4904 140.947 55.2744 141.599 56.1223L141.528 56.4323C140.23 56.9692 123.943 52.6788 122.598 51.7073C122.476 51.3162 122.467 51.2827 122.458 50.8753C122.876 50.8521 123.257 50.8154 123.672 50.7728Z" fill="#67270B"/>
<path d="M166.085 63.0238C163.607 62.1022 150.425 60.2343 149.534 58.2785C151.239 57.1723 163.174 61.6379 165.972 62.0916L166.27 61.7404C166.281 62.295 166.332 62.5251 166.085 63.0238Z" fill="#712F10"/>
<path d="M139.574 36.9888C140.283 37.8564 140.707 38.9443 141.174 39.9708C142.498 39.1253 143.643 38.1356 145.169 38.173C145.839 38.4149 145.941 38.6024 146.39 39.15L145.289 40.291L145.073 39.9391C143.321 39.9455 140.677 43.4213 138.916 38.7345L139.574 36.9888Z" fill="#67270B"/>
<path d="M154.52 43.2954C157.433 41.0552 158.242 40.7414 160.363 44.1093C160.564 44.4278 160.761 44.7481 160.955 45.0701C160.651 45.3947 160.372 45.6581 160.145 46.0409C158.804 44.8089 158.457 43.9579 157.649 42.3569C156.166 43.2964 155.419 44.9442 153.646 44.0113L154.52 43.2954Z" fill="#67270B"/>
<path d="M162.037 44.3496C162.774 43.7603 163.346 43.2316 164.29 43.1754C165.948 43.5 165.87 45.6005 167.148 46.2306L167.606 46.3989C167.718 46.8575 167.769 47.2202 168.022 47.6172C165.392 48.4465 165.464 45.6701 164.022 44.8338C163.245 44.8568 163.435 44.8848 162.695 45.381C162.694 45.374 162.153 44.5907 162.037 44.3496Z" fill="#67270B"/>
<path d="M124.895 34.9487C125.073 34.3474 125.196 33.6339 125.645 33.2572C126.355 33.4179 126.309 33.5757 126.914 34.1931C127.277 34.5341 128.986 36.2792 129.223 36.4064C128.828 36.6961 128.382 37.0405 127.978 37.3069C127.9 37.2021 127.82 37.0981 127.74 36.9948C127.203 36.3057 126.898 35.821 126.137 35.7249L126.06 35.6125L125.575 34.7874L124.895 34.9487Z" fill="#80522E"/>
<path d="M124.895 34.9487C125.073 34.3474 125.196 33.6339 125.645 33.2572C126.355 33.4179 126.309 33.5757 126.914 34.1931C126.392 34.7215 126.169 34.8795 126.06 35.6125L125.575 34.7874L124.895 34.9487Z" fill="#712F10"/>
<path d="M147.638 41.648C148.638 41.498 149.91 40.7679 150.851 40.2997C151.046 40.821 151.095 40.9104 151.011 41.4551C149.309 42.6028 147.264 44.4574 146.107 41.6372C146.665 41.4957 147.074 41.5802 147.638 41.648Z" fill="#67270B"/>
<path d="M150.851 40.2998C152.303 39.4451 153.821 42.2096 154.52 43.2955L153.646 44.0113C153.419 43.6847 151.427 41.8476 151.011 41.4551C151.095 40.9104 151.046 40.8211 150.851 40.2998Z" fill="#712F10"/>
<path d="M134.844 38.0454C136.702 37.7574 137.688 36.2338 139.574 36.9888L138.916 38.7345C138.662 38.1908 138.836 38.3605 138.241 38.1179C137.406 38.1732 136.374 38.7956 135.716 39.2941C135.56 38.9464 135.111 38.5806 134.844 38.0454Z" fill="#712F10"/>
<path d="M95.0793 162.887C95.518 163.73 94.9493 163.905 95.246 165.401C95.3587 164.653 95.4438 164.351 95.6756 163.627L95.9774 163.527C95.8212 164.661 95.1077 167.939 94.7508 169.06C94.3457 168.628 94.2136 168.208 93.9924 167.666L93.9785 167.518C94.3053 165.945 94.6858 164.442 95.0793 162.887Z" fill="#67270B"/>
<path d="M160.541 79.3285C159.483 78.9352 156.292 77.1519 156.15 75.9788C157.069 75.2177 158.998 78.3372 160.75 78.1767C160.829 78.8991 160.861 78.6032 160.541 79.3285Z" fill="#712F10"/>
<path d="M131.251 35.0427C131.968 34.8776 132.321 34.7312 132.998 35.0112C133.272 35.3014 133.501 35.4928 133.646 35.8645C133.309 36.2514 133.029 36.6091 132.623 36.9227C132.238 36.5602 131.945 36.5068 131.446 36.3351C131.341 35.9849 131.295 35.4222 131.251 35.0427Z" fill="#80522E"/>
<path d="M133.646 35.8644L134.654 37.6192C134.274 37.9881 134.062 38.1761 133.757 38.6248C133.363 38.1055 132.979 37.4773 132.623 36.9227C133.029 36.6091 133.309 36.2514 133.646 35.8644Z" fill="#712F10"/>
<path d="M160.955 45.0701L162.037 44.3497C162.153 44.5908 162.694 45.3741 162.695 45.3811C161.93 46.1978 161.212 46.3943 160.145 46.041C160.372 45.6581 160.651 45.3948 160.955 45.0701Z" fill="#712F10"/>
<path d="M129.467 36.3378C129.98 35.7651 130.596 35.4402 131.251 35.0427C131.295 35.4222 131.341 35.9849 131.446 36.3351C131.079 36.7796 130.836 37.0658 130.42 37.474C130.173 36.9861 129.852 36.7166 129.467 36.3378Z" fill="#712F10"/>
<path d="M129.223 36.4064L129.467 36.3378C129.852 36.7166 130.173 36.9861 130.42 37.4739C129.227 38.0397 129.074 38.0535 127.978 37.3069C128.382 37.0404 128.828 36.6961 129.223 36.4064Z" fill="#67270B"/>
<path d="M134.654 37.6192L134.844 38.0454C135.111 38.5806 135.56 38.9464 135.716 39.2941L134.901 39.5572C134.174 39.3333 134.33 39.3072 133.757 38.6249C134.062 38.1761 134.274 37.9881 134.654 37.6192Z" fill="#67270B"/>
<path d="M125.447 82.2734C126.525 82.6325 128.559 83.7599 129.249 83.9148C129.578 83.6521 130.462 81.7405 130.922 81.0036C132.65 82.5288 133.622 83.4539 135.003 85.289C136.621 83.5447 137.815 82.3386 139.961 81.354C142.091 84.3137 140.403 85.0771 140.026 88.9895C140.742 88.6976 141.449 88.2124 142.181 87.9481C145.603 86.7118 147.317 88.9787 148.502 91.7532C146.971 93.6696 146.088 94.1215 143.888 95.008L143.945 95.596C145.924 96.5364 146.447 97.6959 147.13 99.7301C146.795 101.302 146.044 103.369 145.036 104.622C144.788 105.32 144.465 105.977 144.019 106.572C141.984 109.288 132.329 117.278 129.365 117.687C128.221 117.844 127.167 117.534 126.252 116.838C121.622 113.316 119.825 102.281 119.068 96.7624C120.541 94.7961 120.352 91.4044 123.086 89.6632C124.051 89.0491 125.893 89.0243 126.629 88.5641C126.478 86.5575 125.637 84.6763 125.447 82.2734Z" fill="#411C14"/>
<path d="M134.062 88.6402C135.092 87.1967 138.06 82.0162 139.904 82.5439C140.268 83.5701 139.156 87.8557 138.979 89.4702C141.588 89.4525 144.194 88.1887 145.695 88.9339C145.365 89.6526 145.295 89.8956 144.662 90.352C144.851 90.7834 144.911 90.8495 144.896 91.3054C144.692 91.6359 144.221 92.448 143.976 92.6744L144.503 93.4016C144.15 93.7033 143.802 94.0304 143.403 94.2609C143.583 94.5819 143.657 94.724 143.888 95.0081L143.945 95.5961L143.729 95.5379C143.188 94.8857 141.63 94.7383 140.931 95.2252C140.042 94.8795 139.766 94.8252 138.818 94.6749C138.214 94.579 137.692 94.627 137.084 94.6554C136.788 97.4931 136.043 97.3027 135.616 98.6751C135.295 98.888 134.275 99.4998 134.155 99.7775C130.946 100.159 129.191 98.2308 130.266 95.0918C130.312 94.4201 130.493 93.6886 130.152 93.1802L129.843 93.2011L129.834 91.7795C129.981 91.8824 129.982 91.8488 130.191 91.8743L130.464 91.1931C129.798 89.7044 129.361 89.9086 128.238 89.3335C127.299 88.8529 126.517 84.5727 126.27 83.4026C128.398 84.2196 129.431 85.6982 131.277 86.969C132.135 87.5602 133.15 88.0978 134.062 88.6402Z" fill="#A9B273"/>
<path d="M134.012 92.8922C135.039 93.1207 136.613 93.6644 137.084 94.6554C136.788 97.4931 136.043 97.3027 135.616 98.6751C135.295 98.888 134.275 99.4998 134.155 99.7775C130.946 100.159 129.191 98.2308 130.266 95.0918C131.519 93.688 132.276 93.5097 134.012 92.8922Z" fill="#B87C79"/>
<path d="M130.464 91.1931C131.988 91.6135 135.648 91.4605 136.583 92.0151L136.647 92.1311C136.968 92.6988 137.212 93.0229 137.715 93.463C139.791 93.9177 141.278 94.237 143.403 94.2609C143.583 94.5819 143.657 94.724 143.888 95.0081L143.945 95.5961L143.729 95.5379C143.188 94.8857 141.63 94.7384 140.931 95.2252C140.042 94.8795 139.766 94.8252 138.818 94.6749C138.214 94.579 137.692 94.627 137.084 94.6554C136.613 93.6644 135.039 93.1207 134.012 92.8922C132.276 93.5098 131.519 93.688 130.266 95.0918C130.312 94.4201 130.493 93.6886 130.152 93.1803L129.843 93.2012L129.834 91.7796C129.981 91.8824 129.982 91.8488 130.191 91.8743L130.464 91.1931Z" fill="#4D3227"/>
<path d="M142.71 91.544C143.855 91.7577 143.86 91.8325 144.896 91.3054C144.692 91.6359 144.221 92.448 143.976 92.6744L141.184 92.5356L142.71 91.544Z" fill="#2A2E1B"/>
<path d="M144.662 90.3519C144.851 90.7833 144.911 90.8494 144.896 91.3054C143.86 91.8325 143.855 91.7576 142.71 91.544C143.167 91.2029 144.138 90.6634 144.662 90.3519Z" fill="#3D492D"/>
<path d="M137.084 94.6554C137.692 94.6269 138.214 94.579 138.818 94.6749C139.766 94.8251 140.042 94.8795 140.931 95.2252C141.63 94.7383 143.188 94.8856 143.729 95.5378L143.945 95.5961C145.924 96.5364 146.447 97.6959 147.129 99.7301C146.795 101.302 146.044 103.369 145.036 104.622L144.611 104.331L144.574 104.65L144.259 103.953L144.077 104.201C143.52 103.333 142.974 102.899 141.933 102.66C141.038 102.454 140.098 102.614 139.321 103.104C138.841 103.407 138.282 103.982 138.075 104.52L137.35 103.978L137.394 103.837C137.404 102.796 136.895 102.184 136.34 101.33C135.407 101.092 134.446 100.972 133.493 100.832C134.157 100.534 133.988 100.715 134.292 100.188L134.155 99.7774C134.275 99.4998 135.295 98.888 135.616 98.6751C136.043 97.3026 136.788 97.4931 137.084 94.6554Z" fill="#B87C79"/>
<path d="M137.084 94.6554C137.692 94.6269 138.214 94.579 138.818 94.6749C139.766 94.8251 140.042 94.8795 140.931 95.2252C141 95.5247 141.113 95.7482 141.014 95.9777C140.287 97.6571 141.263 100.17 139.944 101.414C139.459 101.567 139.141 101.602 138.839 101.997C138.476 102.625 138.245 102.72 137.634 103.106L137.394 103.837C137.404 102.796 136.895 102.184 136.34 101.33C135.407 101.092 134.446 100.972 133.493 100.832C134.157 100.534 133.988 100.715 134.292 100.188L134.155 99.7774C134.275 99.4998 135.295 98.888 135.616 98.6751C136.043 97.3026 136.788 97.4931 137.084 94.6554Z" fill="#B87C79"/>
<path d="M137.084 94.6554C137.692 94.6269 138.214 94.579 138.818 94.6749C137.955 96.0464 136.964 98.2913 136.185 99.8099C137.105 101.084 137.328 101.708 138.839 101.997C138.476 102.625 138.245 102.72 137.634 103.106L137.394 103.837C137.404 102.796 136.895 102.184 136.34 101.33C135.407 101.092 134.446 100.972 133.493 100.832C134.157 100.534 133.988 100.715 134.292 100.188L134.155 99.7774C134.275 99.4998 135.295 98.888 135.616 98.6751C136.043 97.3026 136.788 97.4931 137.084 94.6554Z" fill="#61302E"/>
<path d="M140.931 95.2252C141.63 94.7384 143.188 94.8857 143.729 95.5379L143.493 95.9598C142.92 95.9364 141.894 95.802 141.482 96.0967C141.193 97.1716 142.443 99.1371 142.373 99.3426C142.155 99.9875 141.088 99.944 141.751 101.087C141.873 101.296 142.046 101.469 142.21 101.644C142.295 101.734 142.377 101.823 142.465 101.91C143.146 101.932 144.066 102.703 144.61 103.147C144.729 103.348 144.864 103.49 145.04 103.642L145.052 104.014L144.516 103.91C144.541 104.145 144.509 104.136 144.611 104.332L144.574 104.65L144.259 103.953L144.077 104.201C143.52 103.333 142.974 102.899 141.933 102.66C141.038 102.454 140.098 102.614 139.321 103.104C138.841 103.407 138.282 103.982 138.075 104.52L137.35 103.978L137.394 103.837L137.634 103.106C138.245 102.72 138.476 102.625 138.839 101.997C139.141 101.602 139.459 101.567 139.944 101.414C141.263 100.17 140.287 97.6571 141.014 95.9778C141.113 95.7483 141 95.5248 140.931 95.2252Z" fill="#4D211F"/>
<path d="M143.945 95.596C145.924 96.5364 146.447 97.6959 147.13 99.7301C146.795 101.302 146.044 103.369 145.036 104.622L144.611 104.331C144.509 104.136 144.541 104.145 144.516 103.91L145.052 104.014L145.04 103.642C144.864 103.49 144.729 103.348 144.61 103.147L145.062 102.948C147.105 100.421 145.443 97.9193 143.493 95.9598L143.729 95.5378L143.945 95.596Z" fill="#411C14"/>
<path d="M123.104 91.3373C126.033 88.4599 126.852 89.4021 129.834 91.7795L129.843 93.2011C129.333 96.6607 128.451 97.3722 125.146 95.8143L123.104 91.3373Z" fill="#B87C79"/>
<path d="M126.582 91.4365L126.977 91.7183C127.296 92.5882 127.346 93.3761 127.068 94.2623L126.713 93.985C126.384 93.1081 126.239 92.3215 126.582 91.4365Z" fill="#411C14"/>
<path d="M138.075 104.52C138.282 103.982 138.841 103.407 139.321 103.104C140.098 102.614 141.038 102.454 141.933 102.66C142.974 102.899 143.52 103.333 144.077 104.201C143.433 106.676 142.664 107.129 140.621 108.637C139.793 107.93 137.722 106.376 137.632 105.338C137.62 105.208 137.976 104.683 138.075 104.52Z" fill="#B87C79"/>
<path d="M133.493 100.832C134.446 100.972 135.407 101.092 136.34 101.33C136.895 102.184 137.404 102.796 137.394 103.837L137.35 103.978C137.072 104.399 136.667 105.171 136.404 105.636C135.562 105.837 134.664 106.001 133.811 106.171C132.419 105.027 132.157 104.724 131.511 103.071C132.159 101.971 132.408 101.497 133.493 100.832Z" fill="#B87C79"/>
<path d="M145.695 88.9338C146.289 89.7523 146.894 89.8776 147.014 91.0347C147.095 91.8199 146.454 92.5725 145.786 92.8449L144.503 93.4016L143.976 92.6744C144.221 92.448 144.692 91.6358 144.896 91.3054C144.911 90.8495 144.851 90.7833 144.662 90.3519C145.295 89.8956 145.365 89.6526 145.695 88.9338Z" fill="#8B7E5F"/>
<path d="M144.896 91.3054C145.279 91.8745 145.525 92.2057 145.786 92.8449L144.503 93.4016L143.976 92.6744C144.221 92.448 144.692 91.6359 144.896 91.3054Z" fill="#A38667"/>
<path d="M123.635 111.116C122.791 108.221 123.361 108.202 126.082 107.529C126.473 108.166 126.882 108.96 127.249 109.625C127.445 109.932 127.748 110.3 127.735 110.642L127.839 110.721C128.773 111.344 128.375 111.968 128.632 112.959L129.037 113.78C129.602 114.712 130.729 115.923 130.131 116.844C129.572 117.118 129.052 117.02 128.47 116.861C125.801 116.132 125.436 114.888 124.175 112.708C123.62 112.195 123.553 111.819 123.635 111.116Z" fill="#B87C79"/>
<path d="M123.635 111.116C122.791 108.221 123.361 108.202 126.082 107.529C126.473 108.166 126.882 108.96 127.249 109.625C126.577 110.114 124.432 111.089 123.635 111.116Z" fill="#B87C79"/>
<path d="M127.249 109.625C127.445 109.932 127.748 110.3 127.735 110.642L127.839 110.721C126.632 111.384 125.399 112.085 124.175 112.708C123.62 112.195 123.553 111.819 123.635 111.116C124.432 111.089 126.577 110.114 127.249 109.625Z" fill="#61302E"/>
<path d="M126.586 97.34L129.016 97.9906C129.576 98.6801 130.772 99.8349 131.429 100.503C131.105 101.993 131.059 102.546 130.012 103.616C128.995 103.796 128.153 103.819 127.13 103.867C126.412 103.366 125.627 102.752 124.916 102.224C125.678 99.9058 126.615 100.109 126.586 97.34Z" fill="#B87C79"/>
<path d="M135.958 106.435C137.541 106.053 139.232 106.927 138.969 108.746C138.67 110.811 137.819 111.524 136.302 112.716L135.82 112.797C134.335 111.982 133.618 110.639 133.079 109.107C133.806 107.133 133.692 106.636 135.958 106.435Z" fill="#B87C79"/>
<path d="M129.378 104.535C130.383 104.451 131.974 104.953 132.402 105.934C133.348 108.101 131.926 108.922 130.291 109.788C127.969 110.35 127.446 108.874 126.548 107.034C126.839 106.264 126.908 105.621 127.415 104.937C127.924 104.524 128.698 104.571 129.378 104.535Z" fill="#B87C79"/>
<path d="M120.293 96.4049C124.164 96.6659 127.269 95.6092 124.204 100.908C124.023 101.378 123.956 101.414 123.528 101.69C122.813 101.747 121.649 101.193 120.776 100.948C120.296 99.6541 119.441 97.6759 120.293 96.4049Z" fill="#B87C79"/>
<path d="M122.588 102.28C124.893 102.397 128.758 105.053 124.545 106.859C123.762 107.144 123.165 107.706 122.52 108.235C121.857 106.611 121.058 104.837 121.354 103.134C121.828 102.469 121.741 102.65 122.588 102.28Z" fill="#B87C79"/>
<path d="M129.467 111.521C130.588 110.144 131.896 110.54 133.291 111.206L134.433 113.437C133.371 114.819 133.155 115.093 131.521 115.842C130.706 114.88 130.36 114.387 129.688 113.325C129.502 112.661 129.503 112.205 129.467 111.521Z" fill="#B87C79"/>
<path d="M130.544 82.4567C132.441 82.6344 134.483 85.609 134.331 87.3873C131.291 86.7229 130.16 85.528 130.544 82.4567Z" fill="#A9B273"/>
<path d="M122.042 92.1525C122.874 92.6096 123.683 94.4806 123.485 95.4669C123.032 95.8401 123.164 95.7274 122.426 95.6939C121.791 95.6164 121.037 95.6489 120.387 95.6572C120.783 93.9873 120.786 93.3363 122.042 92.1525Z" fill="#B87C79"/>
<path d="M128.632 112.959C128.638 112.261 128.581 111.698 128.903 111.081L129.177 111.05L129.467 111.521C129.503 112.205 129.502 112.661 129.688 113.325L129.037 113.78L128.632 112.959Z" fill="#4D211F"/>
<path d="M109.12 186.763C110.119 185.825 111.113 184.87 112.155 183.983C114.419 190.284 119.197 205.855 116.227 212.143C116.16 212.285 116.091 212.422 116.02 212.559C112.532 219.623 103.793 221.639 97.9568 215.794C95.3275 213.16 94.8513 209.935 94.9779 206.333C96.0387 200.004 98.9575 197.129 103.311 192.583C105.177 190.634 107.135 188.602 109.12 186.763Z" fill="#ABC1C6"/>
<path d="M94.9779 206.333C95.2492 206.555 95.3536 206.693 95.7011 206.712C95.7524 209.804 96.1114 212.437 98.5437 214.684C103.845 219.58 112.205 218.548 115.554 211.869L116.02 212.559C112.532 219.623 103.793 221.639 97.9568 215.794C95.3275 213.161 94.8513 209.935 94.9779 206.333Z" fill="#374044"/>
<path d="M109.12 186.763C110.119 185.825 111.113 184.87 112.155 183.983C114.419 190.284 119.197 205.855 116.227 212.143C116.16 212.285 116.091 212.422 116.02 212.559L115.554 211.869C118.59 203.013 112.464 192.887 112.11 184.795C111.197 185.584 110.518 186.382 109.719 187.277L109.12 186.763Z" fill="#171E1C"/>
<path d="M109.12 186.763L109.719 187.277C105.13 192.49 96.5577 199.937 95.7011 206.712C95.3537 206.693 95.2492 206.555 94.978 206.333C96.0387 200.004 98.9575 197.129 103.311 192.583C105.177 190.634 107.135 188.602 109.12 186.763Z" fill="#2E3840"/>
<path d="M100.263 202.974C100.839 203.8 99.5874 208.299 100.231 209.701C100.494 210.274 102.509 212.724 102.487 213.033L102.463 213.36L102.077 213.559C98.7208 210.403 97.6701 207.087 100.263 202.974Z" fill="#0C1D23"/>
<path d="M109.951 149.814C110.561 150.272 111.257 150.71 111.898 151.132C112.134 153.228 112.524 155.576 112.833 157.683C113.261 156.755 115.11 153.376 115.775 152.714C116.149 152.161 116.236 151.946 116.894 151.751C118.248 151.818 118.688 153.137 118.082 154.087C117.879 155.334 116.71 160.771 115.915 161.451C115.456 161.424 115.252 161.418 114.806 161.315C114.406 160.388 114.307 159.709 113.679 158.906C113.288 159.6 113.067 160.335 112.379 160.714C111.701 160.828 111.956 160.877 111.401 160.572C110.331 159.173 110.144 155.667 109.924 153.77C109.639 155.507 109.793 158.306 108.603 159.314C108.08 159.505 108.016 159.514 107.486 159.349C106.928 158.283 109.367 151.257 109.951 149.814Z" fill="#F4D6B4"/>
<path d="M113.679 158.906C114.545 157.157 115.385 155.643 116.709 154.181C115.545 157.267 115.187 158.004 114.806 161.315C114.406 160.388 114.307 159.709 113.679 158.906Z" fill="#A38667"/>
<path d="M106.246 133.784C112.215 134.291 113.59 139.212 109.384 143.378C107.835 144.223 106.021 143.885 104.349 143.65C104.771 140.303 105.315 137.029 106.246 133.784Z" fill="#F4D6B4"/>
<path d="M107.72 135.917C111.048 136.212 110.417 140.392 108.645 142.001C107.838 142.173 107.096 142.41 106.414 142C105.893 140.585 106.725 137.112 107.72 135.917Z" fill="#9F6C46"/>
<path d="M126.861 141.658C126.354 143.54 125.96 148.727 123.828 148.782C122.953 147.611 125.139 139.891 126.349 138.881C127.964 138.594 128.614 141.713 128.875 142.918C129.157 143.561 129.209 143.813 129.804 144.185L130.012 144.215C130.275 143.093 130.642 140.341 131.902 140.046C132.935 140.988 131.478 149.268 129.326 149.794C127.165 149.07 127.063 143.6 126.861 141.658Z" fill="#F4D6B4"/>
<path d="M128.875 142.918C129.157 143.561 129.209 143.813 129.804 144.185L130.012 144.215C129.943 144.676 129.316 146.751 129.161 147.294C129.099 145.776 129.031 144.428 128.875 142.918Z" fill="#A38667"/>
<path d="M114.134 135.704C115.54 136.008 118.605 136.767 119.633 137.709C120.668 140.104 118.475 140.927 118.286 142.302C118.143 143.338 118.322 145.247 118.087 146.66C117.641 146.947 117.848 146.886 117.294 146.866C116.611 146.313 116.818 146.55 116.509 145.69C116.443 144.601 116.513 143.109 115.725 142.396C114.784 142.827 114.108 144.969 113.13 145.307C112.144 144.091 113.731 137.393 114.134 135.704Z" fill="#F4D6B4"/>
<path d="M115.484 137.465C117.82 137.551 119.366 138.943 117.436 140.849C116.437 140.969 115.856 140.811 114.883 140.625C115.036 139.582 115.274 138.501 115.484 137.465Z" fill="#9F6C46"/>
<path d="M134.394 140.653C135.014 140.859 135.364 140.937 135.873 141.35C136.662 142.79 135.625 143.326 135.681 144.606L135.984 144.788C137.152 143.83 138.935 141.642 140.508 142.395C140.39 143.338 137.74 144.923 136.893 146.148C137.667 147.892 138.068 149.183 138.62 150.996C138.688 151.191 138.689 151.579 138.703 151.805L138.444 152.067C137.178 151.791 136.715 147.899 135.053 147.324C133.715 147.978 134.57 150.037 133.474 150.842C132.943 150.874 132.845 150.896 132.379 150.653C132.098 149.7 134.072 142.745 134.394 140.653Z" fill="#F4D6B4"/>
<path d="M124.982 159.197C124.343 157.654 123.474 155.758 123.926 154.11L124.257 153.73C125.706 153.946 125.777 156.709 125.834 157.829C126.89 156.778 128.37 154.845 129.692 154.765L130.094 154.943C130.091 156.477 127.558 158.123 126.52 159.889C126.894 161.052 127.905 163.687 127.464 164.722L127.163 164.76C126.262 163.989 125.4 162.122 125.344 160.933C123.75 161.879 123.757 162.929 122.734 163.337C122.002 163.112 122.197 163.273 121.77 162.786C121.814 161.535 124.015 159.969 124.982 159.197Z" fill="#F4D6B4"/>
<path d="M122.374 137.612C123.771 137.766 123.968 138.013 123.726 139.535C123.32 142.08 122.725 145.193 121.546 147.493C120.77 147.51 120.73 147.639 120.186 147.289C119.777 146.049 121.941 139.166 122.374 137.612Z" fill="#F4D6B4"/>
<path d="M120.329 152.62C120.879 152.705 121.199 152.686 121.58 153.073C121.838 153.907 120.079 160.945 119.769 162.711C119.195 162.598 119.116 162.584 118.664 162.219C117.846 160.709 119.778 154.497 120.329 152.62Z" fill="#F4D6B4"/>
<path d="M145.159 56.2739C146.352 56.3153 147.077 56.6307 147.322 57.9221C147.134 58.6167 147.29 58.4053 146.78 58.7826C145.754 58.5811 144.952 58.5821 144.483 57.5886C144.537 56.9145 144.725 56.7693 145.159 56.2739Z" fill="#712F10"/>
<path d="M146.228 61.4178C146.977 61.4911 147.876 62.0648 148.564 62.4378C148.609 63.5672 148.627 63.9862 148.435 65.1315C147.473 64.8627 146.177 62.2963 146.228 61.4178Z" fill="#67270B"/>
<path d="M148.539 67.0823C150.515 67.0024 151.475 68.7458 150.946 70.4709C149.9 70.2163 148.63 68.1104 148.539 67.0823Z" fill="#67270B"/>
<path d="M152.044 71.9529C153.509 71.8848 154.867 72.5511 154.388 74.2639C153.31 74.0881 152.193 73.0624 152.044 71.9529Z" fill="#67270B"/>
<path d="M6.02509 14.1088C7.81347 13.1658 8.73231 14.1949 10.1417 15.4165C9.75112 15.6847 8.98638 16.3671 8.73192 16.7694C8.17776 16.3089 7.62745 15.8918 7.05356 15.4561C6.68173 14.7467 6.6274 14.6278 6.02509 14.1088Z" fill="#712F10"/>
<path d="M106.506 247.325C107.361 247.876 107.433 247.733 108.258 247.157L109.206 248.319C108.779 248.88 107.589 249.388 106.914 249.733C106.239 248.948 105.724 248.211 105.127 247.372C105.421 247.569 105.718 247.76 106.018 247.948L106.506 247.325Z" fill="#712F10"/>
<path d="M52.2138 219.394C52.687 219.015 52.8517 218.923 53.1073 218.35C53.7553 218.571 53.95 218.54 54.6266 218.526C53.9314 219.425 53.3454 220.263 52.2753 220.688C51.9261 220.634 51.7571 220.651 51.5168 220.398C51.7658 220.348 51.9002 220.222 52.1073 220.073L52.2138 219.394Z" fill="#712F10"/>
<path d="M146.39 39.15C146.727 40.1238 146.944 40.8458 147.638 41.648C147.074 41.5802 146.665 41.4957 146.107 41.6372C145.834 41.3429 145.496 40.6679 145.289 40.291L146.39 39.15Z" fill="#712F10"/>
</svg>
