<svg width="345" height="601" viewBox="0 0 345 601" fill="none" xmlns="http://www.w3.org/2000/svg">
<path d="M125.713 18.8806V3.38058H213.213V18.8806H199.213V37.8806L342.213 50.3806V159.381C340.928 163.794 322.213 176.881 319.213 181.381C316.213 185.881 317.213 203.881 319.213 205.881C321.213 207.881 340.911 214.105 342.213 218.381V582.881C213.77 605.264 139.151 604.942 1.71307 582.881V218.381C5.67777 211.985 27.7131 208.881 32.7131 205.881C37.713 202.881 38.0244 183.703 32.7131 181.381C27.4017 179.058 4.63231 168.169 1.71307 159.381V114.381V50.3806L143.213 37.8806V18.8806H125.713Z" fill="#D9D9D9" stroke="black"/>
<path d="M1.71316 96.3806C-0.0178448 78.9253 0.213188 53.3806 1.71316 50.3806C3.21314 47.3806 142.713 37.8806 142.713 37.8806C144.768 28.1804 143.573 24.5257 142.713 18.8806L125.713 18.3806V3.3806C161.171 -0.398482 180.268 -0.521425 212.713 3.3806V18.8806H199.713C197.382 26.3006 197.589 30.4607 199.713 37.8806C199.713 37.8806 340.213 46.8806 342.213 50.3806C344.213 53.8806 343.787 78.4165 342.213 96.3806C206.933 114.949 132.474 114.198 1.71316 96.3806Z" fill="#787777" stroke="black"/>
<path d="M56.2131 339.881C18.4342 345.866 12.7688 343.592 1.71313 339.881V582.881C137.671 606.548 212.209 606.332 342.213 582.381C342.213 582.381 342.376 342.881 342.213 339.881C342.05 336.881 336.213 333.881 299.713 340.881C263.213 347.881 207.58 320.595 239.713 305.881C210.208 291.409 189.213 341.881 149.213 339.881C109.213 337.881 118.373 308.182 133.713 309.881C108.664 298.261 72.5387 337.869 56.2131 339.881Z" fill="#807F7F" stroke="black"/>
</svg>
