<svg width="1015" height="929" viewBox="0 0 1015 929" fill="none" xmlns="http://www.w3.org/2000/svg">
<rect x="0.5" width="1010" height="917" fill="#222121"/>
<path d="M0.500873 927.512C0.500873 927.512 0.935325 604.161 0.589897 578.185C0.524257 578.029 0.494366 577.804 0.500873 577.512C0.535058 575.975 0.564573 576.281 0.589897 578.185C5.57357 590.1 216.637 215.279 351.001 60.512L401.501 63.512L636.501 359.012L737.501 271.012L1010 647.512L1014.5 925.012L0.500873 927.512Z" fill="#D9D9D9"/>
<path d="M0.500873 927.512C0.500873 927.512 1.00136 555.012 0.500873 577.512C0.000384489 600.012 214.867 217.318 351.001 60.512L401.501 63.512L636.501 359.012L737.501 271.012L1010 647.512L1014.5 925.012L0.500873 927.512Z" stroke="black"/>
<path d="M377 43.012C359 44.012 324.5 92.012 324.5 92.012L307.5 113.012L271 208.512C271 208.512 329 113.512 339.5 118.012C350 122.512 382.5 89.0119 389.5 92.012C396.5 95.012 394 113.012 404 118.012C414 123.012 409.5 173.012 413.5 176.512C417.5 180.012 437.5 170.512 443.5 176.512C449.5 182.512 456.5 204.012 447.5 208.512C438.5 213.012 419 316.512 424 317.012C429 317.512 506.5 247.012 505 255.512C503.5 264.012 509 279.012 505 283.512C501 288.012 537 276.512 536 283.512C535 290.512 531.5 323.012 536 328.012C540.5 333.012 553.5 323.012 557.5 328.012C561.5 333.012 546 350.012 547 356.012C548 362.012 579.5 356.012 579.5 356.012C369.545 760.022 536.208 504.239 520 562.012C520 562.012 607.5 442.012 612.5 442.012C617.5 442.012 643.5 352.512 639.5 382.012C635.5 411.512 640 426.512 671.5 393.512C703 360.512 678 365.012 695.5 356.012C713 347.012 708.5 341.512 718 331.512C727.5 321.512 736.727 363.08 742.5 382.012V530.012C748 544.012 766.5 493.512 784 474.512C801.5 455.512 780.5 583.012 780.5 583.012C780.5 583.012 765 639.512 774.5 652.012C784 664.512 826.5 586.012 839.5 578.512C852.5 571.012 852.5 652.012 852.5 652.012C879.283 636.686 920.5 627.512 905 637.512C889.5 647.512 893.5 744.512 893.5 744.512L1010.5 648.012C1015.31 644.201 768.125 256.555 737 257.012C705.874 257.469 643.5 348.012 635.5 347.012C627.5 346.012 447.5 104.012 447.5 104.012C447.5 104.012 395 42.012 377 43.012Z" fill="#AEAEAE"/>
<path d="M939.5 664.012C964.812 631.747 980.044 625.831 1010 648.012L1014.5 925.012C1014.5 925.012 842 930.012 831.5 925.012C831.5 925.012 825.847 919.603 831.5 890.012C805.993 869.6 803.073 855.154 824 822.512C810.048 795.266 810.406 779.413 841 759.512C837.593 724.371 844.818 711.163 879.5 702.012C888.718 668.957 902.662 661.672 939.5 664.012Z" fill="#222121" stroke="black"/>
</svg>
