<svg width="191" height="234" viewBox="0 0 191 234" fill="none" xmlns="http://www.w3.org/2000/svg">
<path d="M138.964 1.40983C140.599 0.283184 142.696 -0.266284 144.658 0.126133C148.293 0.893121 156.361 6.90745 159.766 9.17251C168.744 15.1436 177.897 20.9524 186.758 27.095C187.667 27.7301 188.489 28.6567 189.089 29.5776C189.259 29.8362 189.414 30.1054 189.551 30.3834C189.741 30.949 190.048 31.7761 190.193 32.3287C191.158 36.4523 189.35 39.2977 187.279 42.6289C185.998 44.6488 184.733 46.678 183.482 48.7163C179.266 55.715 177.255 60.7316 167.258 57.3795C167.035 57.305 167.32 57.3756 166.984 57.3027C169.132 65.4347 172.872 73.2832 174.994 81.5605C176.317 86.7228 179.171 92.2385 178.336 97.8856C177.811 100.762 172.624 107.863 170.777 110.657L160.05 126.955L130.548 172.438C124.04 182.486 117.063 192.806 110.707 202.865L100.441 218.805C98.1068 222.402 95.6767 226.423 92.9875 229.765C91.5262 231.615 89.4916 232.93 87.2033 233.501C80.5267 235.229 75.4931 230.454 70.2584 227L52.4812 215.131L38.6477 206.078C37.1284 205.076 34.6897 203.594 33.3134 202.573C30.2692 200.608 27.1582 198.469 24.1501 196.436C23.7663 196.308 18.5746 192.852 17.8047 192.285C12.3514 188.267 2.77416 184.439 0.593173 177.643C-1.64045 170.68 2.90043 165.255 6.46502 159.848L15.0584 146.893L37.0568 113.043C39.2159 109.319 42.1035 105.097 44.4899 101.494L54.336 86.4117L75.1654 54.325C79.533 47.6485 84.0375 36.9858 92.6887 35.8623C99.8089 34.9377 107.12 34.6362 114.287 34.0172C119.409 33.5748 124.505 32.8362 129.63 32.5141C130.625 32.4488 131.384 32.5153 132.208 33.0862C132.636 33.6783 132.747 33.8952 133.381 34.2677L133.943 34.3032L134.301 33.8555C132.968 32.8832 132.898 32.5141 132.907 30.9583C131.863 29.4974 127.315 26.4032 125.536 26.3755C124.675 27.3224 127.319 29.693 126.931 31.2783L126.688 31.4015C125.283 30.7122 122.927 26.5816 123.534 24.8301C125.274 19.8131 135.118 4.02931 138.964 1.40983Z" fill="#B76139"/>
<path d="M161.271 48.4841L161.984 48.7128L162.389 48.5087C163.379 49.3893 162.542 50.6203 162.022 51.6277C163.286 51.3448 174.254 53.9956 175.251 55.16L175.275 55.5991C174.698 55.9879 174.738 55.8727 173.964 55.9384L173.495 55.7889C169.46 54.0909 164.549 54.0722 160.861 53.0298C157.063 61.3995 155.457 66.314 158.855 75.5053C161.667 83.1119 165.386 90.8232 166.628 98.8464C162.847 104.718 156.939 112.425 152.731 118.302C144.671 129.627 136.733 141.038 128.918 152.534C126.681 155.862 124.433 159.232 122.298 162.62C113.99 175.8 105.287 188.693 97.7797 202.366C96.6749 204.377 95.2051 206.317 94.1012 208.345C91.8533 212.414 89.6145 216.496 87.2273 220.487L86.742 219.406C88.1225 215.898 89.4251 213.804 91.1917 210.46L96.6186 200.016C98.6621 196.113 100.442 192.151 102.591 188.304C115.118 165.887 129.546 144.856 144.615 124.094C148.289 119.032 151.789 114.836 155.805 110.078C157.811 107.701 162.745 101.773 164.071 99.2231C163.96 93.2967 160.162 83.4836 158.022 77.8287C154.591 68.7622 155.771 59.6068 159.914 50.8991C161.62 49.8896 160.499 49.9255 161.271 48.4841Z" fill="#DBA383"/>
<path d="M162.389 48.5087C163.379 49.3892 162.542 50.6202 162.022 51.6276L161.647 51.8456L161.357 51.7267C161.277 50.8516 161.729 49.5965 161.984 48.7128L162.389 48.5087Z" fill="#78381D"/>
<path d="M34.2766 201.398C36.0497 202.338 37.6227 203.674 39.3352 204.709C52.658 212.75 64.9239 222.503 78.4101 230.259C82.2403 232.461 86.9098 233.396 90.4497 230.028C94.6401 226.041 97.7142 220.725 100.877 215.893L112.826 197.379L145.23 147.213C153.345 134.642 162.141 122.492 169.728 109.56C171.537 106.477 175.99 101.654 176.316 98.0797C177.394 86.2578 170.794 74.4845 167.512 63.3988C166.908 61.359 165.352 58.392 165.504 56.3506C166.027 55.9586 166.249 56.0766 167.004 56.0285L167.468 56.4501C167.357 56.8843 167.272 56.9427 166.984 57.3028C169.132 65.4348 172.872 73.2833 174.994 81.5606C176.317 86.7229 179.171 92.2386 178.336 97.8857C177.811 100.762 172.624 107.863 170.777 110.657L160.05 126.955L130.548 172.438C124.04 182.487 117.064 192.806 110.707 202.865L100.441 218.806C98.1068 222.402 95.6767 226.423 92.9875 229.766C91.5262 231.615 89.4917 232.93 87.2033 233.501C80.5268 235.229 75.4932 230.454 70.2584 227L52.4812 215.131L38.6477 206.078C37.1285 205.076 34.6898 203.594 33.3135 202.573L34.2766 201.398Z" fill="#692E12"/>
<path d="M37.0569 113.043C39.2159 109.319 42.1035 105.097 44.4899 101.494L54.336 86.4117L75.1654 54.3251C79.533 47.6485 84.0375 36.9859 92.6888 35.8624C99.809 34.9377 107.12 34.6362 114.287 34.0172C119.409 33.5748 124.505 32.8362 129.63 32.5141C130.625 32.4488 131.384 32.5154 132.208 33.0863C131.964 33.5335 131.855 33.87 131.318 34.0052C128.474 34.7204 121.742 34.6148 118.376 34.8027C114.087 35.0422 90.8157 37.6466 88.0745 39.0834C85.8881 40.2291 84.0823 42.9225 82.7605 44.9228L38.0206 113.604L37.0569 113.043Z" fill="#7A351D"/>
<path d="M37.0568 113.043L38.0206 113.604C28.519 128.605 18.6393 143.404 9.16962 158.415C5.36252 164.537 -0.120336 169.22 2.04434 177.193C2.81433 180.03 3.66299 181.216 6.15222 182.804C10.7781 185.751 15.2335 188.953 19.9858 191.71C21.4763 192.575 23.5595 194.461 25.0418 195.051L25.0225 196.216C24.295 196.604 24.8077 196.05 24.1501 196.436C23.7663 196.308 18.5746 192.852 17.8047 192.285C12.3514 188.267 2.77416 184.439 0.593173 177.643C-1.64045 170.68 2.90043 165.255 6.46502 159.848L15.0584 146.893L37.0568 113.043Z" fill="#7B361A"/>
<path d="M144.658 0.126099C148.293 0.893086 156.361 6.90742 159.766 9.17248C168.744 15.1436 177.897 20.9523 186.758 27.095C187.667 27.7301 188.49 28.6566 189.089 29.5775C189.259 29.8362 189.414 30.1054 189.551 30.3834L188.641 30.8528C186.976 27.9073 182.133 25.2975 179.299 23.4815L167.858 16.0867L155.038 7.56522C152.421 5.8341 148.126 2.90346 145.32 1.78059L145.248 1.67183C144.916 1.16163 144.541 0.678506 144.658 0.126099Z" fill="#561D09"/>
<path d="M189.551 30.3834C189.741 30.9491 190.048 31.7761 190.193 32.3287C191.158 36.4523 189.35 39.2977 187.279 42.629C185.998 44.6488 184.733 46.6781 183.482 48.7164C179.266 55.715 177.255 60.7316 167.258 57.3796C167.035 57.305 167.32 57.3756 166.984 57.3027C167.272 56.9426 167.357 56.8843 167.468 56.4501L167.004 56.0285C168.724 56.1099 170.216 56.508 171.916 56.5748C172.87 56.6122 172.893 56.3917 173.495 55.7889L173.964 55.9384C175.128 56.1349 176.193 56.1914 177.1 55.3071C180.164 52.3187 181.972 48.3189 184.219 44.7053C185.716 42.2985 187.448 39.7153 188.691 37.1786C189.165 36.2101 189.21 34.2996 189.279 33.1851C189.163 32.3275 188.913 31.665 188.641 30.8529L189.551 30.3834Z" fill="#77391A"/>
<path d="M189.551 30.3834C189.741 30.9491 190.048 31.7761 190.193 32.3287C190.223 33.1681 190.313 33.6059 189.847 34.2981L189.537 34.2173C189.449 33.8738 189.363 33.5297 189.279 33.1851C189.163 32.3275 188.913 31.665 188.641 30.8529L189.551 30.3834Z" fill="#390E00"/>
<path d="M138.964 1.40985C139.394 1.7882 139.51 1.92153 140.04 2.12582C139.268 2.7156 138.508 3.30433 137.88 4.05221C135.504 6.8808 125.578 21.2992 125.244 24.1045C125.215 24.3491 125.328 24.5591 125.487 24.7453C127.185 26.7339 131.504 26.8174 133.174 28.9975C133.15 29.856 133.16 30.1424 132.907 30.9583C131.863 29.4974 127.315 26.4032 125.536 26.3755C124.675 27.3224 127.319 29.6931 126.931 31.2783L126.688 31.4015C125.283 30.7122 122.927 26.5817 123.535 24.8302C125.274 19.8131 135.118 4.02932 138.964 1.40985Z" fill="#75351C"/>
<path d="M89.7463 192.138C89.643 196.035 85.6637 218.236 86.2408 219.574L86.742 219.406L87.2272 220.487C86.8495 221.44 85.4352 224.535 84.3743 224.552C82.4599 222.28 88.1401 195.697 89.7463 192.138Z" fill="#DBA383"/>
<path d="M24.1501 196.436C24.8077 196.05 24.295 196.604 25.0225 196.216L25.0418 195.05C26.3423 195.955 33.758 200.707 34.2766 201.398L33.3135 202.573C30.2692 200.608 27.1583 198.469 24.1501 196.436Z" fill="#9D582F"/>
<path d="M138.964 1.40983C140.599 0.283184 142.696 -0.266284 144.658 0.126133C144.541 0.678541 144.916 1.16166 145.248 1.67187L145.32 1.78063C143.975 1.7611 141.189 1.6347 140.04 2.1258C139.51 1.92151 139.394 1.78818 138.964 1.40983Z" fill="#78381D"/>
<path d="M167.932 34.6101C167.47 36.9033 165.578 41.9468 164.318 43.9055C164.102 43.6506 163.745 43.4392 163.46 43.2399C164.749 40.6221 166.484 37.0975 167.932 34.6101Z" fill="#DBA383"/>
<path d="M163.46 43.2399C163.745 43.4392 164.102 43.6506 164.318 43.9055C163.937 44.818 162.645 47.6726 162.389 48.5087L161.984 48.7128L161.271 48.4841C161.963 46.505 162.586 45.1235 163.46 43.2399Z" fill="#EAB697"/>
<path d="M133.174 28.9974C133.894 30.2677 135.182 32.4274 134.301 33.8555C132.968 32.8832 132.898 32.5141 132.907 30.9583C133.16 30.1424 133.15 29.856 133.174 28.9974Z" fill="#78381D"/>
<path d="M101.835 93.7236C108.364 93.1393 115.024 96.8357 119.321 101.58C122.123 104.674 123.606 109.157 123.21 113.293C123.071 114.751 122.559 118.63 121.409 119.585C120.24 119.678 114.819 116.254 113.71 115.401C114.427 110.785 115.065 108.381 111.113 105.014C105.466 100.204 99.1497 103.328 95.1837 108.465C92.0662 112.502 88.0081 118.665 88.4528 124.103C88.6794 126.873 90.3469 129.513 92.4658 131.176C94.122 132.537 97.9334 134.325 100.023 134.104C101.389 133.488 104.965 128.63 104.68 127.089C103.876 125.751 101.439 124.704 99.9771 123.937C99.5007 123.623 98.9553 123.417 98.925 122.834C98.8377 121.155 101.237 118.08 102.199 116.65C106.743 119.43 112.79 124.054 117.554 126.286C115.977 128.832 114.085 131.434 112.395 133.944C110.421 136.876 108.568 140.154 106.174 142.722C98.7967 143.4 93.6619 141.912 87.5187 137.629C83.158 134.589 79.7231 129.581 78.8217 124.277C77.6663 117.478 81.7443 109.971 85.5959 104.627C89.5062 99.2006 95.0548 94.7787 101.835 93.7236Z" fill="#F3EBE1"/>
<path d="M140.517 38.3796C140.678 38.5253 140.659 38.5839 140.751 38.8199C140.357 39.9956 134.429 47.6229 133.417 48.886C126.195 58.5997 117.075 60.1221 105.675 60.453C97.4253 60.6898 94.7302 65.1091 91.2501 71.6565C81.3691 90.2473 69.8395 107.268 56.7583 123.733C53.543 127.78 51.3096 132.143 47.7141 136.441C47.6704 136.007 48.4571 134.532 48.742 134.062C62.8075 110.853 76.0349 86.8787 89.1005 63.0993C98.0608 46.7917 115.374 58.451 128.303 50.5031C133.147 47.5251 136.484 42.3863 140.517 38.3796Z" fill="#DBA383"/>
<path d="M148.87 22.8683C144.436 26.3263 141.383 30.7389 137.725 34.923C134.536 38.684 130.696 41.7224 126.953 44.8944C121.74 49.3122 114.255 48.7315 107.734 49.0615C104.332 49.2238 100.935 49.4852 97.5485 49.8453C93.694 50.2886 91.6125 50.9275 89.1731 54.1653C86.0716 58.282 84.3436 63.0302 81.7857 67.3951C78.9606 72.2158 76.1308 77.0166 73.4114 81.9106C56.3359 112.642 36.1758 141.45 14.0642 168.755C13.4606 169.5 12.4293 171.587 11.7003 171.666C11.6033 170.685 13.7039 168.873 14.2519 167.977C14.8812 166.949 15.3838 165.966 16.1055 164.986C21.7284 157.469 27.2464 149.873 32.6575 142.201C42.3936 128.124 51.5431 113.232 60.5951 98.6904C62.1321 96.2219 63.5041 93.4513 65.0346 90.9624C67.9251 86.2618 70.7925 81.5436 73.5548 76.7651L82.3206 61.8419C84.5857 58.0151 86.9685 52.4356 90.3386 49.586C95.5026 45.2195 114.457 48.8241 122.873 45.1922C125.925 43.8749 128.434 41.5655 130.817 39.3101C132.888 37.3506 135.013 35.4027 136.961 33.3227C140.568 29.4697 143.994 25.08 148.323 22.0194C148.524 22.2762 148.824 22.5811 148.87 22.8683Z" fill="#DBA383"/>
<path d="M151.195 75.9962C151.596 76.3575 155.876 88.2829 156.292 89.6839C156.773 91.2523 157.127 92.8567 157.352 94.4815C157.955 99.1597 156.497 101.783 153.571 105.236C151.335 107.874 149.007 110.565 146.902 113.302C146.2 114.251 145.344 115.026 144.497 115.848C146.594 112.091 154.065 101.322 154.05 97.8071C154.022 91.2765 151.864 82.7504 151.195 75.9962Z" fill="#DBA383"/>
<path d="M50.2995 196.55C58.4284 201.156 67.1386 208.837 74.3503 214.86C75.6401 216.114 77.0456 217.407 78.2791 218.709C79.7612 220.275 83.0509 222.297 83.183 224.5C82.4838 224.218 80.4531 222.058 79.7709 221.373C70.9637 212.523 61.0285 204.963 50.9752 197.606C50.6113 197.339 50.4142 196.976 50.2995 196.55Z" fill="#CE7F59"/>
<path d="M36.094 165.737L36.1874 165.823L36.023 166.094C29.5201 169.216 17.3911 172.779 10.3079 174.416L10.1237 174.146L10.3998 173.599C11.8269 172.425 33.3838 166.485 36.094 165.737Z" fill="#DBA383"/>
<path d="M151.027 20.6643L151.339 20.4195C154.174 20.9475 161.75 26.4065 163.77 28.8089C159.415 26.7977 156.386 23.0215 150.928 21.7273C151.155 21.2537 151.063 21.2721 151.027 20.6643Z" fill="#DA936E"/>
<path d="M10.9823 175.495C13.6412 175.516 22.0529 179.917 24.5735 181.256L24.5796 181.407C23.4109 181.407 18.2556 177.729 15.9529 177.563L15.9313 177.806L16.6151 178.161C18.4556 179.146 24.2241 181.51 25.2281 182.549L25.2027 182.692C24.2359 181.817 22.7185 181.552 21.6181 180.975C19.044 179.627 12.9362 177.151 10.9823 175.495Z" fill="#DBA383"/>
<path d="M148.323 22.0194C149.389 21.2761 149.849 21.1168 151.027 20.6643C151.063 21.2721 151.155 21.2537 150.928 21.7273C150.13 22.1216 149.613 22.3854 148.87 22.8683C148.824 22.581 148.525 22.2762 148.323 22.0194Z" fill="#EAB697"/>
</svg>
