<svg width="291" height="331" viewBox="0 0 291 331" fill="none" xmlns="http://www.w3.org/2000/svg">
<path d="M222.31 130.866C172.575 112.201 188.098 137.912 174.551 152.194C174.551 152.194 135.964 197.252 120.371 212.896C104.779 228.539 157.216 157.137 94.686 224.79C49.8342 268.574 49.7368 231.352 53.7501 218.228C57.7633 205.103 115.957 120.202 37.2954 185.005C-41.3657 249.809 25.6569 82.4686 58.1647 123.073C90.6726 163.678 109.134 68.1133 58.1647 44.7349C7.1955 21.3565 125.384 -9.80395 113.147 38.9928C100.91 87.7896 177.225 112.445 190.203 38.9928C203.181 -34.4594 264.022 15.5864 232.744 38.9928C201.467 62.3993 174.214 84.276 252.41 68.1133C330.606 51.9507 272.045 149.531 222.31 130.866Z" fill="#807F7F" stroke="black"/>
<path d="M116.51 185.522C119.01 181.522 123.01 162.022 123.01 162.022H122.51C121.51 162.022 109.436 171.31 108.51 171.022C107.584 170.734 98.0103 156.522 98.5103 154.022C99.0103 151.522 155.51 118.522 158.51 119.522C161.51 120.522 168.01 136.522 168.01 136.522C167.01 138.022 153.51 142.022 155.01 144.022C156.51 146.022 176.01 151.022 178.51 150.522C181.01 150.022 197.51 137.522 200.01 138.022C202.51 138.522 276.51 266.022 275.51 269.522C274.51 273.022 174.01 330.522 170.01 330.022C166.01 329.522 93.5103 202.022 94.5103 198.522C95.5103 195.022 114.01 189.522 116.51 185.522Z" fill="#D9D9D9" stroke="black"/>
</svg>
