<svg width="431" height="531" viewBox="0 0 431 531" fill="none" xmlns="http://www.w3.org/2000/svg">
<path d="M0.779297 489.176C0.799386 437.327 1.2793 97.1755 1.2793 97.1755L428.779 97.6755C428.779 97.6755 428.789 430.927 428.779 489.176C428.769 547.424 0.759209 541.024 0.779297 489.176Z" fill="#D9D9D9" stroke="black"/>
<path d="M1.27956 194.676C1.90996 248.41 409.477 247.565 427.655 198.342C427.747 183.749 427.941 179.796 428.28 194.676C428.308 195.926 428.096 197.148 427.655 198.342C427.423 235.548 427.859 341.92 428.28 381.675C428.865 437.024 1.3773 432.124 0.779555 381.675C0.181812 331.226 0.633862 139.638 1.27956 194.676Z" fill="#AEAEAE"/>
<path d="M1.27956 194.676C1.92525 249.713 429.482 247.492 428.28 194.676C427.078 141.859 427.694 326.327 428.28 381.675C428.865 437.024 1.3773 432.124 0.779555 381.675C0.181812 331.226 0.633862 139.638 1.27956 194.676Z" stroke="black"/>
<path d="M1.2797 95.6756C1.7627 46.0369 2.31268 90.5531 1.2797 38.6756C0.246716 -13.202 428.723 -11.239 429.28 38.6756C429.837 88.5901 429.712 34.8122 429.28 95.6756C428.847 156.539 0.796698 145.314 1.2797 95.6756Z" fill="#807F7F" stroke="black"/>
<path d="M230.325 226.167C260.806 196.801 291.913 193.976 316.713 213.478C341.513 232.979 338.125 264.684 314.772 297.027C291.42 329.371 265.896 334.96 259.759 342.277C253.623 349.593 254.943 382.158 234.839 414.854C214.736 447.55 160.634 461.504 131.554 434.141C102.474 406.778 105.081 364.145 133.724 330.009C162.368 295.872 194.82 302.329 199.757 291.929C204.694 281.528 199.843 255.534 230.325 226.167Z" fill="#807F7F" stroke="#AEAEAE" stroke-width="3"/>
</svg>
