<svg width="117" height="229" viewBox="0 0 117 229" fill="none" xmlns="http://www.w3.org/2000/svg">
<path d="M35.7753 40.1063L36.5768 40.6082C38.2781 41.6716 49.073 41.4517 51.5801 41.4584C58.4584 41.4838 65.3366 41.4358 72.2137 41.314C73.7747 41.2844 79.8228 41.4124 80.7279 40.8548C86.4607 47.0868 97.9576 49.5909 105.391 53.5063C106.649 54.1689 108.813 55.1828 109.818 56.178C113.64 58.5248 116.08 62.325 116.051 66.8553C115.986 76.9932 115.849 87.1321 115.787 97.2703C115.784 97.9721 115.775 99.0241 115.664 99.7077L115.594 173.699L115.656 199.978C115.663 204.692 115.819 209.641 115.417 214.317C115.087 218.159 110.154 222.505 106.46 223.021C105.218 223.501 103.742 223.841 102.428 224.067C97.8292 224.941 93.2094 225.854 88.5637 226.424C87.3042 226.578 85.0071 226.977 83.853 227.01C79.1539 229.025 40.6653 228.799 34.1113 227.162C33.5277 227.121 32.8783 226.997 32.2909 226.925C26.4409 226.203 20.4777 225.613 14.7528 224.152C14.7237 224.152 14.6943 224.154 14.665 224.156C10.703 223.368 6.06586 222.115 3.20528 219.132C1.67266 217.534 0.701695 215.231 0.561793 213.257C0.316129 209.789 0.413727 206.249 0.417067 202.829L0.447497 182.789L0.437848 148.956C0.412242 142.32 0.234118 135.077 0.39109 128.485C0.190143 126.922 0.273455 121.747 0.26659 119.977L0.230036 102.489C0.247107 96.3749 0.223541 90.2606 0.159157 84.1468C0.0593324 78.4377 -0.067767 72.7813 0.0428189 67.0724C0.242096 56.7875 9.35894 54.1737 17.2282 50.7016L30.4725 44.8489C32.6571 43.3963 34.227 42.2451 35.7753 40.1063Z" fill="#E3D8BD"/>
<path d="M46.5722 43.2751L69.884 43.4579C70.3606 44.5093 70.6044 44.9188 71.2236 45.8753C72.2721 48.0514 73.8912 51.3685 75.7933 53.049C80.9724 57.6242 87.8525 60.0958 94.0611 63.1275C97.3293 64.7234 102.74 66.1018 104.026 70.1952C105.092 75.5732 104.058 82.0058 104.37 87.5542C104.445 88.9087 104.298 90.43 104.495 91.7579C104.474 104.011 104.359 116.263 104.15 128.514C104.126 133.499 104.064 138.484 103.962 143.468C103.925 146.829 103.984 149.998 103.781 153.364C101.764 155.327 98.9944 159.091 97.3059 161.4C97.054 161.852 96.9178 162.186 96.4817 162.478C91.5913 169.353 79.4612 182.505 72.4013 186.644C71.8471 186.433 71.0796 186.277 70.4838 186.152C64.8499 184.965 59.4514 182.896 54.018 181.022C52.2134 180.401 49.7401 179.721 48.0592 178.994C47.5807 178.775 47.0973 178.565 46.6097 178.369C46.0881 178.565 38.2039 176.356 36.557 176.157C29.0815 175.253 19.2187 176.088 12.3893 179.369C11.9499 178.749 12.1525 168.199 12.1498 166.468L12.0987 140.638C12.4899 138.909 12.1477 130.875 12.1408 128.709C12.1414 116.925 12.0535 105.141 11.8766 93.3579C11.7577 86.6199 11.4599 79.7625 11.5245 73.0283C11.5388 71.5522 11.7581 70.5017 12.2693 69.1264C14.8114 65.4865 18.4216 64.8672 22.0825 62.9685C28.3467 59.7196 35.8571 57.2783 40.8286 52.2172C44.1171 49.2009 44.4349 45.5068 46.5722 43.2751Z" fill="#E3D8BD"/>
<path d="M82.9385 161.852C85.9417 161.838 93.7919 161.802 96.4817 162.478C91.5913 169.353 79.4612 182.505 72.4013 186.644C71.8471 186.433 71.0796 186.277 70.4838 186.152C64.8499 184.965 59.4514 182.896 54.018 181.022C52.2134 180.401 49.7401 179.721 48.0592 178.994C50.6993 177.189 53.8288 175.584 56.4773 173.791C61.272 170.548 64.9241 167.691 70.1153 165.065C76.7379 162.185 76.0564 162.697 82.9385 161.852Z" fill="#8D9A75"/>
<path d="M82.7181 159.89C86.7836 159.505 93.4937 159.93 97.3059 161.4C97.054 161.852 96.9178 162.186 96.4817 162.478C93.7919 161.802 85.9418 161.838 82.9385 161.852C82.2293 161.463 82.2401 161.769 81.8003 161.094C81.8985 160.569 82.3238 160.259 82.7181 159.89Z" fill="#646B4C"/>
<path d="M46.6097 178.369C48.5902 177.001 53.1436 174.931 55.6479 173.353C60.0997 170.55 65.3854 165.776 69.9467 163.918L71.1321 164.054L71.165 164.2C70.7592 164.49 70.4391 164.683 70.1153 165.065C64.9241 167.691 61.272 170.548 56.4773 173.791C53.8288 175.584 50.6993 177.189 48.0592 178.994C47.5807 178.775 47.0973 178.565 46.6097 178.369Z" fill="#1F1F13"/>
<path d="M69.9467 163.918C73.6834 161.955 78.5279 160.405 82.7181 159.89C82.3238 160.259 81.8985 160.569 81.8003 161.094C82.2401 161.769 82.2293 161.463 82.9385 161.852C76.0564 162.697 76.7379 162.185 70.1153 165.065C70.4391 164.683 70.7592 164.49 71.165 164.2L71.1321 164.054L69.9467 163.918Z" fill="#4B5236"/>
<path d="M57.6722 61.9044C58.3697 62.1706 60.2378 64.7506 60.6825 65.5017C64.8282 72.5026 73.2086 82.3188 65.9082 90.0275C63.7659 92.2897 61.5355 93.5876 58.4144 93.7646C53.0025 93.4256 48.0152 90.1255 47.1168 84.5695C45.921 77.1741 53.7503 67.645 57.6722 61.9044Z" fill="#723011"/>
<path d="M57.8566 64.4946C58.3331 64.654 59.7021 66.723 60.0366 67.2321C63.8941 73.1021 70.7896 81.6575 65.2855 88.6012C63.4902 90.8662 61.169 91.6145 58.435 91.87C45.2133 90.5658 47.8571 79.0355 53.1847 70.9531C54.6489 68.7315 56.401 66.7002 57.8566 64.4946Z" fill="#B86239"/>
<path d="M19.115 128.706C19.8128 128.683 20.5107 128.665 21.2089 128.653C25.0165 128.587 25.8119 128.623 28.4892 131.212C29.2043 133.109 29.0202 134.085 28.5113 135.952C27.8795 136.412 27.2368 136.913 26.6105 137.386C27.8966 138.163 28.4825 138.554 29.3381 139.786C29.4372 142.022 29.6188 143.258 28.2363 145.107C25.7826 147.237 20.3804 146.601 17.0129 146.559C16.9523 140.766 17.0838 134.639 17.0742 128.789L19.115 128.706Z" fill="#3C1F0A"/>
<path d="M20.7404 138.668C24.2346 138.706 27.7324 138.64 25.5223 143.355C23.9953 143.926 22.3841 143.842 20.768 143.848C20.6825 142.122 20.6732 140.394 20.7404 138.668Z" fill="#E3D8BD"/>
<path d="M20.8296 131.322C23.9778 131.416 27.1802 131.921 24.7152 135.768C23.8329 136.64 21.9333 136.436 20.6986 136.431C20.6788 134.578 20.6727 133.184 20.8296 131.322Z" fill="#E3D8BD"/>
<path d="M87.251 128.754C91.2001 128.943 99.1219 127.509 99.1644 133.468C99.1727 134.622 99.2271 135.612 98.7894 136.72L98.7371 136.85C98.2741 138.025 97.6997 138.389 96.7237 139.18C96.5936 139.674 99.3208 145.321 99.7902 146.538C98.7719 146.571 97.1293 146.727 96.1971 146.549L96.0095 146.208C95.5095 144.532 94.3518 141.278 93.1174 140.146C92.3262 139.421 91.672 139.554 90.6407 139.574L90.6344 146.609L87.3176 146.617L87.251 128.754Z" fill="#3D1F09"/>
<path d="M90.6613 131.57C92.4092 131.632 93.5 131.716 95.1922 132.12C95.9945 133.463 96.4686 135.125 95.4247 136.509C93.7212 136.914 92.4071 136.982 90.6771 137.11L90.6613 131.57Z" fill="#E3D8BD"/>
<path d="M36.7844 104.314C37.7391 104.264 38.7837 104.299 39.746 104.31C41.9271 108.254 44.5156 112.477 46.7932 116.43C46.67 112.662 46.5769 108.08 46.7086 104.328C47.6777 104.388 48.9508 104.347 49.9466 104.342C49.8798 110.204 49.8766 116.068 49.9371 121.931L49.702 122.213C48.639 122.409 47.628 122.288 46.5501 122.217C44.4909 118.667 42.1026 114.36 40.0914 110.726C39.9308 114.541 39.9475 118.308 39.946 122.124C38.7086 122.292 38.0272 122.271 36.7854 122.246C36.6677 117.236 36.5237 109.113 36.7844 104.314Z" fill="#3D1F09"/>
<path d="M62.1448 104.369L65.5197 104.294L65.529 106.791C65.5578 109.648 65.4429 113.618 65.5346 116.387C65.7938 124.23 53.9121 124.019 53.0482 118.405C52.4691 114.641 52.768 108.353 52.7641 104.318L56.5146 104.398C56.5162 108.181 55.9442 115.634 56.9803 118.919L58.9612 119.961C62.4042 118.739 62.2045 116.349 62.2391 113.08C62.2697 110.186 62.1814 107.264 62.1448 104.369Z" fill="#3D1F09"/>
<path d="M40.8765 128.686L44.1794 128.657C44.0989 132.24 45.1548 142.732 42.844 145.135C41.591 146.437 39.6046 146.842 37.8632 146.859C36.1794 146.875 34.5766 146.409 33.3646 145.195C30.9635 142.788 31.6431 137.627 31.6505 134.515L31.6266 128.86C32.7634 128.811 33.9374 128.793 35.0783 128.76C35.1266 131.707 34.2924 141.201 36.1107 143.222C36.6076 143.774 37.2745 144.07 38.0161 144.086C38.6926 144.101 39.3123 143.884 39.7955 143.404C40.418 142.786 40.6802 141.923 40.8242 141.08C41.2914 138.344 40.8876 131.838 40.8765 128.686Z" fill="#371906"/>
<path d="M74.4158 128.814C78.0707 128.779 81.7258 128.778 85.3807 128.812L85.4154 131.481C82.8852 131.523 80.3544 131.518 77.8243 131.465L77.8445 136.088C79.7376 136.048 82.2175 135.984 84.0562 136.17C84.0618 136.925 83.9735 137.871 83.923 138.64C82.8836 138.666 78.5644 138.539 77.8692 139.045L77.7948 139.71L77.7864 143.817L85.4428 143.822L85.4014 146.478L74.4041 146.593C74.4312 140.753 74.2699 134.593 74.4158 128.814Z" fill="#3D1E09"/>
<path d="M67.2429 104.323C71.5877 104.313 75.9324 104.328 80.2772 104.369C80.3024 105.362 80.2636 106.466 80.2497 107.469C78.626 107.492 76.9629 107.475 75.3353 107.477L75.3771 117.609L75.3504 122.109C74.4087 122.225 73.1728 122.223 72.2037 122.249C71.9174 117.548 72.33 112.312 72.0892 107.463L67.2162 107.456C67.1765 106.466 67.2247 105.324 67.2429 104.323Z" fill="#3D1F09"/>
<path d="M58.6845 128.822C59.0118 128.786 59.4991 128.699 59.7984 128.759C63.9719 128.936 68.3942 128.703 72.6109 128.8L72.5627 131.438C70.9648 131.444 69.3668 131.437 67.7689 131.416C67.6494 136.482 67.7463 141.512 67.7609 146.577L64.4326 146.642C64.4467 142.534 64.6729 135.581 64.3391 131.631C63.7051 131.61 62.4714 131.532 61.8861 131.57C61.1863 131.668 59.4659 131.577 58.6407 131.582L58.6845 128.822Z" fill="#3D1F09"/>
<path d="M58.6845 128.822C59.0118 128.786 59.4991 128.699 59.7984 128.759C59.759 129.441 59.6048 130.511 59.9004 131.075C60.5446 131.549 61.0161 131.462 61.8861 131.57C61.1863 131.668 59.4659 131.577 58.6407 131.582L58.6845 128.822Z" fill="#C5B09E"/>
<path d="M46.0635 128.788L58.6845 128.822L58.6407 131.582C57.0582 131.509 55.4746 131.457 53.8906 131.426C53.8792 136.479 53.9416 141.532 54.078 146.583C53.0016 146.626 51.7995 146.613 50.712 146.622C50.7279 141.611 50.7151 136.6 50.6732 131.588L46.0607 131.638C46.0352 130.733 46.0609 129.704 46.0635 128.788Z" fill="#3D1F09"/>
<path d="M103.781 153.364C104.112 153.441 104.388 153.501 104.723 153.557C105.186 155.243 104.548 162.409 105.03 164.718C105.076 173.5 104.904 182.286 104.885 191.069C104.875 195.814 105.267 202.033 104.686 206.592C104.481 208.21 104.115 210.049 102.93 211.235C101.918 212.248 100.672 212.966 99.331 213.45C95.8075 214.717 91.6145 215.096 87.9108 215.589C76.9082 217.057 66.1339 217.892 55.0244 217.77C47.7473 217.688 18.0834 216.519 13.2476 211.546C10.5509 208.772 10.8533 203.816 10.9953 200.224C10.999 200.132 11.0072 200.037 11.0162 199.944C10.8793 196.844 11.0109 192.771 11.0053 189.605C11.0003 186.665 10.8962 182.382 11.13 179.532C11.4994 179.599 11.9659 179.736 12.2986 179.614L12.3893 179.369C19.2187 176.088 29.0815 175.253 36.557 176.157C38.2039 176.356 46.0881 178.565 46.6097 178.369C47.0973 178.565 47.5807 178.775 48.0592 178.994C49.7401 179.721 52.2134 180.4 54.018 181.022C59.4514 182.896 64.8499 184.965 70.4838 186.152C71.0796 186.277 71.8471 186.433 72.4013 186.644C79.4612 182.505 91.5913 169.353 96.4817 162.478C96.9178 162.186 97.054 161.852 97.3059 161.4C98.9944 159.091 101.764 155.327 103.781 153.364Z" fill="#723213"/>
<path d="M12.3893 179.369C19.2187 176.088 29.0815 175.253 36.557 176.157C38.2039 176.356 46.0881 178.565 46.6097 178.369C47.0973 178.565 47.5807 178.775 48.0592 178.994C49.7401 179.721 52.2134 180.401 54.018 181.022C59.4514 182.896 64.8499 184.965 70.4838 186.152C71.0796 186.277 71.8471 186.433 72.4013 186.644C72.1608 187.095 71.6173 187.618 71.1049 187.698C56.8202 196.159 41.7658 200.148 25.0972 199.812C20.542 199.722 16.4075 198.844 12.0748 198.502L11.4471 198.361C10.9628 198.894 11.1821 199.104 11.0162 199.944C10.8793 196.844 11.0109 192.771 11.0053 189.606C11.0003 186.665 10.8962 182.382 11.13 179.532C11.4994 179.599 11.9659 179.736 12.2986 179.614L12.3893 179.369Z" fill="#D8A669"/>
<path d="M12.3893 179.369C19.2187 176.088 29.0815 175.253 36.557 176.157C38.2039 176.356 46.0881 178.565 46.6097 178.369C47.0973 178.565 47.5807 178.775 48.0592 178.994C49.7401 179.721 52.2134 180.401 54.018 181.022C59.4514 182.896 64.8499 184.965 70.4838 186.152C71.0796 186.277 71.8471 186.433 72.4013 186.644C72.1608 187.095 71.6173 187.618 71.1049 187.698C70.4848 187.333 67.9775 187.472 67.0555 187.251C53.0699 183.898 40.1673 175.281 25.1926 177.53C21.7661 178.044 18.1514 179.178 14.729 179.963C13.9982 180.256 13.137 180.575 12.4357 180.909C11.9527 186.184 12.4917 192.743 12.0748 198.502L11.4471 198.361C10.9628 198.894 11.1821 199.104 11.0162 199.944C10.8793 196.844 11.0109 192.771 11.0053 189.606C11.0003 186.665 10.8962 182.382 11.13 179.532C11.4994 179.599 11.9659 179.736 12.2986 179.614L12.3893 179.369Z" fill="#724B23"/>
<path d="M103.311 156.025C103.786 157.62 103.483 169.884 103.492 172.385C103.563 179.721 103.596 187.06 103.591 194.398C103.592 198.662 103.718 202.933 103.188 207.19C102.538 212.405 98.6242 211.977 94.6894 212.932C89.3348 214.233 84.0943 214.682 78.6362 215.202C62.6961 216.669 46.6494 216.552 30.7323 214.849C24.6226 214.19 21.3701 212.801 15.9143 211.86C11.353 209.862 12.1742 204.117 12.0911 199.913C26.4389 202.427 41.1144 201.464 54.8565 196.662C60.4342 194.712 65.9443 192.7 70.9648 189.487C78.7709 184.436 85.4955 177.829 91.8093 171.047C94.7127 167.928 97.2941 163.6 100.2 160.366C101.311 159.129 101.996 157.059 103.311 156.025Z" fill="#B86239"/>
<path d="M114.373 122C114.616 120.295 114.508 112.559 114.516 110.513L114.733 90.8018C114.734 90.0451 114.588 85.5053 114.739 85.1545L114.692 85.0172L114.981 85.4363L115.39 85.4183C115.709 85.8152 115.536 98.1609 115.664 99.7076L115.594 173.699L115.656 199.978C115.663 204.692 115.819 209.641 115.417 214.317C115.087 218.159 110.155 222.505 106.46 223.021C105.218 223.501 103.742 223.841 102.428 224.067C101.962 223.668 101.873 223.581 101.496 223.1C102.929 222.807 104.364 222.523 105.801 222.247C107.854 221.64 109.42 220.967 110.99 219.441C112.682 217.825 113.79 215.693 114.139 213.38C114.491 211.042 114.363 206.262 114.361 203.683L114.354 186.956L114.373 122Z" fill="#7E6345"/>
<path d="M101.496 223.1C102.929 222.807 104.364 222.523 105.801 222.247C105.347 222.655 105.028 222.779 104.469 223.004L104.597 222.737L104.287 223.084L104.093 222.974L104.107 223.136L104.367 222.956L104.452 223.193L104.491 222.95C105.127 222.898 105.903 222.763 106.46 223.021C105.218 223.501 103.742 223.841 102.428 224.067C101.962 223.668 101.873 223.581 101.496 223.1Z" fill="#724B23"/>
<path d="M10.8763 69.2453C11.6423 69.5144 11.5176 69.5973 12.2692 69.1264C11.7581 70.5017 11.5387 71.5522 11.5245 73.0283C11.4599 79.7625 11.7577 86.6199 11.8766 93.3579C12.0535 105.141 12.1414 116.925 12.1408 128.709C12.1477 130.875 12.4899 138.909 12.0987 140.638L12.1498 166.468C12.1525 168.199 11.9499 178.749 12.3893 179.369L12.2986 179.614C11.9659 179.736 11.4994 179.599 11.13 179.532C11.1528 170.11 11.1023 160.689 10.9788 151.269C10.7463 149.859 10.8023 144.525 10.7934 142.873C10.7632 137.957 10.6984 133.042 10.5993 128.127L9.87754 93.0438C9.7946 87.7197 8.98896 73.8289 10.8763 69.2453Z" fill="#A59072"/>
<path d="M12.0987 140.638L12.1498 166.468C12.1525 168.199 11.9499 178.749 12.3893 179.369L12.2986 179.614C11.9659 179.736 11.4994 179.599 11.13 179.532C11.1528 170.11 11.1023 160.689 10.9788 151.269C11.2061 148.893 11.0419 144.501 11.1101 141.808C11.646 142.576 10.7487 154.04 11.6755 156.522C11.6801 156.367 11.6733 156.358 11.6987 156.225C12.2295 153.446 11.3315 142.673 12.0987 140.638Z" fill="#846743"/>
<path d="M35.7753 40.1063L36.5768 40.6082C38.2781 41.6716 49.073 41.4517 51.5801 41.4584C58.4584 41.4838 65.3366 41.4358 72.2137 41.314C73.7747 41.2844 79.8228 41.4124 80.7279 40.8548C86.4607 47.0868 97.9576 49.5909 105.391 53.5063C106.649 54.1689 108.813 55.1828 109.818 56.178L109.769 56.4486L110.908 57.6262L110.875 57.6826L110.605 57.4611C109.865 57.5782 110.021 57.0759 109.03 56.8924C107.883 56.4233 106.425 55.2809 105.222 54.7629C98.8784 52.0325 92.5027 49.3558 86.1698 46.6045C84.5811 45.9143 81.1916 43.7263 79.7812 43.4551C77.8692 43.0873 73.7617 43.2573 71.6468 43.2764C71.8662 43.8891 72.0764 44.5162 72.2894 45.1322C71.4212 44.6372 71.8738 43.3267 70.669 43.2714C70.197 44.188 70.9841 44.75 71.2236 45.8753C70.6044 44.9189 70.3606 44.5094 69.884 43.4579L46.5722 43.2751C44.4349 45.5069 44.1171 49.2009 40.8286 52.2172C40.7399 52.099 40.5254 51.8913 40.4135 51.7756C40.0909 51.9726 40.0592 51.9763 39.6845 52.0708L39.5884 52.0941C42.2505 49.0606 43.4335 47.2959 44.6045 43.4827C42.002 43.4233 37.4964 43.0923 35.1663 43.7746C34.1385 44.0755 31.6032 45.3994 30.4235 45.9357C30.7469 45.4029 31.5195 45.0035 32.0786 44.6305C31.529 44.5288 31.0291 44.7122 30.4725 44.8489C32.6571 43.3963 34.227 42.2451 35.7753 40.1063Z" fill="#947857"/>
<path d="M0.39109 128.485C0.654567 126.842 0.451393 120.426 0.491471 118.321C0.66236 109.375 0.163612 99.8828 0.506502 90.9818L0.77907 91.0302C0.983913 91.7707 0.926765 94.3316 1.10786 95.4824L1.13625 95.6549L1.38507 172.743L1.35631 197.528C1.35482 202.419 1.22828 207.073 1.63797 211.947C2.40019 221.019 9.39828 221.857 16.6947 223.236C16.4301 223.83 16.5968 223.648 16.0923 223.976L15.9722 223.978C15.42 223.989 15.2855 224.023 14.7528 224.152C14.7237 224.152 14.6943 224.154 14.665 224.156C10.703 223.368 6.06586 222.115 3.20528 219.132C1.67266 217.534 0.701696 215.231 0.561793 213.257C0.316129 209.789 0.413727 206.249 0.417067 202.829L0.447497 182.788L0.437848 148.956C0.412243 142.32 0.234118 135.077 0.39109 128.485Z" fill="#5B3F1F"/>
<path d="M38.3814 226.056C39.4938 225.921 42.3019 226.127 43.5088 226.149C48.283 226.244 53.2866 226.884 58.0366 226.843C63.4564 226.795 69.039 226.284 74.4686 226.097C76.547 226.025 79.073 225.774 81.1042 225.848C82.3854 226.572 85.2634 225.214 85.6805 226.416L85.4411 226.605C84.4548 226.292 83.217 226.409 82.274 226.821L82.4006 226.969C82.6982 226.971 83.6206 226.954 83.8531 227.01C79.1539 229.025 40.6653 228.799 34.1113 227.162C34.6568 227.134 35.4582 227.179 35.8413 226.858C35.3463 226.527 34.4397 226.474 33.819 226.388C34.7612 225.809 36.1296 226.722 38.3814 226.056Z" fill="#A59072"/>
<path d="M71.2236 45.8753C70.9841 44.75 70.197 44.188 70.669 43.2714C71.8738 43.3267 71.4212 44.6372 72.2894 45.1322C75.4134 53.8403 80.9797 55.6258 88.8261 59.3264C93.189 61.3841 103.584 64.6514 105.298 69.3663C106.366 72.3057 106.226 89.7707 105.639 93.2098C104.799 91.5816 106.085 90.5994 104.696 87.9529C104.705 89.1658 104.787 90.6079 104.495 91.7579C104.298 90.43 104.445 88.9087 104.37 87.5542C104.058 82.0058 105.092 75.5732 104.026 70.1951C102.74 66.1018 97.3293 64.7234 94.0611 63.1275C87.8525 60.0958 80.9724 57.6242 75.7932 53.0489C73.8912 51.3684 72.2721 48.0514 71.2236 45.8753Z" fill="#9B815D"/>
<path d="M30.4725 44.8489C31.0291 44.7121 31.529 44.5288 32.0786 44.6305C31.5195 45.0034 30.7469 45.4029 30.4235 45.9356C27.0688 47.8017 22.0721 49.7493 18.5237 51.3335C12.2813 54.1208 3.60699 56.6348 1.54111 64.1337C0.585172 67.604 1.07409 73.3272 1.05015 77.0607C1.01082 83.1728 1.35278 89.5723 1.13625 95.6549L1.10786 95.4824C0.926765 94.3316 0.983913 91.7707 0.779069 91.0302L0.506502 90.9818C0.163611 99.8828 0.66236 109.375 0.491471 118.321C0.451393 120.426 0.654567 126.842 0.39109 128.485C0.190143 126.922 0.273455 121.747 0.26659 119.977L0.230036 102.489C0.247107 96.3749 0.223541 90.2605 0.159157 84.1468C0.0593324 78.4377 -0.067767 72.7813 0.0428189 67.0724C0.242096 56.7875 9.35894 54.1737 17.2282 50.7016L30.4725 44.8489Z" fill="#724B23"/>
<path d="M104.696 87.9529C106.085 90.5994 104.799 91.5817 105.639 93.2099C105.217 111.265 105.374 129.555 105.114 147.642C105.062 151.375 105.036 155.107 105.035 158.84C105.036 160.58 105.133 163.088 105.03 164.718C104.548 162.409 105.186 155.243 104.723 153.557C104.388 153.501 104.112 153.441 103.781 153.364C103.984 149.998 103.925 146.829 103.962 143.468C104.064 138.484 104.126 133.499 104.15 128.514C104.359 116.263 104.474 104.011 104.495 91.7579C104.787 90.6079 104.705 89.1659 104.696 87.9529Z" fill="#846743"/>
<path d="M109.818 56.178C113.64 58.5248 116.08 62.325 116.051 66.8553C115.986 76.9932 115.849 87.132 115.787 97.2703C115.784 97.972 115.775 99.0241 115.664 99.7077C115.536 98.1609 115.709 85.8152 115.39 85.4183L114.981 85.4363L114.692 85.0172L114.739 85.1545C114.588 85.5053 114.734 90.0451 114.733 90.8018L114.516 110.513C114.508 112.559 114.616 120.295 114.373 122C114.14 118.067 114.351 111.891 114.347 107.75L114.328 78.9537C114.335 74.7683 114.479 70.4603 114.37 66.2864C114.26 62.0771 112.078 59.5497 109.03 56.8923C110.021 57.0758 109.865 57.5781 110.605 57.461L110.875 57.6826L110.908 57.6262L109.769 56.4485L109.818 56.178Z" fill="#9A8362"/>
<path d="M39.5884 52.0941L39.6845 52.0707C40.0592 51.9763 40.0909 51.9726 40.4136 51.7755C40.5254 51.8913 40.7399 52.0989 40.8286 52.2171C35.8571 57.2783 28.3467 59.7195 22.0824 62.9684C18.4216 64.8671 14.8114 65.4865 12.2692 69.1264C11.5176 69.5973 11.6423 69.5143 10.8763 69.2453C13.0148 65.2041 17.3987 64.0788 21.202 62.2404C27.59 59.1527 34.0794 56.6812 39.5884 52.0941Z" fill="#836140"/>
<path d="M16.6947 223.236C24.2951 224.321 30.6111 225.577 38.3814 226.056C36.1296 226.722 34.7612 225.809 33.819 226.388C34.4397 226.474 35.3463 226.528 35.8413 226.858C35.4582 227.179 34.6568 227.134 34.1113 227.162C33.5277 227.121 32.8783 226.997 32.2909 226.925C26.4409 226.203 20.4777 225.613 14.7528 224.152C15.2855 224.023 15.42 223.989 15.9722 223.978L16.0923 223.976C16.5968 223.648 16.4301 223.83 16.6947 223.236Z" fill="#846743"/>
<path d="M81.1042 225.848C82.6195 225.574 85.9072 225.403 87.6404 225.19C92.2733 224.592 96.8929 223.896 101.496 223.1C101.873 223.581 101.962 223.668 102.428 224.067C97.8292 224.941 93.2094 225.854 88.5637 226.424C87.3042 226.578 85.0072 226.977 83.853 227.01C83.6206 226.954 82.6982 226.971 82.4006 226.969L82.274 226.821C83.217 226.409 84.4548 226.292 85.4411 226.605L85.6805 226.416C85.2634 225.214 82.3854 226.572 81.1042 225.848Z" fill="#846743"/>
<path d="M38.6227 0.815248C42.2909 -0.50362 68.7195 0.131508 74.446 0.309262C75.2952 0.335609 77.4777 0.756429 78.2889 1.14051C79.1956 1.56987 79.8553 2.73324 80.1388 3.64855C80.4887 4.7776 81.0229 9.47268 80.9327 10.5297C81.2608 13.2159 83.1925 26.2348 81.9063 27.9088C81.7558 28.1046 81.5641 28.2639 81.3712 28.4155C79.5118 29.3112 77.8766 29.0735 75.8181 29.1941C75.7049 31.2576 75.7053 32.171 76.1634 34.182C77.2743 34.1057 78.6453 33.8552 79.5992 34.2777C80.0271 34.8573 79.9161 34.6211 79.9454 35.3878C79.6556 35.9727 79.8447 35.7782 79.1611 36.0799C78.6251 36.9238 78.0558 37.5867 78.2321 38.5753C79.0474 40.0196 80.0968 40.0528 80.7279 40.8548C79.8228 41.4123 73.7747 41.2843 72.2137 41.314C65.3366 41.4357 58.4584 41.4838 51.5801 41.4584C49.073 41.4517 38.2781 41.6716 36.5768 40.6082L35.7753 40.1063C36.3135 38.5486 37.2559 38.5885 37.1711 37.2873C36.5981 36.5827 36.3089 36.3473 35.4864 36.0549C35.8606 33.7784 37.7734 34.1777 39.733 34.068C39.9324 33.0653 40.0059 30.956 40.069 29.8678C39.9766 29.727 39.8306 29.5349 39.6543 29.5138C37.1529 29.2126 36.2801 29.4668 33.9654 28.2845C33.9352 28.202 33.9061 28.1187 33.878 28.0352C33.5914 27.1752 33.5142 26.3163 33.5106 25.4154C33.4971 22.0344 34.854 5.0498 36.1154 2.63305C36.6186 1.66895 37.6207 1.11676 38.6227 0.815248Z" fill="#B86239"/>
<path d="M80.6893 26.9638C80.7182 27.6418 80.7845 27.9869 81.3712 28.4155C79.5118 29.3112 77.8766 29.0735 75.8181 29.1941C75.7049 31.2576 75.7053 32.171 76.1634 34.182C77.2743 34.1057 78.6453 33.8552 79.5992 34.2777C80.0271 34.8573 79.9161 34.6211 79.9454 35.3878C79.6556 35.9727 79.8447 35.7782 79.1611 36.0799C78.6251 36.9238 78.0558 37.5867 78.2321 38.5753C79.0474 40.0196 80.0968 40.0528 80.7279 40.8548C79.8228 41.4123 73.7747 41.2843 72.2137 41.314C65.3366 41.4357 58.4584 41.4838 51.5801 41.4584C49.073 41.4517 38.2781 41.6716 36.5768 40.6082L35.7753 40.1063C36.3135 38.5486 37.2559 38.5885 37.1711 37.2873C36.5981 36.5827 36.3089 36.3473 35.4864 36.0549C35.8606 33.7784 37.7734 34.1777 39.733 34.068C39.9324 33.0653 40.0059 30.956 40.069 29.8678L40.3571 29.5583L40.7772 29.5572C41.1914 29.9919 41.1893 30.13 41.2786 30.7106L41.4804 29.9352C42.0916 29.4737 52.1442 29.8474 53.6163 29.8684C58.2851 29.9192 62.9542 29.8979 67.6221 29.8043C68.9371 29.7847 72.8588 29.8299 73.9079 29.4982C72.0148 28.7579 61.3139 30.638 60.1348 28.2992C61.8982 28.3285 72.5052 27.9465 73.7457 27.5505L73.8254 27.5245C75.281 27.3883 79.9339 27.498 80.6893 26.9638Z" fill="#E3D8BD"/>
<path d="M73.9079 29.4982C74.5807 30.0265 74.2913 32.9195 74.269 33.877C64.9621 34.1566 53.5172 34.4444 44.2175 34.0579C43.3608 33.9755 42.3004 34.0232 41.4246 34.0376C41.4383 32.8533 41.4892 31.8832 41.2786 30.7106L41.4804 29.9352C42.0916 29.4737 52.1442 29.8474 53.6163 29.8684C58.2851 29.9192 62.9542 29.8979 67.6221 29.8044C68.9371 29.7847 72.8588 29.83 73.9079 29.4982Z" fill="#B86239"/>
<path d="M80.6893 26.9638C80.7182 27.6418 80.7845 27.9869 81.3712 28.4155C79.5118 29.3112 77.8766 29.0735 75.8181 29.1941C75.7049 31.2576 75.7053 32.171 76.1634 34.182C77.2743 34.1057 78.6453 33.8552 79.5992 34.2777C80.0271 34.8573 79.9161 34.6211 79.9454 35.3878C79.6556 35.9727 79.8447 35.7782 79.1611 36.0799C78.0304 35.9255 74.6527 36.0851 73.4205 36.1165C70.246 36.1985 67.0707 36.2454 63.8953 36.2573C57.8017 36.2792 51.7082 36.2612 45.615 36.2033C42.2564 36.1623 38.8325 35.9981 35.4864 36.0549C35.8606 33.7784 37.7734 34.1777 39.733 34.068C39.9324 33.0653 40.0059 30.956 40.069 29.8678L40.3571 29.5583L40.7772 29.5572C41.1914 29.9919 41.1893 30.13 41.2786 30.7106C41.4892 31.8832 41.4383 32.8532 41.4246 34.0376C42.3004 34.0231 43.3608 33.9754 44.2174 34.0578C53.5172 34.4443 64.9621 34.1565 74.269 33.8769C74.2913 32.9195 74.5807 30.0264 73.9079 29.4982C72.0148 28.7579 61.3139 30.638 60.1348 28.2992C61.8982 28.3285 72.5052 27.9465 73.7457 27.5505L73.8254 27.5245C75.281 27.3883 79.9339 27.498 80.6893 26.9638Z" fill="#723213"/>
<path d="M33.9654 28.2845C33.9352 28.202 33.9061 28.1187 33.878 28.0352C33.5914 27.1752 33.5142 26.3163 33.5106 25.4154C33.4971 22.0344 34.854 5.0498 36.1154 2.63305C36.6186 1.66895 37.6207 1.11676 38.6227 0.815247C39.5816 0.897444 40.0432 0.761437 41.0131 0.89132C40.1026 1.20786 39.7287 1.30787 38.9474 1.85283L38.9535 2.06862C35.9653 3.99979 36.4141 9.43668 36.1892 12.6747C35.9894 15.5501 34.7572 24.4877 35.7433 26.8755C37.07 28.5998 65.0124 27.9118 69.0612 27.6652C70.3458 27.5869 72.4573 27.4689 73.8254 27.5245L73.7457 27.5505C72.5052 27.9465 61.8982 28.3285 60.1348 28.2992C61.3139 30.638 72.0148 28.7579 73.9079 29.4982C72.8588 29.83 68.9371 29.7847 67.6221 29.8043C62.9542 29.8979 58.2851 29.9192 53.6163 29.8684C52.1442 29.8474 42.0916 29.4737 41.4804 29.9352L41.2786 30.7106C41.1893 30.13 41.1914 29.9919 40.7772 29.5572L40.3571 29.5583L40.069 29.8678C39.9766 29.727 39.8306 29.5349 39.6543 29.5138C37.1529 29.2126 36.2801 29.4668 33.9654 28.2845Z" fill="#7E3515"/>
<path d="M38.6227 0.815248C42.2909 -0.50362 68.7195 0.131508 74.446 0.309262C75.2952 0.335609 77.4776 0.756429 78.2889 1.14051C79.1956 1.56987 79.8553 2.73324 80.1388 3.64855C80.4887 4.7776 81.0229 9.47268 80.9327 10.5297C79.9313 11.9345 81.6714 13.3899 80.6178 14.6235L80.4616 14.2668L80.3588 14.5088L80.518 14.5531C80.2674 14.8541 80.3332 14.688 80.2898 15.0571C79.65 12.575 79.6157 9.74989 79.3311 7.17635C78.9906 4.0998 78.9884 2.32634 75.362 1.87231C72.7024 1.53925 69.9886 1.74131 67.3264 1.57376C59.0452 1.05256 50.8307 1.36168 42.5531 1.57284C41.4457 1.60104 40.1677 1.94727 39.0446 2.06008L38.9535 2.06862L38.9474 1.85283C39.7287 1.30787 40.1026 1.20786 41.0131 0.891321C40.0432 0.761438 39.5816 0.897445 38.6227 0.815248Z" fill="#723213"/>
<path d="M80.2898 15.0571C80.3332 14.688 80.2674 14.8541 80.518 14.5531L80.3588 14.5088L80.4616 14.2668L80.6178 14.6234C81.6714 13.3899 79.9313 11.9345 80.9327 10.5297C81.2608 13.2159 83.1925 26.2348 81.9063 27.9088C81.7558 28.1045 81.5641 28.2639 81.3712 28.4155C80.7845 27.9869 80.7182 27.6418 80.6893 26.9638C81.1674 23.9006 80.8186 18.2216 80.2898 15.0571Z" fill="#3D1F09"/>
</svg>
