<svg width="493" height="618" viewBox="0 0 493 618" fill="none" xmlns="http://www.w3.org/2000/svg">
<path d="M16.4562 540.697C-3.35934 366.15 -6.2298 265.197 16.4562 74.6974H467.956C498.418 255.413 500.938 357.339 467.956 540.697H16.4562Z" fill="#807F7F" stroke="black"/>
<path d="M16.4563 29.1974V76.6973H467.956C467.956 76.6973 472.956 62.6973 467.956 29.1974C462.956 -4.30256 439.149 56.725 426.456 29.1974C409.31 -8.22325 399.116 -7.61703 385.456 29.1974C377.806 44.0789 364.119 50.3014 352.456 29.1974C340.793 8.09335 332.944 -4.56588 312.956 29.1974C292.969 62.9606 281.163 31.6287 276.956 29.1974C260.044 -3.9338 254.156 3.66476 236.456 29.1974C218.756 54.7299 208.138 46.3841 198.956 29.1974C189.774 12.0106 172.112 -25.2074 154.956 29.1974C144.028 47.7354 137.303 49.1986 119.456 29.1974C97.6643 -11.0072 89.7671 -7.07373 80.4563 29.1974C68.1487 43.7584 61.2605 43.4152 48.9563 29.1974C34.2128 -2.37209 27.0626 -2.89877 16.4563 29.1974Z" fill="#807F7F" stroke="black"/>
<path d="M468.678 588.197V540.697L17.1785 540.697C17.1785 540.697 12.1785 554.698 17.1785 588.197C22.1785 621.697 45.9858 560.67 58.6785 588.197C75.8246 625.618 86.0191 625.012 99.6785 588.197C107.328 573.316 121.016 567.093 132.678 588.197C144.341 609.301 152.191 621.961 172.178 588.197C192.166 554.434 203.972 585.766 208.178 588.197C225.091 621.329 230.978 613.73 248.678 588.197C266.378 562.665 276.997 571.011 286.178 588.197C295.36 605.384 313.023 642.602 330.178 588.197C341.107 569.659 347.832 568.196 365.678 588.197C387.47 628.402 395.368 624.469 404.678 588.197C416.986 573.636 423.874 573.98 436.178 588.197C450.922 619.767 458.072 620.294 468.678 588.197Z" fill="#807F7F" stroke="black"/>
<ellipse cx="245.456" cy="307.697" rx="151.5" ry="144" fill="#D9D9D9"/>
<path d="M4.97272 210.697H486.147C491.514 282.341 491.738 321.404 486.147 388.697H4.97272C0.108173 318.758 -0.0715908 279.768 4.97272 210.697Z" fill="#D9D9D9"/>
<path d="M212.015 231.21C215.248 225.355 223.665 225.355 226.898 231.21L277.899 323.589C281.026 329.254 276.929 336.197 270.458 336.197H168.454C161.983 336.197 157.886 329.254 161.014 323.589L212.015 231.21Z" fill="#807F7F" stroke="black"/>
<path d="M298.532 266.044C304.592 263.328 311.286 268.298 310.44 274.884L297.649 374.365C296.821 380.807 289.367 383.978 284.152 380.106L205.417 321.653C200.203 317.781 201.081 309.728 207.008 307.072L298.532 266.044Z" fill="#AEAEAE" stroke="black"/>
</svg>
