<svg width="184" height="243" viewBox="0 0 184 243" fill="none" xmlns="http://www.w3.org/2000/svg">
<path d="M0.390127 22.0492C-0.338456 18.3979 0.166723 11.8948 0.220313 8.07838C0.245912 6.25633 0.562074 3.25151 2.00089 1.99743C3.01077 1.11728 4.71949 0.433361 6.07806 0.324986C10.5205 -0.0296234 15.1322 -0.0021302 19.5856 0.00225261L43.4285 0.225179L64.6223 0.387342C68.4545 0.40567 73.5097 0.300483 77.2395 0.561659C81.4631 0.314229 87.8965 0.548312 92.2526 0.567437L119.773 0.583375L156.214 0.327777C160.476 0.299089 176.975 -0.298766 179.752 1.1372C184.024 3.29235 183.114 7.31498 183.301 11.2599C183.591 17.3787 183.215 21.7812 181.631 27.704C179.456 36.2226 178.02 47.4285 176.859 56.2124C176.475 60.3962 176.053 64.5762 175.594 68.7524C175.632 71.7949 175.125 76.163 175.028 79.4228C174.966 91.5574 173.555 103.401 173.709 115.995C173.779 122.759 173.995 129.52 174.356 136.274C174.686 141.841 175.401 151.513 175.22 156.875C175.473 159.893 175.692 162.914 175.877 165.938C176.252 169.842 176.647 173.744 177.064 177.645C177.744 183.267 178.502 188.915 179.101 194.535C179.203 195.487 179.595 199.057 179.582 199.93C180.822 211.502 183.605 224.884 175.667 234.572C171.704 239.409 166.98 241.608 160.908 242.499C158.227 242.983 149.953 242.811 146.898 242.809L121.621 242.835L60.0861 242.817C49.3006 242.817 38.4994 242.885 27.7141 242.827C26.1498 242.819 23.1267 242.702 21.6656 242.337C8.00496 240.17 1.14437 229.185 2.27563 215.821C2.15554 211.811 2.93654 203.695 3.39164 199.619C4.05011 195.459 4.47834 191.337 5.08065 187.188C5.08261 186.439 5.42685 184.002 5.52469 183.175L6.5069 174.834C6.45415 174.4 6.69887 170.063 6.75319 169.477C7.26487 163.963 7.41329 156.85 8.26594 151.516C8.22968 150.621 8.46755 148.021 8.52134 147.015C8.64107 144.411 8.73988 141.806 8.81758 139.201C9.17677 128.858 9.52799 119.164 9.65649 108.783C9.42281 107.244 9.45249 103.476 9.34332 101.757C8.92018 95.089 9.0174 87.9663 8.40958 81.3508C7.70215 73.6281 6.75628 66.4555 6.48491 58.6339C6.17883 55.1829 5.61902 51.7928 5.23114 48.3528C5.06908 48.0363 4.22047 42.9397 4.11046 42.1998C3.08858 35.3273 1.8912 28.832 0.390127 22.0492Z" fill="#DFDCC9"/>
<path d="M0.390127 22.0492C-0.338456 18.3979 0.166723 11.8948 0.220313 8.07838C0.245912 6.25633 0.562074 3.25151 2.00089 1.99743C3.01077 1.11728 4.71949 0.433361 6.07806 0.324986C10.5205 -0.0296234 15.1322 -0.0021302 19.5856 0.00225261L43.4285 0.225179L64.6223 0.387342C68.4545 0.40567 73.5097 0.300483 77.2395 0.561659C81.4631 0.314229 87.8965 0.548312 92.2526 0.567437L119.773 0.583375L156.214 0.327777C160.476 0.299089 176.975 -0.298766 179.752 1.1372C178.599 1.56652 179.051 0.890371 177.942 1.20852C178.238 1.3685 178.315 1.38065 178.63 1.47448L178.297 1.65856C179.198 2.08987 180.639 2.68075 180.974 3.7117C181.48 5.27059 181.841 14.8494 181.222 15.7101L181.074 16.3047C179.534 16.8081 177.076 16.3489 176.282 16.8667C161.477 17.2373 145.729 16.9765 130.875 16.9789L47.7937 16.9448L19.307 16.9149C13.5036 16.9099 7.26128 16.7982 1.49286 17.0319C1.64698 18.1463 1.84534 20.5541 1.56671 21.6061C0.941843 21.4238 1.17949 21.6165 0.527488 21.7259L0.390127 22.0492Z" fill="#8D9B76"/>
<path d="M2.05332 15.5957C8.42174 15.4182 15.3382 15.5401 21.7612 15.5246L64.3759 15.5357L181.222 15.71L181.074 16.3047C179.534 16.8081 177.076 16.3489 176.282 16.8667C161.477 17.2372 145.729 16.9765 130.875 16.9789L47.7937 16.9448L19.3071 16.9149C13.5036 16.9099 7.26129 16.7982 1.49287 17.0318C1.14412 16.7211 1.10436 16.679 0.986938 16.2288C1.39928 15.7104 1.34211 15.8479 2.05332 15.5957Z" fill="#505A3D"/>
<path d="M0.390127 22.0492C-0.338456 18.3979 0.166723 11.8948 0.220313 8.07838C0.245912 6.25633 0.562074 3.25151 2.00089 1.99743C3.01077 1.11728 4.71949 0.433361 6.07806 0.324986C10.5205 -0.0296234 15.1322 -0.0021302 19.5856 0.00225261L43.4285 0.225179L64.6223 0.387342C68.4545 0.40567 73.5097 0.300483 77.2395 0.561659C81.4631 0.314229 87.8965 0.548312 92.2526 0.567437L119.773 0.583375L156.214 0.327777C160.476 0.299089 176.975 -0.298766 179.752 1.1372C178.599 1.56652 179.051 0.890371 177.942 1.20852C178.238 1.3685 178.315 1.38065 178.63 1.47448L178.297 1.65856C176.117 1.27108 171.678 1.42806 169.297 1.43982L154.366 1.49859L51.7634 1.55716L20.7691 1.56453C15.8418 1.56453 10.6681 1.38941 5.76591 1.64262C4.36398 1.71513 3.0859 2.57835 2.1111 3.56329C2.01571 3.65971 1.92136 3.75713 1.82805 3.85574C1.63066 5.03213 1.40331 14.7476 1.86857 15.5039L2.05331 15.5957C1.34209 15.8479 1.39927 15.7105 0.986928 16.2288C1.10435 16.6791 1.14411 16.7211 1.49286 17.0319C1.64698 18.1463 1.84534 20.5541 1.56671 21.6061C0.941843 21.4238 1.17949 21.6165 0.527488 21.7259L0.390127 22.0492Z" fill="#4A4E38"/>
<path d="M77.2394 0.561653C81.4631 0.314223 87.8964 0.548307 92.2526 0.567432L119.773 0.58337L156.214 0.327771C160.476 0.299084 176.975 -0.298771 179.752 1.1372C178.599 1.56651 179.051 0.890366 177.942 1.20852C178.238 1.36849 178.315 1.38064 178.63 1.47447L178.297 1.65855C176.116 1.27107 171.678 1.42806 169.297 1.43981L154.366 1.49858C153.402 1.31709 150.051 1.37208 148.893 1.37407C145.329 1.39538 141.765 1.3918 138.201 1.36291C115.704 1.07484 93.1409 1.61433 70.6337 1.08401C69.863 1.06588 68.1262 1.22565 67.5231 1.07902C68.4224 1.10134 71.2467 1.27067 71.9398 0.891959C71.1716 0.664052 64.807 0.761071 63.6278 0.744536C67.6309 0.433555 73.4278 1.04974 77.2394 0.561653Z" fill="#2F3022"/>
<path d="M176.282 16.8667C178.071 16.898 179.859 16.9051 181.648 16.8882C181.619 18.5901 181.602 19.9651 181.395 21.6487C168.312 22.155 152.903 21.7147 139.656 21.7235L54.0038 21.7705L24.3086 21.7316C21.7056 21.7348 13.2273 21.58 11.0066 21.8763C8.608 21.6836 3.78037 22.1091 1.56671 21.6061C1.84534 20.554 1.64697 18.1463 1.49286 17.0319C7.26128 16.7982 13.5036 16.9099 19.307 16.9149L47.7937 16.9448L130.875 16.9789C145.729 16.9765 161.477 17.2372 176.282 16.8667Z" fill="#8D9B76"/>
<path d="M179.752 1.1372C184.024 3.29234 183.114 7.31497 183.301 11.2599C183.591 17.3787 183.215 21.7812 181.631 27.704C181.597 25.9083 180.844 26.5946 180.845 24.6914C180.935 24.1774 180.951 24.0479 180.923 23.5278C180.456 23.208 179.66 23.3073 179.04 23.3043L3.58489 23.2479C2.88465 23.277 2.55371 23.1483 2.16203 23.535C2.21901 24.435 2.38408 25.1947 2.56437 26.075C3.91703 32.6807 5.46866 39.2756 6.11929 45.9985C6.16421 46.4626 6.25836 47.0691 6.22187 47.5263C5.78086 48.8628 6.23705 49.6081 6.08353 50.9339C5.93627 50.4215 5.5084 48.3887 5.37829 48.1805L5.23115 48.3528C5.06909 48.0363 4.22048 42.9397 4.11047 42.1998C3.08859 35.3273 1.89121 28.832 0.390137 22.0492L0.527498 21.7259C1.1795 21.6165 0.941853 21.4238 1.56672 21.6061C3.78038 22.1091 8.60801 21.6836 11.0066 21.8763C13.2273 21.58 21.7056 21.7348 24.3086 21.7316L54.0038 21.7705L139.656 21.7235C152.903 21.7147 168.312 22.155 181.395 21.6488C181.602 19.9652 181.619 18.5902 181.648 16.8882C179.859 16.9052 178.071 16.898 176.282 16.8667C177.076 16.3489 179.534 16.8081 181.074 16.3047L181.222 15.71C181.841 14.8494 181.48 5.27058 180.974 3.7117C180.639 2.68074 179.198 2.08986 178.297 1.65855L178.63 1.47447C178.315 1.38064 178.238 1.36849 177.942 1.20852C179.051 0.890364 178.599 1.56651 179.752 1.1372Z" fill="#505A3D"/>
<path d="M0.390137 22.0492L0.527498 21.7258C1.1795 21.6164 0.941853 21.4238 1.56672 21.6061C3.78038 22.1091 8.60801 21.6836 11.0066 21.8762C12.8693 22.0296 14.771 21.8836 16.5003 22.1255C14.6073 22.2245 2.27257 22.0627 1.74504 22.3651C7.00231 23.7943 12.0929 22.0834 15.9283 23.007C13.9793 23.0375 4.86114 22.8879 3.58489 23.2479C2.88465 23.2769 2.55371 23.1482 2.16203 23.5349C2.21901 24.435 2.38408 25.1946 2.56437 26.075C3.91703 32.6807 5.46866 39.2756 6.11929 45.9984C6.16421 46.4626 6.25836 47.069 6.22187 47.5262C5.78086 48.8628 6.23705 49.6081 6.08353 50.9339C5.93627 50.4215 5.5084 48.3887 5.37829 48.1805L5.23115 48.3528C5.06909 48.0362 4.22048 42.9396 4.11047 42.1997C3.08859 35.3273 1.89121 28.832 0.390137 22.0492Z" fill="#444937"/>
<path d="M22.5264 241.297C25.2643 241.024 32.948 241.26 36.1642 241.264C46.8793 241.365 57.5949 241.399 68.3103 241.365C89.3964 241.236 110.483 241.262 131.569 241.445L150.529 241.477C152.231 241.475 157.784 241.321 159.284 241.471L159.267 241.885C159.756 242.313 160.27 242.361 160.908 242.499C158.227 242.983 149.953 242.811 146.898 242.809L121.621 242.835L60.0862 242.817C49.3007 242.817 38.4994 242.885 27.7141 242.827C26.1498 242.819 23.1267 242.702 21.6656 242.337C21.7413 242.274 21.8346 242.086 21.8927 241.989L21.0381 241.63C21.5298 241.57 22.0431 241.421 22.5264 241.297Z" fill="#50513E"/>
<path d="M174.681 67.4774C174.715 68.4755 174.582 69.3543 175.044 70.1248C175.602 69.4734 175.056 68.9546 175.594 68.7524C175.632 71.7949 175.125 76.163 175.028 79.4228C174.966 91.5574 173.555 103.401 173.709 115.995C173.779 122.759 173.995 129.52 174.356 136.274C174.686 141.841 175.401 151.513 175.22 156.875C174.906 158.026 175.241 160.01 174.927 160.45L174.578 160.349C173.979 159.111 174.764 156.834 173.808 156.038C173.59 155.472 173.231 149.828 173.143 148.641C171.792 130.755 171.503 112.805 172.277 94.8853C172.405 92.1843 172.9 83.0029 173.448 80.4458C173.714 76.1106 174.125 71.7853 174.681 67.4774Z" fill="#6D705D"/>
<path d="M174.681 67.4774C174.715 68.4755 174.582 69.3543 175.044 70.1248C175.602 69.4734 175.056 68.9546 175.594 68.7524C175.632 71.7949 175.125 76.163 175.028 79.4228C174.667 77.9842 174.523 77.2097 174.777 75.7097C174.881 75.0918 175.016 74.9878 174.759 74.5806L174.351 74.6407C174.199 76.3486 173.947 79.2265 173.655 80.9087L173.435 80.934L173.535 81.2369L173.633 80.9472L173.437 80.8671L173.448 80.4458C173.714 76.1106 174.125 71.7853 174.681 67.4774Z" fill="#2F311F"/>
<path d="M10.6574 101.599C10.9907 118.935 10.711 136.277 9.81886 153.593L9.62661 153.552C9.18295 153.059 9.74814 151.92 9.6041 150.762L9.26563 150.535L8.85564 150.705C8.4054 151.471 8.38468 152.266 8.40341 153.151L8.40719 153.274L8.26595 151.516C8.22969 150.621 8.46756 148.021 8.52135 147.015C8.64108 144.411 8.73989 141.806 8.81758 139.201C9.17678 128.858 9.528 119.164 9.6565 108.783C9.9868 106.858 9.37819 103.411 10.6574 101.599Z" fill="#3E4031"/>
<path d="M178.525 200.364L178.747 199.993L178.786 200.322C179.152 200.139 179.036 200.203 179.266 199.77L179.582 199.93C180.822 211.502 183.605 224.884 175.667 234.572C171.704 239.409 166.98 241.608 160.908 242.499C160.27 242.361 159.756 242.313 159.267 241.885L159.284 241.471C159.917 241.439 160.595 241.399 161.222 241.319C166.813 240.616 171.898 237.725 175.362 233.281C182.08 224.557 179.827 210.594 178.525 200.364Z" fill="#111109"/>
<path d="M8.26589 151.516L8.40714 153.274L8.40335 153.151C8.38463 152.266 8.40534 151.471 8.85558 150.705L9.26557 150.535L9.60404 150.762C9.74808 151.92 9.1829 153.059 9.62656 153.552L9.8188 153.593C9.47714 158.99 8.97591 164.377 8.3159 169.744C8.17525 170.977 7.85211 174.565 7.57879 175.647L7.35905 175.213C7.23653 175.543 7.11839 175.874 7.00484 176.209C6.61768 175.537 6.99866 175.537 6.84994 174.641L6.50685 174.834C6.4541 174.4 6.69882 170.063 6.75314 169.477C7.26482 163.963 7.41324 156.85 8.26589 151.516Z" fill="#5E624E"/>
<path d="M6.48486 58.6339L6.83113 58.815C6.89448 58.1345 6.81441 57.2306 6.77423 56.5301L6.97835 56.4941C7.35627 57.4051 7.05764 58.0392 7.50528 58.6387L7.67322 58.5992C8.8259 62.5772 9.87698 76.2998 9.93934 80.5077L9.67457 79.7694L9.25881 79.5993C8.72809 79.9425 8.63087 80.2284 8.50297 80.8442C8.46851 81.0125 8.43743 81.1813 8.40954 81.3508C7.70211 73.6281 6.75624 66.4554 6.48486 58.6339Z" fill="#676A56"/>
<path d="M2.27562 215.821L2.57456 214.869C3.22037 215.807 2.71657 219.469 3.27627 220.092C4.76521 232.34 9.79493 239.401 22.5264 241.297C22.0431 241.421 21.5297 241.57 21.038 241.63L21.8927 241.989C21.8345 242.086 21.7413 242.273 21.6656 242.337C8.00495 240.17 1.14435 229.185 2.27562 215.821Z" fill="#111109"/>
<path d="M8.40955 81.3508C8.43744 81.1812 8.46852 81.0125 8.50298 80.8442C8.63088 80.2284 8.7281 79.9425 9.25882 79.5992L9.67458 79.7694L9.93935 80.5077C10.1675 85.0437 10.3667 89.5809 10.537 94.1195C10.6051 96.0623 10.795 99.7146 10.6573 101.599C9.37815 103.411 9.98676 106.858 9.65646 108.783C9.42277 107.244 9.45246 103.476 9.34328 101.757C8.92014 95.0889 9.01736 87.9662 8.40955 81.3508Z" fill="#444937"/>
<path d="M180.845 24.6914C180.844 26.5945 181.597 25.9082 181.631 27.704C179.456 36.2226 178.02 47.4284 176.859 56.2124C176.784 55.5998 176.727 54.1331 176.328 53.7967L175.856 54.3911C177.011 44.5184 178.998 34.4581 180.845 24.6914Z" fill="#111109"/>
<path d="M177.064 177.645C177.744 183.267 178.502 188.915 179.101 194.535C179.203 195.487 179.595 199.057 179.582 199.93L179.266 199.77C179.036 200.203 179.152 200.139 178.786 200.322L178.747 199.993L178.525 200.364C177.985 199.266 175.778 179.926 175.809 178.047C176.053 178.653 176.22 179.82 176.6 180.081C176.942 179.169 176.719 178.9 177.015 177.822L177.064 177.645Z" fill="#444937"/>
<path d="M2.27564 215.821C2.15555 211.811 2.93655 203.695 3.39164 199.619L4.09951 200.609L4.98965 200.424C4.25703 206.149 3.45258 211.869 3.31235 217.64C3.29408 218.393 3.34676 219.365 3.27629 220.093C2.71659 219.469 3.22039 215.807 2.57459 214.869L2.27564 215.821Z" fill="#4A4B3B"/>
<path d="M5.08068 187.188L5.12266 187.361C5.43658 188.694 5.05769 188.726 5.524 190.102C5.68194 189.379 5.89387 187.638 6.24489 187.192C6.09433 189.347 5.45214 198.704 4.98968 200.424L4.09953 200.609L3.39166 199.619C4.05014 195.459 4.47836 191.337 5.08068 187.188Z" fill="#525343"/>
<path d="M175.856 54.3912L176.327 53.7967C176.727 54.1332 176.783 55.5998 176.859 56.2124C176.475 60.3962 176.053 64.5762 175.594 68.7524C175.056 68.9546 175.602 69.4734 175.044 70.1249C174.582 69.3543 174.715 68.4755 174.681 67.4774C174.868 63.4869 175.492 58.5034 175.856 54.3912Z" fill="#111109"/>
<path d="M175.038 168.19C175.103 167.74 175.127 166.917 175.154 166.432C174.691 165.626 174.795 164.563 175.336 163.823C175.348 164.813 175.706 166.538 175.748 168.098C175.845 167.358 175.855 166.683 175.877 165.938C176.252 169.842 176.647 173.744 177.064 177.645L177.015 177.822C176.719 178.9 176.942 179.169 176.6 180.081C176.22 179.82 176.053 178.653 175.809 178.047C175.555 174.938 175.155 171.267 175.038 168.19Z" fill="#111109"/>
<path d="M6.50694 174.834L6.85003 174.641C6.99875 175.537 6.61776 175.537 7.00492 176.209C7.11848 175.874 7.23661 175.543 7.35913 175.213L7.57887 175.647C7.03341 179.285 6.5869 183.5 6.2449 187.192C5.89388 187.638 5.68195 189.379 5.52401 190.102C5.0577 188.726 5.43659 188.694 5.12266 187.361L5.08069 187.188C5.08264 186.438 5.42689 184.002 5.52473 183.175L6.50694 174.834Z" fill="#111109"/>
<path d="M6.22185 47.5262C6.58987 49.8402 7.60752 56.4429 7.67326 58.5992L7.50532 58.6387C7.05768 58.0392 7.35631 57.4051 6.97839 56.4941L6.77427 56.5301C6.81445 57.2306 6.89452 58.1344 6.83116 58.815L6.4849 58.6339C6.17882 55.1828 5.61902 51.7927 5.23114 48.3528L5.37828 48.1805C5.50839 48.3887 5.93625 50.4215 6.08352 50.9339C6.23703 49.6081 5.78084 48.8628 6.22185 47.5262Z" fill="#2F311F"/>
<path d="M173.808 156.038C174.764 156.834 173.979 159.111 174.578 160.349L174.927 160.45C175.241 160.01 174.906 158.026 175.22 156.875C175.473 159.893 175.692 162.914 175.877 165.938C175.855 166.683 175.845 167.358 175.748 168.098C175.706 166.538 175.348 164.813 175.336 163.823C174.795 164.563 174.691 165.627 175.154 166.432C175.127 166.917 175.103 167.74 175.038 168.19C174.598 166.52 173.905 158.015 173.808 156.038Z" fill="#2F311F"/>
<path d="M80.2335 40.7026C90.6355 34.1364 102.131 35.5911 112.354 41.7836C114.098 42.8401 116.636 45.2743 118.57 45.7799C128.957 48.4951 148.549 48.6541 149.378 62.9891C149.66 67.7412 148.031 70.1858 145.051 73.674C147.227 77.1005 145.628 86.2066 144.484 89.8394C144.833 94.5814 144.785 99.1721 144.823 103.923L144.982 119.25C145.006 124.032 145.166 128.93 144.787 133.687C144.667 135.177 143.388 137.051 142.473 138.217C137.854 144.106 130.371 140.805 124.633 142.307C122.575 143.441 120.151 144.997 117.984 145.852C112.061 148.19 104.593 147.741 98.3283 147.151C96.9183 147.018 92.8658 145.895 92.0424 145.875C80.2379 150.624 73.4332 152.587 62.3078 144.518C61.8996 144.379 59.6492 142.855 58.4709 142.351C53.49 141.409 46.4424 142.761 42.1046 140.601C34.7738 136.951 37.6927 128.863 36.0436 123.953C31.5203 115.969 30.1569 111.519 29.4588 102.449C29.2985 98.1141 29.4144 94.4248 30.4244 90.1973C30.8966 86.7146 34.3498 81.6238 36.1245 78.4767C36.9108 75.762 37.1311 76.4523 36.9819 73.1719C28.6257 68.1652 29.5108 56.6473 37.9963 52.3777C38.7066 52.0201 41.5363 50.3919 41.8482 49.9249C44.1534 46.4752 46.6655 43.4808 50.2164 41.2238C59.4329 34.787 70.2164 38.6399 80.2335 40.7026Z" fill="#93825B"/>
<path d="M141.27 96.6133C143.213 97.2901 142.366 99.154 142.714 100.902L143.018 117.631C143.13 122.735 143.415 128.167 142.661 133.216C142.278 135.782 138.65 140.229 135.701 139.3C135.806 138.441 136.316 137.073 136.574 136.163C137.601 132.538 137.429 128.868 137.463 125.139L137.526 111.937C137.522 110.154 137.478 108.828 138.106 107.142C139.626 103.53 140.037 100.176 141.27 96.6133Z" fill="#D8AD77"/>
<path d="M121.033 142.188C122.106 141.961 123.751 141.454 124.633 142.307C122.575 143.441 120.151 144.997 117.984 145.852C112.061 148.189 104.593 147.741 98.3283 147.151C96.9182 147.018 92.8657 145.895 92.0424 145.875C92.8165 145.218 94.1258 144.031 95.1346 143.959C97.0037 145.896 111.888 145.303 114.801 144.411C116.642 143.847 119.187 142.953 121.033 142.188Z" fill="#8D6B44"/>
<path d="M97.9448 141.992C101.049 141.867 119.576 141.208 121.033 142.188C119.187 142.953 116.642 143.847 114.801 144.411C111.888 145.303 97.0037 145.896 95.1346 143.959C95.6604 143.824 96.0909 143.575 96.5766 143.331L97.9448 141.992Z" fill="#D8AD77"/>
<path d="M62.3078 144.517L62.4875 144.305C61.8952 143.347 61.8769 144.537 60.9864 142.926C61.5183 142.809 61.9907 143.572 62.8668 143.51C64.4916 143.967 66.3135 145.386 67.9861 146.057C72.7341 147.964 78.3953 147.751 83.366 146.959C86.8508 146.269 92.0966 143.26 95.9437 142.928C96.2549 142.901 96.3917 143.128 96.5766 143.331C96.0909 143.575 95.6604 143.824 95.1347 143.959C94.1258 144.031 92.8166 145.218 92.0424 145.875C80.2379 150.624 73.4332 152.587 62.3078 144.517Z" fill="#505A3D"/>
<path d="M143.214 73.5349L143.161 72.5589L143.42 72.378C143.975 72.5635 144.712 73.2002 145.051 73.6739C147.227 77.1005 145.628 86.2066 144.484 89.8393C144.413 91.7897 142.827 91.6837 142.44 93.8006C141.891 94.9037 141.67 95.4565 141.27 96.6133C140.037 100.176 139.626 103.53 138.106 107.142C137.219 105.82 139.681 97.3776 140.344 95.6537C142.607 90.8808 143.862 85.693 144.033 80.4137C144.071 78.85 144.25 74.6216 143.214 73.5349Z" fill="#515938"/>
<path d="M30.4244 90.1973C30.6599 91.2821 31.1402 91.8401 31.3155 92.5523C30.6737 95.5278 30.5456 97.9214 30.6105 100.975C31.9032 109.956 31.8951 110.917 35.4416 119.533C35.7663 120.69 36.5823 122.916 36.0436 123.953C31.5203 115.969 30.1569 111.519 29.4588 102.449C29.2985 98.1141 29.4144 94.4247 30.4244 90.1973Z" fill="#505A3D"/>
<path d="M30.4244 90.1973C30.6599 91.2821 31.1402 91.8401 31.3155 92.5523C30.6737 95.5278 30.5456 97.9214 30.6105 100.975L30.496 102.286L30.3802 102.272C30.3587 101.616 30.3577 97.2098 30.1914 96.9212C29.4487 97.7686 29.9786 101.047 29.7401 102.596C29.6407 102.552 29.5256 102.517 29.4588 102.449C29.2985 98.1141 29.4144 94.4247 30.4244 90.1973Z" fill="#2F311F"/>
<path d="M143.052 82.7129C143.426 81.0783 143.413 74.2813 142.486 73.0565L142.377 72.9153L142.462 72.7189L143.213 73.5349C144.25 74.6216 144.071 78.85 144.033 80.4137C143.862 85.693 142.607 90.8809 140.344 95.6537L140.174 95.6352L140.12 95.2017C140.86 94.0171 142.796 88.6815 142.495 87.4378L142.139 87.5182C141.994 87.1519 142.583 85.8448 142.765 85.3464C142.941 85.5336 142.986 85.4976 143.266 85.5842C143.509 85.0186 143.342 84.6913 142.948 84.3034C142.405 84.3291 142.158 84.372 141.625 84.4801C140.467 83.6378 141.614 82.2397 142.082 81.3018C142.607 80.2511 142.095 78.2751 142.72 77.4938L142.924 77.6623C143.144 79.0415 143.062 81.25 143.052 82.7129Z" fill="#8D9B76"/>
<path d="M36.1245 78.4767C36.4014 78.7052 36.6385 78.7936 36.6152 79.0861C36.4576 81.0534 34.3494 83.7327 33.7243 85.4856C32.4634 88.0258 31.9044 89.7572 31.3155 92.5523C31.1402 91.8401 30.6599 91.2821 30.4244 90.1973C30.8966 86.7146 34.3498 81.6237 36.1245 78.4767Z" fill="#444937"/>
<path d="M33.7243 85.4856C33.7759 86.4319 32.9523 88.2013 32.6097 89.2229C31.8257 91.5604 30.5754 97.061 31.1026 99.4787L31.7636 99.8331C32.0963 100.983 31.4301 100.447 31.8861 101.291C31.9493 100.325 31.7855 100.412 32.3102 99.8317L32.7987 99.7634C33.3795 100.531 33.3721 102.476 32.7358 103.166C32.4834 103.047 32.2853 102.94 32.013 102.869L31.7676 102.971C31.412 102.257 31.2865 101.403 31.1303 100.615C30.8308 103.799 32.1142 108.576 32.7928 111.706C33.1597 113.398 35.7541 118.332 35.4416 119.533C31.8951 110.917 31.9032 109.956 30.6105 100.975C30.5456 97.9214 30.6737 95.5278 31.3155 92.5523C31.9044 89.7572 32.4634 88.0258 33.7243 85.4856Z" fill="#8D9B76"/>
<path d="M142.44 93.8006C142.919 94.2825 142.839 94.3369 142.825 95.2015C142.796 97.1044 142.718 98.9962 142.714 100.902C142.366 99.154 143.213 97.2901 141.27 96.6134C141.67 95.4565 141.891 94.9037 142.44 93.8006Z" fill="#BEA479"/>
<path d="M58.4708 142.351C59.9006 141.473 61.8291 142.42 62.8668 143.51C61.9906 143.572 61.5183 142.809 60.9864 142.926C61.8769 144.537 61.8952 143.347 62.4875 144.305L62.3078 144.518C61.8996 144.379 59.6492 142.855 58.4708 142.351Z" fill="#594C24"/>
<path d="M79.7133 46.8949C83.0104 46.727 86.3423 46.7722 89.6442 46.8069C100.576 46.9216 129.735 48.819 137.218 56.5323C139.001 58.3707 140.192 60.7825 140.118 63.3847C140.005 67.4137 137.312 69.9689 134.63 72.5581C134.399 77.9613 134.62 84.7824 134.647 90.2961L134.688 116.323L134.784 127.083C134.817 131.119 135.649 138.119 129.901 138.981C126.307 139.52 121.785 139.263 118.087 139.265L94.843 139.228L61.4898 139.254C56.039 139.255 50.4806 139.426 45.0594 139.002C42.6355 138.813 40.0744 135.659 39.8345 133.406C39.4132 129.447 39.7903 125.321 39.703 121.31C39.55 110.912 39.5203 100.512 39.614 90.1138C39.6726 84.2056 39.8451 78.7094 39.765 72.7613C37.021 70.1266 34.1462 67.6203 33.9115 63.5239C33.7687 61.0341 34.6975 58.8401 36.3412 57.0039C43.5737 48.9242 69.229 47.4661 79.7133 46.8949Z" fill="#F4D6B4"/>
<path d="M59.3396 40.1073C64.6888 39.7216 69.8102 40.7966 75.0046 41.964C75.859 42.1561 77.2996 42.5079 77.7606 43.2606L77.6096 43.6536C76.1824 44.5848 71.8197 44.5935 69.9793 44.7165C67.1984 44.889 64.4285 45.2059 61.6804 45.6657C57.5869 46.0108 49.9184 47.8432 45.8973 48.9881C49.6227 44.5569 53.4077 40.8954 59.3396 40.1073Z" fill="#D8AD77"/>
<path d="M138.959 53.5953C145.214 56.9208 149.052 61.8615 145.163 69.2891C144.812 69.9595 143.631 71.6266 142.953 71.9381L142.025 71.7981C139.988 69.8677 141.158 68.5066 142.209 66.2722C142.952 61.265 142.96 58.9754 139.88 54.8229L138.959 53.5953Z" fill="#D8AD77"/>
<path d="M142.209 66.2721C142.106 67.4746 142.214 71.0824 142.025 71.798C139.988 69.8676 141.158 68.5065 142.209 66.2721Z" fill="#BEA479"/>
<path d="M50.5424 164.613C51.3185 163.447 51.5737 161.29 52.1005 159.929C53.0657 157.436 54.4441 153.118 56.959 151.869C58.0722 151.316 60.0469 153.803 60.7079 154.514C55.9034 161.062 55.1328 163.147 53.7853 171.374C56.1217 170.213 58.3378 168.843 60.6651 167.663C64.5293 165.703 67.9742 165.389 72.1837 165.715C83.0965 166.56 90.6308 175.611 91.9331 186.092C92.0157 186.755 92.1793 187.638 92.1687 188.301C92.5124 190.244 92.7178 198.967 91.8052 200.344C91.1673 210.962 83.0146 230.645 69.9315 230.5C67.2218 230.514 64.0171 228.872 61.3687 229.39C58.7271 229.906 56.464 231.914 54.0347 232.898C40.5685 238.361 25.8827 219.164 21.1355 209.135C15.0697 196.324 15.805 178.442 30.2834 172.024C36.403 169.311 44.4977 169.889 50.698 172.328C50.5149 171.033 50.4013 170.026 50.3212 168.721C50.5268 167.852 50.5408 168.212 50.2665 167.359L49.8842 165.407C50.1595 165.15 50.3163 164.915 50.5424 164.613Z" fill="#683416"/>
<path d="M92.1687 188.301C92.5123 190.244 92.7177 198.967 91.8051 200.344L91.5238 200.081C91.7818 199.262 91.2465 198.222 91.3176 197.868C91.5979 196.463 92.0804 196.364 92.1607 194.73C92.2476 192.965 91.6194 189.789 92.1687 188.301Z" fill="#814929"/>
<path d="M68.1636 166.822C71.596 166.343 75.823 167.595 78.887 169.047C83.0007 170.998 87.6964 175.683 89.0165 180.195C91.1567 187.512 90.7015 198.969 89.2517 206.502C88.6668 209.542 86.6902 214.343 85.3743 216.943C82.1912 223.228 76.2599 230.456 68.3497 229C66.3633 228.635 63.1704 227.629 61.3561 227.926C58.0599 228.468 55.156 231.265 51.9484 232.299C48.386 233.446 45.1455 232.026 42.0235 230.402C35.0415 227.229 28.302 218.885 24.6674 212.291C20.4386 204.617 17.337 195.154 19.8617 186.427C21.3982 181.115 24.2006 177.091 29.0231 174.284C33.5348 171.659 40.8436 171.575 45.7888 172.658C47.9166 173.123 50.5471 174.073 52.7417 174.685C54.0149 174.071 55.5611 172.913 56.6687 172.033C60.7441 168.795 63.0019 167.494 68.1636 166.822Z" fill="#B66139"/>
<path d="M129.255 190.1C129.313 187.425 128.419 185.968 129.658 183.139C131.383 179.197 135.255 178.717 138.18 181.721C140.584 184.263 140.83 187.867 140.751 191.25C142.956 190.809 145.451 190.552 147.156 191.995C152.731 196.78 146.799 200.609 143.236 203.623C140.641 205.818 141.72 210.333 136.781 211.383C129.417 212.95 130.887 203.137 130.197 202.894C126.179 203.402 120.779 202.242 121.709 196.758C122.223 193.72 126.66 191.642 129.255 190.1Z" fill="#5C3414"/>
<path d="M133.221 181.301C134.056 181.382 135.208 181.462 136.003 181.635C138.545 183.839 139.339 186.162 139.572 189.471C139.623 190.184 139.644 190.897 139.633 191.612C137.036 193.622 135.286 194.917 133.315 197.641C132.623 198.597 131.187 200.874 130.539 201.609L130.538 201.81L129.813 202.091L129.732 202.366L130.197 202.894C126.179 203.402 120.779 202.242 121.709 196.758C122.223 193.72 126.66 191.642 129.255 190.1C129.708 190.538 129.748 190.612 130.004 191.19C132.748 188.582 128.543 184.151 133.221 181.301Z" fill="#D8AD77"/>
<path d="M129.255 190.1C129.708 190.538 129.748 190.612 130.004 191.19C128.108 192.385 123.275 194.86 123.066 197.332C122.709 201.529 127.298 202.159 130.539 201.609L130.538 201.81L129.813 202.091L129.732 202.366L130.197 202.894C126.179 203.402 120.779 202.243 121.709 196.758C122.223 193.72 126.66 191.642 129.255 190.1Z" fill="#683416"/>
<path d="M142.448 192.467C144.238 192.315 146.607 192.535 147.514 194.395C149.614 198.706 143.76 200.882 141.748 203.565C139.928 205.992 140.531 208.052 137.462 209.687C133.305 210.741 131.491 208.791 131.914 204.785C132.56 198.675 136.85 194.252 142.448 192.467Z" fill="#D8AD77"/>
<path d="M107.642 210.705C103.822 207.143 107.542 204.818 111.445 205.121C112.391 205.195 113.908 205.448 114.801 205.741C120.288 206.576 127.51 210.548 131.067 214.937C132.124 216.242 132.943 218.951 131.854 220.419C130.537 221.222 129.31 221.318 127.803 221.021C127.193 221.19 127.365 221.045 127.098 221.511C127.684 222.248 128.45 223.629 128.428 224.487C128.242 231.637 114.346 226.135 111.426 224.356C107.644 222.051 101.925 218.867 102.64 213.763C102.785 212.723 103.985 211.917 104.791 211.432C106.094 211.185 106.695 211.859 107.642 210.705Z" fill="#5A230A"/>
<path d="M107.642 210.705C103.822 207.143 107.542 204.818 111.445 205.121C112.391 205.195 113.908 205.448 114.801 205.741C120.288 206.576 127.51 210.548 131.067 214.937C132.124 216.242 132.943 218.951 131.854 220.419C130.537 221.222 129.31 221.318 127.803 221.021C124.444 217.24 113.086 213.873 107.642 210.705Z" fill="#B66139"/>
<path d="M107.642 210.705C103.822 207.143 107.542 204.818 111.445 205.121C112.391 205.195 113.908 205.448 114.801 205.741L115.634 206.289C114.883 206.761 113.001 206.177 111.463 206.358C108.617 206.251 108.12 205.91 107.638 208.954C112.032 212.064 117.664 213.925 122.551 216.23C124.146 216.983 129.042 219.754 130.285 219.84L130.507 220.399C131.055 220.573 131.288 220.495 131.854 220.419C130.537 221.222 129.31 221.318 127.803 221.021C124.444 217.24 113.086 213.873 107.642 210.705Z" fill="#5A230A"/>
<path d="M114.801 205.741C120.288 206.576 127.51 210.548 131.067 214.937C132.124 216.242 132.943 218.951 131.854 220.419C131.287 220.495 131.055 220.573 130.507 220.399L130.285 219.839C131.882 213.02 122.004 209.896 117.204 207.896C115.474 207.177 113.22 207.022 111.463 206.358C113.001 206.177 114.883 206.761 115.634 206.289L114.801 205.741Z" fill="#683416"/>
<path d="M114.089 208.705C115.904 208.586 123.283 212.458 124.764 213.777C124.666 213.771 124.459 213.761 124.369 213.728C121.569 212.674 115.651 211.47 114.089 208.705Z" fill="#773113"/>
<path d="M107.642 210.705C113.086 213.873 124.444 217.24 127.803 221.021C127.193 221.19 127.365 221.045 127.098 221.511C120.226 219.051 113.437 214.463 106.69 211.662C106.285 211.494 105.26 211.452 104.791 211.432C106.094 211.185 106.695 211.859 107.642 210.705Z" fill="#B66139"/>
<path d="M107.601 219.939C106.291 218.555 104.058 216.853 104.094 214.783C104.105 214.172 104.263 213.58 104.724 213.156C105.028 212.877 105.6 212.839 105.996 212.873C106.735 212.937 107.401 213.148 108.081 213.433C110.363 214.389 125.463 221.824 126.507 223.093C126.903 223.573 127.054 223.999 127.025 224.623C125.731 227.776 117.261 225.595 114.887 224.583C114.629 224.463 114.783 224.555 114.606 224.42C111.69 222.186 110.495 222.842 107.601 219.939Z" fill="#B66139"/>
<path d="M107.902 218.744L108.039 218.176C109.898 217.499 113.126 220.804 114.643 221.638C115.828 222.29 116.772 221.493 117.509 223.013C117.223 223.82 116.637 223.786 115.841 223.886C115.524 224.071 115.055 224.284 114.887 224.583C114.629 224.463 114.783 224.555 114.606 224.42C111.69 222.186 110.495 222.842 107.601 219.939C107.733 219.662 107.834 219.069 107.902 218.744Z" fill="#5A230A"/>
<path d="M107.902 218.744C108.891 220.176 114.842 222.555 115.841 223.886C115.524 224.071 115.055 224.284 114.887 224.583C114.629 224.463 114.783 224.555 114.606 224.42C111.69 222.186 110.495 222.842 107.601 219.939C107.733 219.662 107.834 219.069 107.902 218.744Z" fill="#8D6B44"/>
<path d="M154.094 201.517C160.535 198.76 159.506 205.781 156.629 209.371L157.446 209.51L158.334 208.857C161.364 206.655 165.703 204.948 164.578 211.128C163.653 216.21 157.643 222.192 153.541 224.936C149.852 227.408 143.605 230.002 140.512 225.342C139.655 224.051 139.039 221.186 139.511 219.666C139.662 214.759 142.96 210.606 145.936 206.958C147.916 204.532 151.174 202.549 154.094 201.517Z" fill="#B66139"/>
<path d="M158.334 208.857C161.364 206.655 165.703 204.948 164.578 211.128C163.653 216.21 157.643 222.192 153.541 224.936C149.852 227.408 143.605 230.002 140.512 225.342C139.655 224.051 139.039 221.186 139.511 219.666C139.718 219.646 139.902 219.59 140.098 219.521L140.479 219.658C140.574 220.238 140.604 220.736 140.895 221.24L141 221.597L140.788 221.8C140.585 223.314 142.762 225.509 144.035 226.185C144.538 226.189 145.041 226.179 145.544 226.159C152.725 225.914 163.696 216.385 163.424 209.187C162.752 207.95 161.189 208.849 160.133 209.263C159.475 208.831 159.124 208.877 158.334 208.857Z" fill="#5A230A"/>
<path d="M139.511 219.666C139.662 214.759 142.96 210.606 145.936 206.958C147.916 204.532 151.174 202.549 154.094 201.517L154.182 201.85L153.695 202.135L153.837 202.376L153.965 202.171L154.021 202.549L154.351 202.697C148.327 204.41 141.206 213.63 140.479 219.658L140.098 219.521C139.902 219.59 139.718 219.646 139.511 219.666Z" fill="#401405"/>
<path d="M140.895 221.24C142.753 219.312 144.798 217.642 146.769 215.564C149.741 212.433 153.133 205.464 156.338 203.647C154.973 206.386 152.714 208.773 151.119 211.333C148.694 215.224 146.005 220.551 141 221.597L140.895 221.24Z" fill="#601B06"/>
<path d="M154.094 201.517C160.535 198.76 159.506 205.781 156.629 209.371L157.446 209.51C156.559 210.44 155.625 211.227 154.49 211.847C154.491 210.693 154.596 210.353 155.239 209.42C156.003 207.948 158.263 204.191 156.975 202.677C156.04 202.159 155.353 202.428 154.351 202.697L154.021 202.549L153.965 202.171L153.837 202.376L153.695 202.135L154.182 201.85L154.094 201.517Z" fill="#5A230A"/>
<path d="M155.239 209.42C155.851 209 156.008 208.743 156.397 208.115L156.648 208.368C156.619 208.932 156.119 209.44 155.751 209.926C156.156 209.863 156.305 209.659 156.629 209.371L157.446 209.51C156.559 210.44 155.625 211.227 154.49 211.847C154.491 210.693 154.596 210.353 155.239 209.42Z" fill="#521608"/>
<path d="M158.334 208.857C159.124 208.877 159.475 208.831 160.133 209.263C158.313 210.45 157.44 211.092 155.87 212.578C152.697 215.58 149.824 219.854 145.95 221.854C146.323 221.216 153.743 212.486 154.489 211.847C155.625 211.227 156.559 210.44 157.446 209.51L158.334 208.857Z" fill="#5A230A"/>
<path d="M159.279 212.297L159.537 212.389C159.453 213.58 153.801 218.236 152.652 219.595C151.397 221.077 150.511 222.184 149.397 223.846C147.546 222.441 151.031 219.702 152.058 218.634C154.287 216.317 156.756 214.287 159.279 212.297Z" fill="#5A230A"/>
<path d="M25.5362 150.33C30.737 149.293 38.0784 149.795 42.6206 152.74C47.5397 155.931 49.2171 159.109 50.5423 164.613C50.3162 164.915 50.1594 165.15 49.8841 165.407L50.2664 167.359C50.5407 168.212 50.5268 167.852 50.3212 168.721C45.0815 169.703 39.5586 168.378 35.0104 165.638C29.8839 162.931 26.0448 155.987 25.5362 150.33Z" fill="#8D9B76"/>
<path d="M25.5362 150.33C30.737 149.293 38.0784 149.795 42.6206 152.74C47.5397 155.931 49.2171 159.109 50.5423 164.613C50.3162 164.915 50.1594 165.15 49.8841 165.407C49.3229 162.363 47.2879 157.997 44.8985 155.912C39.6777 151.357 34.2048 151.302 27.782 151.595C28.9064 157.386 30.775 160.891 35.5362 164.594L35.0104 165.638C29.8839 162.931 26.0448 155.987 25.5362 150.33Z" fill="#4D5539"/>
<path d="M35.5362 164.594C40.3719 167.553 44.6885 167.322 50.2665 167.359C50.5408 168.212 50.5269 167.852 50.3213 168.721C45.0816 169.703 39.5587 168.378 35.0105 165.638L35.5362 164.594Z" fill="#4A4E34"/>
<path d="M141.467 163.834C144.937 163.846 147.262 164.947 149.85 167.099C155.032 171.41 157.786 181.964 150.081 185.235C149.509 185.476 148.89 185.504 148.275 185.528C143.493 184.273 144.012 181.747 143.782 177.673C143.57 173.908 138.014 175.153 135.933 172.9C135.113 172.223 134.244 171.274 134.193 170.103C133.996 165.602 137.691 164.167 141.467 163.834Z" fill="#683416"/>
<path d="M139.836 165.574C142.086 165.45 143.551 165.353 145.724 166.155C148.619 167.245 150.955 169.453 152.207 172.281C153.997 176.274 154.134 181.98 149.407 183.958C144.478 184.369 145.459 179.416 144.874 176.34C144.093 172.23 136.942 174.246 136.015 170.378C135.239 167.143 137.182 166.207 139.836 165.574Z" fill="#D8AD77"/>
<path d="M100.972 199.007C98.7644 192.005 108.928 183.446 115.777 183.46C126.016 184.347 116.248 198.854 110.46 200.344C107.641 202.165 102.673 202.711 100.972 199.007Z" fill="#B66139"/>
<path d="M100.972 199.007C98.7644 192.005 108.928 183.446 115.777 183.46C116.608 184.096 117.921 184.201 118.419 184.827C118.163 185.251 118.29 185.112 117.764 185.327C111.177 183.171 100.412 192.515 101.948 198.505C101.663 198.686 101.291 198.975 100.972 199.007Z" fill="#5A230A"/>
<path d="M115.777 183.46C126.016 184.347 116.248 198.854 110.46 200.344C110.192 200.276 110.297 200.348 110.14 200.115C110.42 200.045 110.415 200.015 110.637 199.824C110.099 199.214 110.436 199.956 109.38 199.557C111.841 198.593 113.775 197.061 115.46 195.035C117.289 192.837 120.727 187.769 117.764 185.327C118.29 185.112 118.163 185.251 118.419 184.827C117.921 184.201 116.608 184.096 115.777 183.46Z" fill="#411A04"/>
<path d="M101.948 198.505C104.209 201.097 106.567 199.539 109.38 199.557C110.436 199.956 110.099 199.214 110.638 199.824C110.415 200.015 110.42 200.045 110.14 200.115C110.297 200.348 110.192 200.276 110.46 200.344C107.641 202.165 102.673 202.711 100.972 199.007C101.291 198.975 101.663 198.686 101.948 198.505Z" fill="#683416"/>
<path d="M124.404 163.594C132.263 162.967 132.061 171.876 127.827 176.141C125.216 178.773 124.676 180.022 120.594 180.448C108.452 180.06 115.511 165.957 124.404 163.594Z" fill="#5A230A"/>
<path d="M125.282 165.03C131.427 165.268 129.806 172.741 126.745 175.782C124.19 178.32 123.355 178.715 119.88 178.902C110.89 178.719 117.177 165.972 125.282 165.03Z" fill="#B66139"/>
<path d="M159.846 182.54C169.062 182.849 166.732 196.461 157.214 198.234C147.028 198.272 150.587 184.169 159.846 182.54Z" fill="#2F311F"/>
<path d="M158.58 184.106C167.281 183.305 165.568 194.571 158.271 196.79C153.291 197.236 150.84 195.063 152.708 189.668C153.603 187.082 156.056 185.142 158.58 184.106Z" fill="#8D9B76"/>
</svg>
